G04 Layer_Color=8150272*
%FSLAX23Y23*%
%MOIN*%
G70*
G01*
G75*
%ADD17C,0.058*%
%ADD59R,0.065X0.069*%
%ADD60R,0.069X0.065*%
%ADD61R,0.071X0.071*%
%ADD62C,0.071*%
%ADD63R,0.066X0.066*%
%ADD64C,0.066*%
%ADD65C,0.106*%
%ADD66O,0.193X0.183*%
%ADD67O,0.183X0.208*%
%ADD68O,0.188X0.168*%
%ADD69O,0.205X0.126*%
%ADD70P,0.073X8X292.5*%
%ADD71R,0.073X0.073*%
%ADD72C,0.073*%
%ADD73C,0.068*%
%ADD74C,0.088*%
%ADD75R,0.073X0.073*%
%ADD76C,0.073*%
%ADD77C,0.188*%
%ADD78C,0.078*%
%ADD79R,0.078X0.078*%
%ADD80R,0.068X0.068*%
%ADD81R,0.073X0.073*%
%ADD82C,0.055*%
%ADD83C,0.128*%
%ADD84C,0.173*%
%ADD85C,0.258*%
%ADD86C,0.063*%
%ADD87C,0.042*%
D17*
X3420Y1040D02*
D03*
D59*
X5298Y1010D02*
D03*
X5372D02*
D03*
X1257Y1230D02*
D03*
X1183D02*
D03*
X3617Y5425D02*
D03*
X3543D02*
D03*
X1913Y5390D02*
D03*
X1987D02*
D03*
X2358Y5435D02*
D03*
X2432D02*
D03*
X3993Y2785D02*
D03*
X4067D02*
D03*
X3487Y1865D02*
D03*
X3413D02*
D03*
X3947Y5330D02*
D03*
X3873D02*
D03*
X3332Y5325D02*
D03*
X3258D02*
D03*
X3017Y2730D02*
D03*
X2943D02*
D03*
X2223Y4615D02*
D03*
X2297D02*
D03*
X4617Y5365D02*
D03*
X4543D02*
D03*
X1893Y3460D02*
D03*
X1967D02*
D03*
X4672Y1380D02*
D03*
X4598D02*
D03*
X4772Y1650D02*
D03*
X4698D02*
D03*
X4058Y3230D02*
D03*
X4132D02*
D03*
X4703Y2335D02*
D03*
X4777D02*
D03*
X3327Y2725D02*
D03*
X3253D02*
D03*
X2272Y2115D02*
D03*
X2198D02*
D03*
D60*
X2020Y5102D02*
D03*
Y5028D02*
D03*
X2560Y5193D02*
D03*
Y5267D02*
D03*
X3385Y5097D02*
D03*
Y5023D02*
D03*
X3025Y1167D02*
D03*
Y1093D02*
D03*
D61*
X1425Y1185D02*
D03*
D62*
X1525D02*
D03*
X1625D02*
D03*
X4840Y3140D02*
D03*
Y3040D02*
D03*
Y3400D02*
D03*
Y3500D02*
D03*
X5795Y3495D02*
D03*
X5895D02*
D03*
X4875Y3895D02*
D03*
X4975D02*
D03*
D63*
X1130Y1525D02*
D03*
D64*
X1268D02*
D03*
D65*
X1093Y2160D02*
D03*
Y1979D02*
D03*
D66*
X1240Y2770D02*
D03*
D67*
X1360Y2955D02*
D03*
D68*
X1120D02*
D03*
D69*
X1202Y3747D02*
D03*
Y3273D02*
D03*
D70*
X1309Y3461D02*
D03*
X1388D02*
D03*
Y3559D02*
D03*
X1309D02*
D03*
D71*
X1770Y1568D02*
D03*
X1635Y1922D02*
D03*
D72*
X1770Y1922D02*
D03*
X1635Y1568D02*
D03*
D73*
X3585Y2579D02*
D03*
X3585Y2185D02*
D03*
X5238Y5220D02*
D03*
X5592D02*
D03*
X4443Y5225D02*
D03*
X4797D02*
D03*
X4425Y2834D02*
D03*
X4425Y2440D02*
D03*
X4001Y2940D02*
D03*
X4395Y2940D02*
D03*
X4565Y2824D02*
D03*
X4565Y2430D02*
D03*
X4171Y2335D02*
D03*
X4565Y2335D02*
D03*
X5415Y2366D02*
D03*
X5415Y2760D02*
D03*
X5245Y2366D02*
D03*
X5245Y2760D02*
D03*
X5625Y2156D02*
D03*
X5625Y2550D02*
D03*
X5760Y2156D02*
D03*
X5760Y2550D02*
D03*
X5105Y2366D02*
D03*
X5105Y2760D02*
D03*
X4940Y2366D02*
D03*
X4940Y2760D02*
D03*
X3740Y2686D02*
D03*
X3475Y2579D02*
D03*
X3475Y2185D02*
D03*
X5560Y3141D02*
D03*
X5560Y3535D02*
D03*
X5006Y4580D02*
D03*
X5400Y4580D02*
D03*
X4390Y3594D02*
D03*
X4390Y3200D02*
D03*
X4531Y4580D02*
D03*
X4925Y4580D02*
D03*
X1885Y3161D02*
D03*
X1885Y3555D02*
D03*
X1406Y1390D02*
D03*
X1800Y1390D02*
D03*
X3881Y2785D02*
D03*
X4275Y2785D02*
D03*
X1490Y2074D02*
D03*
X1490Y1680D02*
D03*
X4260Y2548D02*
D03*
X4160D02*
D03*
X4060D02*
D03*
X5006Y2895D02*
D03*
X5400Y2895D02*
D03*
X5015Y1136D02*
D03*
X5015Y1530D02*
D03*
X5225Y1141D02*
D03*
X5225Y1535D02*
D03*
X5385Y1141D02*
D03*
X5385Y1535D02*
D03*
X4830Y1136D02*
D03*
X4830Y1530D02*
D03*
X5675Y2691D02*
D03*
X5675Y3085D02*
D03*
X5800Y3084D02*
D03*
X5800Y2690D02*
D03*
X4575Y1106D02*
D03*
X4575Y1500D02*
D03*
X4700Y1111D02*
D03*
X4700Y1505D02*
D03*
X3116Y1245D02*
D03*
X3510Y1245D02*
D03*
X3519Y1110D02*
D03*
X3125Y1110D02*
D03*
X5058Y3395D02*
D03*
X5412D02*
D03*
X5920Y3119D02*
D03*
X5920Y2725D02*
D03*
X6045Y3495D02*
D03*
Y3195D02*
D03*
X5101Y3895D02*
D03*
X5495Y3895D02*
D03*
X4939Y3745D02*
D03*
X4545Y3745D02*
D03*
D74*
X5317Y4964D02*
D03*
Y5476D02*
D03*
X5513Y4964D02*
D03*
Y5476D02*
D03*
X4522Y4969D02*
D03*
Y5481D02*
D03*
X4718Y4969D02*
D03*
Y5481D02*
D03*
X5137Y3139D02*
D03*
Y3651D02*
D03*
X5333Y3139D02*
D03*
Y3651D02*
D03*
D75*
X2255Y4300D02*
D03*
D76*
X2355D02*
D03*
X2455D02*
D03*
X2555D02*
D03*
X2655D02*
D03*
X2755D02*
D03*
X2855D02*
D03*
X2955D02*
D03*
X3055D02*
D03*
X3155D02*
D03*
X3255D02*
D03*
X3355D02*
D03*
Y4500D02*
D03*
X3255D02*
D03*
X3155D02*
D03*
X3055D02*
D03*
X2955D02*
D03*
X2855D02*
D03*
X2755D02*
D03*
X2655D02*
D03*
X2555D02*
D03*
X2455D02*
D03*
X2355D02*
D03*
X2255D02*
D03*
X3140Y2860D02*
D03*
X3040D02*
D03*
X2940D02*
D03*
X2840D02*
D03*
X2740D02*
D03*
X2640D02*
D03*
X2540D02*
D03*
X2440D02*
D03*
X2340D02*
D03*
X2240D02*
D03*
X2140D02*
D03*
X2040D02*
D03*
X1940D02*
D03*
Y2260D02*
D03*
X2040D02*
D03*
X2140D02*
D03*
X2240D02*
D03*
X2340D02*
D03*
X2440D02*
D03*
X2540D02*
D03*
X2640D02*
D03*
X2740D02*
D03*
X2840D02*
D03*
X2940D02*
D03*
X3040D02*
D03*
X3140D02*
D03*
X3240D02*
D03*
X2340Y3110D02*
D03*
X2440D02*
D03*
X2540D02*
D03*
X2640D02*
D03*
X2740D02*
D03*
X2840D02*
D03*
X2940D02*
D03*
X3040D02*
D03*
X3140D02*
D03*
X3240D02*
D03*
X3340D02*
D03*
X3440D02*
D03*
X3540D02*
D03*
X3640D02*
D03*
X3740D02*
D03*
X3840D02*
D03*
X3940D02*
D03*
X4040D02*
D03*
X4140D02*
D03*
Y3710D02*
D03*
X4040D02*
D03*
X3940D02*
D03*
X3840D02*
D03*
X3740D02*
D03*
X3640D02*
D03*
X3540D02*
D03*
X3440D02*
D03*
X3340D02*
D03*
X3240D02*
D03*
X3140D02*
D03*
X3040D02*
D03*
X2940D02*
D03*
X2840D02*
D03*
X2740D02*
D03*
X2640D02*
D03*
X2540D02*
D03*
X2440D02*
D03*
X2340D02*
D03*
X2240D02*
D03*
X4240Y1425D02*
D03*
X4140D02*
D03*
X4040D02*
D03*
X3940D02*
D03*
X3840D02*
D03*
X3740D02*
D03*
X3640D02*
D03*
X3540D02*
D03*
X3440D02*
D03*
X3340D02*
D03*
X3240D02*
D03*
X3140D02*
D03*
X3040D02*
D03*
X2940D02*
D03*
X2840D02*
D03*
X2740D02*
D03*
X2640D02*
D03*
X2540D02*
D03*
X2440D02*
D03*
X2340D02*
D03*
Y2025D02*
D03*
X2440D02*
D03*
X2540D02*
D03*
X2640D02*
D03*
X2740D02*
D03*
X2840D02*
D03*
X2940D02*
D03*
X3040D02*
D03*
X3140D02*
D03*
X3240D02*
D03*
X3340D02*
D03*
X3440D02*
D03*
X3540D02*
D03*
X3640D02*
D03*
X3740D02*
D03*
X3840D02*
D03*
X3940D02*
D03*
X4040D02*
D03*
X4140D02*
D03*
X5625Y1645D02*
D03*
Y1945D02*
D03*
X5525D02*
D03*
X5425D02*
D03*
X5325D02*
D03*
X5225D02*
D03*
X5125D02*
D03*
X5525Y1645D02*
D03*
X5425D02*
D03*
X5325D02*
D03*
X5225D02*
D03*
X5125D02*
D03*
X5025D02*
D03*
Y1945D02*
D03*
X4925D02*
D03*
D77*
X3109Y5268D02*
D03*
X4093D02*
D03*
X1749D02*
D03*
X2733D02*
D03*
D78*
X3709Y5213D02*
D03*
X3601D02*
D03*
X3493D02*
D03*
X3385D02*
D03*
X3439Y5325D02*
D03*
X3547D02*
D03*
X3655D02*
D03*
X3763D02*
D03*
X2349Y5213D02*
D03*
X2241D02*
D03*
X2133D02*
D03*
X2025D02*
D03*
X2079Y5325D02*
D03*
X2187D02*
D03*
X2295D02*
D03*
X2403D02*
D03*
D79*
X3817Y5213D02*
D03*
X2457D02*
D03*
D80*
X3740Y2494D02*
D03*
D81*
X3240Y2860D02*
D03*
X2240Y3110D02*
D03*
X4240Y2025D02*
D03*
X4925Y1645D02*
D03*
D82*
X1960Y1575D02*
D03*
X1960Y1675D02*
D03*
Y1775D02*
D03*
D83*
X3970Y1262D02*
D03*
X5690D02*
D03*
D84*
X3970Y1085D02*
D03*
X5690D02*
D03*
D85*
X1150Y1030D02*
D03*
Y5490D02*
D03*
X6200Y1030D02*
D03*
Y5490D02*
D03*
D86*
X5950Y1575D02*
D03*
Y1675D02*
D03*
Y1475D02*
D03*
D87*
X5005Y3140D02*
D03*
X5215Y3495D02*
D03*
X3940Y4490D02*
D03*
X3840Y4570D02*
D03*
X4425Y1985D02*
D03*
X4735Y2425D02*
D03*
X5950Y1265D02*
D03*
X5485Y1520D02*
D03*
X3840Y1580D02*
D03*
X1860Y1295D02*
D03*
X1995Y1255D02*
D03*
X1755Y2910D02*
D03*
X3340Y1865D02*
D03*
X1760Y2980D02*
D03*
X1815Y3235D02*
D03*
X1790Y3030D02*
D03*
X3585Y2480D02*
D03*
X4705Y3475D02*
D03*
X4645Y3430D02*
D03*
X4605Y3385D02*
D03*
X4455Y3375D02*
D03*
X4105Y2150D02*
D03*
X5055Y2260D02*
D03*
X5110Y2205D02*
D03*
X5420Y2170D02*
D03*
X5250Y2115D02*
D03*
X4040Y1930D02*
D03*
X3185Y3350D02*
D03*
X2315Y3305D02*
D03*
X3940Y2330D02*
D03*
X3640Y1690D02*
D03*
X2240Y1840D02*
D03*
X3425Y1615D02*
D03*
X2890Y1800D02*
D03*
X3340Y1620D02*
D03*
X2790Y1760D02*
D03*
X3240Y1645D02*
D03*
X2690Y1735D02*
D03*
X3140Y1645D02*
D03*
X2590Y1685D02*
D03*
X3535Y1550D02*
D03*
X2435Y1645D02*
D03*
X2745Y1605D02*
D03*
X2495Y1580D02*
D03*
X2390Y1555D02*
D03*
X2840Y1580D02*
D03*
X3190Y1570D02*
D03*
X2990Y1535D02*
D03*
X1950Y3625D02*
D03*
X2180Y3855D02*
D03*
X2840Y3580D02*
D03*
X2740Y3540D02*
D03*
X2600Y3520D02*
D03*
X2490Y3495D02*
D03*
X2390Y3475D02*
D03*
X2130Y2340D02*
D03*
X2245Y3420D02*
D03*
X2145Y3450D02*
D03*
X2990Y3790D02*
D03*
X3090Y1930D02*
D03*
X2535Y1185D02*
D03*
X2185Y1430D02*
D03*
X2105Y1185D02*
D03*
X2070Y2020D02*
D03*
X2095Y2120D02*
D03*
X1185Y1335D02*
D03*
X1090Y1225D02*
D03*
X1575Y3165D02*
D03*
Y2730D02*
D03*
X4140Y2945D02*
D03*
X2535Y1000D02*
D03*
X3115Y2730D02*
D03*
X3400Y2725D02*
D03*
X3970Y3230D02*
D03*
X1895Y3370D02*
D03*
X2110Y5020D02*
D03*
X1835Y5455D02*
D03*
X2520Y5440D02*
D03*
X2630Y5110D02*
D03*
X3385Y4945D02*
D03*
X3240Y5415D02*
D03*
X3470Y5425D02*
D03*
X3950Y5245D02*
D03*
X4705Y5365D02*
D03*
X1635Y1390D02*
D03*
X1775Y995D02*
D03*
X5215Y1010D02*
D03*
X4625Y1650D02*
D03*
X3630Y2850D02*
D03*
X4150Y2780D02*
D03*
X5305Y2965D02*
D03*
X4300Y2945D02*
D03*
X5415Y2550D02*
D03*
X4050Y5050D02*
D03*
X5430D02*
D03*
X2780Y5090D02*
D03*
X5670Y4780D02*
D03*
X2910Y5520D02*
D03*
Y4655D02*
D03*
X4925Y1400D02*
D03*
X5825D02*
D03*
M02*
