G04 Layer_Color=15132400*
%FSLAX23Y23*%
%MOIN*%
G70*
G01*
G75*
%ADD12C,0.010*%
%ADD42C,0.010*%
%ADD43C,0.008*%
%ADD44C,0.008*%
%ADD45C,0.024*%
%ADD46C,0.030*%
%ADD47C,0.007*%
%ADD48R,0.093X0.026*%
%ADD49R,0.035X0.030*%
%ADD50R,0.035X0.040*%
%ADD51R,0.135X0.090*%
%ADD52R,0.030X0.062*%
%ADD53R,0.252X0.139*%
%ADD54R,0.119X0.038*%
%ADD55R,0.088X0.046*%
%ADD56R,0.200X0.083*%
%ADD57R,0.038X0.059*%
%ADD58R,0.020X0.056*%
G36*
X4559Y4441D02*
X4559D01*
X4560Y4441D01*
X4562Y4440D01*
X4562Y4440D01*
X4563Y4439D01*
X4564Y4439D01*
X4564Y4439D01*
X4565Y4438D01*
X4566Y4438D01*
X4567Y4437D01*
X4567Y4437D01*
X4568Y4436D01*
X4569Y4436D01*
X4569Y4435D01*
X4571Y4433D01*
X4571Y4432D01*
X4572Y4431D01*
Y4430D01*
Y4430D01*
X4572Y4429D01*
Y4427D01*
Y4426D01*
X4572Y4423D01*
Y4421D01*
Y4418D01*
Y4418D01*
Y4417D01*
X4572Y4416D01*
Y4414D01*
X4572Y4412D01*
X4571Y4409D01*
X4570Y4405D01*
X4569Y4401D01*
Y4401D01*
X4569Y4400D01*
X4569Y4398D01*
X4568Y4395D01*
X4567Y4393D01*
X4567Y4390D01*
X4567Y4388D01*
Y4387D01*
Y4386D01*
Y4386D01*
X4567Y4385D01*
Y4384D01*
Y4384D01*
Y4382D01*
Y4382D01*
Y4381D01*
Y4380D01*
X4567Y4378D01*
X4566Y4376D01*
X4566Y4374D01*
X4565Y4371D01*
X4565Y4366D01*
Y4366D01*
X4564Y4364D01*
X4564Y4363D01*
X4564Y4360D01*
X4563Y4355D01*
X4562Y4352D01*
Y4350D01*
Y4350D01*
X4563Y4350D01*
X4563Y4349D01*
X4564Y4349D01*
X4564Y4348D01*
X4565Y4348D01*
X4565Y4346D01*
X4566Y4344D01*
Y4344D01*
Y4344D01*
Y4342D01*
Y4340D01*
X4565Y4337D01*
Y4337D01*
Y4337D01*
X4565Y4335D01*
X4564Y4333D01*
X4564Y4330D01*
Y4329D01*
X4563Y4329D01*
X4563Y4328D01*
X4562Y4325D01*
X4562Y4323D01*
Y4323D01*
X4562Y4322D01*
X4561Y4320D01*
X4561Y4318D01*
X4560Y4316D01*
Y4315D01*
Y4315D01*
X4560Y4313D01*
X4559Y4311D01*
X4559Y4308D01*
Y4308D01*
X4558Y4308D01*
X4558Y4306D01*
X4558Y4304D01*
X4557Y4301D01*
Y4300D01*
X4557Y4300D01*
X4557Y4299D01*
X4556Y4296D01*
X4555Y4294D01*
Y4294D01*
X4555Y4293D01*
X4554Y4292D01*
X4552Y4289D01*
X4551Y4285D01*
X4551Y4284D01*
X4550Y4284D01*
X4550Y4282D01*
X4549Y4281D01*
X4549Y4280D01*
X4549Y4279D01*
X4548Y4278D01*
X4547Y4276D01*
X4547Y4276D01*
X4546Y4275D01*
X4545Y4273D01*
X4544Y4272D01*
X4544Y4272D01*
X4543Y4271D01*
X4541Y4270D01*
X4539Y4269D01*
X4539Y4269D01*
X4538Y4268D01*
X4536Y4268D01*
X4535Y4267D01*
X4535D01*
X4534Y4267D01*
X4533Y4267D01*
X4531D01*
X4530Y4267D01*
X4527Y4268D01*
X4526Y4269D01*
X4526Y4270D01*
X4525Y4271D01*
X4524Y4272D01*
X4523Y4275D01*
X4523Y4278D01*
Y4279D01*
Y4279D01*
Y4280D01*
X4523Y4282D01*
Y4282D01*
X4524Y4283D01*
X4524Y4285D01*
X4525Y4287D01*
Y4287D01*
X4525Y4288D01*
X4525Y4289D01*
X4526Y4291D01*
Y4291D01*
X4526Y4292D01*
X4526Y4293D01*
Y4294D01*
Y4295D01*
Y4296D01*
X4526Y4299D01*
Y4299D01*
X4527Y4300D01*
Y4301D01*
X4527Y4303D01*
Y4303D01*
X4528Y4304D01*
X4528Y4305D01*
X4529Y4306D01*
Y4307D01*
Y4307D01*
X4529Y4308D01*
X4529Y4309D01*
X4530Y4312D01*
X4530Y4315D01*
Y4316D01*
Y4317D01*
X4531Y4319D01*
Y4320D01*
Y4320D01*
Y4321D01*
Y4322D01*
X4531Y4324D01*
X4531Y4326D01*
X4532Y4328D01*
X4533Y4333D01*
Y4333D01*
X4533Y4334D01*
X4534Y4336D01*
X4534Y4337D01*
X4535Y4341D01*
X4536Y4342D01*
Y4344D01*
Y4344D01*
Y4345D01*
X4536Y4347D01*
X4536Y4349D01*
Y4349D01*
X4537Y4350D01*
X4537Y4352D01*
X4538Y4355D01*
Y4355D01*
X4538Y4356D01*
X4539Y4357D01*
X4539Y4358D01*
X4540Y4361D01*
X4540Y4363D01*
Y4364D01*
X4541Y4364D01*
X4541Y4366D01*
Y4366D01*
Y4366D01*
X4541Y4367D01*
Y4369D01*
X4542Y4370D01*
Y4370D01*
X4542Y4371D01*
X4542Y4374D01*
X4543Y4376D01*
Y4377D01*
X4543Y4378D01*
X4544Y4380D01*
X4544Y4383D01*
X4545Y4386D01*
X4545Y4390D01*
X4546Y4393D01*
X4547Y4397D01*
Y4397D01*
X4547Y4398D01*
Y4400D01*
X4547Y4401D01*
X4548Y4405D01*
X4548Y4407D01*
Y4409D01*
Y4410D01*
Y4411D01*
Y4413D01*
X4548Y4414D01*
X4547Y4414D01*
Y4415D01*
Y4415D01*
X4545D01*
X4543Y4415D01*
X4540D01*
X4538Y4414D01*
X4533Y4413D01*
X4532D01*
X4531Y4413D01*
X4530Y4413D01*
X4528Y4412D01*
X4526Y4412D01*
X4523Y4411D01*
X4517Y4409D01*
X4516D01*
X4516Y4408D01*
X4515Y4408D01*
X4515D01*
X4515Y4408D01*
X4514D01*
X4514Y4407D01*
X4514Y4407D01*
X4513Y4406D01*
X4512Y4405D01*
X4512Y4405D01*
X4511Y4404D01*
X4510Y4404D01*
X4509Y4403D01*
X4509Y4403D01*
X4509Y4403D01*
X4507Y4401D01*
X4505Y4400D01*
X4505Y4401D01*
X4504Y4402D01*
X4503Y4404D01*
X4502Y4407D01*
X4500Y4409D01*
X4499Y4411D01*
X4499Y4413D01*
X4498Y4414D01*
X4499Y4415D01*
X4499Y4416D01*
X4501Y4417D01*
X4502Y4419D01*
X4502Y4419D01*
X4502Y4420D01*
X4503Y4422D01*
X4505Y4424D01*
X4505Y4424D01*
X4506Y4426D01*
X4507Y4427D01*
X4509Y4428D01*
X4509Y4429D01*
X4511Y4429D01*
X4513Y4430D01*
X4515Y4431D01*
X4515D01*
X4516Y4432D01*
X4518Y4432D01*
X4520Y4433D01*
X4523Y4434D01*
X4523Y4435D01*
X4525Y4435D01*
X4527Y4436D01*
X4529Y4437D01*
X4530D01*
X4530Y4438D01*
X4532Y4438D01*
X4534Y4439D01*
X4537Y4440D01*
X4538D01*
X4540Y4440D01*
X4542Y4440D01*
X4545Y4441D01*
X4545D01*
X4547Y4441D01*
X4548Y4441D01*
X4550Y4441D01*
X4552D01*
X4553Y4442D01*
X4556D01*
X4559Y4441D01*
D02*
G37*
G36*
X4355Y4191D02*
X4355D01*
X4356Y4191D01*
X4357Y4191D01*
X4358Y4190D01*
X4358D01*
X4359Y4189D01*
X4360Y4189D01*
X4361Y4188D01*
X4365Y4186D01*
X4368Y4184D01*
X4368Y4184D01*
X4368Y4184D01*
X4370Y4182D01*
X4372Y4180D01*
X4374Y4178D01*
Y4177D01*
X4374Y4177D01*
X4375Y4176D01*
X4376Y4173D01*
X4378Y4170D01*
Y4170D01*
X4378Y4169D01*
X4378Y4168D01*
X4379Y4167D01*
X4379Y4165D01*
X4380Y4163D01*
X4381Y4159D01*
Y4159D01*
X4381Y4158D01*
X4382Y4157D01*
X4382Y4155D01*
X4382Y4152D01*
X4383Y4148D01*
Y4147D01*
Y4147D01*
Y4146D01*
Y4144D01*
Y4141D01*
X4383Y4138D01*
X4383Y4138D01*
X4384Y4137D01*
Y4136D01*
Y4136D01*
X4384Y4134D01*
Y4133D01*
X4384Y4132D01*
Y4131D01*
X4383Y4129D01*
Y4128D01*
Y4128D01*
Y4127D01*
Y4125D01*
Y4125D01*
X4383Y4123D01*
Y4121D01*
Y4118D01*
Y4118D01*
Y4116D01*
Y4115D01*
X4383Y4112D01*
Y4110D01*
X4382Y4107D01*
X4382Y4100D01*
Y4100D01*
X4381Y4099D01*
X4381Y4097D01*
X4380Y4094D01*
X4380Y4092D01*
X4379Y4088D01*
X4377Y4081D01*
X4377Y4081D01*
X4377Y4080D01*
X4376Y4078D01*
X4375Y4076D01*
Y4076D01*
X4375Y4075D01*
X4375Y4074D01*
X4374Y4071D01*
X4373Y4068D01*
X4373Y4067D01*
X4372Y4066D01*
X4372Y4064D01*
X4371Y4061D01*
Y4061D01*
X4370Y4061D01*
X4370Y4060D01*
X4370Y4058D01*
X4369Y4056D01*
X4368Y4052D01*
Y4052D01*
Y4051D01*
X4367Y4051D01*
X4367Y4049D01*
X4367Y4049D01*
X4367Y4047D01*
X4366Y4046D01*
X4365Y4043D01*
X4365Y4043D01*
X4364Y4042D01*
X4364Y4041D01*
X4363Y4039D01*
X4363Y4039D01*
X4362Y4037D01*
X4361Y4036D01*
X4360Y4034D01*
X4360Y4033D01*
X4359Y4032D01*
X4358Y4030D01*
X4356Y4029D01*
X4356Y4029D01*
X4355Y4028D01*
X4353Y4027D01*
X4350Y4027D01*
X4350D01*
X4349Y4027D01*
X4347Y4028D01*
X4346Y4029D01*
X4346Y4029D01*
X4345Y4029D01*
X4345Y4031D01*
X4344Y4032D01*
Y4032D01*
Y4033D01*
X4345Y4034D01*
X4344Y4033D01*
X4344Y4033D01*
X4343Y4032D01*
X4342Y4031D01*
X4341Y4030D01*
X4337Y4027D01*
X4335Y4025D01*
X4332Y4024D01*
X4332Y4023D01*
X4331Y4023D01*
X4330Y4022D01*
X4328Y4022D01*
X4326Y4021D01*
X4324Y4021D01*
X4322Y4020D01*
X4319D01*
X4317Y4021D01*
X4315Y4021D01*
X4312Y4023D01*
X4312D01*
X4312Y4023D01*
X4310Y4024D01*
X4307Y4026D01*
X4305Y4028D01*
X4304Y4028D01*
X4303Y4029D01*
X4302Y4030D01*
X4301Y4031D01*
X4299Y4033D01*
X4297Y4035D01*
X4294Y4040D01*
X4294Y4041D01*
X4293Y4042D01*
X4292Y4043D01*
X4292Y4045D01*
X4291Y4047D01*
X4290Y4049D01*
X4288Y4055D01*
Y4055D01*
Y4056D01*
Y4056D01*
X4288Y4058D01*
Y4059D01*
X4288Y4061D01*
Y4064D01*
X4288Y4067D01*
Y4067D01*
Y4068D01*
X4287Y4070D01*
Y4072D01*
Y4075D01*
X4287Y4078D01*
Y4082D01*
Y4086D01*
Y4087D01*
Y4087D01*
Y4089D01*
X4287Y4090D01*
X4288Y4093D01*
X4288Y4095D01*
X4288Y4099D01*
X4289Y4102D01*
Y4103D01*
X4289Y4104D01*
X4290Y4107D01*
X4290Y4109D01*
X4291Y4113D01*
X4292Y4118D01*
X4293Y4123D01*
X4294Y4128D01*
Y4128D01*
X4295Y4129D01*
X4295Y4131D01*
X4296Y4132D01*
Y4133D01*
X4297Y4133D01*
X4297Y4135D01*
X4298Y4137D01*
Y4137D01*
Y4138D01*
X4298Y4140D01*
X4299Y4141D01*
X4299Y4142D01*
X4300Y4143D01*
X4300Y4145D01*
X4302Y4148D01*
Y4148D01*
X4302Y4149D01*
X4303Y4150D01*
X4304Y4152D01*
X4306Y4156D01*
X4308Y4161D01*
Y4161D01*
X4309Y4162D01*
X4309Y4163D01*
X4310Y4164D01*
X4312Y4167D01*
X4313Y4170D01*
X4314Y4170D01*
X4314Y4171D01*
X4315Y4172D01*
X4316Y4174D01*
X4318Y4177D01*
X4322Y4181D01*
X4322Y4181D01*
X4323Y4182D01*
X4324Y4182D01*
X4325Y4183D01*
X4328Y4186D01*
X4333Y4189D01*
X4333Y4189D01*
X4334Y4189D01*
X4336Y4190D01*
X4338Y4191D01*
X4338D01*
X4339Y4191D01*
X4340Y4191D01*
X4342Y4192D01*
X4348D01*
X4348Y4191D01*
X4351D01*
X4353Y4192D01*
X4353D01*
X4355Y4191D01*
D02*
G37*
G36*
X4244D02*
X4244D01*
X4245Y4191D01*
X4246Y4191D01*
X4247Y4190D01*
X4247D01*
X4248Y4189D01*
X4249Y4189D01*
X4250Y4188D01*
X4254Y4186D01*
X4257Y4184D01*
X4257Y4184D01*
X4257Y4184D01*
X4259Y4182D01*
X4261Y4180D01*
X4263Y4178D01*
Y4177D01*
X4263Y4177D01*
X4264Y4176D01*
X4265Y4173D01*
X4267Y4170D01*
Y4170D01*
X4267Y4169D01*
X4267Y4168D01*
X4268Y4167D01*
X4268Y4165D01*
X4269Y4163D01*
X4270Y4159D01*
Y4159D01*
X4270Y4158D01*
X4271Y4157D01*
X4271Y4155D01*
X4271Y4152D01*
X4272Y4148D01*
Y4147D01*
Y4147D01*
Y4146D01*
Y4144D01*
Y4141D01*
X4272Y4138D01*
X4272Y4138D01*
X4273Y4137D01*
Y4136D01*
Y4136D01*
X4273Y4134D01*
Y4133D01*
X4273Y4132D01*
Y4131D01*
X4272Y4129D01*
Y4128D01*
Y4128D01*
Y4127D01*
Y4125D01*
Y4125D01*
X4272Y4123D01*
Y4121D01*
Y4118D01*
Y4118D01*
Y4116D01*
Y4115D01*
X4272Y4112D01*
Y4110D01*
X4271Y4107D01*
X4271Y4100D01*
Y4100D01*
X4270Y4099D01*
X4270Y4097D01*
X4269Y4094D01*
X4269Y4092D01*
X4268Y4088D01*
X4266Y4081D01*
X4266Y4081D01*
X4266Y4080D01*
X4265Y4078D01*
X4264Y4076D01*
Y4076D01*
X4264Y4075D01*
X4264Y4074D01*
X4263Y4071D01*
X4262Y4068D01*
X4262Y4067D01*
X4261Y4066D01*
X4261Y4064D01*
X4260Y4061D01*
Y4061D01*
X4259Y4061D01*
X4259Y4060D01*
X4259Y4058D01*
X4258Y4056D01*
X4257Y4052D01*
Y4052D01*
Y4051D01*
X4256Y4051D01*
X4256Y4049D01*
X4256Y4049D01*
X4256Y4047D01*
X4255Y4046D01*
X4254Y4043D01*
X4254Y4043D01*
X4253Y4042D01*
X4253Y4041D01*
X4252Y4039D01*
X4252Y4039D01*
X4251Y4037D01*
X4250Y4036D01*
X4249Y4034D01*
X4249Y4033D01*
X4248Y4032D01*
X4247Y4030D01*
X4245Y4029D01*
X4245Y4029D01*
X4244Y4028D01*
X4242Y4027D01*
X4239Y4027D01*
X4239D01*
X4238Y4027D01*
X4236Y4028D01*
X4235Y4029D01*
X4235Y4029D01*
X4234Y4029D01*
X4234Y4031D01*
X4233Y4032D01*
Y4032D01*
Y4033D01*
X4234Y4034D01*
X4233Y4033D01*
X4233Y4033D01*
X4232Y4032D01*
X4231Y4031D01*
X4230Y4030D01*
X4226Y4027D01*
X4224Y4025D01*
X4221Y4024D01*
X4221Y4023D01*
X4220Y4023D01*
X4219Y4022D01*
X4217Y4022D01*
X4215Y4021D01*
X4213Y4021D01*
X4211Y4020D01*
X4208D01*
X4206Y4021D01*
X4204Y4021D01*
X4201Y4023D01*
X4201D01*
X4201Y4023D01*
X4199Y4024D01*
X4196Y4026D01*
X4193Y4028D01*
X4193Y4028D01*
X4192Y4029D01*
X4191Y4030D01*
X4190Y4031D01*
X4188Y4033D01*
X4186Y4035D01*
X4183Y4040D01*
X4183Y4041D01*
X4182Y4042D01*
X4181Y4043D01*
X4181Y4045D01*
X4180Y4047D01*
X4179Y4049D01*
X4177Y4055D01*
Y4055D01*
Y4056D01*
Y4056D01*
X4177Y4058D01*
Y4059D01*
X4177Y4061D01*
Y4064D01*
X4177Y4067D01*
Y4067D01*
Y4068D01*
X4176Y4070D01*
Y4072D01*
Y4075D01*
X4176Y4078D01*
Y4082D01*
Y4086D01*
Y4087D01*
Y4087D01*
Y4089D01*
X4176Y4090D01*
X4177Y4093D01*
X4177Y4095D01*
X4177Y4099D01*
X4178Y4102D01*
Y4103D01*
X4178Y4104D01*
X4179Y4107D01*
X4179Y4109D01*
X4180Y4113D01*
X4181Y4118D01*
X4182Y4123D01*
X4183Y4128D01*
Y4128D01*
X4184Y4129D01*
X4184Y4131D01*
X4185Y4132D01*
Y4133D01*
X4186Y4133D01*
X4186Y4135D01*
X4187Y4137D01*
Y4137D01*
Y4138D01*
X4187Y4140D01*
X4188Y4141D01*
X4188Y4142D01*
X4189Y4143D01*
X4189Y4145D01*
X4191Y4148D01*
Y4148D01*
X4191Y4149D01*
X4192Y4150D01*
X4193Y4152D01*
X4195Y4156D01*
X4197Y4161D01*
Y4161D01*
X4198Y4162D01*
X4198Y4163D01*
X4199Y4164D01*
X4201Y4167D01*
X4202Y4170D01*
X4203Y4170D01*
X4203Y4171D01*
X4204Y4172D01*
X4205Y4174D01*
X4207Y4177D01*
X4211Y4181D01*
X4211Y4181D01*
X4212Y4182D01*
X4213Y4182D01*
X4214Y4183D01*
X4217Y4186D01*
X4222Y4189D01*
X4222Y4189D01*
X4223Y4189D01*
X4225Y4190D01*
X4227Y4191D01*
X4227D01*
X4228Y4191D01*
X4229Y4191D01*
X4231Y4192D01*
X4237D01*
X4237Y4191D01*
X4240D01*
X4242Y4192D01*
X4242D01*
X4244Y4191D01*
D02*
G37*
G36*
X4466Y4439D02*
X4470Y4439D01*
X4470D01*
X4470Y4438D01*
X4472Y4438D01*
X4475Y4437D01*
X4477Y4436D01*
X4477Y4435D01*
X4477Y4435D01*
X4479Y4434D01*
X4479Y4433D01*
X4480Y4433D01*
X4481Y4432D01*
X4482Y4430D01*
X4483Y4430D01*
X4484Y4429D01*
X4485Y4427D01*
X4487Y4424D01*
Y4424D01*
X4487Y4424D01*
X4487Y4423D01*
X4488Y4422D01*
X4488Y4420D01*
X4489Y4418D01*
X4490Y4414D01*
Y4413D01*
X4490Y4413D01*
Y4412D01*
X4490Y4410D01*
X4491Y4407D01*
X4492Y4404D01*
Y4404D01*
Y4403D01*
Y4402D01*
Y4401D01*
X4492Y4398D01*
Y4395D01*
Y4395D01*
Y4394D01*
X4492Y4393D01*
X4491Y4391D01*
Y4391D01*
X4491Y4390D01*
Y4388D01*
Y4387D01*
Y4387D01*
Y4386D01*
Y4384D01*
X4491Y4383D01*
Y4382D01*
X4491Y4381D01*
X4491Y4378D01*
X4490Y4375D01*
Y4375D01*
X4490Y4374D01*
X4490Y4374D01*
X4497Y4360D01*
Y4360D01*
Y4359D01*
X4497Y4357D01*
X4496Y4356D01*
X4496Y4355D01*
X4495Y4354D01*
X4494Y4352D01*
X4493Y4351D01*
Y4350D01*
X4493Y4350D01*
X4492Y4349D01*
X4491Y4347D01*
X4490Y4345D01*
X4489Y4345D01*
X4489Y4344D01*
X4489Y4343D01*
X4488Y4343D01*
X4488Y4342D01*
X4487Y4341D01*
X4487Y4340D01*
X4486Y4339D01*
X4486Y4338D01*
X4485Y4336D01*
X4484Y4334D01*
X4484Y4333D01*
X4483Y4333D01*
X4482Y4331D01*
X4482Y4330D01*
X4482Y4329D01*
Y4328D01*
X4481Y4328D01*
X4481Y4327D01*
X4481Y4326D01*
X4480Y4324D01*
X4480Y4322D01*
X4479Y4320D01*
X4478Y4317D01*
X4478Y4317D01*
X4477Y4316D01*
X4477Y4315D01*
X4476Y4313D01*
X4476Y4312D01*
X4475Y4311D01*
X4475Y4309D01*
X4474Y4307D01*
Y4306D01*
X4473Y4305D01*
X4473Y4303D01*
X4472Y4300D01*
Y4300D01*
X4472Y4300D01*
X4471Y4298D01*
X4470Y4295D01*
X4468Y4292D01*
Y4292D01*
X4468Y4291D01*
X4468Y4290D01*
X4467Y4289D01*
X4465Y4287D01*
X4463Y4283D01*
X4463Y4283D01*
X4462Y4282D01*
X4462Y4282D01*
X4461Y4281D01*
X4459Y4279D01*
X4457Y4278D01*
X4455Y4277D01*
X4453Y4276D01*
X4453D01*
X4452Y4277D01*
X4451Y4277D01*
X4449Y4279D01*
X4448Y4280D01*
X4448Y4280D01*
X4447Y4281D01*
X4447Y4282D01*
X4446Y4284D01*
Y4284D01*
Y4284D01*
X4447Y4286D01*
X4448Y4289D01*
X4449Y4292D01*
Y4292D01*
X4449Y4293D01*
X4450Y4294D01*
X4450Y4294D01*
X4448Y4292D01*
X4446Y4289D01*
X4445Y4289D01*
X4445Y4289D01*
X4443Y4287D01*
X4441Y4285D01*
X4439Y4284D01*
X4438Y4283D01*
X4437Y4282D01*
X4435Y4282D01*
X4433Y4281D01*
X4433D01*
X4432Y4281D01*
X4431Y4280D01*
X4429Y4280D01*
X4429D01*
X4428Y4279D01*
X4426Y4279D01*
X4424Y4278D01*
X4424D01*
X4424Y4278D01*
X4422Y4277D01*
X4422Y4277D01*
X4422Y4277D01*
X4420Y4276D01*
X4419Y4275D01*
X4415Y4276D01*
X4415Y4276D01*
X4414Y4276D01*
X4412Y4277D01*
X4410Y4278D01*
X4409D01*
X4407Y4278D01*
X4405Y4279D01*
X4404Y4279D01*
X4403Y4279D01*
X4403Y4280D01*
X4400Y4282D01*
X4400Y4282D01*
X4399Y4282D01*
X4398Y4283D01*
X4397Y4284D01*
X4396D01*
X4396Y4285D01*
X4395Y4285D01*
X4394Y4286D01*
X4391Y4289D01*
X4388Y4293D01*
X4387Y4293D01*
X4387Y4294D01*
X4386Y4295D01*
X4385Y4297D01*
X4384Y4299D01*
X4383Y4301D01*
X4381Y4304D01*
X4380Y4307D01*
X4380Y4307D01*
X4379Y4308D01*
X4379Y4310D01*
X4378Y4312D01*
X4377Y4314D01*
X4376Y4316D01*
X4375Y4322D01*
Y4322D01*
X4375Y4323D01*
X4374Y4324D01*
X4374Y4326D01*
X4374Y4328D01*
X4374Y4330D01*
X4373Y4335D01*
Y4335D01*
Y4336D01*
Y4337D01*
Y4338D01*
X4374Y4340D01*
Y4342D01*
X4374Y4347D01*
X4374Y4352D01*
X4376Y4358D01*
X4377Y4364D01*
X4378Y4370D01*
Y4370D01*
X4379Y4370D01*
X4379Y4372D01*
X4381Y4375D01*
X4382Y4378D01*
X4384Y4382D01*
X4387Y4386D01*
X4390Y4391D01*
X4394Y4394D01*
Y4395D01*
X4395Y4395D01*
X4396Y4396D01*
X4396Y4397D01*
X4397Y4397D01*
X4398Y4398D01*
X4399Y4399D01*
Y4400D01*
Y4400D01*
X4399Y4401D01*
X4400Y4402D01*
X4401Y4403D01*
X4401Y4404D01*
X4402Y4405D01*
X4403Y4406D01*
X4404Y4407D01*
X4405D01*
X4405Y4407D01*
X4407Y4408D01*
X4408Y4409D01*
X4409Y4410D01*
X4411Y4412D01*
X4413Y4414D01*
X4413Y4414D01*
X4414Y4415D01*
X4415Y4416D01*
X4416Y4417D01*
X4419Y4420D01*
X4422Y4423D01*
X4423Y4423D01*
X4423Y4424D01*
X4424Y4425D01*
X4426Y4426D01*
X4430Y4429D01*
X4434Y4432D01*
X4434D01*
X4435Y4432D01*
X4436Y4432D01*
X4437Y4433D01*
X4441Y4434D01*
X4444Y4436D01*
X4444Y4436D01*
X4446Y4436D01*
X4447Y4438D01*
X4450Y4439D01*
X4451D01*
X4452Y4439D01*
X4455Y4439D01*
X4458Y4439D01*
X4462D01*
X4466Y4439D01*
D02*
G37*
G36*
X4808Y4451D02*
X4810Y4451D01*
X4812Y4451D01*
X4812Y4450D01*
X4813Y4450D01*
X4815Y4449D01*
X4817Y4447D01*
X4818Y4447D01*
X4819Y4446D01*
X4821Y4445D01*
X4821D01*
X4822Y4445D01*
X4823Y4444D01*
X4824Y4444D01*
X4826Y4443D01*
X4829Y4441D01*
X4832Y4440D01*
X4836Y4439D01*
X4837D01*
X4837Y4438D01*
X4838Y4438D01*
X4839Y4437D01*
X4842Y4436D01*
X4845Y4434D01*
X4845D01*
X4846Y4434D01*
X4848Y4432D01*
X4850Y4430D01*
X4853Y4428D01*
X4853Y4428D01*
X4854Y4427D01*
X4856Y4426D01*
X4858Y4424D01*
X4859Y4424D01*
X4860Y4423D01*
X4862Y4422D01*
X4865Y4420D01*
X4865D01*
X4866Y4419D01*
X4867Y4419D01*
X4868Y4418D01*
X4870Y4417D01*
X4873Y4415D01*
X4873Y4415D01*
X4875Y4414D01*
X4876Y4412D01*
X4878Y4411D01*
X4878Y4411D01*
X4879Y4410D01*
X4880Y4410D01*
X4882Y4408D01*
X4885Y4406D01*
X4888Y4404D01*
X4889Y4403D01*
X4890Y4402D01*
X4891Y4401D01*
X4891Y4401D01*
Y4401D01*
Y4402D01*
Y4403D01*
Y4403D01*
X4891Y4404D01*
X4892Y4405D01*
X4892Y4407D01*
X4893Y4409D01*
X4893Y4411D01*
X4894Y4416D01*
Y4416D01*
X4895Y4417D01*
X4895Y4419D01*
X4895Y4421D01*
X4896Y4424D01*
X4896Y4427D01*
X4897Y4432D01*
X4898Y4436D01*
Y4436D01*
X4898Y4437D01*
X4898Y4439D01*
X4899Y4440D01*
X4899Y4441D01*
X4900Y4441D01*
X4901Y4442D01*
X4903Y4442D01*
X4904D01*
X4905Y4442D01*
X4906D01*
X4909Y4441D01*
X4912Y4439D01*
X4912Y4439D01*
X4913Y4437D01*
X4914Y4435D01*
X4915Y4431D01*
Y4431D01*
Y4430D01*
Y4429D01*
Y4427D01*
X4915Y4425D01*
Y4423D01*
X4914Y4418D01*
Y4417D01*
X4914Y4417D01*
Y4415D01*
X4913Y4413D01*
X4913Y4411D01*
X4912Y4409D01*
X4911Y4403D01*
Y4403D01*
X4911Y4402D01*
X4911Y4400D01*
X4910Y4398D01*
Y4398D01*
X4910Y4397D01*
Y4395D01*
Y4394D01*
Y4394D01*
Y4393D01*
X4910Y4393D01*
X4911Y4391D01*
X4911Y4390D01*
X4912Y4389D01*
X4913Y4387D01*
X4915Y4386D01*
X4915Y4386D01*
X4915Y4385D01*
X4917Y4383D01*
X4919Y4381D01*
X4919Y4380D01*
X4919Y4379D01*
Y4378D01*
Y4377D01*
X4919Y4376D01*
X4919Y4374D01*
X4918Y4373D01*
X4918Y4372D01*
X4917Y4371D01*
X4915Y4369D01*
X4915D01*
X4914Y4369D01*
X4912Y4368D01*
X4910Y4366D01*
X4908Y4365D01*
Y4364D01*
X4908Y4364D01*
Y4363D01*
Y4362D01*
Y4362D01*
Y4361D01*
Y4359D01*
Y4359D01*
Y4359D01*
Y4357D01*
Y4356D01*
Y4355D01*
Y4353D01*
X4907Y4350D01*
Y4347D01*
Y4343D01*
X4907Y4339D01*
Y4335D01*
Y4335D01*
Y4335D01*
Y4333D01*
Y4333D01*
Y4332D01*
Y4330D01*
X4907Y4328D01*
Y4328D01*
Y4327D01*
X4908Y4325D01*
Y4324D01*
Y4324D01*
X4907Y4323D01*
Y4322D01*
Y4321D01*
Y4321D01*
X4908Y4320D01*
X4908Y4319D01*
X4909Y4317D01*
Y4317D01*
X4909Y4316D01*
X4909Y4315D01*
Y4313D01*
Y4313D01*
Y4312D01*
Y4311D01*
Y4309D01*
Y4308D01*
X4909Y4307D01*
Y4306D01*
Y4305D01*
Y4304D01*
Y4304D01*
Y4302D01*
X4909Y4300D01*
Y4300D01*
Y4299D01*
X4910Y4297D01*
Y4296D01*
Y4295D01*
Y4295D01*
Y4294D01*
X4909Y4293D01*
X4909Y4290D01*
X4907Y4287D01*
Y4287D01*
X4907Y4286D01*
X4907Y4285D01*
X4906Y4284D01*
X4904Y4281D01*
X4901Y4278D01*
X4900Y4278D01*
X4900Y4277D01*
X4899Y4277D01*
X4898Y4276D01*
X4895Y4274D01*
X4892Y4273D01*
X4892D01*
X4891Y4272D01*
X4890Y4272D01*
X4889Y4272D01*
X4886Y4271D01*
X4883Y4271D01*
X4881D01*
X4880Y4271D01*
X4877Y4271D01*
X4875D01*
X4873Y4272D01*
X4870D01*
X4869Y4272D01*
X4868Y4272D01*
X4866Y4273D01*
X4864Y4273D01*
X4862Y4274D01*
X4860D01*
X4859Y4275D01*
X4857Y4275D01*
X4857D01*
X4855Y4275D01*
X4854Y4275D01*
X4853Y4276D01*
X4853D01*
X4853Y4276D01*
X4852Y4277D01*
X4850Y4277D01*
X4849Y4278D01*
X4848D01*
X4848Y4278D01*
X4847Y4279D01*
X4846D01*
X4846Y4279D01*
X4845Y4279D01*
X4843Y4280D01*
X4842Y4280D01*
X4842D01*
X4841Y4281D01*
X4840Y4281D01*
X4840D01*
X4839Y4282D01*
X4838Y4282D01*
X4837Y4283D01*
X4836D01*
X4835Y4284D01*
X4834Y4284D01*
X4832Y4285D01*
X4832D01*
X4831Y4285D01*
X4830Y4286D01*
X4829Y4287D01*
X4826Y4288D01*
X4823Y4290D01*
X4823D01*
X4823Y4291D01*
X4821Y4292D01*
X4819Y4294D01*
X4816Y4296D01*
X4816Y4297D01*
X4816Y4297D01*
X4815Y4298D01*
X4814Y4299D01*
X4811Y4302D01*
X4810Y4306D01*
Y4306D01*
X4809Y4306D01*
X4809Y4307D01*
X4808Y4308D01*
X4808Y4311D01*
X4808Y4315D01*
Y4315D01*
Y4316D01*
Y4316D01*
X4808Y4318D01*
Y4319D01*
X4808Y4320D01*
X4808Y4321D01*
X4809Y4323D01*
Y4324D01*
Y4324D01*
X4809Y4326D01*
X4811Y4328D01*
X4811Y4330D01*
X4813Y4331D01*
X4813Y4332D01*
X4813Y4332D01*
X4814Y4333D01*
X4815Y4334D01*
X4818Y4337D01*
X4822Y4341D01*
X4823Y4341D01*
X4823Y4341D01*
X4824Y4342D01*
X4825Y4343D01*
X4829Y4345D01*
X4832Y4348D01*
X4833D01*
X4833Y4348D01*
X4834Y4349D01*
X4835Y4349D01*
X4838Y4351D01*
X4841Y4352D01*
X4842Y4352D01*
X4843Y4353D01*
X4843Y4354D01*
X4844Y4354D01*
X4846Y4355D01*
X4848Y4357D01*
X4849D01*
X4849Y4357D01*
X4850Y4358D01*
X4851Y4358D01*
X4853Y4359D01*
X4854Y4360D01*
X4859Y4362D01*
X4859Y4363D01*
X4861Y4363D01*
X4863Y4364D01*
X4865Y4366D01*
X4871Y4368D01*
X4873Y4369D01*
X4875Y4370D01*
X4875D01*
X4876Y4370D01*
X4877Y4371D01*
X4878Y4371D01*
X4879Y4371D01*
X4879Y4372D01*
Y4372D01*
X4879Y4373D01*
X4878Y4374D01*
X4876Y4377D01*
X4876Y4377D01*
X4876Y4377D01*
X4874Y4379D01*
X4871Y4382D01*
X4868Y4385D01*
X4868Y4386D01*
X4867Y4386D01*
X4866Y4387D01*
X4865Y4388D01*
X4861Y4390D01*
X4859Y4393D01*
X4858D01*
X4858Y4393D01*
X4857Y4394D01*
X4856Y4395D01*
X4854Y4396D01*
X4852Y4398D01*
X4850Y4399D01*
X4848Y4400D01*
X4847Y4401D01*
X4847Y4401D01*
X4845Y4403D01*
X4843Y4404D01*
X4843D01*
X4843Y4405D01*
X4841Y4406D01*
X4839Y4408D01*
X4836Y4410D01*
X4835D01*
X4835Y4411D01*
X4834Y4412D01*
X4832Y4414D01*
X4829Y4415D01*
X4829D01*
X4829Y4416D01*
X4827Y4417D01*
X4825Y4418D01*
X4822Y4420D01*
X4822Y4420D01*
X4820Y4421D01*
X4819Y4422D01*
X4816Y4424D01*
X4816D01*
X4816Y4424D01*
X4814Y4426D01*
X4812Y4427D01*
X4808Y4430D01*
X4808Y4430D01*
X4807Y4431D01*
X4806Y4433D01*
X4805Y4435D01*
Y4436D01*
X4804Y4436D01*
X4804Y4437D01*
X4804Y4438D01*
X4803Y4440D01*
X4803Y4441D01*
X4803Y4446D01*
X4804Y4450D01*
X4807Y4452D01*
X4807D01*
X4808Y4451D01*
D02*
G37*
G36*
X4790Y4441D02*
X4791Y4441D01*
X4793Y4440D01*
X4793Y4440D01*
X4794Y4439D01*
X4795Y4438D01*
X4796Y4436D01*
X4796Y4436D01*
X4796Y4435D01*
X4797Y4434D01*
X4797Y4432D01*
Y4432D01*
Y4431D01*
X4798Y4430D01*
Y4429D01*
Y4429D01*
Y4428D01*
X4797Y4426D01*
Y4426D01*
X4797Y4425D01*
X4797Y4425D01*
Y4424D01*
Y4424D01*
X4797Y4423D01*
X4797Y4422D01*
X4796Y4421D01*
X4796D01*
X4797Y4421D01*
X4799Y4421D01*
X4799Y4420D01*
X4799Y4419D01*
Y4419D01*
Y4417D01*
Y4415D01*
Y4412D01*
Y4411D01*
Y4410D01*
Y4409D01*
Y4407D01*
X4799Y4404D01*
X4799Y4400D01*
Y4400D01*
Y4399D01*
X4798Y4398D01*
X4798Y4395D01*
X4797Y4393D01*
Y4393D01*
X4798Y4392D01*
Y4391D01*
X4798Y4390D01*
Y4389D01*
Y4387D01*
X4798Y4386D01*
Y4385D01*
Y4383D01*
X4797Y4381D01*
Y4380D01*
Y4379D01*
X4797Y4378D01*
X4797Y4376D01*
Y4374D01*
X4796Y4371D01*
X4796Y4369D01*
X4796Y4365D01*
Y4365D01*
X4795Y4364D01*
Y4362D01*
X4795Y4360D01*
X4794Y4356D01*
X4794Y4354D01*
X4794Y4352D01*
Y4352D01*
X4794Y4351D01*
X4793Y4349D01*
X4793Y4347D01*
X4793Y4347D01*
Y4346D01*
Y4346D01*
X4793Y4345D01*
Y4344D01*
X4793Y4342D01*
Y4342D01*
Y4341D01*
X4794Y4340D01*
X4794Y4338D01*
X4796Y4336D01*
X4797Y4334D01*
Y4333D01*
Y4333D01*
X4797Y4331D01*
Y4329D01*
Y4326D01*
Y4326D01*
Y4326D01*
X4797Y4324D01*
X4796Y4322D01*
X4796Y4319D01*
Y4319D01*
Y4319D01*
X4796Y4317D01*
X4796Y4315D01*
X4795Y4312D01*
Y4312D01*
X4795Y4311D01*
X4794Y4310D01*
X4794Y4308D01*
X4793Y4306D01*
X4793Y4306D01*
X4792Y4304D01*
Y4304D01*
X4792Y4304D01*
X4791Y4302D01*
Y4302D01*
X4791Y4302D01*
X4791Y4300D01*
X4790Y4297D01*
X4789Y4294D01*
Y4294D01*
X4789Y4294D01*
X4789Y4293D01*
X4788Y4292D01*
X4788Y4289D01*
X4787Y4286D01*
Y4285D01*
X4787Y4285D01*
X4785Y4283D01*
X4784Y4280D01*
X4781Y4278D01*
X4781D01*
X4780Y4277D01*
X4779Y4277D01*
X4778Y4277D01*
X4776Y4275D01*
X4772Y4275D01*
X4772Y4274D01*
X4770Y4274D01*
X4769Y4273D01*
X4767Y4272D01*
X4766Y4272D01*
X4765Y4271D01*
X4764Y4271D01*
X4762Y4271D01*
X4762D01*
X4760Y4271D01*
X4759Y4272D01*
X4758Y4273D01*
X4757Y4273D01*
X4757Y4275D01*
X4756Y4276D01*
X4756Y4278D01*
Y4278D01*
Y4279D01*
X4756Y4280D01*
X4756Y4281D01*
X4757Y4283D01*
X4757Y4285D01*
Y4285D01*
X4757Y4286D01*
Y4287D01*
X4758Y4289D01*
X4758Y4291D01*
X4758Y4294D01*
X4759Y4297D01*
X4760Y4301D01*
Y4301D01*
X4760Y4303D01*
X4760Y4305D01*
X4761Y4308D01*
Y4309D01*
X4761Y4309D01*
Y4310D01*
X4762Y4311D01*
X4762Y4315D01*
X4763Y4318D01*
Y4318D01*
X4764Y4319D01*
X4764Y4321D01*
X4765Y4323D01*
X4765Y4325D01*
X4766Y4328D01*
X4767Y4334D01*
Y4335D01*
X4767Y4336D01*
X4767Y4337D01*
X4768Y4340D01*
X4768Y4342D01*
X4769Y4345D01*
X4769Y4349D01*
X4770Y4353D01*
Y4353D01*
Y4354D01*
X4770Y4354D01*
X4770Y4355D01*
X4771Y4358D01*
X4771Y4362D01*
Y4362D01*
Y4362D01*
X4772Y4364D01*
X4772Y4366D01*
X4772Y4369D01*
Y4370D01*
Y4370D01*
X4773Y4371D01*
X4773Y4372D01*
X4773Y4375D01*
X4774Y4378D01*
Y4379D01*
Y4379D01*
Y4381D01*
X4774Y4383D01*
Y4386D01*
Y4386D01*
Y4386D01*
Y4388D01*
Y4388D01*
X4774Y4389D01*
Y4391D01*
Y4391D01*
Y4391D01*
Y4393D01*
Y4394D01*
Y4395D01*
X4774Y4396D01*
X4774Y4398D01*
X4775Y4400D01*
Y4400D01*
X4775Y4401D01*
X4775Y4403D01*
X4776Y4405D01*
Y4405D01*
Y4406D01*
X4776Y4407D01*
Y4408D01*
Y4408D01*
Y4409D01*
Y4410D01*
Y4411D01*
Y4415D01*
X4776Y4417D01*
Y4418D01*
X4775Y4419D01*
Y4420D01*
X4775Y4421D01*
Y4421D01*
X4775Y4422D01*
Y4423D01*
X4774Y4424D01*
X4774Y4426D01*
X4773Y4429D01*
Y4429D01*
X4774Y4431D01*
X4775Y4432D01*
X4776Y4434D01*
X4777Y4435D01*
X4779Y4437D01*
X4780Y4437D01*
X4780Y4437D01*
X4782Y4438D01*
X4783Y4439D01*
X4786Y4441D01*
X4787Y4441D01*
X4789Y4441D01*
X4789D01*
X4790Y4441D01*
D02*
G37*
G36*
X5064Y4201D02*
X5065Y4201D01*
X5067Y4201D01*
X5068Y4200D01*
X5069Y4200D01*
X5070Y4199D01*
X5072Y4197D01*
X5073Y4197D01*
X5075Y4196D01*
X5077Y4195D01*
X5077D01*
X5077Y4195D01*
X5078Y4194D01*
X5080Y4194D01*
X5082Y4193D01*
X5084Y4191D01*
X5088Y4190D01*
X5092Y4189D01*
X5092D01*
X5093Y4188D01*
X5094Y4188D01*
X5094Y4187D01*
X5097Y4186D01*
X5101Y4184D01*
X5101D01*
X5101Y4184D01*
X5103Y4182D01*
X5106Y4180D01*
X5109Y4178D01*
X5109Y4178D01*
X5110Y4177D01*
X5111Y4176D01*
X5113Y4174D01*
X5114Y4174D01*
X5115Y4173D01*
X5118Y4172D01*
X5121Y4170D01*
X5121D01*
X5121Y4169D01*
X5122Y4169D01*
X5123Y4168D01*
X5126Y4167D01*
X5128Y4165D01*
X5129Y4165D01*
X5130Y4164D01*
X5132Y4162D01*
X5133Y4161D01*
X5134Y4161D01*
X5135Y4160D01*
X5136Y4160D01*
X5137Y4158D01*
X5140Y4156D01*
X5144Y4154D01*
X5144Y4153D01*
X5145Y4152D01*
X5146Y4151D01*
X5147Y4151D01*
Y4151D01*
Y4152D01*
Y4153D01*
Y4153D01*
X5147Y4154D01*
X5147Y4155D01*
X5148Y4157D01*
X5148Y4159D01*
X5149Y4161D01*
X5150Y4166D01*
Y4166D01*
X5150Y4167D01*
X5150Y4169D01*
X5151Y4171D01*
X5151Y4174D01*
X5152Y4177D01*
X5152Y4182D01*
X5153Y4186D01*
Y4186D01*
X5153Y4187D01*
X5154Y4189D01*
X5154Y4190D01*
X5155Y4191D01*
X5155Y4191D01*
X5157Y4192D01*
X5159Y4192D01*
X5159D01*
X5161Y4192D01*
X5162D01*
X5165Y4191D01*
X5167Y4189D01*
X5168Y4189D01*
X5169Y4187D01*
X5170Y4185D01*
X5170Y4181D01*
Y4181D01*
Y4180D01*
Y4179D01*
Y4177D01*
X5170Y4175D01*
Y4173D01*
X5169Y4168D01*
Y4167D01*
X5169Y4167D01*
Y4165D01*
X5169Y4163D01*
X5168Y4161D01*
X5168Y4159D01*
X5167Y4153D01*
Y4153D01*
X5167Y4152D01*
X5166Y4150D01*
X5166Y4148D01*
Y4148D01*
X5166Y4147D01*
Y4145D01*
Y4144D01*
Y4144D01*
Y4143D01*
X5166Y4143D01*
X5166Y4141D01*
X5167Y4140D01*
X5168Y4139D01*
X5169Y4137D01*
X5170Y4136D01*
X5171Y4136D01*
X5171Y4135D01*
X5173Y4133D01*
X5174Y4131D01*
X5175Y4130D01*
X5175Y4129D01*
Y4128D01*
Y4127D01*
X5175Y4126D01*
X5174Y4124D01*
X5174Y4123D01*
X5173Y4122D01*
X5172Y4121D01*
X5171Y4119D01*
X5170D01*
X5170Y4119D01*
X5168Y4118D01*
X5166Y4116D01*
X5164Y4115D01*
Y4114D01*
X5163Y4114D01*
Y4113D01*
Y4112D01*
Y4112D01*
Y4111D01*
Y4109D01*
Y4109D01*
Y4109D01*
Y4107D01*
Y4106D01*
Y4105D01*
Y4103D01*
X5163Y4100D01*
Y4097D01*
Y4093D01*
X5163Y4089D01*
Y4085D01*
Y4085D01*
Y4085D01*
Y4083D01*
Y4083D01*
Y4082D01*
Y4080D01*
X5163Y4078D01*
Y4078D01*
Y4077D01*
X5163Y4075D01*
Y4074D01*
Y4074D01*
X5163Y4073D01*
Y4072D01*
Y4071D01*
Y4071D01*
X5163Y4070D01*
X5164Y4069D01*
X5164Y4067D01*
Y4067D01*
X5164Y4066D01*
X5165Y4065D01*
Y4063D01*
Y4063D01*
Y4062D01*
Y4061D01*
Y4059D01*
Y4058D01*
X5164Y4057D01*
Y4056D01*
Y4055D01*
Y4054D01*
Y4054D01*
Y4052D01*
X5165Y4050D01*
Y4050D01*
Y4049D01*
X5165Y4047D01*
Y4046D01*
Y4045D01*
Y4045D01*
Y4044D01*
X5165Y4043D01*
X5164Y4040D01*
X5163Y4037D01*
Y4037D01*
X5162Y4036D01*
X5162Y4035D01*
X5161Y4034D01*
X5159Y4031D01*
X5156Y4028D01*
X5156Y4028D01*
X5156Y4027D01*
X5155Y4027D01*
X5154Y4026D01*
X5151Y4024D01*
X5148Y4023D01*
X5147D01*
X5147Y4022D01*
X5146Y4022D01*
X5145Y4022D01*
X5142Y4021D01*
X5138Y4021D01*
X5137D01*
X5135Y4021D01*
X5133Y4021D01*
X5130D01*
X5128Y4022D01*
X5125D01*
X5124Y4022D01*
X5123Y4022D01*
X5122Y4023D01*
X5120Y4023D01*
X5117Y4024D01*
X5116D01*
X5114Y4025D01*
X5112Y4025D01*
X5112D01*
X5111Y4025D01*
X5110Y4025D01*
X5109Y4026D01*
X5109D01*
X5108Y4026D01*
X5107Y4027D01*
X5106Y4027D01*
X5104Y4028D01*
X5104D01*
X5103Y4028D01*
X5102Y4029D01*
X5102D01*
X5101Y4029D01*
X5100Y4029D01*
X5099Y4030D01*
X5098Y4030D01*
X5097D01*
X5097Y4031D01*
X5095Y4031D01*
X5095D01*
X5094Y4032D01*
X5094Y4032D01*
X5092Y4033D01*
X5092D01*
X5091Y4034D01*
X5089Y4034D01*
X5087Y4035D01*
X5087D01*
X5087Y4035D01*
X5086Y4036D01*
X5084Y4037D01*
X5082Y4038D01*
X5079Y4040D01*
X5079D01*
X5078Y4041D01*
X5077Y4042D01*
X5074Y4044D01*
X5072Y4046D01*
X5071Y4047D01*
X5071Y4047D01*
X5070Y4048D01*
X5069Y4049D01*
X5067Y4052D01*
X5065Y4056D01*
Y4056D01*
X5065Y4056D01*
X5065Y4057D01*
X5064Y4058D01*
X5063Y4061D01*
X5063Y4065D01*
Y4065D01*
Y4066D01*
Y4066D01*
X5063Y4068D01*
Y4069D01*
X5064Y4070D01*
X5064Y4071D01*
X5064Y4073D01*
Y4074D01*
Y4074D01*
X5065Y4076D01*
X5066Y4078D01*
X5067Y4080D01*
X5068Y4081D01*
X5068Y4082D01*
X5069Y4082D01*
X5070Y4083D01*
X5071Y4084D01*
X5074Y4087D01*
X5078Y4091D01*
X5078Y4091D01*
X5079Y4091D01*
X5080Y4092D01*
X5081Y4093D01*
X5084Y4095D01*
X5088Y4098D01*
X5088D01*
X5089Y4098D01*
X5090Y4099D01*
X5091Y4099D01*
X5094Y4101D01*
X5097Y4102D01*
X5097Y4102D01*
X5099Y4103D01*
X5099Y4104D01*
X5100Y4104D01*
X5101Y4105D01*
X5104Y4107D01*
X5104D01*
X5104Y4107D01*
X5106Y4108D01*
X5107Y4108D01*
X5108Y4109D01*
X5110Y4110D01*
X5114Y4112D01*
X5115Y4113D01*
X5116Y4113D01*
X5118Y4114D01*
X5121Y4116D01*
X5126Y4118D01*
X5129Y4119D01*
X5130Y4120D01*
X5131D01*
X5131Y4120D01*
X5133Y4121D01*
X5134Y4121D01*
X5134Y4121D01*
X5135Y4122D01*
Y4122D01*
X5134Y4123D01*
X5133Y4124D01*
X5132Y4127D01*
X5131Y4127D01*
X5131Y4127D01*
X5129Y4129D01*
X5127Y4132D01*
X5124Y4135D01*
X5123Y4136D01*
X5123Y4136D01*
X5122Y4137D01*
X5120Y4138D01*
X5117Y4140D01*
X5114Y4143D01*
X5114D01*
X5113Y4143D01*
X5113Y4144D01*
X5111Y4145D01*
X5110Y4146D01*
X5108Y4148D01*
X5106Y4149D01*
X5103Y4150D01*
X5103Y4151D01*
X5102Y4151D01*
X5101Y4153D01*
X5099Y4154D01*
X5099D01*
X5098Y4155D01*
X5097Y4156D01*
X5094Y4158D01*
X5091Y4160D01*
X5091D01*
X5091Y4161D01*
X5089Y4162D01*
X5087Y4164D01*
X5085Y4165D01*
X5084D01*
X5084Y4166D01*
X5083Y4167D01*
X5080Y4168D01*
X5077Y4170D01*
X5077Y4170D01*
X5076Y4171D01*
X5074Y4172D01*
X5072Y4174D01*
X5072D01*
X5071Y4174D01*
X5070Y4176D01*
X5067Y4177D01*
X5064Y4180D01*
X5064Y4180D01*
X5063Y4181D01*
X5061Y4183D01*
X5060Y4185D01*
Y4186D01*
X5060Y4186D01*
X5060Y4187D01*
X5059Y4188D01*
X5059Y4190D01*
X5059Y4191D01*
X5058Y4196D01*
X5060Y4200D01*
X5063Y4202D01*
X5063D01*
X5064Y4201D01*
D02*
G37*
G36*
X4777D02*
X4778Y4201D01*
X4780Y4201D01*
X4780Y4200D01*
X4782Y4200D01*
X4783Y4199D01*
X4785Y4197D01*
X4786Y4197D01*
X4787Y4196D01*
X4790Y4195D01*
X4790D01*
X4790Y4195D01*
X4791Y4194D01*
X4793Y4194D01*
X4795Y4193D01*
X4797Y4191D01*
X4801Y4190D01*
X4805Y4189D01*
X4805D01*
X4806Y4188D01*
X4807Y4188D01*
X4807Y4187D01*
X4810Y4186D01*
X4814Y4184D01*
X4814D01*
X4814Y4184D01*
X4816Y4182D01*
X4819Y4180D01*
X4821Y4178D01*
X4822Y4178D01*
X4823Y4177D01*
X4824Y4176D01*
X4826Y4174D01*
X4827Y4174D01*
X4828Y4173D01*
X4831Y4172D01*
X4833Y4170D01*
X4834D01*
X4834Y4169D01*
X4835Y4169D01*
X4836Y4168D01*
X4839Y4167D01*
X4841Y4165D01*
X4842Y4165D01*
X4843Y4164D01*
X4845Y4162D01*
X4846Y4161D01*
X4847Y4161D01*
X4848Y4160D01*
X4849Y4160D01*
X4850Y4158D01*
X4853Y4156D01*
X4857Y4154D01*
X4857Y4153D01*
X4858Y4152D01*
X4859Y4151D01*
X4860Y4151D01*
Y4151D01*
Y4152D01*
Y4153D01*
Y4153D01*
X4860Y4154D01*
X4860Y4155D01*
X4861Y4157D01*
X4861Y4159D01*
X4862Y4161D01*
X4863Y4166D01*
Y4166D01*
X4863Y4167D01*
X4863Y4169D01*
X4864Y4171D01*
X4864Y4174D01*
X4865Y4177D01*
X4865Y4182D01*
X4866Y4186D01*
Y4186D01*
X4866Y4187D01*
X4867Y4189D01*
X4867Y4190D01*
X4868Y4191D01*
X4868Y4191D01*
X4870Y4192D01*
X4872Y4192D01*
X4872D01*
X4874Y4192D01*
X4875D01*
X4878Y4191D01*
X4880Y4189D01*
X4881Y4189D01*
X4882Y4187D01*
X4883Y4185D01*
X4883Y4181D01*
Y4181D01*
Y4180D01*
Y4179D01*
Y4177D01*
X4883Y4175D01*
Y4173D01*
X4882Y4168D01*
Y4167D01*
X4882Y4167D01*
Y4165D01*
X4882Y4163D01*
X4881Y4161D01*
X4881Y4159D01*
X4880Y4153D01*
Y4153D01*
X4879Y4152D01*
X4879Y4150D01*
X4879Y4148D01*
Y4148D01*
X4879Y4147D01*
Y4145D01*
Y4144D01*
Y4144D01*
Y4143D01*
X4879Y4143D01*
X4879Y4141D01*
X4880Y4140D01*
X4881Y4139D01*
X4882Y4137D01*
X4883Y4136D01*
X4884Y4136D01*
X4884Y4135D01*
X4886Y4133D01*
X4887Y4131D01*
X4888Y4130D01*
X4888Y4129D01*
Y4128D01*
Y4127D01*
X4888Y4126D01*
X4887Y4124D01*
X4887Y4123D01*
X4886Y4122D01*
X4885Y4121D01*
X4884Y4119D01*
X4883D01*
X4883Y4119D01*
X4881Y4118D01*
X4879Y4116D01*
X4877Y4115D01*
Y4114D01*
X4876Y4114D01*
Y4113D01*
Y4112D01*
Y4112D01*
Y4111D01*
Y4109D01*
Y4109D01*
Y4109D01*
Y4107D01*
Y4106D01*
Y4105D01*
Y4103D01*
X4876Y4100D01*
Y4097D01*
Y4093D01*
X4876Y4089D01*
Y4085D01*
Y4085D01*
Y4085D01*
Y4083D01*
Y4083D01*
Y4082D01*
Y4080D01*
X4876Y4078D01*
Y4078D01*
Y4077D01*
X4876Y4075D01*
Y4074D01*
Y4074D01*
X4876Y4073D01*
Y4072D01*
Y4071D01*
Y4071D01*
X4876Y4070D01*
X4877Y4069D01*
X4877Y4067D01*
Y4067D01*
X4877Y4066D01*
X4878Y4065D01*
Y4063D01*
Y4063D01*
Y4062D01*
Y4061D01*
Y4059D01*
Y4058D01*
X4877Y4057D01*
Y4056D01*
Y4055D01*
Y4054D01*
Y4054D01*
Y4052D01*
X4878Y4050D01*
Y4050D01*
Y4049D01*
X4878Y4047D01*
Y4046D01*
Y4045D01*
Y4045D01*
Y4044D01*
X4878Y4043D01*
X4877Y4040D01*
X4876Y4037D01*
Y4037D01*
X4875Y4036D01*
X4875Y4035D01*
X4874Y4034D01*
X4872Y4031D01*
X4869Y4028D01*
X4869Y4028D01*
X4869Y4027D01*
X4868Y4027D01*
X4867Y4026D01*
X4864Y4024D01*
X4861Y4023D01*
X4860D01*
X4860Y4022D01*
X4859Y4022D01*
X4858Y4022D01*
X4855Y4021D01*
X4851Y4021D01*
X4850D01*
X4848Y4021D01*
X4846Y4021D01*
X4843D01*
X4841Y4022D01*
X4838D01*
X4837Y4022D01*
X4836Y4022D01*
X4835Y4023D01*
X4833Y4023D01*
X4830Y4024D01*
X4828D01*
X4827Y4025D01*
X4825Y4025D01*
X4825D01*
X4824Y4025D01*
X4823Y4025D01*
X4822Y4026D01*
X4821D01*
X4821Y4026D01*
X4820Y4027D01*
X4819Y4027D01*
X4817Y4028D01*
X4817D01*
X4816Y4028D01*
X4815Y4029D01*
X4815D01*
X4814Y4029D01*
X4813Y4029D01*
X4812Y4030D01*
X4811Y4030D01*
X4810D01*
X4810Y4031D01*
X4808Y4031D01*
X4808D01*
X4807Y4032D01*
X4807Y4032D01*
X4805Y4033D01*
X4805D01*
X4804Y4034D01*
X4802Y4034D01*
X4800Y4035D01*
X4800D01*
X4800Y4035D01*
X4799Y4036D01*
X4797Y4037D01*
X4795Y4038D01*
X4792Y4040D01*
X4792D01*
X4791Y4041D01*
X4790Y4042D01*
X4787Y4044D01*
X4785Y4046D01*
X4784Y4047D01*
X4784Y4047D01*
X4783Y4048D01*
X4782Y4049D01*
X4780Y4052D01*
X4778Y4056D01*
Y4056D01*
X4778Y4056D01*
X4778Y4057D01*
X4777Y4058D01*
X4776Y4061D01*
X4776Y4065D01*
Y4065D01*
Y4066D01*
Y4066D01*
X4776Y4068D01*
Y4069D01*
X4777Y4070D01*
X4777Y4071D01*
X4777Y4073D01*
Y4074D01*
Y4074D01*
X4778Y4076D01*
X4779Y4078D01*
X4780Y4080D01*
X4781Y4081D01*
X4781Y4082D01*
X4782Y4082D01*
X4783Y4083D01*
X4784Y4084D01*
X4787Y4087D01*
X4791Y4091D01*
X4791Y4091D01*
X4792Y4091D01*
X4793Y4092D01*
X4794Y4093D01*
X4797Y4095D01*
X4801Y4098D01*
X4801D01*
X4802Y4098D01*
X4803Y4099D01*
X4804Y4099D01*
X4807Y4101D01*
X4810Y4102D01*
X4810Y4102D01*
X4812Y4103D01*
X4812Y4104D01*
X4813Y4104D01*
X4814Y4105D01*
X4817Y4107D01*
X4817D01*
X4817Y4107D01*
X4819Y4108D01*
X4820Y4108D01*
X4821Y4109D01*
X4823Y4110D01*
X4827Y4112D01*
X4828Y4113D01*
X4829Y4113D01*
X4831Y4114D01*
X4834Y4116D01*
X4839Y4118D01*
X4842Y4119D01*
X4843Y4120D01*
X4844D01*
X4844Y4120D01*
X4845Y4121D01*
X4847Y4121D01*
X4847Y4121D01*
X4848Y4122D01*
Y4122D01*
X4847Y4123D01*
X4846Y4124D01*
X4845Y4127D01*
X4844Y4127D01*
X4844Y4127D01*
X4842Y4129D01*
X4840Y4132D01*
X4837Y4135D01*
X4836Y4136D01*
X4836Y4136D01*
X4835Y4137D01*
X4833Y4138D01*
X4830Y4140D01*
X4827Y4143D01*
X4827D01*
X4826Y4143D01*
X4826Y4144D01*
X4824Y4145D01*
X4823Y4146D01*
X4821Y4148D01*
X4819Y4149D01*
X4816Y4150D01*
X4816Y4151D01*
X4815Y4151D01*
X4814Y4153D01*
X4812Y4154D01*
X4812D01*
X4811Y4155D01*
X4810Y4156D01*
X4807Y4158D01*
X4804Y4160D01*
X4804D01*
X4804Y4161D01*
X4802Y4162D01*
X4800Y4164D01*
X4798Y4165D01*
X4797D01*
X4797Y4166D01*
X4796Y4167D01*
X4793Y4168D01*
X4790Y4170D01*
X4790Y4170D01*
X4789Y4171D01*
X4787Y4172D01*
X4785Y4174D01*
X4785D01*
X4784Y4174D01*
X4783Y4176D01*
X4780Y4177D01*
X4777Y4180D01*
X4777Y4180D01*
X4775Y4181D01*
X4774Y4183D01*
X4773Y4185D01*
Y4186D01*
X4773Y4186D01*
X4773Y4187D01*
X4772Y4188D01*
X4772Y4190D01*
X4772Y4191D01*
X4771Y4196D01*
X4773Y4200D01*
X4775Y4202D01*
X4776D01*
X4777Y4201D01*
D02*
G37*
G36*
X4437Y4201D02*
X4440Y4200D01*
X4442Y4200D01*
X4445Y4199D01*
X4449Y4198D01*
X4452Y4196D01*
X4452Y4196D01*
X4453Y4196D01*
X4455Y4195D01*
X4457Y4193D01*
X4459Y4191D01*
X4462Y4189D01*
X4465Y4186D01*
X4467Y4183D01*
X4477Y4171D01*
Y4171D01*
X4478Y4170D01*
X4478Y4169D01*
X4479Y4167D01*
X4479Y4167D01*
X4479Y4166D01*
X4480Y4165D01*
X4481Y4163D01*
X4482Y4161D01*
X4483Y4158D01*
X4485Y4153D01*
Y4153D01*
X4486Y4152D01*
Y4151D01*
X4486Y4150D01*
X4486Y4148D01*
X4487Y4144D01*
Y4144D01*
Y4143D01*
X4487Y4143D01*
Y4141D01*
X4488Y4138D01*
Y4135D01*
Y4134D01*
Y4134D01*
Y4133D01*
Y4131D01*
Y4130D01*
X4487Y4128D01*
X4487Y4124D01*
X4486Y4119D01*
X4486Y4113D01*
X4485Y4108D01*
X4483Y4102D01*
Y4102D01*
X4483Y4102D01*
X4482Y4100D01*
X4481Y4097D01*
X4480Y4094D01*
X4478Y4090D01*
X4475Y4086D01*
X4472Y4082D01*
X4469Y4078D01*
X4469Y4077D01*
X4468Y4077D01*
X4467Y4076D01*
X4467Y4075D01*
X4466Y4075D01*
X4464Y4073D01*
X4464Y4072D01*
X4463Y4071D01*
X4463Y4070D01*
X4462Y4070D01*
X4462Y4069D01*
X4461Y4068D01*
X4460Y4066D01*
X4460Y4066D01*
X4459Y4065D01*
X4458Y4063D01*
X4456Y4061D01*
X4454Y4059D01*
X4452Y4056D01*
X4446Y4051D01*
X4446Y4050D01*
X4445Y4049D01*
X4443Y4048D01*
X4441Y4046D01*
X4439Y4044D01*
X4436Y4041D01*
X4430Y4036D01*
X4429Y4036D01*
X4428Y4036D01*
X4428Y4035D01*
X4426Y4034D01*
X4423Y4032D01*
X4419Y4029D01*
X4419Y4029D01*
X4418Y4028D01*
X4418Y4027D01*
X4416Y4027D01*
X4413Y4024D01*
X4409Y4022D01*
X4409D01*
X4409Y4021D01*
X4408Y4021D01*
X4408Y4021D01*
X4407Y4020D01*
X4407Y4020D01*
X4406D01*
X4406Y4019D01*
X4404Y4019D01*
X4404Y4019D01*
X4403D01*
X4403Y4018D01*
X4402Y4018D01*
X4401Y4018D01*
X4400D01*
X4400Y4018D01*
X4399Y4018D01*
X4397Y4019D01*
X4395Y4020D01*
X4392Y4022D01*
X4392D01*
X4391Y4022D01*
X4390Y4023D01*
X4389Y4024D01*
X4389Y4025D01*
Y4026D01*
X4389Y4027D01*
X4390Y4028D01*
X4392Y4030D01*
X4394Y4032D01*
X4394D01*
X4394Y4032D01*
X4395Y4033D01*
X4396Y4034D01*
X4399Y4036D01*
X4403Y4040D01*
X4403Y4040D01*
X4404Y4041D01*
X4405Y4042D01*
X4406Y4043D01*
X4408Y4046D01*
X4411Y4049D01*
X4411Y4049D01*
X4412Y4050D01*
X4413Y4052D01*
X4416Y4054D01*
Y4055D01*
X4416Y4055D01*
X4418Y4057D01*
X4420Y4059D01*
X4423Y4062D01*
X4424Y4066D01*
Y4066D01*
X4425Y4067D01*
X4426Y4068D01*
X4426D01*
X4427Y4068D01*
X4429Y4070D01*
X4429Y4070D01*
X4430Y4071D01*
X4430Y4072D01*
X4432Y4073D01*
X4432Y4073D01*
X4432Y4074D01*
X4433Y4075D01*
X4435Y4077D01*
X4435Y4077D01*
X4435Y4078D01*
X4436Y4078D01*
X4437Y4080D01*
X4438Y4082D01*
X4440Y4083D01*
X4443Y4088D01*
X4443Y4088D01*
X4444Y4089D01*
X4444Y4090D01*
X4445Y4092D01*
X4448Y4096D01*
X4451Y4101D01*
X4450Y4100D01*
X4450D01*
X4450Y4100D01*
X4448Y4101D01*
X4447Y4102D01*
X4445Y4103D01*
X4445Y4104D01*
X4443Y4104D01*
X4442Y4106D01*
X4440Y4107D01*
X4440Y4108D01*
X4439Y4108D01*
X4437Y4109D01*
X4435Y4111D01*
X4435D01*
X4435Y4111D01*
X4433Y4112D01*
X4430Y4114D01*
X4428Y4116D01*
X4427Y4116D01*
X4427Y4116D01*
X4426Y4117D01*
X4425Y4119D01*
X4422Y4121D01*
X4419Y4124D01*
X4419D01*
X4419Y4125D01*
X4417Y4126D01*
X4416Y4128D01*
X4414Y4130D01*
Y4130D01*
X4413Y4131D01*
X4412Y4132D01*
X4410Y4135D01*
X4408Y4138D01*
X4408Y4138D01*
X4407Y4138D01*
X4407Y4139D01*
X4406Y4141D01*
X4404Y4143D01*
X4402Y4146D01*
X4402Y4147D01*
X4402Y4147D01*
X4401Y4148D01*
X4401Y4150D01*
X4400Y4152D01*
X4399Y4154D01*
X4398Y4159D01*
Y4159D01*
X4397Y4160D01*
X4397Y4161D01*
X4397Y4163D01*
X4396Y4165D01*
X4396Y4167D01*
X4396Y4172D01*
Y4172D01*
Y4173D01*
Y4174D01*
X4396Y4177D01*
X4397Y4180D01*
X4398Y4184D01*
X4400Y4187D01*
X4402Y4191D01*
X4406Y4194D01*
X4406Y4194D01*
X4407Y4195D01*
X4410Y4196D01*
X4413Y4197D01*
X4417Y4198D01*
X4421Y4200D01*
X4427Y4201D01*
X4433Y4201D01*
X4435D01*
X4437Y4201D01*
D02*
G37*
G36*
X5039Y4192D02*
X5042D01*
X5044Y4191D01*
X5044D01*
X5046Y4191D01*
X5048Y4191D01*
X5050Y4190D01*
X5051Y4190D01*
X5051Y4189D01*
X5053Y4188D01*
X5053Y4186D01*
X5052Y4183D01*
X5053Y4183D01*
X5055Y4183D01*
X5057Y4182D01*
X5058Y4182D01*
X5058Y4180D01*
X5059Y4178D01*
X5059Y4177D01*
Y4175D01*
Y4175D01*
Y4174D01*
Y4172D01*
Y4169D01*
Y4169D01*
Y4168D01*
Y4167D01*
X5059Y4166D01*
Y4165D01*
Y4163D01*
X5059Y4158D01*
Y4158D01*
Y4157D01*
X5058Y4157D01*
X5058Y4155D01*
X5058Y4155D01*
X5058Y4155D01*
X5057Y4154D01*
Y4153D01*
X5058Y4153D01*
X5058Y4152D01*
Y4152D01*
Y4151D01*
Y4150D01*
Y4150D01*
Y4149D01*
Y4148D01*
X5058Y4147D01*
Y4145D01*
X5058Y4143D01*
X5057Y4138D01*
Y4138D01*
X5057Y4137D01*
Y4136D01*
X5057Y4134D01*
X5056Y4131D01*
X5056Y4128D01*
X5055Y4126D01*
X5055Y4122D01*
Y4122D01*
X5055Y4121D01*
X5055Y4120D01*
X5054Y4119D01*
X5054Y4117D01*
X5053Y4115D01*
X5053Y4110D01*
Y4110D01*
Y4109D01*
Y4108D01*
Y4107D01*
Y4104D01*
X5053Y4099D01*
Y4099D01*
X5053Y4099D01*
X5053Y4097D01*
X5052Y4096D01*
X5052Y4094D01*
X5051Y4092D01*
X5050Y4087D01*
X5049Y4080D01*
X5047Y4074D01*
X5046Y4067D01*
X5044Y4059D01*
Y4059D01*
Y4059D01*
X5043Y4057D01*
X5043Y4055D01*
X5041Y4052D01*
Y4052D01*
X5041Y4052D01*
X5040Y4050D01*
X5038Y4048D01*
X5036Y4046D01*
X5036D01*
X5036Y4045D01*
X5035Y4045D01*
Y4044D01*
X5035Y4044D01*
X5034Y4043D01*
X5034Y4042D01*
X5033Y4042D01*
X5032Y4040D01*
X5031Y4038D01*
X5031Y4038D01*
X5030Y4038D01*
X5028Y4037D01*
X5028Y4036D01*
X5027Y4036D01*
X5026Y4035D01*
X5024Y4034D01*
X5024Y4034D01*
X5023Y4033D01*
X5022Y4032D01*
X5021Y4032D01*
X5021Y4031D01*
X5019Y4030D01*
X5018Y4029D01*
X5018D01*
X5017Y4028D01*
X5016Y4028D01*
X5015Y4027D01*
X5012Y4025D01*
X5010Y4023D01*
X5009Y4022D01*
X5009Y4022D01*
X5008Y4022D01*
X5007Y4021D01*
X5005Y4020D01*
X5003Y4020D01*
X4999Y4019D01*
X4998D01*
X4997Y4019D01*
X4993D01*
X4992Y4018D01*
X4990D01*
X4988Y4018D01*
X4988D01*
X4987Y4018D01*
X4986Y4017D01*
X4984D01*
X4984Y4017D01*
X4982Y4017D01*
X4982D01*
X4982Y4017D01*
X4980D01*
X4978Y4017D01*
X4978D01*
X4977Y4017D01*
X4976D01*
X4974Y4017D01*
X4969D01*
X4969Y4018D01*
X4968Y4018D01*
X4966Y4019D01*
X4963Y4020D01*
X4962Y4022D01*
X4961Y4022D01*
X4960Y4022D01*
X4960D01*
X4959Y4022D01*
X4958Y4021D01*
X4956Y4021D01*
X4952Y4020D01*
X4949Y4019D01*
X4948D01*
X4947Y4019D01*
X4940D01*
X4939Y4018D01*
X4938D01*
X4937Y4018D01*
X4933Y4017D01*
X4929Y4017D01*
X4929D01*
X4928Y4016D01*
X4927D01*
X4925Y4016D01*
X4923D01*
X4921Y4016D01*
X4915D01*
X4914Y4016D01*
X4912Y4016D01*
X4911D01*
X4909Y4017D01*
X4908D01*
X4907Y4017D01*
X4906Y4017D01*
X4904Y4017D01*
X4904D01*
X4903Y4018D01*
X4903Y4018D01*
X4901Y4018D01*
X4899Y4017D01*
X4898D01*
X4897Y4017D01*
X4896Y4018D01*
X4895Y4018D01*
X4894D01*
X4894Y4019D01*
X4893Y4019D01*
X4893Y4020D01*
X4893Y4020D01*
X4892Y4019D01*
X4891Y4018D01*
X4890D01*
X4889Y4019D01*
X4887Y4019D01*
X4885Y4021D01*
X4885Y4021D01*
X4884Y4022D01*
X4884Y4024D01*
X4883Y4026D01*
Y4026D01*
Y4027D01*
Y4028D01*
Y4030D01*
Y4030D01*
Y4031D01*
Y4032D01*
X4884Y4034D01*
Y4034D01*
Y4035D01*
X4883Y4037D01*
Y4037D01*
X4883Y4038D01*
Y4039D01*
Y4039D01*
Y4040D01*
X4883Y4041D01*
X4884Y4042D01*
X4884Y4043D01*
X4885Y4044D01*
X4885Y4044D01*
X4886Y4044D01*
X4888Y4044D01*
X4891D01*
X4894Y4044D01*
X4897Y4044D01*
X4897D01*
X4898Y4043D01*
X4899D01*
X4900Y4043D01*
X4903Y4042D01*
X4906Y4041D01*
X4906D01*
X4908Y4042D01*
X4909Y4042D01*
X4912Y4042D01*
X4913D01*
X4913Y4042D01*
X4913Y4043D01*
X4911Y4044D01*
X4911Y4044D01*
X4911Y4044D01*
X4910Y4045D01*
X4909Y4047D01*
X4908Y4047D01*
X4908Y4048D01*
X4907Y4050D01*
X4906Y4052D01*
Y4053D01*
X4906Y4054D01*
X4906Y4056D01*
Y4056D01*
X4905Y4056D01*
Y4058D01*
Y4058D01*
Y4060D01*
X4906Y4062D01*
X4906Y4064D01*
Y4065D01*
Y4065D01*
X4906Y4067D01*
X4906Y4069D01*
X4907Y4071D01*
Y4071D01*
X4907Y4072D01*
X4908Y4074D01*
X4908Y4076D01*
X4909Y4079D01*
Y4079D01*
X4909Y4080D01*
X4909Y4082D01*
X4910Y4083D01*
Y4083D01*
Y4084D01*
X4910Y4085D01*
Y4086D01*
Y4086D01*
Y4088D01*
X4910Y4089D01*
Y4090D01*
Y4091D01*
X4911Y4092D01*
X4911Y4094D01*
Y4095D01*
X4912Y4096D01*
X4912Y4097D01*
X4913Y4100D01*
Y4100D01*
Y4101D01*
X4913Y4102D01*
X4913Y4103D01*
Y4104D01*
X4913Y4104D01*
X4914Y4106D01*
X4914Y4108D01*
Y4108D01*
X4914Y4109D01*
X4915Y4110D01*
X4915Y4112D01*
Y4112D01*
X4916Y4113D01*
X4916Y4114D01*
X4916Y4116D01*
Y4116D01*
Y4116D01*
Y4118D01*
X4916Y4119D01*
Y4120D01*
Y4120D01*
X4916Y4121D01*
X4917Y4124D01*
X4917Y4126D01*
Y4127D01*
Y4127D01*
X4918Y4128D01*
Y4130D01*
X4918Y4133D01*
X4919Y4137D01*
Y4137D01*
Y4138D01*
X4919Y4139D01*
Y4140D01*
X4919Y4143D01*
X4920Y4147D01*
Y4147D01*
X4920Y4148D01*
X4921Y4150D01*
Y4150D01*
Y4151D01*
X4921Y4152D01*
Y4152D01*
X4921Y4153D01*
Y4155D01*
Y4155D01*
Y4156D01*
X4921Y4157D01*
X4921Y4159D01*
Y4159D01*
Y4160D01*
X4922Y4161D01*
Y4162D01*
Y4163D01*
Y4163D01*
Y4164D01*
Y4165D01*
X4922Y4167D01*
Y4169D01*
Y4169D01*
Y4169D01*
Y4170D01*
Y4172D01*
Y4174D01*
Y4175D01*
Y4176D01*
Y4177D01*
X4922Y4177D01*
X4921Y4179D01*
X4921Y4180D01*
Y4181D01*
X4921Y4182D01*
X4921Y4183D01*
X4922Y4184D01*
Y4184D01*
X4922Y4185D01*
X4924Y4186D01*
X4924Y4186D01*
X4925Y4187D01*
X4926Y4188D01*
X4927Y4189D01*
X4928Y4189D01*
X4929Y4189D01*
X4930Y4190D01*
X4930Y4191D01*
X4930Y4191D01*
X4931Y4191D01*
X4932Y4191D01*
X4933D01*
X4935Y4191D01*
X4936Y4191D01*
X4938Y4190D01*
X4938Y4190D01*
X4939Y4189D01*
X4939Y4188D01*
X4940Y4186D01*
Y4186D01*
Y4186D01*
X4939Y4184D01*
X4939Y4182D01*
X4939Y4179D01*
X4939D01*
Y4179D01*
X4939Y4179D01*
Y4178D01*
X4940Y4178D01*
X4940Y4177D01*
X4940Y4176D01*
Y4176D01*
Y4174D01*
X4940Y4172D01*
Y4170D01*
X4941Y4167D01*
X4941Y4164D01*
X4942Y4157D01*
Y4156D01*
Y4155D01*
Y4154D01*
X4941Y4152D01*
Y4150D01*
Y4148D01*
Y4143D01*
Y4142D01*
Y4142D01*
Y4140D01*
Y4138D01*
X4941Y4134D01*
Y4134D01*
Y4133D01*
Y4132D01*
X4941Y4131D01*
Y4129D01*
X4940Y4127D01*
X4940Y4122D01*
Y4122D01*
X4940Y4121D01*
Y4120D01*
X4940Y4118D01*
X4939Y4115D01*
X4939Y4111D01*
Y4111D01*
Y4110D01*
X4939Y4109D01*
Y4108D01*
X4938Y4105D01*
Y4103D01*
Y4103D01*
Y4102D01*
Y4101D01*
X4938Y4099D01*
Y4099D01*
X4938Y4097D01*
Y4096D01*
X4937Y4094D01*
Y4093D01*
Y4093D01*
X4937Y4092D01*
Y4090D01*
X4937Y4089D01*
Y4088D01*
X4937Y4087D01*
Y4085D01*
Y4085D01*
Y4083D01*
Y4083D01*
Y4083D01*
X4937Y4081D01*
Y4081D01*
X4937Y4080D01*
X4936Y4079D01*
X4935Y4077D01*
X4935Y4076D01*
Y4075D01*
X4935Y4075D01*
X4935Y4075D01*
Y4074D01*
X4935Y4073D01*
X4935Y4072D01*
X4935Y4071D01*
Y4070D01*
X4935Y4069D01*
X4935Y4067D01*
X4934Y4065D01*
Y4064D01*
X4934Y4064D01*
Y4063D01*
X4933Y4062D01*
X4933Y4060D01*
X4933Y4058D01*
X4932Y4056D01*
X4932Y4054D01*
Y4053D01*
Y4053D01*
Y4052D01*
Y4050D01*
Y4050D01*
Y4049D01*
Y4048D01*
Y4046D01*
X4932Y4045D01*
X4933D01*
X4934Y4045D01*
X4935Y4044D01*
X4936Y4045D01*
X4936D01*
X4937Y4046D01*
X4938Y4046D01*
X4940Y4046D01*
X4940D01*
X4940Y4046D01*
X4941D01*
X4942Y4047D01*
X4942Y4047D01*
X4944Y4047D01*
X4947Y4048D01*
X4950Y4049D01*
X4954Y4050D01*
X4958Y4051D01*
X4967Y4054D01*
X4967D01*
X4969Y4054D01*
X4970Y4053D01*
X4971Y4052D01*
X4971Y4052D01*
X4971Y4051D01*
X4972Y4050D01*
X4972Y4049D01*
Y4048D01*
Y4048D01*
X4972Y4048D01*
X4974Y4046D01*
X4974D01*
X4975Y4046D01*
X4976Y4045D01*
X4977Y4045D01*
X4980Y4044D01*
X4983Y4044D01*
X4986Y4044D01*
X4991D01*
X4992Y4044D01*
X4993D01*
X4994Y4044D01*
X4998Y4045D01*
X5001Y4046D01*
X5001Y4046D01*
X5002Y4046D01*
X5002Y4047D01*
X5003D01*
X5003Y4047D01*
X5004Y4047D01*
X5005Y4048D01*
X5010Y4046D01*
X5010Y4047D01*
X5011Y4048D01*
X5012Y4050D01*
X5012Y4050D01*
X5013Y4052D01*
X5015Y4054D01*
X5017Y4058D01*
Y4058D01*
X5017Y4058D01*
X5017Y4060D01*
Y4060D01*
Y4061D01*
X5017Y4062D01*
Y4064D01*
Y4064D01*
X5018Y4065D01*
X5018Y4067D01*
X5019Y4069D01*
X5019Y4071D01*
X5020Y4074D01*
X5022Y4080D01*
Y4080D01*
X5022Y4081D01*
X5022Y4083D01*
X5023Y4085D01*
X5024Y4090D01*
X5024Y4092D01*
X5025Y4094D01*
Y4094D01*
X5025Y4094D01*
X5026Y4096D01*
X5026Y4098D01*
Y4098D01*
X5027Y4099D01*
Y4099D01*
X5027Y4099D01*
X5027Y4101D01*
Y4102D01*
Y4103D01*
Y4103D01*
Y4103D01*
X5027Y4104D01*
X5027D01*
Y4103D01*
X5027Y4103D01*
X5026Y4102D01*
X5025Y4101D01*
X5024Y4100D01*
X5023Y4099D01*
X5023Y4099D01*
X5021Y4098D01*
X5019Y4096D01*
X5018Y4096D01*
X5017Y4095D01*
X5016Y4095D01*
X5015Y4095D01*
X5014Y4095D01*
X5012Y4094D01*
X5012Y4094D01*
X5011Y4093D01*
X5009Y4093D01*
X5007Y4092D01*
X5007D01*
X5006Y4092D01*
X5004Y4091D01*
X5001Y4091D01*
X5000D01*
X4999Y4090D01*
X4998D01*
X4996Y4090D01*
X4993Y4090D01*
X4991Y4090D01*
X4988Y4089D01*
X4984Y4090D01*
X4978Y4089D01*
X4973Y4091D01*
X4973Y4091D01*
X4972Y4092D01*
X4971Y4093D01*
X4971Y4095D01*
X4970Y4095D01*
X4970Y4096D01*
X4969Y4097D01*
X4968Y4099D01*
Y4099D01*
Y4100D01*
Y4102D01*
X4969Y4104D01*
X4969Y4108D01*
X4970Y4110D01*
X4970Y4112D01*
Y4112D01*
X4971Y4112D01*
X4972Y4114D01*
X4974Y4116D01*
X4976Y4116D01*
X4978Y4116D01*
X4984Y4114D01*
X4985D01*
X4987Y4114D01*
X4989Y4114D01*
X4991Y4114D01*
X4993Y4115D01*
X4999Y4115D01*
X5000D01*
X5002Y4116D01*
X5004D01*
X5006Y4116D01*
X5009Y4116D01*
X5015Y4117D01*
X5015D01*
X5017Y4117D01*
X5018Y4118D01*
X5020Y4118D01*
X5024Y4120D01*
X5027Y4121D01*
X5029Y4123D01*
X5029Y4123D01*
X5029Y4123D01*
X5030Y4124D01*
X5031Y4125D01*
X5032Y4127D01*
X5033Y4128D01*
X5034Y4131D01*
X5034Y4133D01*
Y4133D01*
Y4134D01*
X5034Y4136D01*
X5035Y4138D01*
Y4139D01*
X5035Y4140D01*
X5036Y4143D01*
X5036Y4145D01*
X5035Y4149D01*
Y4149D01*
X5036Y4150D01*
Y4151D01*
X5036Y4152D01*
X5036Y4155D01*
X5037Y4159D01*
Y4159D01*
Y4159D01*
X5037Y4161D01*
X5038Y4164D01*
Y4166D01*
X5036D01*
X5033Y4166D01*
X5030Y4165D01*
X5023D01*
X5021Y4166D01*
X5019D01*
X5012Y4165D01*
X5012D01*
X5011Y4165D01*
X5010Y4164D01*
X5008Y4164D01*
X5007Y4163D01*
X5007D01*
X5006Y4163D01*
X5004Y4162D01*
X5002Y4162D01*
X4999Y4162D01*
X4997D01*
X4995Y4161D01*
X4993Y4161D01*
X4992D01*
X4991Y4160D01*
X4989Y4160D01*
X4987Y4159D01*
X4986Y4159D01*
X4985Y4158D01*
X4983Y4158D01*
X4981Y4157D01*
X4981D01*
X4980Y4157D01*
X4979Y4156D01*
X4976Y4155D01*
X4973Y4154D01*
X4973Y4154D01*
X4972Y4154D01*
X4971Y4153D01*
X4971Y4153D01*
X4969Y4152D01*
X4967Y4151D01*
X4964Y4150D01*
X4958Y4164D01*
X4959Y4165D01*
X4960Y4165D01*
X4961Y4167D01*
X4962Y4168D01*
X4963Y4168D01*
X4964Y4169D01*
X4965Y4170D01*
X4967Y4171D01*
X4968Y4171D01*
X4969Y4172D01*
X4971Y4172D01*
X4973Y4174D01*
X4974Y4174D01*
X4976Y4174D01*
X4978Y4176D01*
X4981Y4177D01*
X4982Y4177D01*
X4983Y4178D01*
X4985Y4179D01*
X4987Y4180D01*
X4987Y4181D01*
X4988Y4181D01*
X4990Y4181D01*
X4991Y4182D01*
X4992D01*
X4993Y4182D01*
X4996Y4183D01*
X4996D01*
X4996Y4183D01*
X4997Y4183D01*
X4998Y4184D01*
X5000Y4184D01*
X5002Y4185D01*
X5004Y4186D01*
X5007Y4187D01*
X5007D01*
X5008Y4187D01*
X5010Y4188D01*
X5013Y4189D01*
X5014D01*
X5014Y4189D01*
X5015Y4189D01*
X5016Y4190D01*
X5019Y4191D01*
X5023Y4191D01*
X5030Y4190D01*
X5034Y4192D01*
X5038D01*
X5039Y4192D01*
D02*
G37*
G36*
X4553Y4203D02*
X4557D01*
X4561Y4203D01*
X4565Y4202D01*
X4570Y4201D01*
X4573Y4201D01*
X4574D01*
X4575Y4200D01*
X4576Y4199D01*
X4578Y4198D01*
X4580Y4197D01*
X4582Y4196D01*
X4583Y4194D01*
X4584Y4192D01*
X4584Y4191D01*
X4584Y4191D01*
X4585Y4189D01*
Y4189D01*
X4585Y4188D01*
X4585Y4186D01*
X4585Y4184D01*
Y4184D01*
Y4183D01*
X4585Y4182D01*
X4585Y4181D01*
X4584Y4179D01*
X4583Y4177D01*
X4582Y4175D01*
X4580Y4173D01*
X4580Y4172D01*
X4580Y4171D01*
X4578Y4170D01*
X4577Y4168D01*
X4575Y4165D01*
X4573Y4162D01*
X4570Y4158D01*
X4567Y4154D01*
X4566Y4154D01*
X4566Y4153D01*
X4565Y4153D01*
X4564Y4151D01*
X4561Y4148D01*
X4558Y4143D01*
X4554Y4139D01*
X4550Y4134D01*
X4546Y4130D01*
X4543Y4126D01*
X4543Y4125D01*
X4542Y4124D01*
X4541Y4122D01*
X4539Y4121D01*
X4537Y4119D01*
X4536Y4117D01*
X4535Y4116D01*
X4534Y4115D01*
Y4115D01*
X4534Y4114D01*
X4533Y4113D01*
X4531Y4111D01*
X4529Y4108D01*
X4527Y4104D01*
X4525Y4101D01*
X4523Y4097D01*
X4521Y4094D01*
X4521Y4094D01*
X4521Y4093D01*
X4520Y4091D01*
X4519Y4090D01*
X4517Y4085D01*
X4517Y4083D01*
X4517Y4082D01*
Y4081D01*
Y4080D01*
X4517Y4079D01*
X4518Y4078D01*
Y4078D01*
X4518Y4077D01*
X4519Y4076D01*
X4520Y4075D01*
X4520Y4075D01*
X4521Y4074D01*
X4522Y4074D01*
X4522Y4073D01*
X4523Y4073D01*
X4525Y4073D01*
X4527Y4072D01*
X4527D01*
X4528Y4071D01*
X4529Y4071D01*
X4531Y4070D01*
X4534Y4069D01*
X4537Y4068D01*
X4537Y4068D01*
X4539Y4068D01*
X4540Y4068D01*
X4541Y4067D01*
X4543D01*
X4545Y4068D01*
X4548D01*
X4553Y4069D01*
X4556Y4070D01*
X4558Y4071D01*
X4558Y4071D01*
X4559Y4071D01*
X4560Y4072D01*
X4561Y4073D01*
X4562Y4075D01*
X4563Y4077D01*
X4564Y4079D01*
X4565Y4081D01*
Y4082D01*
X4565Y4083D01*
X4566Y4085D01*
X4568Y4087D01*
X4569Y4087D01*
X4570Y4088D01*
X4571Y4089D01*
X4573Y4090D01*
X4574D01*
X4574Y4090D01*
X4575Y4089D01*
X4576Y4089D01*
X4577Y4088D01*
X4578Y4086D01*
X4579Y4084D01*
X4581Y4081D01*
X4581Y4081D01*
X4581Y4080D01*
X4582Y4078D01*
X4582Y4076D01*
X4583Y4072D01*
X4584Y4070D01*
X4583Y4068D01*
X4583Y4066D01*
X4583Y4066D01*
X4583Y4065D01*
X4584Y4063D01*
Y4063D01*
Y4062D01*
X4584Y4061D01*
X4583Y4060D01*
X4583Y4059D01*
X4582Y4057D01*
X4582Y4054D01*
Y4054D01*
X4581Y4053D01*
X4581Y4051D01*
X4580Y4050D01*
X4579Y4048D01*
X4577Y4046D01*
X4575Y4044D01*
X4573Y4043D01*
X4573Y4043D01*
X4572Y4043D01*
X4570Y4042D01*
X4569Y4041D01*
X4568Y4041D01*
X4568Y4040D01*
X4566Y4040D01*
X4565Y4039D01*
X4565D01*
X4564Y4039D01*
X4563D01*
X4561Y4038D01*
X4561D01*
X4560Y4038D01*
X4558Y4037D01*
X4556Y4037D01*
X4556D01*
X4554Y4037D01*
X4553Y4037D01*
X4551Y4036D01*
X4551D01*
X4549Y4036D01*
X4544D01*
X4542Y4036D01*
X4542D01*
X4540Y4037D01*
X4538Y4037D01*
X4534Y4037D01*
X4534D01*
X4533Y4037D01*
X4531D01*
X4529Y4038D01*
X4525Y4038D01*
X4525D01*
X4524Y4038D01*
X4523Y4039D01*
X4521Y4039D01*
X4521Y4039D01*
X4519Y4040D01*
X4517Y4041D01*
X4515Y4042D01*
X4515Y4042D01*
X4513Y4042D01*
X4512Y4043D01*
X4510Y4044D01*
X4510Y4045D01*
X4508Y4045D01*
X4507Y4046D01*
X4505Y4047D01*
X4505Y4047D01*
X4503Y4048D01*
X4502Y4049D01*
X4500Y4051D01*
X4500Y4052D01*
X4499Y4053D01*
X4498Y4055D01*
X4497Y4057D01*
Y4057D01*
X4497Y4058D01*
X4497Y4059D01*
X4496Y4060D01*
X4495Y4063D01*
X4495Y4065D01*
X4494Y4066D01*
X4494Y4067D01*
X4494Y4068D01*
Y4069D01*
Y4070D01*
Y4071D01*
Y4072D01*
Y4072D01*
Y4074D01*
Y4074D01*
Y4075D01*
Y4076D01*
X4494Y4077D01*
Y4078D01*
Y4078D01*
X4494D01*
Y4079D01*
X4495Y4080D01*
X4495Y4082D01*
X4495Y4085D01*
X4497Y4087D01*
X4498Y4091D01*
X4500Y4095D01*
X4500Y4095D01*
X4500Y4096D01*
X4502Y4098D01*
X4503Y4101D01*
X4505Y4105D01*
X4507Y4109D01*
X4510Y4114D01*
X4514Y4119D01*
X4514Y4120D01*
X4515Y4121D01*
X4515Y4122D01*
X4517Y4123D01*
X4517Y4123D01*
X4517Y4124D01*
X4519Y4126D01*
X4520Y4128D01*
Y4128D01*
X4521Y4128D01*
X4522Y4129D01*
X4522Y4130D01*
X4524Y4133D01*
X4527Y4138D01*
X4527Y4138D01*
X4527Y4138D01*
X4528Y4140D01*
X4529Y4141D01*
X4531Y4143D01*
X4533Y4145D01*
X4534Y4148D01*
X4537Y4151D01*
X4537Y4151D01*
X4538Y4153D01*
X4539Y4154D01*
X4541Y4157D01*
X4545Y4162D01*
X4547Y4164D01*
X4548Y4167D01*
X4549Y4167D01*
X4549Y4167D01*
X4550Y4169D01*
X4552Y4172D01*
X4552Y4173D01*
X4552Y4173D01*
X4552D01*
X4551Y4174D01*
X4550Y4174D01*
X4549Y4174D01*
X4549D01*
X4548Y4174D01*
X4548D01*
X4546Y4175D01*
X4545Y4175D01*
X4543Y4176D01*
X4540Y4177D01*
X4539Y4177D01*
X4539Y4177D01*
X4541Y4176D01*
X4541Y4176D01*
Y4175D01*
X4541Y4175D01*
X4515D01*
X4514Y4175D01*
X4513Y4176D01*
X4512D01*
X4511Y4175D01*
X4510D01*
X4510Y4175D01*
X4507Y4174D01*
X4503Y4174D01*
X4503D01*
X4503Y4174D01*
X4502D01*
X4500Y4173D01*
X4498Y4173D01*
X4494D01*
X4493Y4173D01*
X4491Y4174D01*
X4489Y4175D01*
X4489Y4175D01*
X4488Y4176D01*
X4487Y4177D01*
X4487Y4179D01*
Y4180D01*
X4487Y4181D01*
X4488Y4182D01*
X4488Y4184D01*
X4489Y4184D01*
X4489Y4186D01*
X4490Y4187D01*
X4492Y4189D01*
X4493Y4189D01*
X4493Y4189D01*
X4494Y4190D01*
X4496Y4191D01*
X4496Y4191D01*
X4497Y4192D01*
X4498Y4193D01*
X4499Y4194D01*
X4500D01*
X4501Y4195D01*
X4503Y4195D01*
X4505Y4196D01*
X4505D01*
X4507Y4196D01*
X4509Y4197D01*
X4512Y4197D01*
X4512D01*
X4514Y4197D01*
X4515Y4198D01*
X4517Y4198D01*
X4517D01*
X4519Y4198D01*
X4520Y4199D01*
X4521Y4200D01*
X4522D01*
X4522Y4200D01*
X4523D01*
X4524Y4201D01*
X4526D01*
X4528Y4201D01*
X4532D01*
X4534Y4201D01*
X4535Y4201D01*
X4537Y4202D01*
X4539Y4202D01*
X4539D01*
X4540Y4202D01*
X4541Y4203D01*
X4542D01*
X4545Y4203D01*
X4547Y4203D01*
X4550D01*
X4553Y4203D01*
D02*
G37*
G36*
X4743Y4189D02*
X4747Y4189D01*
X4747D01*
X4748Y4188D01*
X4749Y4188D01*
X4752Y4187D01*
X4754Y4186D01*
X4754Y4185D01*
X4754Y4185D01*
X4756Y4184D01*
X4756Y4183D01*
X4757Y4183D01*
X4758Y4182D01*
X4760Y4180D01*
X4760Y4180D01*
X4761Y4179D01*
X4762Y4177D01*
X4764Y4174D01*
Y4174D01*
X4764Y4174D01*
X4764Y4173D01*
X4765Y4172D01*
X4766Y4170D01*
X4766Y4168D01*
X4767Y4164D01*
Y4163D01*
X4767Y4163D01*
Y4162D01*
X4768Y4160D01*
X4768Y4157D01*
X4769Y4154D01*
Y4154D01*
Y4153D01*
Y4152D01*
Y4151D01*
X4769Y4148D01*
Y4145D01*
Y4145D01*
Y4144D01*
X4769Y4143D01*
X4768Y4141D01*
Y4141D01*
X4768Y4140D01*
Y4138D01*
Y4137D01*
Y4137D01*
Y4136D01*
Y4134D01*
X4768Y4133D01*
Y4132D01*
X4768Y4131D01*
X4768Y4128D01*
X4767Y4125D01*
Y4125D01*
X4767Y4124D01*
X4767Y4124D01*
X4774Y4110D01*
Y4110D01*
Y4109D01*
X4774Y4107D01*
X4773Y4106D01*
X4773Y4105D01*
X4773Y4104D01*
X4772Y4102D01*
X4771Y4101D01*
Y4100D01*
X4770Y4100D01*
X4769Y4099D01*
X4768Y4097D01*
X4767Y4095D01*
X4766Y4095D01*
X4766Y4094D01*
X4766Y4093D01*
X4766Y4093D01*
X4765Y4092D01*
X4765Y4091D01*
X4764Y4090D01*
X4763Y4089D01*
X4763Y4088D01*
X4762Y4086D01*
X4761Y4084D01*
X4761Y4083D01*
X4761Y4083D01*
X4760Y4081D01*
X4759Y4080D01*
X4759Y4079D01*
Y4078D01*
X4758Y4078D01*
X4758Y4077D01*
X4758Y4076D01*
X4757Y4074D01*
X4757Y4072D01*
X4756Y4070D01*
X4755Y4067D01*
X4755Y4067D01*
X4755Y4066D01*
X4754Y4065D01*
X4753Y4063D01*
X4753Y4062D01*
X4752Y4061D01*
X4752Y4059D01*
X4751Y4057D01*
Y4056D01*
X4750Y4055D01*
X4750Y4053D01*
X4749Y4050D01*
Y4050D01*
X4749Y4050D01*
X4748Y4048D01*
X4747Y4045D01*
X4746Y4042D01*
Y4042D01*
X4745Y4041D01*
X4745Y4040D01*
X4744Y4039D01*
X4742Y4037D01*
X4740Y4033D01*
X4740Y4033D01*
X4739Y4032D01*
X4739Y4032D01*
X4738Y4031D01*
X4736Y4029D01*
X4734Y4028D01*
X4732Y4027D01*
X4730Y4026D01*
X4730D01*
X4729Y4027D01*
X4728Y4027D01*
X4727Y4029D01*
X4725Y4030D01*
X4725Y4030D01*
X4724Y4031D01*
X4724Y4032D01*
X4724Y4034D01*
Y4034D01*
Y4034D01*
X4724Y4036D01*
X4725Y4039D01*
X4726Y4042D01*
Y4042D01*
X4727Y4043D01*
X4727Y4044D01*
X4727Y4044D01*
X4725Y4042D01*
X4723Y4039D01*
X4722Y4039D01*
X4722Y4039D01*
X4720Y4037D01*
X4718Y4035D01*
X4716Y4034D01*
X4715Y4033D01*
X4714Y4032D01*
X4713Y4032D01*
X4710Y4031D01*
X4710D01*
X4709Y4031D01*
X4708Y4030D01*
X4707Y4030D01*
X4706D01*
X4705Y4029D01*
X4703Y4029D01*
X4701Y4028D01*
X4701D01*
X4701Y4028D01*
X4700Y4027D01*
X4699Y4027D01*
X4699Y4027D01*
X4698Y4026D01*
X4696Y4025D01*
X4692Y4026D01*
X4692Y4026D01*
X4691Y4026D01*
X4690Y4027D01*
X4687Y4028D01*
X4686D01*
X4685Y4028D01*
X4683Y4029D01*
X4681Y4029D01*
X4681Y4029D01*
X4680Y4030D01*
X4677Y4032D01*
X4677Y4032D01*
X4676Y4032D01*
X4675Y4033D01*
X4674Y4034D01*
X4674D01*
X4673Y4035D01*
X4672Y4035D01*
X4671Y4036D01*
X4668Y4039D01*
X4665Y4043D01*
X4664Y4043D01*
X4664Y4044D01*
X4663Y4045D01*
X4662Y4047D01*
X4661Y4049D01*
X4660Y4051D01*
X4658Y4054D01*
X4657Y4057D01*
X4657Y4057D01*
X4657Y4058D01*
X4656Y4060D01*
X4655Y4062D01*
X4655Y4064D01*
X4654Y4066D01*
X4652Y4072D01*
Y4072D01*
X4652Y4073D01*
X4652Y4074D01*
X4651Y4076D01*
X4651Y4078D01*
X4651Y4080D01*
X4650Y4085D01*
Y4085D01*
Y4086D01*
Y4087D01*
Y4088D01*
X4651Y4090D01*
Y4092D01*
X4651Y4097D01*
X4652Y4102D01*
X4653Y4108D01*
X4654Y4114D01*
X4656Y4120D01*
Y4120D01*
X4656Y4120D01*
X4657Y4122D01*
X4658Y4125D01*
X4659Y4128D01*
X4662Y4132D01*
X4664Y4136D01*
X4667Y4141D01*
X4671Y4144D01*
Y4145D01*
X4672Y4145D01*
X4673Y4146D01*
X4674Y4147D01*
X4674Y4147D01*
X4675Y4148D01*
X4676Y4149D01*
Y4150D01*
Y4150D01*
X4676Y4151D01*
X4677Y4152D01*
X4678Y4153D01*
X4678Y4154D01*
X4679Y4155D01*
X4680Y4156D01*
X4681Y4157D01*
X4682D01*
X4682Y4157D01*
X4684Y4158D01*
X4685Y4159D01*
X4686Y4160D01*
X4688Y4162D01*
X4690Y4164D01*
X4690Y4164D01*
X4691Y4165D01*
X4692Y4166D01*
X4693Y4167D01*
X4696Y4170D01*
X4700Y4173D01*
X4700Y4173D01*
X4701Y4174D01*
X4702Y4175D01*
X4703Y4176D01*
X4707Y4179D01*
X4711Y4182D01*
X4711D01*
X4712Y4182D01*
X4713Y4182D01*
X4714Y4183D01*
X4718Y4184D01*
X4721Y4186D01*
X4722Y4186D01*
X4723Y4186D01*
X4725Y4188D01*
X4727Y4189D01*
X4728D01*
X4729Y4189D01*
X4732Y4189D01*
X4736Y4189D01*
X4739D01*
X4743Y4189D01*
D02*
G37*
G36*
X5075Y4441D02*
X5076Y4441D01*
X5078Y4440D01*
X5078Y4440D01*
X5079Y4439D01*
X5079Y4438D01*
X5080Y4436D01*
Y4436D01*
Y4436D01*
X5079Y4434D01*
X5079Y4432D01*
X5079Y4429D01*
X5079D01*
Y4429D01*
X5079Y4429D01*
Y4428D01*
X5080Y4428D01*
X5080Y4427D01*
X5080Y4426D01*
Y4426D01*
Y4424D01*
X5081Y4422D01*
Y4420D01*
X5081Y4417D01*
X5081Y4414D01*
X5082Y4407D01*
Y4406D01*
Y4405D01*
Y4404D01*
X5081Y4402D01*
Y4400D01*
Y4398D01*
Y4393D01*
Y4392D01*
Y4392D01*
Y4390D01*
Y4388D01*
X5081Y4384D01*
Y4384D01*
Y4383D01*
Y4382D01*
X5081Y4381D01*
Y4379D01*
X5081Y4377D01*
X5080Y4372D01*
Y4372D01*
X5080Y4371D01*
Y4370D01*
X5080Y4368D01*
X5079Y4365D01*
X5079Y4361D01*
Y4361D01*
Y4360D01*
X5079Y4359D01*
Y4358D01*
X5079Y4355D01*
Y4353D01*
Y4353D01*
Y4352D01*
Y4351D01*
X5078Y4349D01*
Y4349D01*
X5078Y4347D01*
Y4346D01*
X5078Y4344D01*
Y4343D01*
Y4343D01*
X5077Y4342D01*
Y4340D01*
X5077Y4339D01*
Y4338D01*
X5077Y4337D01*
Y4335D01*
Y4335D01*
Y4333D01*
Y4333D01*
Y4333D01*
X5077Y4331D01*
Y4331D01*
X5077Y4330D01*
X5076Y4329D01*
X5076Y4327D01*
X5075Y4326D01*
Y4325D01*
X5075Y4325D01*
X5075Y4325D01*
Y4324D01*
X5075Y4323D01*
X5075Y4322D01*
X5076Y4321D01*
Y4320D01*
X5075Y4319D01*
X5075Y4317D01*
X5074Y4315D01*
Y4314D01*
X5074Y4314D01*
Y4313D01*
X5074Y4312D01*
X5073Y4310D01*
X5073Y4308D01*
X5073Y4306D01*
X5072Y4304D01*
Y4303D01*
Y4303D01*
Y4302D01*
Y4300D01*
Y4300D01*
Y4299D01*
Y4298D01*
Y4296D01*
X5073Y4295D01*
X5073D01*
X5074Y4295D01*
X5075Y4294D01*
X5076Y4295D01*
X5076D01*
X5077Y4296D01*
X5078Y4296D01*
X5080Y4296D01*
X5080D01*
X5081Y4296D01*
X5081D01*
X5082Y4297D01*
X5083Y4297D01*
X5084Y4297D01*
X5087Y4298D01*
X5090Y4299D01*
X5094Y4300D01*
X5098Y4301D01*
X5107Y4304D01*
X5108D01*
X5109Y4304D01*
X5110Y4303D01*
X5111Y4302D01*
X5111Y4302D01*
X5112Y4301D01*
X5112Y4300D01*
X5112Y4299D01*
Y4298D01*
Y4298D01*
X5112Y4297D01*
X5111Y4296D01*
Y4295D01*
X5111Y4294D01*
X5110Y4293D01*
X5110Y4291D01*
Y4291D01*
Y4290D01*
X5109Y4289D01*
Y4287D01*
X5109Y4284D01*
Y4284D01*
X5109Y4283D01*
X5108Y4281D01*
X5108Y4279D01*
X5108Y4279D01*
X5107Y4278D01*
X5106Y4276D01*
X5105Y4275D01*
X5104Y4274D01*
X5103Y4273D01*
X5102Y4272D01*
X5100Y4272D01*
X5100D01*
X5099Y4272D01*
X5098Y4271D01*
X5096Y4271D01*
X5093Y4270D01*
X5089Y4269D01*
X5088D01*
X5087Y4269D01*
X5080D01*
X5079Y4268D01*
X5078D01*
X5077Y4268D01*
X5074Y4267D01*
X5069Y4267D01*
X5069D01*
X5068Y4266D01*
X5067D01*
X5066Y4266D01*
X5064D01*
X5062Y4266D01*
X5055D01*
X5054Y4266D01*
X5052Y4266D01*
X5051D01*
X5050Y4267D01*
X5048D01*
X5047Y4267D01*
X5046Y4267D01*
X5045Y4267D01*
X5044D01*
X5044Y4268D01*
X5043Y4268D01*
X5042Y4268D01*
X5039Y4267D01*
X5038D01*
X5037Y4267D01*
X5036Y4268D01*
X5035Y4268D01*
X5035D01*
X5034Y4269D01*
X5033Y4269D01*
X5033Y4270D01*
X5033Y4270D01*
X5032Y4269D01*
X5031Y4268D01*
X5030D01*
X5029Y4269D01*
X5027Y4269D01*
X5026Y4271D01*
X5025Y4271D01*
X5025Y4272D01*
X5024Y4274D01*
X5023Y4276D01*
Y4276D01*
Y4277D01*
Y4278D01*
Y4280D01*
Y4280D01*
Y4281D01*
Y4282D01*
X5024Y4284D01*
Y4284D01*
Y4285D01*
X5023Y4287D01*
Y4287D01*
X5023Y4288D01*
Y4289D01*
Y4289D01*
Y4290D01*
X5023Y4291D01*
X5024Y4292D01*
X5025Y4293D01*
X5025Y4294D01*
X5026Y4294D01*
X5027Y4294D01*
X5028Y4294D01*
X5031D01*
X5034Y4294D01*
X5037Y4294D01*
X5038D01*
X5038Y4293D01*
X5039D01*
X5040Y4293D01*
X5043Y4292D01*
X5046Y4291D01*
X5046D01*
X5048Y4292D01*
X5050Y4292D01*
X5052Y4292D01*
X5053D01*
X5053Y4292D01*
X5053Y4293D01*
X5052Y4294D01*
X5051Y4294D01*
X5051Y4294D01*
X5050Y4295D01*
X5049Y4297D01*
X5049Y4297D01*
X5048Y4298D01*
X5047Y4300D01*
X5047Y4302D01*
Y4303D01*
X5046Y4304D01*
X5046Y4306D01*
Y4306D01*
X5045Y4306D01*
Y4308D01*
Y4308D01*
Y4310D01*
X5046Y4312D01*
X5046Y4314D01*
Y4315D01*
Y4315D01*
X5046Y4317D01*
X5047Y4319D01*
X5047Y4321D01*
Y4321D01*
X5047Y4322D01*
X5048Y4324D01*
X5048Y4326D01*
X5049Y4329D01*
Y4329D01*
X5049Y4330D01*
X5050Y4332D01*
X5050Y4333D01*
Y4333D01*
Y4334D01*
X5050Y4335D01*
Y4336D01*
Y4336D01*
Y4338D01*
X5050Y4339D01*
Y4340D01*
Y4341D01*
X5051Y4342D01*
X5051Y4344D01*
Y4345D01*
X5052Y4346D01*
X5052Y4347D01*
X5053Y4350D01*
Y4350D01*
Y4351D01*
X5053Y4352D01*
X5053Y4353D01*
Y4354D01*
X5054Y4354D01*
X5054Y4356D01*
X5054Y4358D01*
Y4358D01*
X5055Y4359D01*
X5055Y4360D01*
X5055Y4362D01*
Y4362D01*
X5056Y4363D01*
X5056Y4364D01*
X5057Y4366D01*
Y4366D01*
Y4366D01*
Y4368D01*
X5056Y4369D01*
Y4370D01*
Y4370D01*
X5057Y4371D01*
X5057Y4374D01*
X5057Y4376D01*
Y4377D01*
Y4377D01*
X5058Y4378D01*
Y4380D01*
X5058Y4383D01*
X5059Y4387D01*
Y4387D01*
Y4388D01*
X5059Y4389D01*
Y4390D01*
X5059Y4393D01*
X5060Y4397D01*
Y4397D01*
X5061Y4398D01*
X5062Y4400D01*
Y4400D01*
Y4401D01*
X5061Y4402D01*
Y4402D01*
X5061Y4403D01*
Y4405D01*
Y4405D01*
Y4406D01*
X5061Y4407D01*
X5062Y4409D01*
Y4409D01*
Y4410D01*
X5062Y4411D01*
Y4412D01*
Y4413D01*
Y4413D01*
Y4414D01*
Y4415D01*
X5062Y4417D01*
Y4419D01*
Y4419D01*
Y4419D01*
Y4420D01*
Y4422D01*
Y4424D01*
Y4425D01*
Y4426D01*
Y4427D01*
X5062Y4427D01*
X5061Y4429D01*
X5061Y4430D01*
Y4431D01*
X5061Y4432D01*
X5062Y4433D01*
X5062Y4434D01*
Y4434D01*
X5062Y4435D01*
X5064Y4436D01*
X5064Y4436D01*
X5065Y4437D01*
X5067Y4438D01*
X5068Y4439D01*
X5068Y4439D01*
X5069Y4439D01*
X5070Y4440D01*
X5070Y4441D01*
X5071Y4441D01*
X5071Y4441D01*
X5073Y4441D01*
X5073D01*
X5075Y4441D01*
D02*
G37*
G36*
X5215Y4454D02*
X5217Y4453D01*
X5218Y4452D01*
X5219Y4451D01*
X5219Y4450D01*
X5220Y4448D01*
X5220Y4446D01*
Y4446D01*
Y4446D01*
Y4444D01*
X5220Y4441D01*
X5219Y4439D01*
Y4439D01*
X5219Y4438D01*
Y4437D01*
X5219Y4436D01*
X5218Y4433D01*
X5217Y4430D01*
Y4430D01*
X5216Y4429D01*
X5216Y4428D01*
X5216Y4426D01*
X5215Y4423D01*
X5214Y4421D01*
X5214Y4420D01*
Y4419D01*
X5214Y4419D01*
X5213Y4418D01*
X5213Y4416D01*
X5213Y4414D01*
Y4414D01*
X5212Y4413D01*
X5212Y4412D01*
X5212Y4411D01*
Y4411D01*
X5211Y4410D01*
X5211Y4408D01*
X5210Y4406D01*
X5210Y4405D01*
X5210Y4404D01*
X5209Y4402D01*
X5209Y4401D01*
X5214Y4392D01*
Y4391D01*
X5214Y4391D01*
X5214Y4390D01*
Y4390D01*
Y4389D01*
Y4388D01*
Y4388D01*
Y4387D01*
X5214Y4386D01*
X5214Y4383D01*
X5213Y4381D01*
Y4380D01*
X5213Y4380D01*
X5213Y4379D01*
X5212Y4377D01*
X5210Y4375D01*
Y4375D01*
X5210Y4375D01*
X5209Y4374D01*
X5207Y4373D01*
X5207Y4373D01*
X5206Y4372D01*
X5204Y4372D01*
X5202Y4371D01*
X5201D01*
X5201Y4371D01*
X5199Y4369D01*
X5199Y4369D01*
X5199Y4369D01*
X5199Y4368D01*
X5198Y4367D01*
Y4366D01*
X5198Y4366D01*
X5197Y4364D01*
X5197Y4363D01*
X5197Y4362D01*
X5196Y4361D01*
X5195Y4359D01*
X5194Y4357D01*
Y4357D01*
X5194Y4357D01*
X5194Y4356D01*
X5193Y4355D01*
X5193Y4354D01*
X5192Y4352D01*
X5192Y4350D01*
Y4350D01*
X5191Y4349D01*
X5191Y4347D01*
X5190Y4345D01*
X5189Y4342D01*
X5188Y4337D01*
X5186Y4333D01*
X5185Y4327D01*
Y4327D01*
X5185Y4327D01*
X5184Y4325D01*
X5183Y4323D01*
X5183Y4320D01*
Y4320D01*
X5182Y4320D01*
X5182Y4318D01*
X5181Y4317D01*
X5180Y4315D01*
X5180Y4314D01*
X5180Y4313D01*
X5179Y4311D01*
X5178Y4309D01*
X5176Y4305D01*
X5175Y4303D01*
X5174Y4301D01*
Y4301D01*
X5174Y4301D01*
X5173Y4300D01*
X5172Y4298D01*
X5171Y4297D01*
X5175Y4291D01*
X5169Y4284D01*
X5162Y4282D01*
X5161Y4282D01*
X5161Y4281D01*
X5160Y4280D01*
X5160Y4279D01*
X5159Y4278D01*
X5157Y4276D01*
X5156Y4274D01*
X5155Y4273D01*
X5154D01*
X5154Y4272D01*
X5153Y4272D01*
X5152Y4271D01*
X5152Y4271D01*
X5151Y4270D01*
X5149Y4270D01*
X5148Y4268D01*
X5147Y4268D01*
X5146Y4267D01*
X5144Y4266D01*
X5143Y4265D01*
X5143Y4264D01*
X5142Y4264D01*
X5140Y4264D01*
X5139Y4263D01*
X5139D01*
X5137Y4264D01*
X5134Y4264D01*
X5133Y4265D01*
X5132Y4266D01*
X5132Y4267D01*
X5131Y4269D01*
X5131Y4271D01*
Y4271D01*
X5131Y4273D01*
X5132Y4275D01*
X5133Y4279D01*
Y4279D01*
X5134Y4279D01*
X5134Y4281D01*
X5136Y4284D01*
X5136Y4286D01*
Y4286D01*
Y4287D01*
X5136D01*
X5121Y4294D01*
X5121Y4294D01*
X5120Y4295D01*
X5119Y4296D01*
X5119Y4298D01*
X5118Y4299D01*
Y4299D01*
X5118Y4300D01*
Y4301D01*
X5118Y4302D01*
X5117Y4305D01*
X5117Y4308D01*
Y4309D01*
X5116Y4309D01*
Y4310D01*
X5116Y4311D01*
X5116Y4314D01*
X5115Y4317D01*
Y4317D01*
X5115Y4318D01*
X5115Y4320D01*
Y4322D01*
Y4322D01*
Y4323D01*
X5115Y4324D01*
X5115Y4325D01*
X5116Y4328D01*
X5117Y4332D01*
Y4332D01*
X5116Y4333D01*
X5116Y4335D01*
X5116Y4337D01*
X5115Y4341D01*
X5114Y4346D01*
Y4346D01*
Y4347D01*
X5114Y4349D01*
X5115Y4351D01*
X5115Y4353D01*
Y4355D01*
X5115Y4360D01*
X5115Y4360D01*
X5113Y4360D01*
X5112Y4362D01*
X5112Y4362D01*
X5111Y4363D01*
X5110Y4364D01*
X5110Y4366D01*
Y4366D01*
Y4367D01*
X5111Y4369D01*
X5111Y4370D01*
X5112Y4370D01*
X5112Y4371D01*
X5113Y4372D01*
X5114Y4373D01*
X5114D01*
X5115Y4374D01*
X5115Y4374D01*
X5116Y4374D01*
X5116D01*
X5115Y4381D01*
X5117Y4398D01*
Y4398D01*
Y4399D01*
X5117Y4401D01*
X5117Y4404D01*
Y4404D01*
Y4404D01*
X5118Y4406D01*
X5118Y4408D01*
X5118Y4412D01*
X5119Y4412D01*
X5119Y4414D01*
X5120Y4415D01*
X5120Y4417D01*
Y4417D01*
Y4418D01*
X5121Y4418D01*
Y4419D01*
Y4419D01*
X5120Y4420D01*
X5120Y4421D01*
X5120Y4423D01*
Y4424D01*
Y4424D01*
X5120Y4426D01*
X5121Y4428D01*
X5121Y4430D01*
Y4431D01*
X5122Y4432D01*
X5122Y4434D01*
X5123Y4437D01*
Y4437D01*
X5123Y4437D01*
X5124Y4439D01*
X5125Y4441D01*
X5127Y4444D01*
X5128Y4444D01*
X5129Y4445D01*
X5131Y4446D01*
X5134Y4446D01*
X5134D01*
X5135Y4446D01*
X5137Y4445D01*
X5138Y4444D01*
X5138Y4444D01*
X5138Y4442D01*
X5139Y4441D01*
X5139Y4439D01*
Y4438D01*
Y4438D01*
Y4436D01*
X5139Y4435D01*
Y4435D01*
X5138Y4434D01*
Y4433D01*
Y4432D01*
Y4431D01*
Y4431D01*
X5139Y4430D01*
Y4429D01*
Y4429D01*
Y4427D01*
Y4427D01*
Y4426D01*
Y4425D01*
Y4424D01*
X5138Y4423D01*
Y4421D01*
Y4419D01*
X5138Y4416D01*
Y4416D01*
Y4415D01*
X5138Y4414D01*
Y4412D01*
X5137Y4409D01*
Y4407D01*
Y4406D01*
Y4405D01*
X5138Y4405D01*
X5138Y4403D01*
X5139Y4401D01*
Y4401D01*
X5138Y4400D01*
Y4398D01*
Y4397D01*
Y4396D01*
Y4395D01*
Y4394D01*
Y4392D01*
X5137Y4389D01*
X5138Y4381D01*
X5138Y4381D01*
X5138D01*
X5138Y4381D01*
X5139Y4381D01*
X5141Y4382D01*
X5141D01*
X5142Y4383D01*
X5144Y4383D01*
X5146Y4383D01*
X5146D01*
X5148Y4384D01*
X5150Y4384D01*
X5154D01*
X5154Y4385D01*
X5156Y4385D01*
X5157Y4386D01*
X5158D01*
X5159Y4386D01*
X5161Y4387D01*
X5164Y4388D01*
X5165D01*
X5165Y4388D01*
X5166Y4389D01*
X5167Y4389D01*
X5170Y4390D01*
X5173Y4392D01*
X5174Y4392D01*
X5175Y4393D01*
X5177Y4393D01*
X5180Y4394D01*
X5180D01*
X5181Y4394D01*
X5183Y4395D01*
X5185Y4395D01*
X5185Y4395D01*
X5186Y4396D01*
X5186Y4396D01*
X5186Y4398D01*
Y4398D01*
X5187Y4399D01*
X5187Y4401D01*
X5188Y4403D01*
X5188Y4403D01*
X5189Y4405D01*
X5190Y4407D01*
X5192Y4411D01*
Y4411D01*
X5192Y4412D01*
X5192Y4413D01*
X5193Y4415D01*
Y4416D01*
X5193Y4417D01*
X5194Y4419D01*
X5195Y4422D01*
Y4422D01*
X5195Y4423D01*
X5196Y4424D01*
X5197Y4426D01*
X5197Y4427D01*
X5197Y4428D01*
X5198Y4429D01*
X5198Y4430D01*
Y4431D01*
Y4431D01*
Y4432D01*
X5199Y4434D01*
Y4434D01*
X5199Y4435D01*
X5199Y4437D01*
X5199Y4439D01*
Y4439D01*
X5200Y4440D01*
X5200Y4441D01*
X5201Y4443D01*
X5202Y4444D01*
X5202Y4445D01*
X5203Y4447D01*
X5204Y4449D01*
X5204Y4449D01*
X5205Y4450D01*
X5206Y4451D01*
X5208Y4453D01*
X5208Y4453D01*
X5209Y4453D01*
X5211Y4454D01*
X5213Y4454D01*
X5214D01*
X5215Y4454D01*
D02*
G37*
G36*
X4367Y4448D02*
X4369Y4448D01*
X4370Y4447D01*
Y4446D01*
X4370Y4445D01*
X4371Y4444D01*
X4371Y4441D01*
Y4441D01*
Y4440D01*
X4371Y4438D01*
X4370Y4436D01*
Y4436D01*
Y4435D01*
X4370Y4434D01*
X4370Y4434D01*
X4369Y4431D01*
X4369Y4427D01*
Y4427D01*
X4368Y4426D01*
Y4425D01*
X4368Y4423D01*
X4367Y4420D01*
X4367Y4417D01*
Y4417D01*
X4366Y4417D01*
X4366Y4415D01*
X4366Y4414D01*
X4366Y4413D01*
Y4412D01*
Y4412D01*
X4365Y4411D01*
X4365Y4408D01*
X4364Y4405D01*
Y4405D01*
Y4404D01*
X4364Y4403D01*
Y4402D01*
X4364Y4399D01*
X4363Y4395D01*
Y4395D01*
X4363Y4394D01*
X4363Y4393D01*
X4362Y4391D01*
Y4391D01*
X4362Y4389D01*
X4362Y4388D01*
X4361Y4385D01*
Y4385D01*
X4361Y4384D01*
X4360Y4383D01*
X4360Y4381D01*
X4360Y4379D01*
X4359Y4376D01*
X4359Y4373D01*
Y4372D01*
X4358Y4371D01*
X4358Y4368D01*
X4357Y4365D01*
X4357Y4361D01*
X4356Y4356D01*
X4355Y4350D01*
X4354Y4343D01*
Y4343D01*
X4354Y4342D01*
Y4342D01*
X4354Y4340D01*
X4353Y4339D01*
X4353Y4337D01*
X4352Y4332D01*
X4351Y4327D01*
X4350Y4320D01*
X4349Y4314D01*
X4348Y4307D01*
X4350Y4300D01*
Y4299D01*
X4350Y4299D01*
X4350Y4298D01*
X4349Y4296D01*
X4349Y4294D01*
Y4294D01*
X4348Y4293D01*
X4348Y4291D01*
X4347Y4289D01*
X4347Y4289D01*
X4347Y4288D01*
X4345Y4287D01*
X4344Y4286D01*
X4343Y4285D01*
X4342Y4285D01*
X4340Y4284D01*
X4338Y4284D01*
X4336D01*
X4335Y4284D01*
X4335D01*
X4334Y4284D01*
X4333Y4283D01*
X4331D01*
X4330Y4284D01*
X4329Y4284D01*
X4328Y4285D01*
X4327Y4286D01*
X4327Y4286D01*
X4326Y4286D01*
X4326Y4285D01*
X4325Y4285D01*
X4324Y4284D01*
X4323Y4282D01*
X4323Y4282D01*
X4322Y4281D01*
X4321Y4280D01*
X4320Y4279D01*
X4320Y4278D01*
X4319Y4278D01*
X4317Y4277D01*
X4315Y4276D01*
X4314Y4277D01*
X4313Y4277D01*
X4312Y4278D01*
X4311Y4278D01*
X4311D01*
X4310Y4279D01*
X4309Y4279D01*
X4308Y4280D01*
X4308Y4281D01*
X4308Y4281D01*
X4308Y4282D01*
Y4283D01*
Y4283D01*
Y4284D01*
X4308Y4284D01*
X4308Y4286D01*
Y4286D01*
X4309Y4287D01*
X4309Y4289D01*
X4310Y4292D01*
Y4292D01*
X4311Y4292D01*
X4311Y4294D01*
X4312Y4296D01*
X4312Y4298D01*
Y4298D01*
X4313Y4299D01*
X4313Y4301D01*
X4313Y4302D01*
X4314Y4303D01*
X4315Y4304D01*
X4316Y4306D01*
Y4306D01*
X4316Y4307D01*
X4317Y4308D01*
X4317Y4309D01*
Y4310D01*
X4317Y4311D01*
X4316Y4313D01*
X4316Y4316D01*
Y4316D01*
X4315Y4317D01*
X4315Y4318D01*
X4314Y4319D01*
X4314Y4321D01*
X4313Y4323D01*
X4312Y4327D01*
X4311Y4328D01*
X4311Y4329D01*
X4310Y4331D01*
X4309Y4333D01*
X4308Y4336D01*
X4307Y4340D01*
X4305Y4343D01*
X4304Y4347D01*
X4304Y4348D01*
X4303Y4349D01*
X4302Y4351D01*
X4301Y4354D01*
X4301Y4357D01*
X4299Y4361D01*
X4296Y4369D01*
X4296Y4369D01*
X4296Y4371D01*
X4295Y4373D01*
X4294Y4375D01*
X4293Y4378D01*
X4292Y4382D01*
X4289Y4389D01*
X4288Y4389D01*
X4288Y4391D01*
X4287Y4392D01*
X4286Y4394D01*
X4284Y4399D01*
X4283Y4402D01*
X4282Y4403D01*
Y4404D01*
X4282Y4404D01*
X4281Y4405D01*
X4280Y4407D01*
X4280Y4407D01*
X4279Y4407D01*
Y4406D01*
Y4404D01*
Y4404D01*
Y4403D01*
Y4402D01*
X4279Y4401D01*
Y4400D01*
X4279Y4400D01*
X4279Y4398D01*
X4278Y4396D01*
Y4396D01*
X4278Y4396D01*
X4277Y4394D01*
X4277Y4392D01*
X4276Y4389D01*
Y4389D01*
X4276Y4388D01*
Y4387D01*
X4275Y4386D01*
X4275Y4382D01*
X4274Y4378D01*
Y4378D01*
X4274Y4378D01*
X4273Y4376D01*
X4273Y4373D01*
X4272Y4371D01*
Y4370D01*
Y4370D01*
X4272Y4369D01*
Y4368D01*
X4272Y4366D01*
Y4364D01*
X4271Y4362D01*
Y4362D01*
Y4361D01*
X4271Y4359D01*
Y4357D01*
X4271Y4354D01*
X4270Y4351D01*
Y4348D01*
X4270Y4344D01*
Y4343D01*
Y4343D01*
Y4342D01*
X4270Y4340D01*
Y4340D01*
X4270Y4339D01*
X4269Y4337D01*
X4269Y4335D01*
Y4334D01*
X4268Y4333D01*
Y4332D01*
X4268Y4330D01*
Y4330D01*
X4268Y4329D01*
Y4328D01*
Y4327D01*
Y4325D01*
X4268Y4323D01*
X4268Y4320D01*
Y4319D01*
Y4319D01*
X4269Y4318D01*
Y4316D01*
X4269Y4314D01*
Y4311D01*
Y4311D01*
X4269Y4309D01*
X4268Y4308D01*
X4268Y4306D01*
X4267Y4304D01*
X4267Y4301D01*
X4266Y4296D01*
Y4296D01*
X4265Y4295D01*
X4265Y4294D01*
X4265Y4293D01*
X4264Y4289D01*
X4263Y4286D01*
Y4286D01*
X4263Y4285D01*
X4263Y4284D01*
X4262Y4282D01*
X4261Y4280D01*
Y4279D01*
X4261Y4279D01*
X4260Y4278D01*
X4260Y4277D01*
X4258Y4274D01*
X4256Y4272D01*
Y4271D01*
X4255Y4271D01*
X4254Y4270D01*
X4252Y4267D01*
X4249Y4265D01*
X4247D01*
X4246Y4266D01*
X4245Y4266D01*
X4244Y4267D01*
X4243Y4267D01*
X4243Y4268D01*
X4243Y4269D01*
X4243Y4270D01*
Y4271D01*
X4243Y4272D01*
X4243Y4273D01*
X4244Y4274D01*
Y4274D01*
X4243Y4275D01*
Y4276D01*
X4243Y4278D01*
Y4279D01*
X4243Y4280D01*
X4244Y4282D01*
X4244Y4284D01*
Y4284D01*
Y4284D01*
Y4286D01*
X4244Y4287D01*
Y4287D01*
Y4289D01*
X4245Y4291D01*
Y4294D01*
Y4294D01*
Y4295D01*
Y4295D01*
X4245Y4296D01*
Y4298D01*
X4245Y4300D01*
Y4300D01*
Y4301D01*
Y4302D01*
X4246Y4303D01*
Y4305D01*
X4246Y4307D01*
X4246Y4310D01*
X4246Y4312D01*
Y4313D01*
Y4314D01*
X4247Y4316D01*
Y4319D01*
X4247Y4323D01*
X4247Y4326D01*
X4248Y4334D01*
Y4335D01*
Y4336D01*
X4248Y4338D01*
X4249Y4341D01*
X4249Y4345D01*
X4249Y4348D01*
X4250Y4352D01*
X4250Y4357D01*
Y4357D01*
X4251Y4359D01*
Y4361D01*
X4251Y4364D01*
X4251Y4368D01*
X4252Y4372D01*
X4253Y4381D01*
Y4381D01*
X4253Y4382D01*
X4253Y4384D01*
X4254Y4387D01*
X4255Y4390D01*
X4255Y4393D01*
X4257Y4400D01*
Y4400D01*
Y4401D01*
X4258Y4402D01*
X4258Y4403D01*
X4258Y4405D01*
X4258Y4407D01*
X4259Y4412D01*
Y4412D01*
X4260Y4413D01*
X4260Y4414D01*
X4260Y4416D01*
X4261Y4418D01*
X4262Y4420D01*
X4264Y4426D01*
X4267Y4432D01*
X4268Y4432D01*
X4268Y4433D01*
X4269Y4433D01*
X4270Y4434D01*
X4271Y4434D01*
X4273Y4435D01*
X4276Y4436D01*
X4276D01*
X4277Y4436D01*
X4278Y4437D01*
X4280Y4437D01*
X4283Y4438D01*
X4284Y4439D01*
X4286D01*
X4287Y4438D01*
X4288Y4437D01*
X4289Y4436D01*
X4291Y4435D01*
X4292Y4434D01*
X4292Y4433D01*
X4293Y4433D01*
X4294Y4432D01*
X4295Y4430D01*
X4296Y4428D01*
X4297Y4425D01*
X4299Y4422D01*
X4301Y4419D01*
X4301Y4418D01*
X4301Y4417D01*
X4302Y4416D01*
X4304Y4414D01*
X4306Y4409D01*
X4308Y4405D01*
Y4404D01*
X4308Y4404D01*
X4309Y4403D01*
X4310Y4401D01*
X4311Y4398D01*
X4311Y4397D01*
X4312Y4395D01*
Y4395D01*
X4312Y4395D01*
X4313Y4393D01*
Y4393D01*
X4313Y4392D01*
X4313Y4391D01*
X4313Y4389D01*
Y4389D01*
X4314Y4388D01*
X4314Y4387D01*
X4315Y4385D01*
X4316Y4383D01*
X4317Y4381D01*
X4320Y4376D01*
X4320Y4375D01*
X4320Y4374D01*
X4321Y4373D01*
X4322Y4371D01*
X4323Y4368D01*
X4324Y4365D01*
X4326Y4362D01*
X4328Y4359D01*
Y4358D01*
X4328Y4357D01*
X4329Y4355D01*
X4330Y4353D01*
X4330Y4353D01*
X4330Y4353D01*
X4330Y4354D01*
Y4355D01*
Y4355D01*
X4331Y4357D01*
X4332Y4359D01*
X4332Y4362D01*
Y4363D01*
X4333Y4363D01*
X4333Y4364D01*
X4334Y4366D01*
X4335Y4369D01*
Y4369D01*
X4335Y4370D01*
X4335Y4371D01*
X4336Y4373D01*
X4337Y4375D01*
X4337Y4378D01*
X4339Y4383D01*
Y4384D01*
X4339Y4385D01*
X4340Y4386D01*
X4340Y4388D01*
X4341Y4391D01*
X4342Y4394D01*
X4344Y4400D01*
Y4400D01*
Y4401D01*
X4344Y4403D01*
X4345Y4405D01*
X4345Y4407D01*
Y4407D01*
X4345Y4409D01*
X4346Y4411D01*
X4347Y4414D01*
X4349Y4417D01*
Y4418D01*
Y4418D01*
X4349Y4419D01*
X4350Y4422D01*
X4350Y4424D01*
X4350Y4424D01*
X4350Y4425D01*
X4351Y4427D01*
X4352Y4429D01*
X4352Y4430D01*
Y4430D01*
X4352Y4431D01*
X4353Y4432D01*
X4353Y4433D01*
X4354Y4436D01*
X4355Y4440D01*
Y4440D01*
X4355Y4441D01*
X4356Y4443D01*
X4357Y4445D01*
X4358Y4445D01*
X4359Y4446D01*
X4360Y4446D01*
X4361Y4447D01*
X4362D01*
X4362Y4447D01*
X4363D01*
X4363Y4448D01*
X4364Y4448D01*
X4366Y4449D01*
X4366D01*
X4367Y4448D01*
D02*
G37*
G36*
X5038Y4454D02*
X5040Y4453D01*
X5041Y4452D01*
X5041Y4451D01*
X5042Y4450D01*
X5043Y4448D01*
X5043Y4446D01*
Y4446D01*
Y4446D01*
Y4444D01*
X5043Y4441D01*
X5042Y4439D01*
Y4439D01*
X5042Y4438D01*
Y4437D01*
X5041Y4436D01*
X5040Y4433D01*
X5040Y4430D01*
Y4430D01*
X5039Y4429D01*
X5039Y4428D01*
X5038Y4426D01*
X5038Y4423D01*
X5037Y4421D01*
X5037Y4420D01*
Y4419D01*
X5036Y4419D01*
X5036Y4418D01*
X5036Y4416D01*
X5035Y4414D01*
Y4414D01*
X5035Y4413D01*
X5035Y4412D01*
X5034Y4411D01*
Y4411D01*
X5034Y4410D01*
X5033Y4408D01*
X5033Y4406D01*
X5033Y4405D01*
X5033Y4404D01*
X5032Y4402D01*
X5031Y4401D01*
X5037Y4392D01*
Y4391D01*
X5037Y4391D01*
X5037Y4390D01*
Y4390D01*
Y4389D01*
Y4388D01*
Y4388D01*
Y4387D01*
X5037Y4386D01*
X5037Y4383D01*
X5036Y4381D01*
Y4380D01*
X5036Y4380D01*
X5035Y4379D01*
X5034Y4377D01*
X5033Y4375D01*
Y4375D01*
X5033Y4375D01*
X5032Y4374D01*
X5030Y4373D01*
X5030Y4373D01*
X5028Y4372D01*
X5027Y4372D01*
X5024Y4371D01*
X5024D01*
X5024Y4371D01*
X5022Y4369D01*
X5022Y4369D01*
X5022Y4369D01*
X5021Y4368D01*
X5021Y4367D01*
Y4366D01*
X5021Y4366D01*
X5020Y4364D01*
X5020Y4363D01*
X5019Y4362D01*
X5019Y4361D01*
X5018Y4359D01*
X5017Y4357D01*
Y4357D01*
X5017Y4357D01*
X5016Y4356D01*
X5016Y4355D01*
X5016Y4354D01*
X5015Y4352D01*
X5014Y4350D01*
Y4350D01*
X5014Y4349D01*
X5014Y4347D01*
X5013Y4345D01*
X5012Y4342D01*
X5011Y4337D01*
X5009Y4333D01*
X5008Y4327D01*
Y4327D01*
X5007Y4327D01*
X5007Y4325D01*
X5006Y4323D01*
X5005Y4320D01*
Y4320D01*
X5005Y4320D01*
X5005Y4318D01*
X5004Y4317D01*
X5003Y4315D01*
X5003Y4314D01*
X5003Y4313D01*
X5002Y4311D01*
X5001Y4309D01*
X4999Y4305D01*
X4998Y4303D01*
X4997Y4301D01*
Y4301D01*
X4997Y4301D01*
X4996Y4300D01*
X4994Y4298D01*
X4994Y4297D01*
X4997Y4291D01*
X4992Y4284D01*
X4985Y4282D01*
X4984Y4282D01*
X4984Y4281D01*
X4983Y4280D01*
X4983Y4279D01*
X4982Y4278D01*
X4980Y4276D01*
X4979Y4274D01*
X4977Y4273D01*
X4977D01*
X4977Y4272D01*
X4976Y4272D01*
X4975Y4271D01*
X4975Y4271D01*
X4974Y4270D01*
X4972Y4270D01*
X4970Y4268D01*
X4970Y4268D01*
X4969Y4267D01*
X4967Y4266D01*
X4966Y4265D01*
X4965Y4264D01*
X4964Y4264D01*
X4963Y4264D01*
X4962Y4263D01*
X4961D01*
X4960Y4264D01*
X4957Y4264D01*
X4956Y4265D01*
X4955Y4266D01*
X4954Y4267D01*
X4954Y4269D01*
X4953Y4271D01*
Y4271D01*
X4954Y4273D01*
X4955Y4275D01*
X4956Y4279D01*
Y4279D01*
X4956Y4279D01*
X4957Y4281D01*
X4958Y4284D01*
X4959Y4286D01*
Y4286D01*
Y4287D01*
X4958D01*
X4944Y4294D01*
X4944Y4294D01*
X4943Y4295D01*
X4942Y4296D01*
X4941Y4298D01*
X4941Y4299D01*
Y4299D01*
X4941Y4300D01*
Y4301D01*
X4941Y4302D01*
X4940Y4305D01*
X4939Y4308D01*
Y4309D01*
X4939Y4309D01*
Y4310D01*
X4939Y4311D01*
X4939Y4314D01*
X4938Y4317D01*
Y4317D01*
X4938Y4318D01*
X4938Y4320D01*
Y4322D01*
Y4322D01*
Y4323D01*
X4938Y4324D01*
X4938Y4325D01*
X4939Y4328D01*
X4939Y4332D01*
Y4332D01*
X4939Y4333D01*
X4939Y4335D01*
X4939Y4337D01*
X4938Y4341D01*
X4937Y4346D01*
Y4346D01*
Y4347D01*
X4937Y4349D01*
X4937Y4351D01*
X4938Y4353D01*
Y4355D01*
X4938Y4360D01*
X4938Y4360D01*
X4936Y4360D01*
X4935Y4362D01*
X4934Y4362D01*
X4934Y4363D01*
X4933Y4364D01*
X4933Y4366D01*
Y4366D01*
Y4367D01*
X4934Y4369D01*
X4934Y4370D01*
X4934Y4370D01*
X4935Y4371D01*
X4936Y4372D01*
X4937Y4373D01*
X4937D01*
X4938Y4374D01*
X4938Y4374D01*
X4939Y4374D01*
X4939D01*
X4938Y4381D01*
X4940Y4398D01*
Y4398D01*
Y4399D01*
X4940Y4401D01*
X4940Y4404D01*
Y4404D01*
Y4404D01*
X4941Y4406D01*
X4941Y4408D01*
X4941Y4412D01*
X4941Y4412D01*
X4942Y4414D01*
X4943Y4415D01*
X4943Y4417D01*
Y4417D01*
Y4418D01*
X4944Y4418D01*
Y4419D01*
Y4419D01*
X4943Y4420D01*
X4943Y4421D01*
X4943Y4423D01*
Y4424D01*
Y4424D01*
X4943Y4426D01*
X4944Y4428D01*
X4944Y4430D01*
Y4431D01*
X4944Y4432D01*
X4945Y4434D01*
X4946Y4437D01*
Y4437D01*
X4946Y4437D01*
X4947Y4439D01*
X4948Y4441D01*
X4950Y4444D01*
X4951Y4444D01*
X4952Y4445D01*
X4954Y4446D01*
X4956Y4446D01*
X4957D01*
X4958Y4446D01*
X4959Y4445D01*
X4960Y4444D01*
X4961Y4444D01*
X4961Y4442D01*
X4961Y4441D01*
X4962Y4439D01*
Y4438D01*
Y4438D01*
Y4436D01*
X4961Y4435D01*
Y4435D01*
X4961Y4434D01*
Y4433D01*
Y4432D01*
Y4431D01*
Y4431D01*
X4961Y4430D01*
Y4429D01*
Y4429D01*
Y4427D01*
Y4427D01*
Y4426D01*
Y4425D01*
Y4424D01*
X4961Y4423D01*
Y4421D01*
Y4419D01*
X4961Y4416D01*
Y4416D01*
Y4415D01*
X4960Y4414D01*
Y4412D01*
X4960Y4409D01*
Y4407D01*
Y4406D01*
Y4405D01*
X4960Y4405D01*
X4961Y4403D01*
X4961Y4401D01*
Y4401D01*
X4961Y4400D01*
Y4398D01*
Y4397D01*
Y4396D01*
Y4395D01*
Y4394D01*
Y4392D01*
X4959Y4389D01*
X4960Y4381D01*
X4960Y4381D01*
X4961D01*
X4961Y4381D01*
X4962Y4381D01*
X4963Y4382D01*
X4964D01*
X4965Y4383D01*
X4967Y4383D01*
X4969Y4383D01*
X4969D01*
X4971Y4384D01*
X4973Y4384D01*
X4977D01*
X4977Y4385D01*
X4979Y4385D01*
X4980Y4386D01*
X4981D01*
X4982Y4386D01*
X4984Y4387D01*
X4987Y4388D01*
X4987D01*
X4988Y4388D01*
X4989Y4389D01*
X4990Y4389D01*
X4993Y4390D01*
X4996Y4392D01*
X4997Y4392D01*
X4998Y4393D01*
X5000Y4393D01*
X5002Y4394D01*
X5003D01*
X5004Y4394D01*
X5006Y4395D01*
X5008Y4395D01*
X5008Y4395D01*
X5009Y4396D01*
X5009Y4396D01*
X5009Y4398D01*
Y4398D01*
X5009Y4399D01*
X5010Y4401D01*
X5011Y4403D01*
X5011Y4403D01*
X5012Y4405D01*
X5013Y4407D01*
X5014Y4411D01*
Y4411D01*
X5015Y4412D01*
X5015Y4413D01*
X5016Y4415D01*
Y4416D01*
X5016Y4417D01*
X5017Y4419D01*
X5018Y4422D01*
Y4422D01*
X5018Y4423D01*
X5018Y4424D01*
X5019Y4426D01*
X5020Y4427D01*
X5020Y4428D01*
X5021Y4429D01*
X5021Y4430D01*
Y4431D01*
Y4431D01*
Y4432D01*
X5021Y4434D01*
Y4434D01*
X5022Y4435D01*
X5022Y4437D01*
X5022Y4439D01*
Y4439D01*
X5023Y4440D01*
X5023Y4441D01*
X5024Y4443D01*
X5024Y4444D01*
X5025Y4445D01*
X5026Y4447D01*
X5027Y4449D01*
X5027Y4449D01*
X5028Y4450D01*
X5029Y4451D01*
X5030Y4453D01*
X5031Y4453D01*
X5032Y4453D01*
X5034Y4454D01*
X5036Y4454D01*
X5037D01*
X5038Y4454D01*
D02*
G37*
G36*
X4216Y4442D02*
X4219D01*
X4220Y4441D01*
X4221D01*
X4222Y4441D01*
X4224Y4441D01*
X4226Y4440D01*
X4227Y4440D01*
X4228Y4439D01*
X4229Y4438D01*
X4229Y4436D01*
X4228Y4433D01*
X4230Y4433D01*
X4232Y4433D01*
X4234Y4432D01*
X4234Y4432D01*
X4234Y4430D01*
X4235Y4428D01*
X4236Y4427D01*
Y4425D01*
Y4425D01*
Y4424D01*
Y4422D01*
Y4419D01*
Y4419D01*
Y4418D01*
Y4417D01*
X4235Y4416D01*
Y4415D01*
Y4413D01*
X4235Y4408D01*
Y4408D01*
Y4407D01*
X4235Y4407D01*
X4234Y4405D01*
X4234Y4405D01*
X4234Y4405D01*
X4234Y4404D01*
Y4403D01*
X4234Y4403D01*
X4234Y4402D01*
Y4402D01*
Y4401D01*
Y4400D01*
Y4400D01*
Y4399D01*
Y4398D01*
X4234Y4397D01*
Y4395D01*
X4234Y4393D01*
X4234Y4388D01*
Y4388D01*
X4233Y4387D01*
Y4386D01*
X4233Y4384D01*
X4233Y4381D01*
X4232Y4378D01*
X4232Y4376D01*
X4231Y4372D01*
Y4372D01*
X4231Y4371D01*
X4231Y4370D01*
X4231Y4369D01*
X4230Y4367D01*
X4230Y4365D01*
X4229Y4360D01*
Y4360D01*
Y4359D01*
Y4358D01*
Y4357D01*
Y4354D01*
X4229Y4349D01*
Y4349D01*
X4229Y4349D01*
X4229Y4347D01*
X4229Y4346D01*
X4228Y4344D01*
X4228Y4342D01*
X4226Y4337D01*
X4225Y4330D01*
X4224Y4324D01*
X4222Y4317D01*
X4220Y4309D01*
Y4309D01*
Y4309D01*
X4220Y4307D01*
X4219Y4305D01*
X4218Y4302D01*
Y4302D01*
X4217Y4302D01*
X4216Y4300D01*
X4214Y4298D01*
X4212Y4296D01*
X4212D01*
X4212Y4295D01*
X4211Y4295D01*
Y4294D01*
X4211Y4294D01*
X4210Y4293D01*
X4210Y4292D01*
X4209Y4292D01*
X4208Y4290D01*
X4207Y4288D01*
X4207Y4288D01*
X4206Y4288D01*
X4205Y4287D01*
X4204Y4286D01*
X4203Y4286D01*
X4202Y4285D01*
X4200Y4284D01*
X4200Y4284D01*
X4200Y4283D01*
X4198Y4282D01*
X4197Y4282D01*
X4197Y4281D01*
X4196Y4280D01*
X4194Y4279D01*
X4194D01*
X4193Y4278D01*
X4193Y4278D01*
X4191Y4277D01*
X4189Y4275D01*
X4186Y4273D01*
X4185Y4272D01*
X4185Y4272D01*
X4184Y4272D01*
X4183Y4271D01*
X4181Y4270D01*
X4180Y4270D01*
X4175Y4269D01*
X4175D01*
X4173Y4269D01*
X4169D01*
X4168Y4268D01*
X4166D01*
X4165Y4268D01*
X4164D01*
X4163Y4268D01*
X4162Y4267D01*
X4160D01*
X4160Y4267D01*
X4159Y4267D01*
X4158D01*
X4158Y4267D01*
X4156D01*
X4154Y4267D01*
X4154D01*
X4153Y4267D01*
X4152D01*
X4151Y4267D01*
X4146D01*
X4145Y4268D01*
X4144Y4268D01*
X4142Y4269D01*
X4139Y4270D01*
X4138Y4272D01*
X4137Y4273D01*
X4137Y4273D01*
X4136Y4275D01*
X4135Y4277D01*
X4134Y4280D01*
Y4281D01*
Y4282D01*
Y4283D01*
X4135Y4285D01*
X4135Y4290D01*
X4136Y4292D01*
X4136Y4294D01*
Y4294D01*
X4137Y4295D01*
X4138Y4296D01*
X4140Y4298D01*
X4142Y4299D01*
X4144Y4299D01*
X4144D01*
X4146Y4299D01*
X4148Y4298D01*
X4150Y4296D01*
X4151D01*
X4151Y4296D01*
X4152Y4295D01*
X4154Y4295D01*
X4156Y4294D01*
X4159Y4294D01*
X4162Y4294D01*
X4167D01*
X4168Y4294D01*
X4169D01*
X4170Y4294D01*
X4174Y4295D01*
X4177Y4296D01*
X4178Y4296D01*
X4178Y4296D01*
X4179Y4297D01*
X4179D01*
X4180Y4297D01*
X4180Y4297D01*
X4182Y4298D01*
X4186Y4296D01*
X4186Y4297D01*
X4187Y4298D01*
X4188Y4300D01*
X4188Y4300D01*
X4190Y4302D01*
X4191Y4304D01*
X4193Y4308D01*
Y4308D01*
X4193Y4308D01*
X4193Y4310D01*
Y4310D01*
Y4311D01*
X4194Y4312D01*
Y4314D01*
Y4314D01*
X4194Y4315D01*
X4195Y4317D01*
X4195Y4319D01*
X4195Y4321D01*
X4196Y4324D01*
X4198Y4330D01*
Y4330D01*
X4198Y4331D01*
X4198Y4333D01*
X4199Y4335D01*
X4200Y4340D01*
X4201Y4342D01*
X4201Y4344D01*
Y4344D01*
X4202Y4344D01*
X4202Y4346D01*
X4202Y4348D01*
Y4348D01*
X4203Y4349D01*
Y4349D01*
X4203Y4349D01*
X4203Y4351D01*
Y4352D01*
Y4353D01*
Y4353D01*
Y4353D01*
X4204Y4354D01*
X4203D01*
Y4353D01*
X4203Y4353D01*
X4202Y4352D01*
X4201Y4351D01*
X4200Y4350D01*
X4200Y4349D01*
X4199Y4349D01*
X4197Y4348D01*
X4195Y4346D01*
X4194Y4346D01*
X4193Y4345D01*
X4193Y4345D01*
X4192Y4345D01*
X4190Y4345D01*
X4188Y4344D01*
X4188Y4344D01*
X4187Y4343D01*
X4185Y4343D01*
X4183Y4342D01*
X4183D01*
X4182Y4342D01*
X4180Y4341D01*
X4177Y4341D01*
X4176D01*
X4176Y4340D01*
X4174D01*
X4172Y4340D01*
X4170Y4340D01*
X4167Y4340D01*
X4164Y4339D01*
X4161Y4340D01*
X4154Y4339D01*
X4150Y4341D01*
X4149Y4341D01*
X4149Y4342D01*
X4148Y4343D01*
X4147Y4345D01*
X4147Y4345D01*
X4146Y4346D01*
X4145Y4347D01*
X4144Y4349D01*
Y4349D01*
Y4350D01*
Y4352D01*
X4145Y4354D01*
X4145Y4358D01*
X4146Y4360D01*
X4147Y4362D01*
Y4362D01*
X4147Y4362D01*
X4148Y4364D01*
X4150Y4366D01*
X4152Y4366D01*
X4154Y4366D01*
X4160Y4364D01*
X4161D01*
X4163Y4364D01*
X4165Y4364D01*
X4167Y4364D01*
X4170Y4365D01*
X4175Y4365D01*
X4176D01*
X4178Y4366D01*
X4180D01*
X4183Y4366D01*
X4185Y4366D01*
X4191Y4367D01*
X4192D01*
X4193Y4367D01*
X4194Y4368D01*
X4196Y4368D01*
X4201Y4370D01*
X4203Y4371D01*
X4205Y4373D01*
X4205Y4373D01*
X4205Y4373D01*
X4206Y4374D01*
X4207Y4375D01*
X4208Y4377D01*
X4209Y4378D01*
X4210Y4381D01*
X4210Y4383D01*
Y4383D01*
Y4384D01*
X4210Y4386D01*
X4211Y4388D01*
Y4389D01*
X4212Y4390D01*
X4212Y4393D01*
X4212Y4395D01*
X4212Y4399D01*
Y4399D01*
X4212Y4400D01*
Y4401D01*
X4212Y4402D01*
X4213Y4405D01*
X4213Y4409D01*
Y4409D01*
Y4409D01*
X4214Y4411D01*
X4214Y4414D01*
Y4416D01*
X4212D01*
X4209Y4416D01*
X4207Y4415D01*
X4199D01*
X4197Y4416D01*
X4195D01*
X4188Y4415D01*
X4188D01*
X4187Y4415D01*
X4186Y4414D01*
X4185Y4414D01*
X4183Y4413D01*
X4183D01*
X4183Y4413D01*
X4180Y4412D01*
X4178Y4412D01*
X4176Y4412D01*
X4173D01*
X4171Y4411D01*
X4169Y4411D01*
X4168D01*
X4167Y4410D01*
X4165Y4410D01*
X4163Y4409D01*
X4162Y4409D01*
X4161Y4408D01*
X4159Y4408D01*
X4157Y4407D01*
X4157D01*
X4156Y4407D01*
X4155Y4406D01*
X4153Y4405D01*
X4150Y4404D01*
X4149Y4404D01*
X4148Y4404D01*
X4147Y4403D01*
X4147Y4403D01*
X4145Y4402D01*
X4143Y4401D01*
X4140Y4400D01*
X4135Y4414D01*
X4135Y4415D01*
X4136Y4415D01*
X4137Y4417D01*
X4139Y4418D01*
X4139Y4418D01*
X4140Y4419D01*
X4142Y4420D01*
X4144Y4421D01*
X4144Y4421D01*
X4145Y4422D01*
X4147Y4422D01*
X4150Y4424D01*
X4150Y4424D01*
X4152Y4424D01*
X4154Y4426D01*
X4157Y4427D01*
X4158Y4427D01*
X4159Y4428D01*
X4161Y4429D01*
X4163Y4430D01*
X4164Y4431D01*
X4165Y4431D01*
X4166Y4431D01*
X4167Y4432D01*
X4168D01*
X4170Y4432D01*
X4172Y4433D01*
X4172D01*
X4173Y4433D01*
X4173Y4433D01*
X4175Y4434D01*
X4176Y4434D01*
X4178Y4435D01*
X4180Y4436D01*
X4183Y4437D01*
X4183D01*
X4185Y4437D01*
X4187Y4438D01*
X4190Y4439D01*
X4190D01*
X4190Y4439D01*
X4191Y4439D01*
X4193Y4440D01*
X4195Y4441D01*
X4199Y4441D01*
X4206Y4440D01*
X4210Y4442D01*
X4214D01*
X4216Y4442D01*
D02*
G37*
G36*
X4644Y4444D02*
X4645Y4444D01*
X4646D01*
X4647Y4443D01*
X4648Y4443D01*
X4650Y4442D01*
X4651Y4442D01*
X4652Y4441D01*
X4654Y4441D01*
X4655Y4441D01*
X4656D01*
X4656Y4440D01*
X4658D01*
X4659Y4440D01*
X4661Y4439D01*
X4663Y4439D01*
X4664D01*
X4665Y4438D01*
X4667Y4437D01*
X4670Y4436D01*
X4670D01*
X4671Y4436D01*
X4672Y4434D01*
X4674Y4432D01*
X4677Y4430D01*
Y4429D01*
X4678Y4429D01*
X4679Y4427D01*
X4681Y4425D01*
X4683Y4423D01*
Y4422D01*
X4683Y4422D01*
X4684Y4421D01*
X4685Y4418D01*
X4686Y4416D01*
X4690Y4406D01*
Y4406D01*
X4690Y4405D01*
X4690Y4404D01*
X4690Y4403D01*
X4691Y4400D01*
X4692Y4398D01*
Y4397D01*
Y4397D01*
X4692Y4395D01*
X4693Y4394D01*
Y4393D01*
X4692Y4388D01*
Y4388D01*
X4692Y4386D01*
X4692Y4385D01*
X4693Y4384D01*
Y4383D01*
Y4383D01*
X4693Y4381D01*
Y4380D01*
Y4379D01*
X4693Y4378D01*
Y4376D01*
X4693Y4375D01*
Y4374D01*
Y4374D01*
X4692Y4373D01*
Y4371D01*
X4692Y4369D01*
X4692Y4367D01*
X4692Y4364D01*
X4691Y4361D01*
X4691Y4360D01*
X4691Y4359D01*
X4690Y4358D01*
X4689Y4357D01*
X4689Y4356D01*
X4689Y4355D01*
X4688Y4354D01*
X4688Y4352D01*
X4688Y4350D01*
Y4349D01*
Y4349D01*
X4688Y4347D01*
Y4346D01*
X4688Y4346D01*
X4686Y4344D01*
Y4343D01*
X4686Y4343D01*
X4685Y4342D01*
X4685Y4341D01*
X4684Y4339D01*
X4683Y4337D01*
X4682Y4335D01*
X4681Y4333D01*
Y4333D01*
X4681Y4332D01*
X4680Y4330D01*
X4680Y4329D01*
X4678Y4325D01*
X4675Y4320D01*
Y4320D01*
X4675Y4320D01*
X4674Y4319D01*
X4674Y4318D01*
X4672Y4315D01*
X4669Y4311D01*
X4669Y4311D01*
X4668Y4310D01*
X4668Y4309D01*
X4666Y4308D01*
X4664Y4305D01*
X4660Y4301D01*
X4660Y4301D01*
X4659Y4300D01*
X4658Y4299D01*
X4658Y4299D01*
X4657Y4297D01*
X4656Y4296D01*
X4654Y4294D01*
X4654Y4294D01*
X4653Y4294D01*
X4651Y4292D01*
X4649Y4291D01*
X4649D01*
X4649Y4290D01*
X4647Y4289D01*
X4645Y4287D01*
X4642Y4284D01*
X4642D01*
X4641Y4284D01*
X4639Y4283D01*
X4639Y4283D01*
X4638Y4283D01*
X4637Y4282D01*
X4635Y4281D01*
X4635Y4281D01*
X4634Y4280D01*
X4634Y4280D01*
X4633Y4279D01*
X4632Y4279D01*
X4632Y4278D01*
X4631Y4278D01*
X4630Y4277D01*
X4629Y4277D01*
X4627Y4276D01*
X4625Y4275D01*
X4622Y4275D01*
X4622D01*
X4620Y4274D01*
X4619Y4274D01*
X4617Y4273D01*
X4613Y4272D01*
X4612Y4272D01*
X4607D01*
X4604Y4272D01*
X4601Y4273D01*
X4600D01*
X4600Y4273D01*
X4598Y4273D01*
X4596Y4274D01*
X4594Y4275D01*
X4590Y4276D01*
X4590D01*
X4589Y4276D01*
X4588Y4277D01*
X4587Y4277D01*
X4586Y4279D01*
X4584Y4280D01*
X4583Y4282D01*
X4582Y4284D01*
Y4285D01*
X4582Y4286D01*
X4581Y4287D01*
X4581Y4289D01*
X4580Y4292D01*
X4580Y4295D01*
X4579Y4299D01*
Y4303D01*
Y4304D01*
Y4304D01*
Y4306D01*
Y4308D01*
X4580Y4311D01*
Y4312D01*
Y4312D01*
Y4313D01*
Y4315D01*
X4580Y4317D01*
Y4317D01*
X4581Y4319D01*
X4581Y4321D01*
X4582Y4325D01*
Y4325D01*
X4582Y4326D01*
Y4327D01*
X4582Y4328D01*
X4583Y4330D01*
X4583Y4333D01*
X4584Y4338D01*
Y4338D01*
X4584Y4340D01*
X4585Y4342D01*
X4586Y4345D01*
Y4345D01*
X4586Y4346D01*
X4586Y4347D01*
X4587Y4348D01*
X4588Y4349D01*
X4588Y4352D01*
X4590Y4356D01*
Y4356D01*
X4590Y4357D01*
X4591Y4358D01*
X4591Y4359D01*
X4593Y4363D01*
X4594Y4366D01*
Y4366D01*
X4594Y4367D01*
X4595Y4368D01*
X4597Y4370D01*
X4598Y4371D01*
X4598Y4371D01*
X4599D01*
X4599Y4371D01*
X4600D01*
X4601Y4372D01*
X4605Y4373D01*
X4609Y4374D01*
X4611D01*
X4613Y4373D01*
X4615Y4373D01*
X4615Y4373D01*
X4615Y4372D01*
X4616Y4371D01*
X4616Y4369D01*
Y4369D01*
Y4369D01*
Y4368D01*
X4616Y4366D01*
Y4366D01*
X4616Y4366D01*
X4615Y4365D01*
Y4365D01*
Y4364D01*
Y4364D01*
Y4363D01*
X4616Y4362D01*
X4616Y4359D01*
X4616Y4356D01*
Y4355D01*
Y4354D01*
X4616Y4352D01*
X4616Y4350D01*
X4615Y4348D01*
Y4348D01*
X4615Y4347D01*
X4615Y4346D01*
X4615Y4345D01*
X4614Y4343D01*
X4614Y4341D01*
X4613Y4336D01*
Y4336D01*
X4612Y4335D01*
X4612Y4333D01*
X4611Y4331D01*
X4610Y4327D01*
X4609Y4323D01*
Y4323D01*
X4609Y4322D01*
X4608Y4320D01*
X4607Y4318D01*
X4606Y4317D01*
X4606Y4316D01*
X4605D01*
X4605Y4316D01*
X4604Y4314D01*
X4603Y4313D01*
X4601Y4311D01*
X4601Y4310D01*
X4601Y4309D01*
X4600Y4308D01*
X4600Y4306D01*
Y4306D01*
Y4305D01*
X4601Y4304D01*
X4601Y4302D01*
X4601Y4302D01*
X4602Y4301D01*
X4603Y4300D01*
X4605Y4299D01*
X4605D01*
X4605Y4299D01*
X4607Y4299D01*
X4609Y4298D01*
X4611Y4298D01*
X4612D01*
X4613Y4297D01*
X4614Y4297D01*
X4616Y4296D01*
X4616D01*
X4617Y4297D01*
X4619Y4297D01*
X4620Y4298D01*
X4620D01*
X4621Y4298D01*
X4623Y4299D01*
X4624D01*
X4625Y4299D01*
X4626Y4299D01*
X4628Y4300D01*
X4630Y4301D01*
X4632Y4302D01*
X4635Y4304D01*
X4638Y4305D01*
X4638Y4306D01*
X4639Y4306D01*
X4640Y4308D01*
X4642Y4309D01*
X4644Y4311D01*
X4646Y4314D01*
X4648Y4317D01*
X4650Y4321D01*
X4651Y4321D01*
X4651Y4322D01*
X4652Y4324D01*
X4654Y4327D01*
X4655Y4329D01*
X4656Y4333D01*
X4659Y4339D01*
Y4340D01*
X4660Y4341D01*
X4660Y4342D01*
X4661Y4345D01*
X4661Y4348D01*
X4662Y4351D01*
X4663Y4358D01*
Y4358D01*
X4664Y4359D01*
X4664Y4362D01*
X4665Y4364D01*
Y4365D01*
Y4365D01*
X4665Y4366D01*
Y4367D01*
X4666Y4370D01*
X4667Y4374D01*
X4666Y4374D01*
X4666Y4376D01*
X4666Y4378D01*
X4665Y4380D01*
X4666Y4391D01*
Y4391D01*
X4666Y4392D01*
X4665Y4393D01*
X4665Y4393D01*
X4664Y4394D01*
X4663Y4395D01*
X4662Y4398D01*
X4662Y4398D01*
X4661Y4399D01*
X4660Y4401D01*
X4659Y4403D01*
X4659Y4403D01*
X4659Y4405D01*
X4658Y4407D01*
X4658Y4409D01*
Y4410D01*
X4657Y4410D01*
X4657Y4410D01*
X4656Y4411D01*
X4656Y4411D01*
X4655Y4412D01*
X4654Y4413D01*
X4653Y4414D01*
X4653Y4414D01*
X4652Y4415D01*
X4651Y4415D01*
X4650Y4417D01*
X4647Y4419D01*
X4643Y4422D01*
X4642D01*
X4642Y4422D01*
X4641Y4422D01*
X4639Y4423D01*
X4636Y4424D01*
X4632Y4424D01*
X4631D01*
X4630Y4424D01*
X4628D01*
X4627Y4424D01*
X4627D01*
X4626Y4423D01*
X4625Y4423D01*
X4622Y4423D01*
X4618Y4422D01*
X4617D01*
X4617Y4422D01*
X4616Y4421D01*
X4614Y4420D01*
X4614Y4420D01*
X4613Y4420D01*
X4612Y4419D01*
X4610Y4419D01*
X4610Y4418D01*
X4609Y4417D01*
X4607Y4416D01*
X4605Y4415D01*
X4605Y4415D01*
X4603Y4415D01*
X4602Y4414D01*
X4601Y4414D01*
Y4414D01*
X4601Y4413D01*
X4600Y4413D01*
X4600Y4412D01*
X4599Y4411D01*
X4597Y4410D01*
X4597D01*
X4597Y4410D01*
X4595Y4409D01*
X4593Y4408D01*
X4591Y4406D01*
X4591Y4406D01*
X4589Y4405D01*
X4586Y4403D01*
X4583Y4400D01*
X4583Y4401D01*
X4582Y4402D01*
X4581Y4404D01*
X4580Y4407D01*
X4579Y4409D01*
X4578Y4411D01*
X4577Y4413D01*
X4576Y4415D01*
X4577Y4415D01*
X4577Y4415D01*
X4578Y4416D01*
X4580Y4417D01*
X4583Y4419D01*
X4586Y4422D01*
X4587D01*
X4587Y4422D01*
X4589Y4423D01*
X4590Y4424D01*
X4592Y4425D01*
X4594Y4426D01*
X4597Y4428D01*
X4600Y4430D01*
X4600Y4430D01*
X4601Y4430D01*
X4602Y4431D01*
X4603Y4432D01*
X4607Y4434D01*
X4610Y4436D01*
X4611D01*
X4611Y4436D01*
X4612Y4437D01*
X4613Y4437D01*
X4616Y4439D01*
X4618Y4440D01*
X4619D01*
X4619Y4440D01*
X4620Y4440D01*
X4622Y4441D01*
X4625Y4442D01*
X4630Y4443D01*
X4630D01*
X4630Y4443D01*
X4632D01*
X4633Y4444D01*
X4637Y4444D01*
X4641Y4444D01*
X4642D01*
X4644Y4444D01*
D02*
G37*
%LPC*%
G36*
X5140Y4105D02*
X5140Y4105D01*
X5138Y4105D01*
X5134Y4103D01*
X5130Y4101D01*
X5126Y4099D01*
X5122Y4097D01*
X5120Y4096D01*
X5119Y4095D01*
X5118Y4095D01*
X5118Y4095D01*
X5117D01*
X5117Y4094D01*
X5116Y4094D01*
X5116D01*
X5115Y4094D01*
X5114Y4093D01*
X5113Y4091D01*
X5112Y4091D01*
X5111Y4090D01*
X5110Y4090D01*
X5108Y4088D01*
X5106Y4087D01*
X5103Y4085D01*
X5098Y4082D01*
X5098D01*
X5097Y4081D01*
X5096Y4080D01*
X5094Y4078D01*
X5092Y4076D01*
Y4075D01*
X5092Y4075D01*
X5091Y4074D01*
X5090Y4072D01*
X5090Y4070D01*
Y4070D01*
Y4069D01*
X5091Y4068D01*
X5091Y4067D01*
X5092Y4066D01*
X5093Y4064D01*
X5095Y4063D01*
X5095Y4063D01*
X5096Y4062D01*
X5097Y4061D01*
X5098Y4061D01*
X5100Y4059D01*
X5103Y4058D01*
X5106Y4056D01*
X5110Y4055D01*
X5110D01*
X5111Y4054D01*
X5113Y4054D01*
X5114Y4053D01*
X5117Y4053D01*
X5119Y4052D01*
X5124Y4051D01*
X5125D01*
X5126Y4050D01*
X5127Y4050D01*
X5128Y4050D01*
X5132Y4049D01*
X5137Y4049D01*
X5139D01*
X5140Y4049D01*
X5144Y4050D01*
X5145Y4051D01*
X5146Y4051D01*
X5147Y4051D01*
X5148Y4053D01*
X5149Y4054D01*
X5149Y4057D01*
Y4057D01*
Y4058D01*
Y4059D01*
Y4061D01*
Y4062D01*
X5148Y4061D01*
X5147Y4060D01*
X5146Y4059D01*
X5145Y4059D01*
X5143Y4058D01*
X5140Y4058D01*
X5140D01*
X5138Y4058D01*
X5137Y4060D01*
X5135Y4061D01*
X5135Y4062D01*
Y4062D01*
X5134Y4063D01*
X5133Y4064D01*
X5132Y4066D01*
X5132Y4068D01*
Y4068D01*
Y4069D01*
X5132Y4070D01*
X5133Y4072D01*
Y4073D01*
X5133Y4074D01*
X5134Y4076D01*
X5135Y4079D01*
Y4079D01*
X5135Y4081D01*
X5135Y4083D01*
X5136Y4085D01*
X5137Y4088D01*
X5137Y4091D01*
X5138Y4093D01*
X5138Y4095D01*
Y4095D01*
Y4096D01*
X5138Y4097D01*
X5138Y4098D01*
Y4099D01*
X5139Y4101D01*
X5139Y4104D01*
Y4104D01*
X5140Y4105D01*
X5140Y4105D01*
D02*
G37*
G36*
X4233Y4166D02*
X4232D01*
X4232Y4166D01*
X4230Y4165D01*
X4227Y4164D01*
X4225Y4163D01*
X4224Y4162D01*
X4223Y4162D01*
X4223Y4161D01*
X4222Y4160D01*
X4220Y4159D01*
X4219Y4157D01*
X4218Y4155D01*
X4216Y4152D01*
X4214Y4149D01*
Y4148D01*
X4214Y4148D01*
X4213Y4147D01*
X4212Y4145D01*
X4212Y4144D01*
X4210Y4142D01*
X4209Y4140D01*
X4208Y4137D01*
X4208Y4137D01*
X4208Y4136D01*
X4207Y4134D01*
X4206Y4132D01*
X4205Y4130D01*
X4203Y4127D01*
X4201Y4120D01*
Y4120D01*
X4201Y4120D01*
Y4119D01*
X4200Y4118D01*
X4200Y4116D01*
X4199Y4114D01*
X4199Y4111D01*
X4198Y4108D01*
Y4107D01*
X4198Y4106D01*
X4198Y4104D01*
X4197Y4102D01*
X4197Y4098D01*
X4196Y4096D01*
Y4095D01*
Y4094D01*
Y4094D01*
Y4092D01*
Y4091D01*
X4197Y4090D01*
Y4087D01*
X4197Y4083D01*
X4198Y4078D01*
X4199Y4073D01*
X4201Y4068D01*
X4203Y4064D01*
X4203Y4064D01*
X4204Y4063D01*
X4206Y4061D01*
X4208Y4059D01*
X4210Y4058D01*
X4213Y4056D01*
X4217Y4055D01*
X4222Y4054D01*
X4222D01*
X4223Y4055D01*
X4225Y4055D01*
X4227Y4056D01*
X4227Y4056D01*
X4229Y4057D01*
X4231Y4058D01*
X4233Y4060D01*
X4234D01*
X4234Y4060D01*
X4236Y4061D01*
X4237Y4063D01*
X4239Y4065D01*
X4239Y4065D01*
X4240Y4066D01*
X4241Y4067D01*
X4241Y4069D01*
Y4069D01*
X4241Y4070D01*
Y4071D01*
X4240Y4073D01*
Y4073D01*
Y4073D01*
X4241Y4075D01*
X4241Y4077D01*
X4242Y4077D01*
X4242Y4079D01*
X4242Y4080D01*
X4243Y4082D01*
X4243Y4084D01*
X4244Y4086D01*
Y4086D01*
X4244Y4087D01*
Y4088D01*
X4244Y4089D01*
X4245Y4092D01*
X4245Y4095D01*
Y4095D01*
Y4096D01*
X4246Y4097D01*
Y4099D01*
Y4101D01*
Y4102D01*
Y4102D01*
Y4104D01*
X4245Y4105D01*
Y4107D01*
Y4109D01*
X4245Y4114D01*
Y4114D01*
Y4115D01*
X4245Y4116D01*
X4246Y4119D01*
Y4119D01*
X4246Y4120D01*
X4247Y4121D01*
Y4123D01*
Y4123D01*
X4246Y4124D01*
X4246Y4126D01*
X4245Y4128D01*
Y4128D01*
Y4128D01*
Y4130D01*
Y4131D01*
Y4131D01*
X4245Y4132D01*
Y4133D01*
Y4134D01*
Y4135D01*
Y4135D01*
Y4136D01*
Y4137D01*
X4244Y4141D01*
X4244Y4144D01*
Y4144D01*
X4244Y4145D01*
Y4146D01*
X4244Y4147D01*
X4243Y4150D01*
X4242Y4154D01*
Y4154D01*
X4241Y4155D01*
X4241Y4156D01*
X4240Y4158D01*
X4239Y4161D01*
X4239Y4162D01*
X4238Y4163D01*
X4237Y4164D01*
X4236Y4165D01*
X4235Y4166D01*
X4233Y4166D01*
D02*
G37*
G36*
X4344D02*
X4343D01*
X4343Y4166D01*
X4341Y4165D01*
X4338Y4164D01*
X4336Y4163D01*
X4335Y4162D01*
X4334Y4162D01*
X4334Y4161D01*
X4333Y4160D01*
X4331Y4159D01*
X4330Y4157D01*
X4329Y4155D01*
X4327Y4152D01*
X4325Y4149D01*
Y4148D01*
X4325Y4148D01*
X4324Y4147D01*
X4323Y4145D01*
X4323Y4144D01*
X4321Y4142D01*
X4320Y4140D01*
X4319Y4137D01*
X4319Y4137D01*
X4319Y4136D01*
X4318Y4134D01*
X4317Y4132D01*
X4316Y4130D01*
X4314Y4127D01*
X4312Y4120D01*
Y4120D01*
X4312Y4120D01*
Y4119D01*
X4311Y4118D01*
X4311Y4116D01*
X4310Y4114D01*
X4310Y4111D01*
X4309Y4108D01*
Y4107D01*
X4309Y4106D01*
X4309Y4104D01*
X4308Y4102D01*
X4308Y4098D01*
X4307Y4096D01*
Y4095D01*
Y4094D01*
Y4094D01*
Y4092D01*
Y4091D01*
X4308Y4090D01*
Y4087D01*
X4308Y4083D01*
X4309Y4078D01*
X4310Y4073D01*
X4312Y4068D01*
X4314Y4064D01*
X4314Y4064D01*
X4315Y4063D01*
X4317Y4061D01*
X4319Y4059D01*
X4321Y4058D01*
X4324Y4056D01*
X4328Y4055D01*
X4333Y4054D01*
X4333D01*
X4334Y4055D01*
X4336Y4055D01*
X4338Y4056D01*
X4338Y4056D01*
X4340Y4057D01*
X4342Y4058D01*
X4344Y4060D01*
X4345D01*
X4345Y4060D01*
X4347Y4061D01*
X4348Y4063D01*
X4350Y4065D01*
X4350Y4065D01*
X4351Y4066D01*
X4352Y4067D01*
X4352Y4069D01*
Y4069D01*
X4352Y4070D01*
Y4071D01*
X4351Y4073D01*
Y4073D01*
Y4073D01*
X4352Y4075D01*
X4352Y4077D01*
X4353Y4077D01*
X4353Y4079D01*
X4353Y4080D01*
X4354Y4082D01*
X4354Y4084D01*
X4355Y4086D01*
Y4086D01*
X4355Y4087D01*
Y4088D01*
X4355Y4089D01*
X4356Y4092D01*
X4356Y4095D01*
Y4095D01*
Y4096D01*
X4357Y4097D01*
Y4099D01*
Y4101D01*
Y4102D01*
Y4102D01*
Y4104D01*
X4356Y4105D01*
Y4107D01*
Y4109D01*
X4356Y4114D01*
Y4114D01*
Y4115D01*
X4356Y4116D01*
X4357Y4119D01*
Y4119D01*
X4357Y4120D01*
X4358Y4121D01*
Y4123D01*
Y4123D01*
X4357Y4124D01*
X4357Y4126D01*
X4356Y4128D01*
Y4128D01*
Y4128D01*
Y4130D01*
Y4131D01*
Y4131D01*
X4356Y4132D01*
Y4133D01*
Y4134D01*
Y4135D01*
Y4135D01*
Y4136D01*
Y4137D01*
X4355Y4141D01*
X4355Y4144D01*
Y4144D01*
X4355Y4145D01*
Y4146D01*
X4355Y4147D01*
X4354Y4150D01*
X4353Y4154D01*
Y4154D01*
X4352Y4155D01*
X4352Y4156D01*
X4351Y4158D01*
X4350Y4161D01*
X4350Y4162D01*
X4349Y4163D01*
X4348Y4164D01*
X4347Y4165D01*
X4346Y4166D01*
X4344Y4166D01*
D02*
G37*
G36*
X4214Y4417D02*
X4214D01*
Y4417D01*
Y4416D01*
X4215Y4416D01*
X4215Y4417D01*
X4214Y4417D01*
D02*
G37*
G36*
X5176Y4369D02*
Y4368D01*
X5177D01*
X5176Y4369D01*
X5176Y4369D01*
D02*
G37*
G36*
X4853Y4105D02*
X4853Y4105D01*
X4851Y4105D01*
X4847Y4103D01*
X4843Y4101D01*
X4839Y4099D01*
X4835Y4097D01*
X4833Y4096D01*
X4832Y4095D01*
X4831Y4095D01*
X4831Y4095D01*
X4830D01*
X4830Y4094D01*
X4829Y4094D01*
X4828D01*
X4828Y4094D01*
X4827Y4093D01*
X4826Y4091D01*
X4825Y4091D01*
X4824Y4090D01*
X4823Y4090D01*
X4821Y4088D01*
X4819Y4087D01*
X4816Y4085D01*
X4811Y4082D01*
X4811D01*
X4810Y4081D01*
X4809Y4080D01*
X4807Y4078D01*
X4805Y4076D01*
Y4075D01*
X4805Y4075D01*
X4804Y4074D01*
X4803Y4072D01*
X4803Y4070D01*
Y4070D01*
Y4069D01*
X4804Y4068D01*
X4804Y4067D01*
X4805Y4066D01*
X4806Y4064D01*
X4808Y4063D01*
X4808Y4063D01*
X4809Y4062D01*
X4810Y4061D01*
X4811Y4061D01*
X4813Y4059D01*
X4816Y4058D01*
X4819Y4056D01*
X4823Y4055D01*
X4823D01*
X4824Y4054D01*
X4826Y4054D01*
X4827Y4053D01*
X4830Y4053D01*
X4832Y4052D01*
X4837Y4051D01*
X4838D01*
X4838Y4050D01*
X4840Y4050D01*
X4841Y4050D01*
X4845Y4049D01*
X4850Y4049D01*
X4852D01*
X4853Y4049D01*
X4857Y4050D01*
X4858Y4051D01*
X4859Y4051D01*
X4860Y4051D01*
X4861Y4053D01*
X4862Y4054D01*
X4862Y4057D01*
Y4057D01*
Y4058D01*
Y4059D01*
Y4061D01*
Y4062D01*
X4861Y4061D01*
X4860Y4060D01*
X4859Y4059D01*
X4858Y4059D01*
X4856Y4058D01*
X4853Y4058D01*
X4853D01*
X4851Y4058D01*
X4850Y4060D01*
X4848Y4061D01*
X4848Y4062D01*
Y4062D01*
X4847Y4063D01*
X4846Y4064D01*
X4845Y4066D01*
X4845Y4068D01*
Y4068D01*
Y4069D01*
X4845Y4070D01*
X4845Y4072D01*
Y4073D01*
X4846Y4074D01*
X4847Y4076D01*
X4848Y4079D01*
Y4079D01*
X4848Y4081D01*
X4848Y4083D01*
X4849Y4085D01*
X4850Y4088D01*
X4850Y4091D01*
X4850Y4093D01*
X4851Y4095D01*
Y4095D01*
Y4096D01*
X4851Y4097D01*
X4851Y4098D01*
Y4099D01*
X4852Y4101D01*
X4852Y4104D01*
Y4104D01*
X4853Y4105D01*
X4853Y4105D01*
D02*
G37*
G36*
X4450Y4417D02*
X4449D01*
X4448Y4416D01*
X4445Y4416D01*
X4441Y4415D01*
X4441D01*
X4440Y4414D01*
X4439Y4414D01*
X4438Y4413D01*
X4434Y4411D01*
X4430Y4408D01*
X4430Y4407D01*
X4429Y4407D01*
X4428Y4406D01*
X4427Y4405D01*
X4424Y4403D01*
X4421Y4400D01*
X4421Y4400D01*
X4420Y4399D01*
X4419Y4398D01*
X4416Y4395D01*
X4414Y4392D01*
X4414Y4391D01*
X4413Y4390D01*
X4412Y4389D01*
X4412Y4388D01*
X4411Y4386D01*
X4410Y4385D01*
Y4384D01*
X4410Y4383D01*
X4409Y4382D01*
X4408Y4381D01*
X4407Y4378D01*
X4406Y4376D01*
X4405Y4374D01*
X4404Y4371D01*
Y4370D01*
X4403Y4369D01*
X4403Y4368D01*
X4402Y4367D01*
X4401Y4365D01*
X4400Y4363D01*
X4399Y4358D01*
Y4357D01*
X4399Y4357D01*
X4399Y4355D01*
X4398Y4354D01*
X4398Y4352D01*
X4398Y4349D01*
X4398Y4345D01*
Y4344D01*
X4398Y4342D01*
X4398Y4340D01*
X4399Y4337D01*
X4398Y4333D01*
X4399Y4333D01*
X4399Y4332D01*
X4400Y4331D01*
Y4330D01*
X4400Y4330D01*
X4401Y4329D01*
X4401Y4328D01*
X4401Y4327D01*
X4402Y4325D01*
X4403Y4322D01*
X4406Y4316D01*
X4408Y4313D01*
X4410Y4311D01*
X4410Y4311D01*
X4411Y4310D01*
X4412Y4309D01*
X4414Y4308D01*
X4416Y4307D01*
X4418Y4306D01*
X4421Y4305D01*
X4424Y4305D01*
X4425D01*
X4427Y4305D01*
X4429Y4306D01*
X4429D01*
X4431Y4306D01*
X4432Y4306D01*
X4434Y4307D01*
X4446Y4312D01*
X4447Y4313D01*
X4447Y4313D01*
X4448Y4314D01*
X4449Y4314D01*
X4449Y4315D01*
X4450Y4316D01*
X4456Y4324D01*
X4456Y4324D01*
X4457Y4325D01*
X4458Y4326D01*
X4458Y4328D01*
X4459Y4329D01*
X4460Y4332D01*
X4461Y4334D01*
Y4335D01*
X4461Y4336D01*
X4461Y4337D01*
X4462Y4340D01*
X4462Y4343D01*
X4463Y4346D01*
X4463Y4350D01*
X4464Y4355D01*
Y4355D01*
X4464Y4357D01*
Y4359D01*
X4465Y4361D01*
X4465Y4364D01*
X4465Y4367D01*
X4466Y4373D01*
Y4374D01*
Y4375D01*
Y4376D01*
Y4378D01*
X4466Y4381D01*
Y4383D01*
Y4389D01*
Y4390D01*
Y4390D01*
Y4392D01*
X4466Y4394D01*
X4465Y4397D01*
X4465Y4401D01*
X4464Y4404D01*
X4463Y4407D01*
X4462Y4410D01*
X4462Y4410D01*
X4461Y4411D01*
X4460Y4412D01*
X4459Y4413D01*
X4457Y4415D01*
X4455Y4416D01*
X4453Y4416D01*
X4450Y4417D01*
D02*
G37*
G36*
X4999Y4368D02*
X4997D01*
X4996Y4368D01*
X4995D01*
X4994Y4368D01*
X4992D01*
X4990Y4367D01*
X4988Y4367D01*
X4984Y4366D01*
X4984D01*
X4983Y4366D01*
X4982Y4366D01*
X4981Y4366D01*
X4978Y4365D01*
X4976Y4365D01*
X4975D01*
X4975Y4365D01*
X4973Y4366D01*
X4972D01*
X4971Y4365D01*
X4970Y4365D01*
X4968Y4364D01*
X4967Y4364D01*
X4966Y4364D01*
X4964Y4364D01*
X4962Y4363D01*
X4961D01*
Y4363D01*
Y4362D01*
Y4361D01*
X4961Y4359D01*
Y4358D01*
Y4357D01*
Y4356D01*
Y4355D01*
X4961Y4353D01*
Y4352D01*
X4961Y4351D01*
X4960Y4349D01*
X4960Y4347D01*
X4962Y4342D01*
X4961Y4337D01*
Y4337D01*
X4961Y4335D01*
X4962Y4334D01*
X4962Y4332D01*
Y4332D01*
Y4331D01*
Y4330D01*
Y4329D01*
X4962Y4328D01*
X4963Y4328D01*
Y4328D01*
X4963Y4327D01*
X4964Y4326D01*
X4964Y4325D01*
X4965Y4324D01*
X4965Y4323D01*
X4966Y4322D01*
X4967Y4321D01*
X4967Y4320D01*
X4969Y4318D01*
X4969Y4318D01*
X4970Y4317D01*
X4971Y4316D01*
X4972Y4316D01*
X4972Y4315D01*
X4973Y4315D01*
X4974D01*
X4975Y4315D01*
X4975Y4316D01*
X4976Y4317D01*
X4977Y4318D01*
X4977Y4319D01*
X4977Y4319D01*
X4978Y4320D01*
X4979Y4322D01*
X4979Y4324D01*
X4980Y4326D01*
X4981Y4328D01*
Y4329D01*
X4981Y4330D01*
X4982Y4331D01*
X4983Y4333D01*
X4983Y4333D01*
X4984Y4335D01*
X4985Y4337D01*
X4987Y4340D01*
Y4340D01*
Y4341D01*
X4988Y4342D01*
X4988Y4343D01*
X4988Y4345D01*
X4989Y4347D01*
X4991Y4352D01*
Y4352D01*
X4991Y4353D01*
X4992Y4354D01*
X4993Y4356D01*
X4994Y4358D01*
X4995Y4361D01*
X4997Y4364D01*
X4998Y4367D01*
Y4367D01*
X4999Y4368D01*
Y4368D01*
D02*
G37*
G36*
X4327Y4287D02*
X4326D01*
X4327Y4286D01*
Y4287D01*
Y4287D01*
D02*
G37*
G36*
X4884Y4355D02*
X4884Y4355D01*
X4883Y4355D01*
X4879Y4353D01*
X4874Y4351D01*
X4870Y4349D01*
X4866Y4347D01*
X4865Y4346D01*
X4864Y4345D01*
X4863Y4345D01*
X4862Y4345D01*
X4862D01*
X4861Y4344D01*
X4860Y4344D01*
X4860D01*
X4860Y4344D01*
X4859Y4343D01*
X4857Y4341D01*
X4857Y4341D01*
X4856Y4340D01*
X4854Y4340D01*
X4852Y4338D01*
X4850Y4337D01*
X4848Y4335D01*
X4842Y4332D01*
X4842D01*
X4842Y4331D01*
X4840Y4330D01*
X4838Y4328D01*
X4837Y4326D01*
Y4325D01*
X4836Y4325D01*
X4835Y4324D01*
X4835Y4322D01*
X4835Y4320D01*
Y4320D01*
Y4319D01*
X4835Y4318D01*
X4836Y4317D01*
X4837Y4316D01*
X4838Y4314D01*
X4839Y4313D01*
X4840Y4313D01*
X4840Y4312D01*
X4841Y4311D01*
X4843Y4311D01*
X4845Y4309D01*
X4847Y4308D01*
X4851Y4306D01*
X4854Y4305D01*
X4855D01*
X4856Y4304D01*
X4857Y4304D01*
X4859Y4303D01*
X4861Y4303D01*
X4864Y4302D01*
X4869Y4301D01*
X4869D01*
X4870Y4300D01*
X4871Y4300D01*
X4873Y4300D01*
X4877Y4299D01*
X4881Y4299D01*
X4883D01*
X4885Y4299D01*
X4888Y4300D01*
X4890Y4301D01*
X4891Y4301D01*
X4891Y4301D01*
X4892Y4303D01*
X4893Y4304D01*
X4894Y4307D01*
Y4307D01*
Y4308D01*
Y4309D01*
Y4311D01*
Y4312D01*
X4893Y4311D01*
X4891Y4310D01*
X4890Y4309D01*
X4889Y4309D01*
X4887Y4308D01*
X4885Y4308D01*
X4884D01*
X4883Y4308D01*
X4881Y4310D01*
X4880Y4311D01*
X4879Y4312D01*
Y4312D01*
X4879Y4313D01*
X4878Y4314D01*
X4877Y4316D01*
X4876Y4318D01*
Y4318D01*
Y4319D01*
X4877Y4320D01*
X4877Y4322D01*
Y4323D01*
X4878Y4324D01*
X4878Y4326D01*
X4879Y4329D01*
Y4329D01*
X4879Y4331D01*
X4880Y4333D01*
X4881Y4335D01*
X4881Y4338D01*
X4881Y4341D01*
X4882Y4343D01*
X4882Y4345D01*
Y4345D01*
Y4346D01*
X4883Y4347D01*
X4883Y4348D01*
Y4349D01*
X4883Y4351D01*
X4884Y4354D01*
Y4354D01*
X4884Y4355D01*
X4884Y4355D01*
D02*
G37*
G36*
X5176Y4368D02*
X5175D01*
X5173Y4368D01*
X5173D01*
X5171Y4368D01*
X5169D01*
X5167Y4367D01*
X5165Y4367D01*
X5161Y4366D01*
X5161D01*
X5161Y4366D01*
X5160Y4366D01*
X5158Y4366D01*
X5156Y4365D01*
X5153Y4365D01*
X5153D01*
X5152Y4365D01*
X5150Y4366D01*
X5149D01*
X5148Y4365D01*
X5147Y4365D01*
X5145Y4364D01*
X5144Y4364D01*
X5143Y4364D01*
X5141Y4364D01*
X5139Y4363D01*
X5138D01*
Y4363D01*
Y4362D01*
Y4361D01*
X5139Y4359D01*
Y4358D01*
Y4357D01*
Y4356D01*
Y4355D01*
X5138Y4353D01*
Y4352D01*
X5138Y4351D01*
X5138Y4349D01*
X5137Y4347D01*
X5139Y4342D01*
X5138Y4337D01*
Y4337D01*
X5139Y4335D01*
X5139Y4334D01*
X5139Y4332D01*
Y4332D01*
Y4331D01*
Y4330D01*
Y4329D01*
X5139Y4328D01*
X5140Y4328D01*
Y4328D01*
X5140Y4327D01*
X5141Y4326D01*
X5141Y4325D01*
X5142Y4324D01*
X5143Y4323D01*
X5144Y4322D01*
X5144Y4321D01*
X5144Y4320D01*
X5146Y4318D01*
X5146Y4318D01*
X5147Y4317D01*
X5149Y4316D01*
X5149Y4316D01*
X5149Y4315D01*
X5150Y4315D01*
X5151D01*
X5152Y4315D01*
X5153Y4316D01*
X5154Y4317D01*
X5154Y4318D01*
X5154Y4319D01*
X5155Y4319D01*
X5155Y4320D01*
X5156Y4322D01*
X5156Y4324D01*
X5157Y4326D01*
X5158Y4328D01*
Y4329D01*
X5158Y4330D01*
X5159Y4331D01*
X5160Y4333D01*
X5161Y4333D01*
X5161Y4335D01*
X5163Y4337D01*
X5165Y4340D01*
Y4340D01*
Y4341D01*
X5165Y4342D01*
X5165Y4343D01*
X5166Y4345D01*
X5166Y4347D01*
X5168Y4352D01*
Y4352D01*
X5168Y4353D01*
X5169Y4354D01*
X5170Y4356D01*
X5171Y4358D01*
X5172Y4361D01*
X5174Y4364D01*
X5175Y4367D01*
Y4367D01*
X5176Y4368D01*
Y4368D01*
D02*
G37*
G36*
X4432Y4177D02*
X4431D01*
X4430Y4177D01*
X4427Y4176D01*
X4425Y4175D01*
X4425Y4175D01*
X4424Y4174D01*
X4423Y4172D01*
X4423Y4169D01*
Y4169D01*
Y4168D01*
X4423Y4166D01*
X4423Y4165D01*
X4424Y4164D01*
X4424Y4163D01*
X4425Y4161D01*
X4426Y4159D01*
Y4158D01*
X4426Y4158D01*
X4427Y4156D01*
X4428Y4153D01*
X4430Y4150D01*
Y4150D01*
X4430Y4149D01*
X4431Y4148D01*
X4432Y4146D01*
X4433Y4144D01*
X4434Y4142D01*
X4437Y4137D01*
Y4137D01*
X4437Y4136D01*
X4438Y4135D01*
X4440Y4132D01*
X4443Y4129D01*
X4445Y4125D01*
X4449Y4121D01*
X4452Y4116D01*
X4456Y4111D01*
X4456Y4111D01*
X4457Y4112D01*
Y4112D01*
X4457Y4112D01*
X4457Y4113D01*
X4458Y4114D01*
X4459Y4116D01*
X4459Y4118D01*
X4460Y4121D01*
X4461Y4124D01*
Y4124D01*
X4461Y4125D01*
X4462Y4127D01*
X4462Y4128D01*
X4464Y4132D01*
X4465Y4137D01*
Y4137D01*
X4465Y4138D01*
Y4138D01*
X4465Y4140D01*
X4466Y4143D01*
X4466Y4145D01*
Y4145D01*
Y4146D01*
Y4147D01*
X4466Y4148D01*
X4465Y4152D01*
X4465Y4155D01*
Y4156D01*
X4464Y4156D01*
X4464Y4158D01*
X4462Y4160D01*
X4461Y4162D01*
X4460Y4163D01*
X4459Y4164D01*
X4457Y4166D01*
X4455Y4168D01*
X4454D01*
X4454Y4169D01*
X4453Y4169D01*
X4452Y4170D01*
X4449Y4171D01*
X4445Y4173D01*
X4445D01*
X4445Y4174D01*
X4443Y4174D01*
X4441Y4175D01*
X4438Y4176D01*
X4438D01*
X4436Y4176D01*
X4435Y4177D01*
X4432Y4177D01*
D02*
G37*
G36*
X4727Y4167D02*
X4726D01*
X4725Y4166D01*
X4722Y4166D01*
X4718Y4165D01*
X4718D01*
X4717Y4164D01*
X4716Y4164D01*
X4715Y4163D01*
X4712Y4161D01*
X4707Y4158D01*
X4707Y4157D01*
X4706Y4157D01*
X4705Y4156D01*
X4704Y4155D01*
X4701Y4153D01*
X4698Y4150D01*
X4698Y4150D01*
X4698Y4149D01*
X4696Y4148D01*
X4693Y4145D01*
X4691Y4142D01*
X4691Y4141D01*
X4690Y4140D01*
X4690Y4139D01*
X4689Y4138D01*
X4688Y4136D01*
X4687Y4135D01*
Y4134D01*
X4687Y4133D01*
X4686Y4132D01*
X4685Y4131D01*
X4684Y4128D01*
X4683Y4126D01*
X4682Y4124D01*
X4681Y4121D01*
Y4120D01*
X4680Y4119D01*
X4680Y4118D01*
X4679Y4117D01*
X4679Y4115D01*
X4678Y4113D01*
X4676Y4108D01*
Y4107D01*
X4676Y4107D01*
X4676Y4105D01*
X4676Y4104D01*
X4675Y4102D01*
X4675Y4099D01*
X4675Y4095D01*
Y4094D01*
X4675Y4092D01*
X4676Y4090D01*
X4676Y4087D01*
X4676Y4083D01*
X4676Y4083D01*
X4676Y4082D01*
X4677Y4081D01*
Y4080D01*
X4678Y4080D01*
X4678Y4079D01*
X4678Y4078D01*
X4679Y4077D01*
X4679Y4075D01*
X4680Y4072D01*
X4684Y4066D01*
X4685Y4063D01*
X4687Y4061D01*
X4688Y4061D01*
X4688Y4060D01*
X4689Y4059D01*
X4691Y4058D01*
X4693Y4057D01*
X4696Y4056D01*
X4698Y4055D01*
X4701Y4055D01*
X4703D01*
X4704Y4055D01*
X4706Y4056D01*
X4707D01*
X4708Y4056D01*
X4710Y4056D01*
X4711Y4057D01*
X4723Y4062D01*
X4724Y4063D01*
X4725Y4063D01*
X4725Y4064D01*
X4726Y4064D01*
X4726Y4065D01*
X4727Y4066D01*
X4733Y4074D01*
X4734Y4074D01*
X4734Y4075D01*
X4735Y4076D01*
X4735Y4078D01*
X4736Y4079D01*
X4737Y4082D01*
X4738Y4084D01*
Y4085D01*
X4738Y4086D01*
X4738Y4087D01*
X4739Y4090D01*
X4739Y4093D01*
X4740Y4096D01*
X4741Y4100D01*
X4741Y4105D01*
Y4105D01*
X4742Y4107D01*
Y4109D01*
X4742Y4111D01*
X4742Y4114D01*
X4742Y4117D01*
X4743Y4123D01*
Y4124D01*
Y4125D01*
Y4126D01*
Y4128D01*
X4743Y4131D01*
Y4133D01*
Y4139D01*
Y4140D01*
Y4140D01*
Y4142D01*
X4743Y4144D01*
X4743Y4147D01*
X4742Y4151D01*
X4742Y4154D01*
X4741Y4157D01*
X4739Y4160D01*
X4739Y4160D01*
X4738Y4161D01*
X4737Y4162D01*
X4736Y4163D01*
X4734Y4165D01*
X4732Y4166D01*
X4730Y4166D01*
X4727Y4167D01*
D02*
G37*
G36*
X4999Y4369D02*
Y4368D01*
X4999D01*
X4999Y4369D01*
X4999Y4369D01*
D02*
G37*
G36*
X5038Y4167D02*
X5038D01*
Y4167D01*
Y4166D01*
X5039Y4166D01*
X5039Y4167D01*
X5038Y4167D01*
D02*
G37*
%LPD*%
D12*
X1356Y1525D02*
G03*
X1356Y1525I-157J0D01*
G01*
X5320Y4910D02*
G03*
X5320Y4910I-5J0D01*
G01*
X4525Y4915D02*
G03*
X4525Y4915I-5J0D01*
G01*
X4060Y2498D02*
G03*
X4260Y2498I100J61D01*
G01*
X5140Y3085D02*
G03*
X5140Y3085I-5J0D01*
G01*
X1055Y1660D02*
Y1710D01*
X1025Y1685D02*
X1085D01*
Y1430D02*
Y1620D01*
X1080Y1625D02*
X1085Y1620D01*
X1080Y1425D02*
X1085Y1430D01*
X3546Y2244D02*
X3624D01*
Y2522D01*
X3546Y2244D02*
Y2522D01*
X3624D01*
X5570Y5460D02*
X5655D01*
Y4980D02*
Y5460D01*
X5570Y4980D02*
X5655D01*
X5175D02*
X5260D01*
X5175D02*
Y5460D01*
X5260D01*
X5375D02*
X5455D01*
X5375Y4980D02*
X5455D01*
X4775Y5465D02*
X4860D01*
Y4985D02*
Y5465D01*
X4775Y4985D02*
X4860D01*
X4380D02*
X4465D01*
X4380D02*
Y5465D01*
X4465D01*
X4580D02*
X4660D01*
X4580Y4985D02*
X4660D01*
X4386Y2499D02*
X4464D01*
Y2777D01*
X4386Y2499D02*
Y2777D01*
X4464D01*
X4336Y2901D02*
Y2979D01*
X4058D02*
X4336D01*
X4058Y2901D02*
X4336D01*
X4058D02*
Y2979D01*
X4526Y2489D02*
X4604D01*
Y2767D01*
X4526Y2489D02*
Y2767D01*
X4604D01*
X4506Y2296D02*
Y2374D01*
X4228D02*
X4506D01*
X4228Y2296D02*
X4506D01*
X4228D02*
Y2374D01*
X5376Y2701D02*
X5454D01*
X5376Y2423D02*
Y2701D01*
X5454Y2423D02*
Y2701D01*
X5376Y2423D02*
X5454D01*
X5206Y2701D02*
X5284D01*
X5206Y2423D02*
Y2701D01*
X5284Y2423D02*
Y2701D01*
X5206Y2423D02*
X5284D01*
X5586Y2491D02*
X5664D01*
X5586Y2213D02*
Y2491D01*
X5664Y2213D02*
Y2491D01*
X5586Y2213D02*
X5664D01*
X5721Y2491D02*
X5799D01*
X5721Y2213D02*
Y2491D01*
X5799Y2213D02*
Y2491D01*
X5721Y2213D02*
X5799D01*
X5066Y2701D02*
X5144D01*
X5066Y2423D02*
Y2701D01*
X5144Y2423D02*
Y2701D01*
X5066Y2423D02*
X5144D01*
X4901Y2701D02*
X4979D01*
X4901Y2423D02*
Y2701D01*
X4979Y2423D02*
Y2701D01*
X4901Y2423D02*
X4979D01*
X3436Y2244D02*
X3514D01*
Y2522D01*
X3436Y2244D02*
Y2522D01*
X3514D01*
X5521Y3476D02*
X5599D01*
X5521Y3198D02*
Y3476D01*
X5599Y3198D02*
Y3476D01*
X5521Y3198D02*
X5599D01*
X5341Y4541D02*
Y4619D01*
X5063D02*
X5341D01*
X5063Y4541D02*
X5341D01*
X5063D02*
Y4619D01*
X4351Y3259D02*
X4429D01*
Y3537D01*
X4351Y3259D02*
Y3537D01*
X4429D01*
X4866Y4541D02*
Y4619D01*
X4588D02*
X4866D01*
X4588Y4541D02*
X4866D01*
X4588D02*
Y4619D01*
X1846Y3496D02*
X1924D01*
X1846Y3218D02*
Y3496D01*
X1924Y3218D02*
Y3496D01*
X1846Y3218D02*
X1924D01*
X1741Y1351D02*
Y1429D01*
X1463D02*
X1741D01*
X1463Y1351D02*
X1741D01*
X1463D02*
Y1429D01*
X4216Y2746D02*
Y2824D01*
X3938D02*
X4216D01*
X3938Y2746D02*
X4216D01*
X3938D02*
Y2824D01*
X1451Y1739D02*
X1529D01*
Y2017D01*
X1451Y1739D02*
Y2017D01*
X1529D01*
X4066Y2598D02*
X4085Y2617D01*
X4235D02*
X4254Y2598D01*
X4085Y2617D02*
X4235D01*
X5341Y2856D02*
Y2934D01*
X5063D02*
X5341D01*
X5063Y2856D02*
X5341D01*
X5063D02*
Y2934D01*
X4976Y1471D02*
X5054D01*
X4976Y1193D02*
Y1471D01*
X5054Y1193D02*
Y1471D01*
X4976Y1193D02*
X5054D01*
X5186Y1476D02*
X5264D01*
X5186Y1198D02*
Y1476D01*
X5264Y1198D02*
Y1476D01*
X5186Y1198D02*
X5264D01*
X5346Y1476D02*
X5424D01*
X5346Y1198D02*
Y1476D01*
X5424Y1198D02*
Y1476D01*
X5346Y1198D02*
X5424D01*
X4791Y1471D02*
X4869D01*
X4791Y1193D02*
Y1471D01*
X4869Y1193D02*
Y1471D01*
X4791Y1193D02*
X4869D01*
X5636Y3026D02*
X5714D01*
X5636Y2748D02*
Y3026D01*
X5714Y2748D02*
Y3026D01*
X5636Y2748D02*
X5714D01*
X5761Y2749D02*
X5839D01*
Y3027D01*
X5761Y2749D02*
Y3027D01*
X5839D01*
X4536Y1441D02*
X4614D01*
X4536Y1163D02*
Y1441D01*
X4614Y1163D02*
Y1441D01*
X4536Y1163D02*
X4614D01*
X4661Y1446D02*
X4739D01*
X4661Y1168D02*
Y1446D01*
X4739Y1168D02*
Y1446D01*
X4661Y1168D02*
X4739D01*
X3451Y1206D02*
Y1284D01*
X3173D02*
X3451D01*
X3173Y1206D02*
X3451D01*
X3173D02*
Y1284D01*
X3184Y1071D02*
Y1149D01*
Y1071D02*
X3462D01*
X3184Y1149D02*
X3462D01*
Y1071D02*
Y1149D01*
X5390Y3635D02*
X5475D01*
Y3155D02*
Y3635D01*
X5390Y3155D02*
X5475D01*
X4995D02*
X5080D01*
X4995D02*
Y3635D01*
X5080D01*
X5195D02*
X5275D01*
X5195Y3155D02*
X5275D01*
X5881Y2784D02*
X5959D01*
Y3062D01*
X5881Y2784D02*
Y3062D01*
X5959D01*
X6044Y3445D02*
Y3452D01*
X6045Y3237D02*
Y3245D01*
X6000Y3245D02*
Y3445D01*
X6090D01*
X6000Y3245D02*
X6090D01*
Y3445D01*
X5436Y3856D02*
Y3934D01*
X5158D02*
X5436D01*
X5158Y3856D02*
X5436D01*
X5158D02*
Y3934D01*
X4604Y3706D02*
Y3784D01*
Y3706D02*
X4882D01*
X4604Y3784D02*
X4882D01*
Y3706D02*
Y3784D01*
X3435Y2805D02*
X3425Y2795D01*
Y2775D01*
X3435Y2765D01*
X3475D01*
X3485Y2775D01*
Y2795D01*
X3475Y2805D01*
X3425Y2865D02*
X3435Y2845D01*
X3455Y2825D01*
X3475D01*
X3485Y2835D01*
Y2855D01*
X3475Y2865D01*
X3465D01*
X3455Y2855D01*
Y2825D01*
X1810Y1020D02*
X1800Y1030D01*
X1780D01*
X1770Y1020D01*
Y980D01*
X1780Y970D01*
X1800D01*
X1810Y980D01*
X1830Y970D02*
X1850D01*
X1840D01*
Y1030D01*
X1830Y1020D01*
X1880Y980D02*
X1890Y970D01*
X1910D01*
X1920Y980D01*
Y1020D01*
X1910Y1030D01*
X1890D01*
X1880Y1020D01*
Y1010D01*
X1890Y1000D01*
X1920D01*
X1105Y1325D02*
X1095Y1335D01*
X1075D01*
X1065Y1325D01*
Y1285D01*
X1075Y1275D01*
X1095D01*
X1105Y1285D01*
X1165Y1275D02*
X1125D01*
X1165Y1315D01*
Y1325D01*
X1155Y1335D01*
X1135D01*
X1125Y1325D01*
X1185D02*
X1195Y1335D01*
X1215D01*
X1225Y1325D01*
Y1285D01*
X1215Y1275D01*
X1195D01*
X1185Y1285D01*
Y1325D01*
X2835Y4680D02*
X2825Y4690D01*
X2805D01*
X2795Y4680D01*
Y4640D01*
X2805Y4630D01*
X2825D01*
X2835Y4640D01*
X2855Y4630D02*
Y4690D01*
X2885D01*
X2895Y4680D01*
Y4660D01*
X2885Y4650D01*
X2855D01*
X2875D02*
X2895Y4630D01*
X2915Y4690D02*
X2955D01*
X2935D01*
Y4630D01*
X2975D02*
X2995D01*
X2985D01*
Y4690D01*
X2975Y4680D01*
X1735Y1995D02*
X1795D01*
Y2025D01*
X1785Y2035D01*
X1745D01*
X1735Y2025D01*
Y1995D01*
X1795Y2055D02*
Y2075D01*
Y2065D01*
X1735D01*
X1745Y2055D01*
X1595Y1995D02*
X1655D01*
Y2025D01*
X1645Y2035D01*
X1605D01*
X1595Y2025D01*
Y1995D01*
X1655Y2095D02*
Y2055D01*
X1615Y2095D01*
X1605D01*
X1595Y2085D01*
Y2065D01*
X1605Y2055D01*
X1145Y3915D02*
X1125D01*
X1135D01*
Y3865D01*
X1125Y3855D01*
X1115D01*
X1105Y3865D01*
X1165Y3855D02*
X1185D01*
X1175D01*
Y3915D01*
X1165Y3905D01*
X5665Y1425D02*
X5645D01*
X5655D01*
Y1375D01*
X5645Y1365D01*
X5635D01*
X5625Y1375D01*
X5725Y1365D02*
X5685D01*
X5725Y1405D01*
Y1415D01*
X5715Y1425D01*
X5695D01*
X5685Y1415D01*
X4245Y1190D02*
X4225D01*
X4235D01*
Y1140D01*
X4225Y1130D01*
X4215D01*
X4205Y1140D01*
X4265Y1180D02*
X4275Y1190D01*
X4295D01*
X4305Y1180D01*
Y1170D01*
X4295Y1160D01*
X4285D01*
X4295D01*
X4305Y1150D01*
Y1140D01*
X4295Y1130D01*
X4275D01*
X4265Y1140D01*
X4825Y3294D02*
X4805D01*
X4815D01*
Y3244D01*
X4805Y3234D01*
X4795D01*
X4786Y3244D01*
X4875Y3234D02*
Y3294D01*
X4845Y3264D01*
X4885D01*
X4826Y3652D02*
X4806D01*
X4816D01*
Y3602D01*
X4806Y3592D01*
X4796D01*
X4786Y3602D01*
X4886Y3652D02*
X4846D01*
Y3622D01*
X4866Y3632D01*
X4876D01*
X4886Y3622D01*
Y3602D01*
X4876Y3592D01*
X4856D01*
X4846Y3602D01*
X4745Y3925D02*
X4725D01*
X4735D01*
Y3875D01*
X4725Y3865D01*
X4715D01*
X4705Y3875D01*
X4805Y3925D02*
X4785Y3915D01*
X4765Y3895D01*
Y3875D01*
X4775Y3865D01*
X4795D01*
X4805Y3875D01*
Y3885D01*
X4795Y3895D01*
X4765D01*
X1085Y2705D02*
X1065D01*
X1075D01*
Y2655D01*
X1065Y2645D01*
X1055D01*
X1045Y2655D01*
X1105Y2705D02*
X1145D01*
Y2695D01*
X1105Y2655D01*
Y2645D01*
X3560Y5040D02*
Y5100D01*
X3590D01*
X3600Y5090D01*
Y5070D01*
X3590Y5060D01*
X3560D01*
X3620Y5040D02*
X3640D01*
X3630D01*
Y5100D01*
X3620Y5090D01*
X2175Y5055D02*
Y5115D01*
X2205D01*
X2215Y5105D01*
Y5085D01*
X2205Y5075D01*
X2175D01*
X2275Y5055D02*
X2235D01*
X2275Y5095D01*
Y5105D01*
X2265Y5115D01*
X2245D01*
X2235Y5105D01*
X4076Y2662D02*
Y2702D01*
X4066Y2712D01*
X4046D01*
X4036Y2702D01*
Y2662D01*
X4046Y2652D01*
X4066D01*
X4056Y2672D02*
X4076Y2652D01*
X4066D02*
X4076Y2662D01*
X4096Y2652D02*
X4116D01*
X4106D01*
Y2712D01*
X4096Y2702D01*
X5920Y1745D02*
Y1785D01*
X5910Y1795D01*
X5890D01*
X5880Y1785D01*
Y1745D01*
X5890Y1735D01*
X5910D01*
X5900Y1755D02*
X5920Y1735D01*
X5910D02*
X5920Y1745D01*
X5980Y1735D02*
X5940D01*
X5980Y1775D01*
Y1785D01*
X5970Y1795D01*
X5950D01*
X5940Y1785D01*
X5523Y3599D02*
Y3659D01*
X5553D01*
X5563Y3649D01*
Y3629D01*
X5553Y3619D01*
X5523D01*
X5543D02*
X5563Y3599D01*
X5583D02*
X5603D01*
X5593D01*
Y3659D01*
X5583Y3649D01*
X4345Y2610D02*
X4285D01*
Y2640D01*
X4295Y2650D01*
X4315D01*
X4325Y2640D01*
Y2610D01*
Y2630D02*
X4345Y2650D01*
Y2710D02*
Y2670D01*
X4305Y2710D01*
X4295D01*
X4285Y2700D01*
Y2680D01*
X4295Y2670D01*
X1382Y1467D02*
Y1527D01*
X1412D01*
X1422Y1517D01*
Y1497D01*
X1412Y1487D01*
X1382D01*
X1402D02*
X1422Y1467D01*
X1442Y1517D02*
X1452Y1527D01*
X1472D01*
X1482Y1517D01*
Y1507D01*
X1472Y1497D01*
X1462D01*
X1472D01*
X1482Y1487D01*
Y1477D01*
X1472Y1467D01*
X1452D01*
X1442Y1477D01*
X1872Y1896D02*
Y1956D01*
X1901D01*
X1911Y1946D01*
Y1926D01*
X1901Y1916D01*
X1872D01*
X1891D02*
X1911Y1896D01*
X1961D02*
Y1956D01*
X1931Y1926D01*
X1971D01*
X1452Y2138D02*
Y2197D01*
X1482D01*
X1492Y2187D01*
Y2167D01*
X1482Y2157D01*
X1452D01*
X1472D02*
X1492Y2138D01*
X1552Y2197D02*
X1512D01*
Y2167D01*
X1532Y2177D01*
X1542D01*
X1552Y2167D01*
Y2147D01*
X1542Y2138D01*
X1522D01*
X1512Y2147D01*
X3857Y2862D02*
Y2922D01*
X3887D01*
X3897Y2912D01*
Y2892D01*
X3887Y2882D01*
X3857D01*
X3877D02*
X3897Y2862D01*
X3957Y2922D02*
X3937Y2912D01*
X3917Y2892D01*
Y2872D01*
X3927Y2862D01*
X3947D01*
X3957Y2872D01*
Y2882D01*
X3947Y2892D01*
X3917D01*
X3410Y2135D02*
X3350D01*
Y2165D01*
X3360Y2175D01*
X3380D01*
X3390Y2165D01*
Y2135D01*
Y2155D02*
X3410Y2175D01*
X3350Y2195D02*
Y2235D01*
X3360D01*
X3400Y2195D01*
X3410D01*
X3510Y2640D02*
Y2700D01*
X3540D01*
X3550Y2690D01*
Y2670D01*
X3540Y2660D01*
X3510D01*
X3530D02*
X3550Y2640D01*
X3570Y2690D02*
X3580Y2700D01*
X3600D01*
X3610Y2690D01*
Y2680D01*
X3600Y2670D01*
X3610Y2660D01*
Y2650D01*
X3600Y2640D01*
X3580D01*
X3570Y2650D01*
Y2660D01*
X3580Y2670D01*
X3570Y2680D01*
Y2690D01*
X3580Y2670D02*
X3600D01*
X4195Y3020D02*
Y3080D01*
X4225D01*
X4235Y3070D01*
Y3050D01*
X4225Y3040D01*
X4195D01*
X4215D02*
X4235Y3020D01*
X4255Y3030D02*
X4265Y3020D01*
X4285D01*
X4295Y3030D01*
Y3070D01*
X4285Y3080D01*
X4265D01*
X4255Y3070D01*
Y3060D01*
X4265Y3050D01*
X4295D01*
X4970Y2145D02*
X4910D01*
Y2175D01*
X4920Y2185D01*
X4940D01*
X4950Y2175D01*
Y2145D01*
Y2165D02*
X4970Y2185D01*
Y2205D02*
Y2225D01*
Y2215D01*
X4910D01*
X4920Y2205D01*
Y2255D02*
X4910Y2265D01*
Y2285D01*
X4920Y2295D01*
X4960D01*
X4970Y2285D01*
Y2265D01*
X4960Y2255D01*
X4920D01*
X5275Y2170D02*
X5215D01*
Y2200D01*
X5225Y2210D01*
X5245D01*
X5255Y2200D01*
Y2170D01*
Y2190D02*
X5275Y2210D01*
Y2230D02*
Y2250D01*
Y2240D01*
X5215D01*
X5225Y2230D01*
X5275Y2280D02*
Y2300D01*
Y2290D01*
X5215D01*
X5225Y2280D01*
X5445Y2135D02*
X5385D01*
Y2165D01*
X5395Y2175D01*
X5415D01*
X5425Y2165D01*
Y2135D01*
Y2155D02*
X5445Y2175D01*
Y2195D02*
Y2215D01*
Y2205D01*
X5385D01*
X5395Y2195D01*
X5445Y2285D02*
Y2245D01*
X5405Y2285D01*
X5395D01*
X5385Y2275D01*
Y2255D01*
X5395Y2245D01*
X5140Y2140D02*
X5080D01*
Y2170D01*
X5090Y2180D01*
X5110D01*
X5120Y2170D01*
Y2140D01*
Y2160D02*
X5140Y2180D01*
Y2200D02*
Y2220D01*
Y2210D01*
X5080D01*
X5090Y2200D01*
Y2250D02*
X5080Y2260D01*
Y2280D01*
X5090Y2290D01*
X5100D01*
X5110Y2280D01*
Y2270D01*
Y2280D01*
X5120Y2290D01*
X5130D01*
X5140Y2280D01*
Y2260D01*
X5130Y2250D01*
X5560Y2305D02*
X5500D01*
Y2335D01*
X5510Y2345D01*
X5530D01*
X5540Y2335D01*
Y2305D01*
Y2325D02*
X5560Y2345D01*
Y2365D02*
Y2385D01*
Y2375D01*
X5500D01*
X5510Y2365D01*
X5560Y2445D02*
X5500D01*
X5530Y2415D01*
Y2455D01*
X5885Y2290D02*
X5825D01*
Y2320D01*
X5835Y2330D01*
X5855D01*
X5865Y2320D01*
Y2290D01*
Y2310D02*
X5885Y2330D01*
Y2350D02*
Y2370D01*
Y2360D01*
X5825D01*
X5835Y2350D01*
X5825Y2440D02*
Y2400D01*
X5855D01*
X5845Y2420D01*
Y2430D01*
X5855Y2440D01*
X5875D01*
X5885Y2430D01*
Y2410D01*
X5875Y2400D01*
X4955Y1255D02*
X4895D01*
Y1285D01*
X4905Y1295D01*
X4925D01*
X4935Y1285D01*
Y1255D01*
Y1275D02*
X4955Y1295D01*
Y1315D02*
Y1335D01*
Y1325D01*
X4895D01*
X4905Y1315D01*
X4895Y1405D02*
X4905Y1385D01*
X4925Y1365D01*
X4945D01*
X4955Y1375D01*
Y1395D01*
X4945Y1405D01*
X4935D01*
X4925Y1395D01*
Y1365D01*
X5160Y1265D02*
X5100D01*
Y1295D01*
X5110Y1305D01*
X5130D01*
X5140Y1295D01*
Y1265D01*
Y1285D02*
X5160Y1305D01*
Y1325D02*
Y1345D01*
Y1335D01*
X5100D01*
X5110Y1325D01*
X5100Y1375D02*
Y1415D01*
X5110D01*
X5150Y1375D01*
X5160D01*
X5415Y930D02*
X5355D01*
Y960D01*
X5365Y970D01*
X5385D01*
X5395Y960D01*
Y930D01*
Y950D02*
X5415Y970D01*
Y990D02*
Y1010D01*
Y1000D01*
X5355D01*
X5365Y990D01*
Y1040D02*
X5355Y1050D01*
Y1070D01*
X5365Y1080D01*
X5375D01*
X5385Y1070D01*
X5395Y1080D01*
X5405D01*
X5415Y1070D01*
Y1050D01*
X5405Y1040D01*
X5395D01*
X5385Y1050D01*
X5375Y1040D01*
X5365D01*
X5385Y1050D02*
Y1070D01*
X4815Y1570D02*
X4755D01*
Y1600D01*
X4765Y1610D01*
X4785D01*
X4795Y1600D01*
Y1570D01*
Y1590D02*
X4815Y1610D01*
Y1630D02*
Y1650D01*
Y1640D01*
X4755D01*
X4765Y1630D01*
X4805Y1680D02*
X4815Y1690D01*
Y1710D01*
X4805Y1720D01*
X4765D01*
X4755Y1710D01*
Y1690D01*
X4765Y1680D01*
X4775D01*
X4785Y1690D01*
Y1720D01*
X5700Y3140D02*
X5640D01*
Y3170D01*
X5650Y3180D01*
X5670D01*
X5680Y3170D01*
Y3140D01*
Y3160D02*
X5700Y3180D01*
Y3240D02*
Y3200D01*
X5660Y3240D01*
X5650D01*
X5640Y3230D01*
Y3210D01*
X5650Y3200D01*
Y3260D02*
X5640Y3270D01*
Y3290D01*
X5650Y3300D01*
X5690D01*
X5700Y3290D01*
Y3270D01*
X5690Y3260D01*
X5650D01*
X4600Y1565D02*
X4540D01*
Y1595D01*
X4550Y1605D01*
X4570D01*
X4580Y1595D01*
Y1565D01*
Y1585D02*
X4600Y1605D01*
Y1665D02*
Y1625D01*
X4560Y1665D01*
X4550D01*
X4540Y1655D01*
Y1635D01*
X4550Y1625D01*
X4600Y1685D02*
Y1705D01*
Y1695D01*
X4540D01*
X4550Y1685D01*
X4710Y1565D02*
X4650D01*
Y1595D01*
X4660Y1605D01*
X4680D01*
X4690Y1595D01*
Y1565D01*
Y1585D02*
X4710Y1605D01*
Y1665D02*
Y1625D01*
X4670Y1665D01*
X4660D01*
X4650Y1655D01*
Y1635D01*
X4660Y1625D01*
X4710Y1725D02*
Y1685D01*
X4670Y1725D01*
X4660D01*
X4650Y1715D01*
Y1695D01*
X4660Y1685D01*
X4700Y2555D02*
X4640D01*
Y2585D01*
X4650Y2595D01*
X4670D01*
X4680Y2585D01*
Y2555D01*
Y2575D02*
X4700Y2595D01*
Y2655D02*
Y2615D01*
X4660Y2655D01*
X4650D01*
X4640Y2645D01*
Y2625D01*
X4650Y2615D01*
Y2675D02*
X4640Y2685D01*
Y2705D01*
X4650Y2715D01*
X4660D01*
X4670Y2705D01*
Y2695D01*
Y2705D01*
X4680Y2715D01*
X4690D01*
X4700Y2705D01*
Y2685D01*
X4690Y2675D01*
X4265Y2205D02*
Y2265D01*
X4295D01*
X4305Y2255D01*
Y2235D01*
X4295Y2225D01*
X4265D01*
X4285D02*
X4305Y2205D01*
X4365D02*
X4325D01*
X4365Y2245D01*
Y2255D01*
X4355Y2265D01*
X4335D01*
X4325Y2255D01*
X4415Y2205D02*
Y2265D01*
X4385Y2235D01*
X4425D01*
X5825Y3140D02*
X5765D01*
Y3170D01*
X5775Y3180D01*
X5795D01*
X5805Y3170D01*
Y3140D01*
Y3160D02*
X5825Y3180D01*
Y3240D02*
Y3200D01*
X5785Y3240D01*
X5775D01*
X5765Y3230D01*
Y3210D01*
X5775Y3200D01*
X5765Y3300D02*
Y3260D01*
X5795D01*
X5785Y3280D01*
Y3290D01*
X5795Y3300D01*
X5815D01*
X5825Y3290D01*
Y3270D01*
X5815Y3260D01*
X5945Y3185D02*
X5885D01*
Y3215D01*
X5895Y3225D01*
X5915D01*
X5925Y3215D01*
Y3185D01*
Y3205D02*
X5945Y3225D01*
Y3285D02*
Y3245D01*
X5905Y3285D01*
X5895D01*
X5885Y3275D01*
Y3255D01*
X5895Y3245D01*
X5885Y3345D02*
X5895Y3325D01*
X5915Y3305D01*
X5935D01*
X5945Y3315D01*
Y3335D01*
X5935Y3345D01*
X5925D01*
X5915Y3335D01*
Y3305D01*
X3580Y1225D02*
Y1285D01*
X3610D01*
X3620Y1275D01*
Y1255D01*
X3610Y1245D01*
X3580D01*
X3600D02*
X3620Y1225D01*
X3680D02*
X3640D01*
X3680Y1265D01*
Y1275D01*
X3670Y1285D01*
X3650D01*
X3640Y1275D01*
X3700Y1285D02*
X3740D01*
Y1275D01*
X3700Y1235D01*
Y1225D01*
X2910Y1060D02*
Y1120D01*
X2940D01*
X2950Y1110D01*
Y1090D01*
X2940Y1080D01*
X2910D01*
X2930D02*
X2950Y1060D01*
X3010D02*
X2970D01*
X3010Y1100D01*
Y1110D01*
X3000Y1120D01*
X2980D01*
X2970Y1110D01*
X3030D02*
X3040Y1120D01*
X3060D01*
X3070Y1110D01*
Y1100D01*
X3060Y1090D01*
X3070Y1080D01*
Y1070D01*
X3060Y1060D01*
X3040D01*
X3030Y1070D01*
Y1080D01*
X3040Y1090D01*
X3030Y1100D01*
Y1110D01*
X3040Y1090D02*
X3060D01*
X1848Y3619D02*
Y3679D01*
X1878D01*
X1888Y3669D01*
Y3649D01*
X1878Y3639D01*
X1848D01*
X1868D02*
X1888Y3619D01*
X1948D02*
X1908D01*
X1948Y3659D01*
Y3669D01*
X1938Y3679D01*
X1918D01*
X1908Y3669D01*
X1968Y3629D02*
X1978Y3619D01*
X1998D01*
X2008Y3629D01*
Y3669D01*
X1998Y3679D01*
X1978D01*
X1968Y3669D01*
Y3659D01*
X1978Y3649D01*
X2008D01*
X5340Y3765D02*
Y3825D01*
X5370D01*
X5380Y3815D01*
Y3795D01*
X5370Y3785D01*
X5340D01*
X5360D02*
X5380Y3765D01*
X5400Y3815D02*
X5410Y3825D01*
X5430D01*
X5440Y3815D01*
Y3805D01*
X5430Y3795D01*
X5420D01*
X5430D01*
X5440Y3785D01*
Y3775D01*
X5430Y3765D01*
X5410D01*
X5400Y3775D01*
X5460Y3815D02*
X5470Y3825D01*
X5490D01*
X5500Y3815D01*
Y3775D01*
X5490Y3765D01*
X5470D01*
X5460Y3775D01*
Y3815D01*
X4780Y2870D02*
Y2930D01*
X4810D01*
X4820Y2920D01*
Y2900D01*
X4810Y2890D01*
X4780D01*
X4800D02*
X4820Y2870D01*
X4840Y2920D02*
X4850Y2930D01*
X4870D01*
X4880Y2920D01*
Y2910D01*
X4870Y2900D01*
X4860D01*
X4870D01*
X4880Y2890D01*
Y2880D01*
X4870Y2870D01*
X4850D01*
X4840Y2880D01*
X4900Y2870D02*
X4920D01*
X4910D01*
Y2930D01*
X4900Y2920D01*
X4590Y3620D02*
Y3680D01*
X4620D01*
X4630Y3670D01*
Y3650D01*
X4620Y3640D01*
X4590D01*
X4610D02*
X4630Y3620D01*
X4650Y3670D02*
X4660Y3680D01*
X4680D01*
X4690Y3670D01*
Y3660D01*
X4680Y3650D01*
X4670D01*
X4680D01*
X4690Y3640D01*
Y3630D01*
X4680Y3620D01*
X4660D01*
X4650Y3630D01*
X4750Y3620D02*
X4710D01*
X4750Y3660D01*
Y3670D01*
X4740Y3680D01*
X4720D01*
X4710Y3670D01*
X4507Y4657D02*
Y4717D01*
X4537D01*
X4547Y4707D01*
Y4687D01*
X4537Y4677D01*
X4507D01*
X4527D02*
X4547Y4657D01*
X4567Y4707D02*
X4577Y4717D01*
X4597D01*
X4607Y4707D01*
Y4697D01*
X4597Y4687D01*
X4587D01*
X4597D01*
X4607Y4677D01*
Y4667D01*
X4597Y4657D01*
X4577D01*
X4567Y4667D01*
X4627Y4707D02*
X4637Y4717D01*
X4657D01*
X4667Y4707D01*
Y4697D01*
X4657Y4687D01*
X4647D01*
X4657D01*
X4667Y4677D01*
Y4667D01*
X4657Y4657D01*
X4637D01*
X4627Y4667D01*
X4982Y4657D02*
Y4717D01*
X5012D01*
X5022Y4707D01*
Y4687D01*
X5012Y4677D01*
X4982D01*
X5002D02*
X5022Y4657D01*
X5042Y4707D02*
X5052Y4717D01*
X5072D01*
X5082Y4707D01*
Y4697D01*
X5072Y4687D01*
X5062D01*
X5072D01*
X5082Y4677D01*
Y4667D01*
X5072Y4657D01*
X5052D01*
X5042Y4667D01*
X5132Y4657D02*
Y4717D01*
X5102Y4687D01*
X5142D01*
X4352Y3658D02*
Y3717D01*
X4382D01*
X4392Y3707D01*
Y3687D01*
X4382Y3677D01*
X4352D01*
X4372D02*
X4392Y3658D01*
X4412Y3707D02*
X4422Y3717D01*
X4442D01*
X4452Y3707D01*
Y3697D01*
X4442Y3687D01*
X4432D01*
X4442D01*
X4452Y3677D01*
Y3667D01*
X4442Y3658D01*
X4422D01*
X4412Y3667D01*
X4512Y3717D02*
X4472D01*
Y3687D01*
X4492Y3697D01*
X4502D01*
X4512Y3687D01*
Y3667D01*
X4502Y3658D01*
X4482D01*
X4472Y3667D01*
X5520Y5550D02*
X5530Y5540D01*
X5550D01*
X5560Y5550D01*
Y5560D01*
X5550Y5570D01*
X5530D01*
X5520Y5580D01*
Y5590D01*
X5530Y5600D01*
X5550D01*
X5560Y5590D01*
X5460Y5540D02*
X5500D01*
Y5600D01*
X5460D01*
X5500Y5570D02*
X5480D01*
X5440Y5540D02*
Y5600D01*
X5400D01*
X5340Y5540D02*
X5380D01*
Y5600D01*
X5340D01*
X5380Y5570D02*
X5360D01*
X5280Y5550D02*
X5290Y5540D01*
X5310D01*
X5320Y5550D01*
Y5590D01*
X5310Y5600D01*
X5290D01*
X5280Y5590D01*
X5260Y5540D02*
X5220D01*
X5240D01*
Y5600D01*
X4715Y5555D02*
X4725Y5545D01*
X4745D01*
X4755Y5555D01*
Y5565D01*
X4745Y5575D01*
X4725D01*
X4715Y5585D01*
Y5595D01*
X4725Y5605D01*
X4745D01*
X4755Y5595D01*
X4695Y5545D02*
X4655D01*
X4675D01*
Y5605D01*
X4635D02*
Y5565D01*
X4615Y5545D01*
X4595Y5565D01*
Y5605D01*
Y5575D01*
X4635D01*
X4575Y5605D02*
Y5545D01*
X4545D01*
X4535Y5555D01*
Y5575D01*
X4545Y5585D01*
X4575D01*
X4555D02*
X4535Y5605D01*
X4515Y5545D02*
X4475D01*
X4495D01*
Y5605D01*
X5215Y3775D02*
X5205Y3785D01*
X5185D01*
X5175Y3775D01*
Y3765D01*
X5185Y3755D01*
X5205D01*
X5215Y3745D01*
Y3735D01*
X5205Y3725D01*
X5185D01*
X5175Y3735D01*
X5235Y3785D02*
Y3725D01*
X5255Y3745D01*
X5275Y3725D01*
Y3785D01*
X5295Y3725D02*
X5315D01*
X5305D01*
Y3785D01*
X5295Y3775D01*
X1205Y2610D02*
X1195Y2620D01*
X1175D01*
X1165Y2610D01*
Y2600D01*
X1175Y2590D01*
X1195D01*
X1205Y2580D01*
Y2570D01*
X1195Y2560D01*
X1175D01*
X1165Y2570D01*
X1225Y2620D02*
Y2560D01*
X1245Y2580D01*
X1265Y2560D01*
Y2620D01*
X1325Y2560D02*
X1285D01*
X1325Y2600D01*
Y2610D01*
X1315Y2620D01*
X1295D01*
X1285Y2610D01*
X4360Y1760D02*
Y1710D01*
X4370Y1700D01*
X4390D01*
X4400Y1710D01*
Y1760D01*
X4420Y1700D02*
X4440D01*
X4430D01*
Y1760D01*
X4420Y1750D01*
X4735Y1770D02*
X4785D01*
X4795Y1780D01*
Y1800D01*
X4785Y1810D01*
X4735D01*
X4795Y1870D02*
Y1830D01*
X4755Y1870D01*
X4745D01*
X4735Y1860D01*
Y1840D01*
X4745Y1830D01*
X1846Y2987D02*
Y2937D01*
X1856Y2927D01*
X1876D01*
X1886Y2937D01*
Y2987D01*
X1906Y2977D02*
X1916Y2987D01*
X1936D01*
X1946Y2977D01*
Y2967D01*
X1936Y2957D01*
X1926D01*
X1936D01*
X1946Y2947D01*
Y2937D01*
X1936Y2927D01*
X1916D01*
X1906Y2937D01*
X2146Y3836D02*
Y3786D01*
X2156Y3776D01*
X2176D01*
X2186Y3786D01*
Y3836D01*
X2236Y3776D02*
Y3836D01*
X2206Y3806D01*
X2246D01*
X1765Y1205D02*
Y1155D01*
X1775Y1145D01*
X1795D01*
X1805Y1155D01*
Y1205D01*
X1865D02*
X1825D01*
Y1175D01*
X1845Y1185D01*
X1855D01*
X1865Y1175D01*
Y1155D01*
X1855Y1145D01*
X1835D01*
X1825Y1155D01*
X3695Y2340D02*
X3735Y2280D01*
Y2340D02*
X3695Y2280D01*
X3755D02*
X3775D01*
X3765D01*
Y2340D01*
X3755Y2330D01*
X5990Y3620D02*
Y3560D01*
X6020D01*
X6030Y3570D01*
Y3610D01*
X6020Y3620D01*
X5990D01*
X6090D02*
X6050D01*
Y3590D01*
X6070Y3600D01*
X6080D01*
X6090Y3590D01*
Y3570D01*
X6080Y3560D01*
X6060D01*
X6050Y3570D01*
X6195Y3280D02*
X6135D01*
Y3310D01*
X6145Y3320D01*
X6165D01*
X6175Y3310D01*
Y3280D01*
Y3300D02*
X6195Y3320D01*
Y3370D02*
X6135D01*
X6165Y3340D01*
Y3380D01*
X6145Y3400D02*
X6135Y3410D01*
Y3430D01*
X6145Y3440D01*
X6185D01*
X6195Y3430D01*
Y3410D01*
X6185Y3400D01*
X6145D01*
D42*
X1300Y1185D02*
G03*
X1300Y1185I-5J0D01*
G01*
X3752Y1085D02*
G03*
X3752Y1085I-5J0D01*
G01*
X4879Y1645D02*
G03*
X4879Y1645I-5J0D01*
G01*
X6009Y1457D02*
G03*
X6009Y1457I-5J0D01*
G01*
X5472Y1085D02*
G03*
X5472Y1085I-5J0D01*
G01*
D43*
X3648Y2458D02*
G03*
X3832Y2458I92J0D01*
G01*
Y2722D02*
G03*
X3648Y2722I-92J0D01*
G01*
X4841Y1770D02*
G03*
X4841Y1820I0J25D01*
G01*
X6010Y1660D02*
G03*
X5993Y1670I-60J-85D01*
G01*
Y1480D02*
G03*
X6010Y1490I-43J95D01*
G01*
X5907Y1670D02*
G03*
X5907Y1480I43J-95D01*
G01*
X5752Y3561D02*
G03*
X5933Y3422I93J-66D01*
G01*
X5933Y3568D02*
G03*
X5748Y3555I-88J-73D01*
G01*
X1320Y1109D02*
Y1290D01*
X1730Y1109D02*
Y1290D01*
X1320Y1109D02*
X1730D01*
X1320Y1290D02*
X1730D01*
X1320Y1270D02*
X1730D01*
X1020Y1784D02*
Y2536D01*
Y1784D02*
X1418D01*
X1020Y2536D02*
X1418D01*
Y1784D02*
Y2536D01*
X1724Y1654D02*
Y1836D01*
X1816D01*
Y1654D02*
Y1836D01*
X1724Y1654D02*
X1816D01*
X1681D02*
Y1836D01*
X1589Y1654D02*
X1681D01*
X1589D02*
Y1836D01*
X1681D01*
X3648Y2458D02*
Y2722D01*
X3832Y2458D02*
Y2722D01*
X1865Y1863D02*
X2055D01*
X1865Y1487D02*
X2055D01*
X4000Y1321D02*
X4167D01*
X3773D02*
X3940D01*
X4167Y1010D02*
Y1321D01*
X3854Y928D02*
X4086D01*
X3773Y1010D02*
Y1321D01*
X5705Y1691D02*
Y1899D01*
X4841Y1820D02*
Y1899D01*
Y1691D02*
Y1770D01*
Y1899D02*
X5705D01*
X4841Y1691D02*
X5705D01*
X6010Y1490D02*
Y1660D01*
X5720Y1321D02*
X5887D01*
X5493D02*
X5660D01*
X5887Y1010D02*
Y1321D01*
X5574Y928D02*
X5806D01*
X5493Y1010D02*
Y1321D01*
X5935Y3425D02*
Y3565D01*
D44*
X3340Y2635D02*
G03*
X3340Y2485I0J-75D01*
G01*
X2140Y3335D02*
G03*
X2140Y3485I0J75D01*
G01*
X4340Y1800D02*
G03*
X4340Y1650I0J-75D01*
G01*
X2205Y4250D02*
X3405D01*
X2205D02*
Y4550D01*
X3405D01*
Y4250D02*
Y4550D01*
X1840Y2810D02*
X3340D01*
Y2635D02*
Y2810D01*
X1840Y2310D02*
Y2810D01*
Y2310D02*
X3340D01*
Y2485D01*
X2140Y3160D02*
X4240D01*
X2140D02*
Y3335D01*
Y3485D02*
Y3660D01*
X4240D01*
Y3160D02*
Y3660D01*
X4340Y1475D02*
Y1650D01*
Y1800D02*
Y1975D01*
X2240D02*
X4340D01*
X2240Y1475D02*
X4340D01*
X2240D02*
Y1975D01*
D45*
X4892Y1730D02*
G03*
X4892Y1730I-12J0D01*
G01*
D46*
X1075Y1445D02*
Y1605D01*
X1060Y1475D02*
Y1575D01*
D47*
X1865Y1487D02*
Y1863D01*
X2055Y1487D02*
Y1863D01*
X1985Y1470D02*
Y1487D01*
Y1470D02*
X2035D01*
Y1487D01*
D48*
X1770Y1823D02*
D03*
X1635Y1667D02*
D03*
D49*
X6032Y4083D02*
D03*
X6109D02*
D03*
X6011Y4055D02*
D03*
X6131Y4053D02*
D03*
X6130Y4200D02*
D03*
X6003Y4201D02*
D03*
X5969Y4228D02*
D03*
X6161Y4229D02*
D03*
X5852Y4234D02*
D03*
X5660Y4233D02*
D03*
X5694Y4206D02*
D03*
X5821Y4205D02*
D03*
X5823Y4058D02*
D03*
X5702Y4060D02*
D03*
X5800Y4088D02*
D03*
X5723D02*
D03*
X5543Y4240D02*
D03*
X5350Y4239D02*
D03*
X5384Y4212D02*
D03*
X5511Y4211D02*
D03*
X5512Y4064D02*
D03*
X5392Y4066D02*
D03*
X5490Y4094D02*
D03*
X5413D02*
D03*
X6015Y3978D02*
D03*
X5821Y3977D02*
D03*
X5856Y3950D02*
D03*
X5984Y3949D02*
D03*
X5984Y3802D02*
D03*
X5865Y3804D02*
D03*
X5963Y3832D02*
D03*
X5885D02*
D03*
D50*
X5988Y4140D02*
D03*
X6152Y4143D02*
D03*
X5843Y4148D02*
D03*
X5679Y4145D02*
D03*
X5532Y4154D02*
D03*
X5369Y4151D02*
D03*
X6004Y3892D02*
D03*
X5840Y3889D02*
D03*
D51*
X6069Y4142D02*
D03*
X5760Y4147D02*
D03*
X5451Y4153D02*
D03*
X5923Y3891D02*
D03*
D52*
X5958Y4101D02*
D03*
X6178Y4105D02*
D03*
X5869Y4110D02*
D03*
X5649Y4106D02*
D03*
X5559Y4116D02*
D03*
X5339Y4112D02*
D03*
X6031Y3854D02*
D03*
X5811Y3850D02*
D03*
D53*
X6061Y4485D02*
D03*
X5580Y4492D02*
D03*
D54*
X6060Y4402D02*
D03*
X5578Y4409D02*
D03*
D55*
X6143Y4565D02*
D03*
X5979Y4569D02*
D03*
X5498Y4576D02*
D03*
X5662Y4572D02*
D03*
D56*
X5833Y4687D02*
D03*
D57*
Y4631D02*
D03*
D58*
Y4514D02*
D03*
M02*
