G04 Layer_Color=128*
%FSLAX23Y23*%
%MOIN*%
G70*
G01*
G75*
%ADD88C,0.005*%
D88*
X1405Y1185D02*
X1445D01*
X1425Y1165D02*
Y1205D01*
X1505Y1185D02*
X1545D01*
X1525Y1165D02*
Y1205D01*
X1605Y1185D02*
X1645D01*
X1625Y1165D02*
Y1205D01*
X1112Y1525D02*
X1148D01*
X1130Y1507D02*
Y1543D01*
X1250Y1525D02*
X1286D01*
X1268Y1507D02*
Y1543D01*
X1060Y2160D02*
X1125D01*
X1093Y2128D02*
Y2192D01*
X1060Y1979D02*
X1125D01*
X1093Y1946D02*
Y2011D01*
X1180Y2770D02*
X1300D01*
X1240Y2710D02*
Y2830D01*
X1293Y2955D02*
X1428D01*
X1360Y2888D02*
Y3023D01*
X1065Y2955D02*
X1175D01*
X1120Y2900D02*
Y3010D01*
X1157Y3747D02*
X1248D01*
X1202Y3702D02*
Y3792D01*
X1157Y3273D02*
X1248D01*
X1202Y3228D02*
Y3318D01*
X1291Y3461D02*
X1327D01*
X1309Y3443D02*
Y3479D01*
X1370Y3461D02*
X1406D01*
X1388Y3443D02*
Y3479D01*
X1370Y3559D02*
X1406D01*
X1388Y3541D02*
Y3577D01*
X1291Y3559D02*
X1327D01*
X1309Y3541D02*
Y3577D01*
X1747Y1568D02*
X1793D01*
X1770Y1545D02*
Y1590D01*
X1747Y1922D02*
X1793D01*
X1770Y1900D02*
Y1945D01*
X1612Y1922D02*
X1658D01*
X1635Y1900D02*
Y1945D01*
X1612Y1568D02*
X1658D01*
X1635Y1545D02*
Y1590D01*
X3570Y2579D02*
X3600D01*
X3585Y2564D02*
Y2594D01*
X3570Y2185D02*
X3600D01*
X3585Y2170D02*
Y2200D01*
X5292Y4964D02*
X5342D01*
X5317Y4939D02*
Y4989D01*
X5292Y5476D02*
X5342D01*
X5317Y5451D02*
Y5501D01*
X5488Y4964D02*
X5538D01*
X5513Y4939D02*
Y4989D01*
X5488Y5476D02*
X5538D01*
X5513Y5451D02*
Y5501D01*
X5201Y5220D02*
X5275D01*
X5238Y5183D02*
Y5257D01*
X5555Y5220D02*
X5629D01*
X5592Y5183D02*
Y5257D01*
X4497Y4969D02*
X4547D01*
X4522Y4944D02*
Y4994D01*
X4497Y5481D02*
X4547D01*
X4522Y5456D02*
Y5506D01*
X4693Y4969D02*
X4743D01*
X4718Y4944D02*
Y4994D01*
X4693Y5481D02*
X4743D01*
X4718Y5456D02*
Y5506D01*
X4406Y5225D02*
X4480D01*
X4443Y5188D02*
Y5262D01*
X4760Y5225D02*
X4834D01*
X4797Y5188D02*
Y5262D01*
X2237Y4300D02*
X2273D01*
X2255Y4282D02*
Y4318D01*
X2338Y4300D02*
X2372D01*
X2355Y4282D02*
Y4318D01*
X2438Y4300D02*
X2473D01*
X2455Y4282D02*
Y4318D01*
X2537Y4300D02*
X2572D01*
X2555Y4282D02*
Y4318D01*
X2638Y4300D02*
X2672D01*
X2655Y4282D02*
Y4318D01*
X2737Y4300D02*
X2773D01*
X2755Y4282D02*
Y4318D01*
X2838Y4300D02*
X2872D01*
X2855Y4282D02*
Y4318D01*
X2938Y4300D02*
X2973D01*
X2955Y4282D02*
Y4318D01*
X3037Y4300D02*
X3072D01*
X3055Y4282D02*
Y4318D01*
X3138Y4300D02*
X3172D01*
X3155Y4282D02*
Y4318D01*
X3237Y4300D02*
X3273D01*
X3255Y4282D02*
Y4318D01*
X3338Y4300D02*
X3372D01*
X3355Y4282D02*
Y4318D01*
X3338Y4500D02*
X3372D01*
X3355Y4483D02*
Y4517D01*
X3237Y4500D02*
X3273D01*
X3255Y4483D02*
Y4517D01*
X3138Y4500D02*
X3172D01*
X3155Y4483D02*
Y4517D01*
X3037Y4500D02*
X3072D01*
X3055Y4483D02*
Y4517D01*
X2938Y4500D02*
X2973D01*
X2955Y4483D02*
Y4517D01*
X2838Y4500D02*
X2872D01*
X2855Y4483D02*
Y4517D01*
X2737Y4500D02*
X2773D01*
X2755Y4483D02*
Y4517D01*
X2638Y4500D02*
X2672D01*
X2655Y4483D02*
Y4517D01*
X2537Y4500D02*
X2572D01*
X2555Y4483D02*
Y4517D01*
X2438Y4500D02*
X2473D01*
X2455Y4483D02*
Y4517D01*
X2338Y4500D02*
X2372D01*
X2355Y4483D02*
Y4517D01*
X2237Y4500D02*
X2273D01*
X2255Y4483D02*
Y4517D01*
X3049Y5268D02*
X3169D01*
X3109Y5208D02*
Y5328D01*
X4033Y5268D02*
X4153D01*
X4093Y5208D02*
Y5328D01*
X3688Y5213D02*
X3730D01*
X3709Y5193D02*
Y5234D01*
X3580Y5213D02*
X3622D01*
X3601Y5193D02*
Y5234D01*
X3473Y5213D02*
X3513D01*
X3493Y5193D02*
Y5234D01*
X3365Y5213D02*
X3405D01*
X3385Y5193D02*
Y5234D01*
X3418Y5325D02*
X3460D01*
X3439Y5305D02*
Y5345D01*
X3526Y5325D02*
X3568D01*
X3547Y5305D02*
Y5345D01*
X3635Y5325D02*
X3675D01*
X3655Y5305D02*
Y5345D01*
X3743Y5325D02*
X3783D01*
X3763Y5305D02*
Y5345D01*
X3796Y5213D02*
X3838D01*
X3817Y5193D02*
Y5234D01*
X1689Y5268D02*
X1809D01*
X1749Y5208D02*
Y5328D01*
X2673Y5268D02*
X2793D01*
X2733Y5208D02*
Y5328D01*
X2329Y5213D02*
X2369D01*
X2349Y5193D02*
Y5234D01*
X2220Y5213D02*
X2261D01*
X2241Y5193D02*
Y5234D01*
X2112Y5213D02*
X2154D01*
X2133Y5193D02*
Y5234D01*
X2004Y5213D02*
X2046D01*
X2025Y5193D02*
Y5234D01*
X2059Y5325D02*
X2099D01*
X2079Y5305D02*
Y5345D01*
X2167Y5325D02*
X2207D01*
X2187Y5305D02*
Y5345D01*
X2274Y5325D02*
X2316D01*
X2295Y5305D02*
Y5345D01*
X2382Y5325D02*
X2424D01*
X2403Y5305D02*
Y5345D01*
X2437Y5213D02*
X2477D01*
X2457Y5193D02*
Y5234D01*
X4410Y2834D02*
X4440D01*
X4425Y2819D02*
Y2849D01*
X4410Y2440D02*
X4440D01*
X4425Y2425D02*
Y2455D01*
X3986Y2940D02*
X4016D01*
X4001Y2925D02*
Y2955D01*
X4380Y2940D02*
X4410D01*
X4395Y2925D02*
Y2955D01*
X4550Y2824D02*
X4580D01*
X4565Y2809D02*
Y2839D01*
X4550Y2430D02*
X4580D01*
X4565Y2415D02*
Y2445D01*
X4156Y2335D02*
X4186D01*
X4171Y2320D02*
Y2350D01*
X4550Y2335D02*
X4580D01*
X4565Y2320D02*
Y2350D01*
X5400Y2366D02*
X5430D01*
X5415Y2351D02*
Y2381D01*
X5400Y2760D02*
X5430D01*
X5415Y2745D02*
Y2775D01*
X5230Y2366D02*
X5260D01*
X5245Y2351D02*
Y2381D01*
X5230Y2760D02*
X5260D01*
X5245Y2745D02*
Y2775D01*
X5610Y2156D02*
X5640D01*
X5625Y2141D02*
Y2171D01*
X5610Y2550D02*
X5640D01*
X5625Y2535D02*
Y2565D01*
X5745Y2156D02*
X5775D01*
X5760Y2141D02*
Y2171D01*
X5745Y2550D02*
X5775D01*
X5760Y2535D02*
Y2565D01*
X5090Y2366D02*
X5120D01*
X5105Y2351D02*
Y2381D01*
X5090Y2760D02*
X5120D01*
X5105Y2745D02*
Y2775D01*
X4925Y2366D02*
X4955D01*
X4940Y2351D02*
Y2381D01*
X4925Y2760D02*
X4955D01*
X4940Y2745D02*
Y2775D01*
X3726Y2686D02*
X3754D01*
X3740Y2672D02*
Y2700D01*
X3726Y2494D02*
X3754D01*
X3740Y2480D02*
Y2508D01*
X3460Y2579D02*
X3490D01*
X3475Y2564D02*
Y2594D01*
X3460Y2185D02*
X3490D01*
X3475Y2170D02*
Y2200D01*
X3223Y2860D02*
X3257D01*
X3240Y2842D02*
Y2878D01*
X3122Y2860D02*
X3158D01*
X3140Y2842D02*
Y2878D01*
X3023Y2860D02*
X3057D01*
X3040Y2842D02*
Y2878D01*
X2922Y2860D02*
X2957D01*
X2940Y2842D02*
Y2878D01*
X2822Y2860D02*
X2858D01*
X2840Y2842D02*
Y2878D01*
X2723Y2860D02*
X2757D01*
X2740Y2842D02*
Y2878D01*
X2622Y2860D02*
X2658D01*
X2640Y2842D02*
Y2878D01*
X2523Y2860D02*
X2557D01*
X2540Y2842D02*
Y2878D01*
X2422Y2860D02*
X2457D01*
X2440Y2842D02*
Y2878D01*
X2322Y2860D02*
X2358D01*
X2340Y2842D02*
Y2878D01*
X2223Y2860D02*
X2257D01*
X2240Y2842D02*
Y2878D01*
X2122Y2860D02*
X2158D01*
X2140Y2842D02*
Y2878D01*
X2023Y2860D02*
X2057D01*
X2040Y2842D02*
Y2878D01*
X1923Y2860D02*
X1957D01*
X1940Y2842D02*
Y2878D01*
X1923Y2260D02*
X1957D01*
X1940Y2243D02*
Y2277D01*
X2023Y2260D02*
X2057D01*
X2040Y2243D02*
Y2277D01*
X2122Y2260D02*
X2158D01*
X2140Y2243D02*
Y2277D01*
X2223Y2260D02*
X2257D01*
X2240Y2243D02*
Y2277D01*
X2322Y2260D02*
X2358D01*
X2340Y2243D02*
Y2277D01*
X2422Y2260D02*
X2457D01*
X2440Y2243D02*
Y2277D01*
X2523Y2260D02*
X2557D01*
X2540Y2243D02*
Y2277D01*
X2622Y2260D02*
X2658D01*
X2640Y2243D02*
Y2277D01*
X2723Y2260D02*
X2757D01*
X2740Y2243D02*
Y2277D01*
X2822Y2260D02*
X2858D01*
X2840Y2243D02*
Y2277D01*
X2922Y2260D02*
X2957D01*
X2940Y2243D02*
Y2277D01*
X3023Y2260D02*
X3057D01*
X3040Y2243D02*
Y2277D01*
X3122Y2260D02*
X3158D01*
X3140Y2243D02*
Y2277D01*
X3223Y2260D02*
X3257D01*
X3240Y2243D02*
Y2277D01*
X5545Y3141D02*
X5575D01*
X5560Y3126D02*
Y3156D01*
X5545Y3535D02*
X5575D01*
X5560Y3520D02*
Y3550D01*
X4991Y4580D02*
X5021D01*
X5006Y4565D02*
Y4595D01*
X5385Y4580D02*
X5415D01*
X5400Y4565D02*
Y4595D01*
X4375Y3594D02*
X4405D01*
X4390Y3579D02*
Y3609D01*
X4375Y3200D02*
X4405D01*
X4390Y3185D02*
Y3215D01*
X4516Y4580D02*
X4546D01*
X4531Y4565D02*
Y4595D01*
X4910Y4580D02*
X4940D01*
X4925Y4565D02*
Y4595D01*
X4825Y3140D02*
X4855D01*
X4840Y3125D02*
Y3155D01*
X4820Y3040D02*
X4860D01*
X4840Y3020D02*
Y3060D01*
X4825Y3400D02*
X4855D01*
X4840Y3385D02*
Y3415D01*
X4820Y3500D02*
X4860D01*
X4840Y3480D02*
Y3520D01*
X1870Y3161D02*
X1900D01*
X1885Y3146D02*
Y3176D01*
X1870Y3555D02*
X1900D01*
X1885Y3540D02*
Y3570D01*
X2223Y3110D02*
X2257D01*
X2240Y3092D02*
Y3128D01*
X2322Y3110D02*
X2358D01*
X2340Y3092D02*
Y3128D01*
X2422Y3110D02*
X2457D01*
X2440Y3092D02*
Y3128D01*
X2523Y3110D02*
X2557D01*
X2540Y3092D02*
Y3128D01*
X2622Y3110D02*
X2658D01*
X2640Y3092D02*
Y3128D01*
X2723Y3110D02*
X2757D01*
X2740Y3092D02*
Y3128D01*
X2822Y3110D02*
X2858D01*
X2840Y3092D02*
Y3128D01*
X2922Y3110D02*
X2957D01*
X2940Y3092D02*
Y3128D01*
X3023Y3110D02*
X3057D01*
X3040Y3092D02*
Y3128D01*
X3122Y3110D02*
X3158D01*
X3140Y3092D02*
Y3128D01*
X3223Y3110D02*
X3257D01*
X3240Y3092D02*
Y3128D01*
X3322Y3110D02*
X3358D01*
X3340Y3092D02*
Y3128D01*
X3422Y3110D02*
X3457D01*
X3440Y3092D02*
Y3128D01*
X3523Y3110D02*
X3557D01*
X3540Y3092D02*
Y3128D01*
X3622Y3110D02*
X3658D01*
X3640Y3092D02*
Y3128D01*
X3723Y3110D02*
X3757D01*
X3740Y3092D02*
Y3128D01*
X3822Y3110D02*
X3858D01*
X3840Y3092D02*
Y3128D01*
X3922Y3110D02*
X3957D01*
X3940Y3092D02*
Y3128D01*
X4023Y3110D02*
X4057D01*
X4040Y3092D02*
Y3128D01*
X4122Y3110D02*
X4157D01*
X4140Y3092D02*
Y3128D01*
X4122Y3710D02*
X4157D01*
X4140Y3693D02*
Y3727D01*
X4023Y3710D02*
X4057D01*
X4040Y3693D02*
Y3727D01*
X3922Y3710D02*
X3957D01*
X3940Y3693D02*
Y3727D01*
X3822Y3710D02*
X3858D01*
X3840Y3693D02*
Y3727D01*
X3723Y3710D02*
X3757D01*
X3740Y3693D02*
Y3727D01*
X3622Y3710D02*
X3658D01*
X3640Y3693D02*
Y3727D01*
X3523Y3710D02*
X3557D01*
X3540Y3693D02*
Y3727D01*
X3422Y3710D02*
X3457D01*
X3440Y3693D02*
Y3727D01*
X3322Y3710D02*
X3358D01*
X3340Y3693D02*
Y3727D01*
X3223Y3710D02*
X3257D01*
X3240Y3693D02*
Y3727D01*
X3122Y3710D02*
X3158D01*
X3140Y3693D02*
Y3727D01*
X3023Y3710D02*
X3057D01*
X3040Y3693D02*
Y3727D01*
X2922Y3710D02*
X2957D01*
X2940Y3693D02*
Y3727D01*
X2822Y3710D02*
X2858D01*
X2840Y3693D02*
Y3727D01*
X2723Y3710D02*
X2757D01*
X2740Y3693D02*
Y3727D01*
X2622Y3710D02*
X2658D01*
X2640Y3693D02*
Y3727D01*
X2523Y3710D02*
X2557D01*
X2540Y3693D02*
Y3727D01*
X2422Y3710D02*
X2457D01*
X2440Y3693D02*
Y3727D01*
X2322Y3710D02*
X2358D01*
X2340Y3693D02*
Y3727D01*
X2223Y3710D02*
X2257D01*
X2240Y3693D02*
Y3727D01*
X1391Y1390D02*
X1421D01*
X1406Y1375D02*
Y1405D01*
X1785Y1390D02*
X1815D01*
X1800Y1375D02*
Y1405D01*
X3866Y2785D02*
X3896D01*
X3881Y2770D02*
Y2800D01*
X4260Y2785D02*
X4290D01*
X4275Y2770D02*
Y2800D01*
X1475Y2074D02*
X1505D01*
X1490Y2059D02*
Y2089D01*
X1475Y1680D02*
X1505D01*
X1490Y1665D02*
Y1695D01*
X4245Y2548D02*
X4275D01*
X4260Y2533D02*
Y2563D01*
X4145Y2548D02*
X4175D01*
X4160Y2533D02*
Y2563D01*
X4045Y2548D02*
X4075D01*
X4060Y2533D02*
Y2563D01*
X1946Y1575D02*
X1974D01*
X1960Y1561D02*
Y1589D01*
X1946Y1675D02*
X1974D01*
X1960Y1661D02*
Y1689D01*
X1946Y1775D02*
X1974D01*
X1960Y1761D02*
Y1789D01*
X4222Y1425D02*
X4258D01*
X4240Y1408D02*
Y1442D01*
X4122Y1425D02*
X4157D01*
X4140Y1408D02*
Y1442D01*
X4023Y1425D02*
X4057D01*
X4040Y1408D02*
Y1442D01*
X3922Y1425D02*
X3957D01*
X3940Y1408D02*
Y1442D01*
X3822Y1425D02*
X3858D01*
X3840Y1408D02*
Y1442D01*
X3723Y1425D02*
X3757D01*
X3740Y1408D02*
Y1442D01*
X3622Y1425D02*
X3658D01*
X3640Y1408D02*
Y1442D01*
X3523Y1425D02*
X3557D01*
X3540Y1408D02*
Y1442D01*
X3422Y1425D02*
X3457D01*
X3440Y1408D02*
Y1442D01*
X3322Y1425D02*
X3358D01*
X3340Y1408D02*
Y1442D01*
X3223Y1425D02*
X3257D01*
X3240Y1408D02*
Y1442D01*
X3122Y1425D02*
X3158D01*
X3140Y1408D02*
Y1442D01*
X3023Y1425D02*
X3057D01*
X3040Y1408D02*
Y1442D01*
X2922Y1425D02*
X2957D01*
X2940Y1408D02*
Y1442D01*
X2822Y1425D02*
X2858D01*
X2840Y1408D02*
Y1442D01*
X2723Y1425D02*
X2757D01*
X2740Y1408D02*
Y1442D01*
X2622Y1425D02*
X2658D01*
X2640Y1408D02*
Y1442D01*
X2523Y1425D02*
X2557D01*
X2540Y1408D02*
Y1442D01*
X2422Y1425D02*
X2457D01*
X2440Y1408D02*
Y1442D01*
X2322Y1425D02*
X2358D01*
X2340Y1408D02*
Y1442D01*
X2322Y2025D02*
X2358D01*
X2340Y2007D02*
Y2043D01*
X2422Y2025D02*
X2457D01*
X2440Y2007D02*
Y2043D01*
X2523Y2025D02*
X2557D01*
X2540Y2007D02*
Y2043D01*
X2622Y2025D02*
X2658D01*
X2640Y2007D02*
Y2043D01*
X2723Y2025D02*
X2757D01*
X2740Y2007D02*
Y2043D01*
X2822Y2025D02*
X2858D01*
X2840Y2007D02*
Y2043D01*
X2922Y2025D02*
X2957D01*
X2940Y2007D02*
Y2043D01*
X3023Y2025D02*
X3057D01*
X3040Y2007D02*
Y2043D01*
X3122Y2025D02*
X3158D01*
X3140Y2007D02*
Y2043D01*
X3223Y2025D02*
X3257D01*
X3240Y2007D02*
Y2043D01*
X3322Y2025D02*
X3358D01*
X3340Y2007D02*
Y2043D01*
X3422Y2025D02*
X3457D01*
X3440Y2007D02*
Y2043D01*
X3523Y2025D02*
X3557D01*
X3540Y2007D02*
Y2043D01*
X3622Y2025D02*
X3658D01*
X3640Y2007D02*
Y2043D01*
X3723Y2025D02*
X3757D01*
X3740Y2007D02*
Y2043D01*
X3822Y2025D02*
X3858D01*
X3840Y2007D02*
Y2043D01*
X3922Y2025D02*
X3957D01*
X3940Y2007D02*
Y2043D01*
X4023Y2025D02*
X4057D01*
X4040Y2007D02*
Y2043D01*
X4122Y2025D02*
X4157D01*
X4140Y2007D02*
Y2043D01*
X4222Y2025D02*
X4258D01*
X4240Y2007D02*
Y2043D01*
X4991Y2895D02*
X5021D01*
X5006Y2880D02*
Y2910D01*
X5385Y2895D02*
X5415D01*
X5400Y2880D02*
Y2910D01*
X5000Y1136D02*
X5030D01*
X5015Y1121D02*
Y1151D01*
X5000Y1530D02*
X5030D01*
X5015Y1515D02*
Y1545D01*
X5210Y1141D02*
X5240D01*
X5225Y1126D02*
Y1156D01*
X5210Y1535D02*
X5240D01*
X5225Y1520D02*
Y1550D01*
X5370Y1141D02*
X5400D01*
X5385Y1126D02*
Y1156D01*
X5370Y1535D02*
X5400D01*
X5385Y1520D02*
Y1550D01*
X4815Y1136D02*
X4845D01*
X4830Y1121D02*
Y1151D01*
X4815Y1530D02*
X4845D01*
X4830Y1515D02*
Y1545D01*
X5660Y2691D02*
X5690D01*
X5675Y2676D02*
Y2706D01*
X5660Y3085D02*
X5690D01*
X5675Y3070D02*
Y3100D01*
X5785Y3084D02*
X5815D01*
X5800Y3069D02*
Y3099D01*
X5785Y2690D02*
X5815D01*
X5800Y2675D02*
Y2705D01*
X4560Y1106D02*
X4590D01*
X4575Y1091D02*
Y1121D01*
X4560Y1500D02*
X4590D01*
X4575Y1485D02*
Y1515D01*
X4685Y1111D02*
X4715D01*
X4700Y1096D02*
Y1126D01*
X4685Y1505D02*
X4715D01*
X4700Y1490D02*
Y1520D01*
X3101Y1245D02*
X3131D01*
X3116Y1230D02*
Y1260D01*
X3495Y1245D02*
X3525D01*
X3510Y1230D02*
Y1260D01*
X3504Y1110D02*
X3534D01*
X3519Y1095D02*
Y1125D01*
X3110Y1110D02*
X3140D01*
X3125Y1095D02*
Y1125D01*
X3924Y1262D02*
X4016D01*
X3970Y1216D02*
Y1308D01*
X3904Y1085D02*
X4036D01*
X3970Y1018D02*
Y1151D01*
X3755Y961D02*
X3850D01*
X3803Y914D02*
Y1008D01*
X4090Y961D02*
X4185D01*
X4137Y914D02*
Y1008D01*
X1087Y1030D02*
X1212D01*
X1150Y967D02*
Y1092D01*
X1087Y5490D02*
X1212D01*
X1150Y5427D02*
Y5552D01*
X6137Y1030D02*
X6262D01*
X6200Y967D02*
Y1092D01*
X6137Y5490D02*
X6262D01*
X6200Y5427D02*
Y5552D01*
X5607Y1645D02*
X5643D01*
X5625Y1627D02*
Y1663D01*
X5607Y1945D02*
X5643D01*
X5625Y1927D02*
Y1963D01*
X5507Y1945D02*
X5543D01*
X5525Y1927D02*
Y1963D01*
X5407Y1945D02*
X5443D01*
X5425Y1927D02*
Y1963D01*
X5307Y1945D02*
X5343D01*
X5325Y1927D02*
Y1963D01*
X5207Y1945D02*
X5243D01*
X5225Y1927D02*
Y1963D01*
X5107Y1945D02*
X5143D01*
X5125Y1927D02*
Y1963D01*
X5507Y1645D02*
X5543D01*
X5525Y1627D02*
Y1663D01*
X5407Y1645D02*
X5443D01*
X5425Y1627D02*
Y1663D01*
X5307Y1645D02*
X5343D01*
X5325Y1627D02*
Y1663D01*
X5207Y1645D02*
X5243D01*
X5225Y1627D02*
Y1663D01*
X5107Y1645D02*
X5143D01*
X5125Y1627D02*
Y1663D01*
X5007Y1645D02*
X5043D01*
X5025Y1627D02*
Y1663D01*
X4907Y1645D02*
X4943D01*
X4925Y1627D02*
Y1663D01*
X5007Y1945D02*
X5043D01*
X5025Y1927D02*
Y1963D01*
X4907Y1945D02*
X4943D01*
X4925Y1927D02*
Y1963D01*
X5934Y1575D02*
X5966D01*
X5950Y1559D02*
Y1591D01*
X5934Y1675D02*
X5966D01*
X5950Y1659D02*
Y1691D01*
X5934Y1475D02*
X5966D01*
X5950Y1459D02*
Y1491D01*
X5644Y1262D02*
X5736D01*
X5690Y1216D02*
Y1308D01*
X5623Y1085D02*
X5756D01*
X5690Y1018D02*
Y1151D01*
X5475Y961D02*
X5570D01*
X5523Y914D02*
Y1008D01*
X5810Y961D02*
X5905D01*
X5857Y914D02*
Y1008D01*
X5112Y3139D02*
X5162D01*
X5137Y3114D02*
Y3164D01*
X5112Y3651D02*
X5162D01*
X5137Y3626D02*
Y3676D01*
X5308Y3139D02*
X5358D01*
X5333Y3114D02*
Y3164D01*
X5308Y3651D02*
X5358D01*
X5333Y3626D02*
Y3676D01*
X5021Y3395D02*
X5095D01*
X5058Y3358D02*
Y3432D01*
X5375Y3395D02*
X5449D01*
X5412Y3358D02*
Y3432D01*
X5905Y3119D02*
X5935D01*
X5920Y3104D02*
Y3134D01*
X5905Y2725D02*
X5935D01*
X5920Y2710D02*
Y2740D01*
X6032Y3495D02*
X6057D01*
X6045Y3483D02*
Y3507D01*
X6032Y3195D02*
X6057D01*
X6045Y3182D02*
Y3207D01*
X5775Y3495D02*
X5815D01*
X5795Y3475D02*
Y3515D01*
X5875Y3495D02*
X5915D01*
X5895Y3475D02*
Y3515D01*
X5086Y3895D02*
X5116D01*
X5101Y3880D02*
Y3910D01*
X5480Y3895D02*
X5510D01*
X5495Y3880D02*
Y3910D01*
X4860Y3895D02*
X4890D01*
X4875Y3880D02*
Y3910D01*
X4955Y3895D02*
X4995D01*
X4975Y3875D02*
Y3915D01*
X4924Y3745D02*
X4954D01*
X4939Y3730D02*
Y3760D01*
X4530Y3745D02*
X4560D01*
X4545Y3730D02*
Y3760D01*
X4998Y3140D02*
X5012D01*
X5005Y3133D02*
Y3147D01*
X5208Y3495D02*
X5222D01*
X5215Y3488D02*
Y3502D01*
X3933Y4490D02*
X3947D01*
X3940Y4483D02*
Y4497D01*
X3833Y4570D02*
X3847D01*
X3840Y4563D02*
Y4577D01*
X4418Y1985D02*
X4432D01*
X4425Y1978D02*
Y1992D01*
X4728Y2425D02*
X4742D01*
X4735Y2418D02*
Y2432D01*
X5943Y1265D02*
X5957D01*
X5950Y1258D02*
Y1272D01*
X5478Y1520D02*
X5492D01*
X5485Y1513D02*
Y1527D01*
X3833Y1580D02*
X3847D01*
X3840Y1573D02*
Y1587D01*
X1853Y1295D02*
X1867D01*
X1860Y1288D02*
Y1302D01*
X1988Y1255D02*
X2002D01*
X1995Y1248D02*
Y1262D01*
X1748Y2910D02*
X1762D01*
X1755Y2903D02*
Y2917D01*
X3333Y1865D02*
X3347D01*
X3340Y1858D02*
Y1872D01*
X1753Y2980D02*
X1767D01*
X1760Y2973D02*
Y2987D01*
X1808Y3235D02*
X1822D01*
X1815Y3228D02*
Y3242D01*
X1783Y3030D02*
X1797D01*
X1790Y3023D02*
Y3037D01*
X3578Y2480D02*
X3592D01*
X3585Y2473D02*
Y2487D01*
X4698Y3475D02*
X4712D01*
X4705Y3468D02*
Y3482D01*
X4638Y3430D02*
X4652D01*
X4645Y3423D02*
Y3437D01*
X4598Y3385D02*
X4612D01*
X4605Y3378D02*
Y3392D01*
X4448Y3375D02*
X4462D01*
X4455Y3368D02*
Y3382D01*
X4098Y2150D02*
X4112D01*
X4105Y2143D02*
Y2157D01*
X5048Y2260D02*
X5062D01*
X5055Y2253D02*
Y2267D01*
X5103Y2205D02*
X5117D01*
X5110Y2198D02*
Y2212D01*
X5413Y2170D02*
X5427D01*
X5420Y2163D02*
Y2177D01*
X5243Y2115D02*
X5257D01*
X5250Y2108D02*
Y2122D01*
X4033Y1930D02*
X4047D01*
X4040Y1923D02*
Y1937D01*
X3178Y3350D02*
X3192D01*
X3185Y3343D02*
Y3357D01*
X2308Y3305D02*
X2322D01*
X2315Y3298D02*
Y3312D01*
X3933Y2330D02*
X3947D01*
X3940Y2323D02*
Y2337D01*
X3633Y1690D02*
X3647D01*
X3640Y1683D02*
Y1697D01*
X2233Y1840D02*
X2247D01*
X2240Y1833D02*
Y1847D01*
X3418Y1615D02*
X3432D01*
X3425Y1608D02*
Y1622D01*
X2883Y1800D02*
X2897D01*
X2890Y1793D02*
Y1807D01*
X3333Y1620D02*
X3347D01*
X3340Y1613D02*
Y1627D01*
X2783Y1760D02*
X2797D01*
X2790Y1753D02*
Y1767D01*
X3233Y1645D02*
X3247D01*
X3240Y1638D02*
Y1652D01*
X2683Y1735D02*
X2697D01*
X2690Y1728D02*
Y1742D01*
X3133Y1645D02*
X3147D01*
X3140Y1638D02*
Y1652D01*
X2583Y1685D02*
X2597D01*
X2590Y1678D02*
Y1692D01*
X3528Y1550D02*
X3542D01*
X3535Y1543D02*
Y1557D01*
X2428Y1645D02*
X2442D01*
X2435Y1638D02*
Y1652D01*
X2738Y1605D02*
X2752D01*
X2745Y1598D02*
Y1612D01*
X2488Y1580D02*
X2502D01*
X2495Y1573D02*
Y1587D01*
X2383Y1555D02*
X2397D01*
X2390Y1548D02*
Y1562D01*
X2833Y1580D02*
X2847D01*
X2840Y1573D02*
Y1587D01*
X3183Y1570D02*
X3197D01*
X3190Y1563D02*
Y1577D01*
X2983Y1535D02*
X2997D01*
X2990Y1528D02*
Y1542D01*
X1943Y3625D02*
X1957D01*
X1950Y3618D02*
Y3632D01*
X2173Y3855D02*
X2187D01*
X2180Y3848D02*
Y3862D01*
X2833Y3580D02*
X2847D01*
X2840Y3573D02*
Y3587D01*
X2733Y3540D02*
X2747D01*
X2740Y3533D02*
Y3547D01*
X2593Y3520D02*
X2607D01*
X2600Y3513D02*
Y3527D01*
X2483Y3495D02*
X2497D01*
X2490Y3488D02*
Y3502D01*
X2383Y3475D02*
X2397D01*
X2390Y3468D02*
Y3482D01*
X2123Y2340D02*
X2137D01*
X2130Y2333D02*
Y2347D01*
X2238Y3420D02*
X2252D01*
X2245Y3413D02*
Y3427D01*
X2138Y3450D02*
X2152D01*
X2145Y3443D02*
Y3457D01*
X2983Y3790D02*
X2997D01*
X2990Y3783D02*
Y3797D01*
X3083Y1930D02*
X3097D01*
X3090Y1923D02*
Y1937D01*
X2528Y1185D02*
X2542D01*
X2535Y1178D02*
Y1192D01*
X2178Y1430D02*
X2192D01*
X2185Y1423D02*
Y1437D01*
X2098Y1185D02*
X2112D01*
X2105Y1178D02*
Y1192D01*
X2063Y2020D02*
X2077D01*
X2070Y2013D02*
Y2027D01*
X2088Y2120D02*
X2102D01*
X2095Y2113D02*
Y2127D01*
X1178Y1335D02*
X1192D01*
X1185Y1328D02*
Y1342D01*
X1083Y1225D02*
X1097D01*
X1090Y1218D02*
Y1232D01*
X1568Y3165D02*
X1582D01*
X1575Y3158D02*
Y3172D01*
X1568Y2730D02*
X1582D01*
X1575Y2723D02*
Y2737D01*
X4133Y2945D02*
X4147D01*
X4140Y2938D02*
Y2952D01*
X3406Y1040D02*
X3434D01*
X3420Y1026D02*
Y1054D01*
X2528Y1000D02*
X2542D01*
X2535Y993D02*
Y1007D01*
X3108Y2730D02*
X3122D01*
X3115Y2723D02*
Y2737D01*
X3393Y2725D02*
X3407D01*
X3400Y2718D02*
Y2732D01*
X3963Y3230D02*
X3977D01*
X3970Y3223D02*
Y3237D01*
X1888Y3370D02*
X1902D01*
X1895Y3363D02*
Y3377D01*
X2103Y5020D02*
X2117D01*
X2110Y5013D02*
Y5027D01*
X1828Y5455D02*
X1842D01*
X1835Y5448D02*
Y5462D01*
X2513Y5440D02*
X2527D01*
X2520Y5433D02*
Y5447D01*
X2623Y5110D02*
X2637D01*
X2630Y5103D02*
Y5117D01*
X3378Y4945D02*
X3392D01*
X3385Y4938D02*
Y4952D01*
X3233Y5415D02*
X3247D01*
X3240Y5408D02*
Y5422D01*
X3463Y5425D02*
X3477D01*
X3470Y5418D02*
Y5432D01*
X3943Y5245D02*
X3957D01*
X3950Y5238D02*
Y5252D01*
X4698Y5365D02*
X4712D01*
X4705Y5358D02*
Y5372D01*
X1628Y1390D02*
X1642D01*
X1635Y1383D02*
Y1397D01*
X1768Y995D02*
X1782D01*
X1775Y988D02*
Y1002D01*
X5208Y1010D02*
X5222D01*
X5215Y1003D02*
Y1017D01*
X4618Y1650D02*
X4632D01*
X4625Y1643D02*
Y1657D01*
X3623Y2850D02*
X3637D01*
X3630Y2843D02*
Y2857D01*
X4143Y2780D02*
X4157D01*
X4150Y2773D02*
Y2787D01*
X5298Y2965D02*
X5312D01*
X5305Y2958D02*
Y2972D01*
X4293Y2945D02*
X4307D01*
X4300Y2938D02*
Y2952D01*
X5408Y2550D02*
X5422D01*
X5415Y2543D02*
Y2557D01*
X4043Y5050D02*
X4057D01*
X4050Y5043D02*
Y5057D01*
X5423Y5050D02*
X5437D01*
X5430Y5043D02*
Y5057D01*
X2773Y5090D02*
X2787D01*
X2780Y5083D02*
Y5097D01*
X5663Y4780D02*
X5677D01*
X5670Y4773D02*
Y4787D01*
X2903Y5520D02*
X2917D01*
X2910Y5513D02*
Y5527D01*
X2903Y4655D02*
X2917D01*
X2910Y4648D02*
Y4662D01*
X4918Y1400D02*
X4932D01*
X4925Y1393D02*
Y1407D01*
X5818Y1400D02*
X5832D01*
X5825Y1393D02*
Y1407D01*
M02*
