M48
;Layer_Color=6321
;FILE_FORMAT=2:3
INCH,TZ
;TYPE=PLATED
T1F00S00C0.014
T2F00S00C0.025
T3F00S00C0.028
T4F00S00C0.030
T5F00S00C0.031
T6F00S00C0.035
T7F00S00C0.036
T8F00S00C0.039
T9F00S00C0.041
T10F00S00C0.045
T11F00S00C0.050
T12F00S00C0.065
T13F00S00C0.091
T14F00S00C0.092
T15F00S00C0.110
T16F00S00C0.120
T17F00S00C0.125
T18F00S00C0.133
T19F00S00C0.135
;TYPE=NON_PLATED
T20F00S00C0.074
T21F00S00C0.094
%
T01
X1090Y1225
X1185Y1335
X1635Y1390
X1860Y1295
X1995Y1255
X2105Y1185
X2185Y1430
X2390Y1555
X2535Y1185
Y1000
X1775Y995
X2990Y1535
X3535Y1550
X4925Y1400
X5485Y1520
X5825Y1400
X5950Y1265
X5215Y1010
X5250Y2115
X5420Y2170
X5110Y2205
X5055Y2260
X4735Y2425
X5415Y2550
X5305Y2965
X4300Y2945
X4140
X4150Y2780
X3630Y2850
X3400Y2725
X3585Y2480
X3940Y2330
X4105Y2150
X4040Y1930
X4425Y1985
X4625Y1650
X3840Y1580
X3640Y1690
X3425Y1615
X3340Y1620
X3240Y1645
X3140
X3190Y1570
X3340Y1865
X3090Y1930
X2890Y1800
X2790Y1760
X2690Y1735
X2590Y1685
X2435Y1645
X2495Y1580
X2745Y1605
X2840Y1580
X2240Y1840
X2070Y2020
X2095Y2120
X2130Y2340
X1755Y2910
X1760Y2980
X1790Y3030
X1575Y2730
X3115
X2840Y3580
X2740Y3540
X2600Y3520
X2490Y3495
X2390Y3475
X2245Y3420
X2145Y3450
X2315Y3305
X1895Y3370
X1815Y3235
X1575Y3165
X1950Y3625
X2180Y3855
X2990Y3790
X2910Y4655
X3840Y4570
X3940Y4490
X3970Y3230
X4455Y3375
X4605Y3385
X4645Y3430
X3185Y3350
X4705Y3475
X5215Y3495
X5005Y3140
X5670Y4780
X5430Y5050
X4705Y5365
X3950Y5245
X4050Y5050
X3385Y4945
X3470Y5425
X3240Y5415
X2910Y5520
X2520Y5440
X2630Y5110
X2780Y5090
X2110Y5020
X1835Y5455
T02
X6045Y3195
Y3495
T03
X3420Y1040
X3740Y2494
Y2686
X1960Y1775
Y1675
X1960Y1575
T04
X1406Y1390
X1800Y1390
X3116Y1245
X3125Y1110
X3519Y1110
X3510Y1245
X4575Y1106
X4575Y1500
X4700Y1505
X4830Y1530
X5015
X5225Y1535
X5385
X5385Y1141
X5225
X5015Y1136
X4830
X4700Y1111
X4940Y2366
X5105
X5245
X5415
X5625Y2550
X5760
X5800Y2690
X5675Y2691
X5920Y2725
X5920Y3119
X5800Y3084
X5675Y3085
X5400Y2895
X5415Y2760
X5245
X5105
X4940
X5006Y2895
X5625Y2156
X5760
X4565Y2335
Y2430
X4425Y2440
X4260Y2548
X4160
X4060
X4171Y2335
X4275Y2785
X4425Y2834
X4395Y2940
X4565Y2824
X4001Y2940
X3881Y2785
X3585Y2579
X3475
X3475Y2185
X3585
X1490Y2074
X1490Y1680
X1885Y3161
X1885Y3555
X4390Y3594
X4545Y3745
X4390Y3200
X4531Y4580
X4925Y4580
X5006Y4580
X5400Y4580
X5495Y3895
X5101Y3895
X4875
X4939Y3745
X4840Y3400
Y3140
X5560Y3141
X5560Y3535
T05
X5950Y1475
Y1575
Y1675
T06
X1130Y1525
X1268
X2340Y1425
X2440
X2540
X2640
X2740
X2840
X2940
X3040
X3140
X3240
X3340
X3440
X3540
X3640
X3740
X3840
X3940
X4040
X4140
X4240
X4925Y1645
X5025
X5125
X5225
X5325
X5425
X5525
X5625
Y1945
X5525
X5425
X5325
X5225
X5125
X5025
X4925
X4240Y2025
X4140
X4040
X3940
X3840
X3740
X3640
X3540
X3440
X3340
X3240
X3140
Y2260
X3240
Y2860
X3140
Y3110
X3240
X3340
X3440
X3540
X3640
X3740
X3840
X3940
X4040
X4140
X3040
X2940
X2840
X2740
X2640
X2540
X2440
X2340
X2240
Y2860
X2340
X2440
X2540
X2640
X2740
X2840
X2940
X3040
Y2260
X2940
X2840
X2740
X2640
X2540
X2440
X2340
X2240
X2140
X2040
X1940
Y2860
X2040
X2140
X2340Y2025
X2440
X2540
X2640
X2740
X2840
X2940
X3040
Y3710
X2940
X2840
X2740
X2640
X2540
X2440
X2340
X2240
X2255Y4300
X2355
X2455
X2555
X2655
X2755
X2855
X2955
X3055
Y4500
X2955
X2855
X2755
X2655
X2555
X2455
X2355
X2255
X3155
X3255
X3355
Y4300
X3255
X3155
X3140Y3710
X3240
X3340
X3440
X3540
X3640
X3740
X3840
X3940
X4040
X4140
T07
X1309Y3461
X1388
Y3559
X1309
T08
X1425Y1185
X1525
X1625
X4840Y3040
Y3500
X4975Y3895
X5795Y3495
X5895
T09
X3385Y5213
X3493
X3601
X3709
X3817
X3763Y5325
X3655
X3547
X3439
X2403
X2295
X2187
X2079
X2133Y5213
X2241
X2349
X2457
X2025
T10
X1635Y1568
X1770Y1568
Y1922
X1635Y1922
T11
X5137Y3139
X5333
Y3651
X5137
X5317Y4964
X5513
Y5476
X5317
X4718Y5481
Y4969
X4522
Y5481
T12
X1093Y1979
Y2160
T13
X1202Y3273
Y3747
T14
X3970Y1262
X5690
T15
X1120Y2955
T16
X1240Y2770
X4093Y5268
X3109
X2733
X1749
T17
X1150Y1030
X6200
Y5490
X1150
T18
X3970Y1085
X5690
T19
X1360Y2955
T20
X5058Y3395
X5412
X5238Y5220
X5592
X4797Y5225
X4443
T21
X3803Y961
X4137
X5523
X5857
M30
