G04 Layer_Physical_Order=2*
G04 Layer_Color=11436288*
%FSLAX23Y23*%
%MOIN*%
G70*
G01*
G75*
%ADD10R,0.057X0.061*%
%ADD11R,0.061X0.057*%
%ADD12C,0.010*%
%ADD13C,0.020*%
%ADD14R,0.063X0.063*%
%ADD15C,0.063*%
%ADD16R,0.058X0.058*%
%ADD17C,0.058*%
%ADD18C,0.098*%
%ADD19O,0.185X0.175*%
%ADD20O,0.175X0.200*%
%ADD21O,0.180X0.160*%
%ADD22O,0.197X0.118*%
%ADD23P,0.064X8X292.5*%
%ADD24R,0.065X0.065*%
%ADD25C,0.065*%
%ADD26C,0.060*%
%ADD27C,0.080*%
%ADD28R,0.065X0.065*%
%ADD29C,0.065*%
%ADD30C,0.180*%
%ADD31C,0.070*%
%ADD32R,0.070X0.070*%
%ADD33R,0.060X0.060*%
%ADD34R,0.065X0.065*%
%ADD35C,0.047*%
%ADD36C,0.120*%
%ADD37C,0.165*%
%ADD38C,0.250*%
%ADD39C,0.055*%
%ADD40C,0.034*%
%ADD41C,0.050*%
G36*
X6158Y5619D02*
X6139Y5611D01*
X6120Y5600D01*
X6104Y5586D01*
X6090Y5570D01*
X6079Y5551D01*
X6071Y5532D01*
X6066Y5511D01*
X6065Y5495D01*
X6200D01*
Y5490D01*
X6205D01*
Y5355D01*
X6221Y5356D01*
X6242Y5361D01*
X6261Y5369D01*
X6280Y5380D01*
X6296Y5394D01*
X6310Y5410D01*
X6321Y5429D01*
X6329Y5448D01*
X6334Y5448D01*
Y1072D01*
X6329Y1072D01*
X6321Y1091D01*
X6310Y1110D01*
X6296Y1126D01*
X6280Y1140D01*
X6261Y1151D01*
X6242Y1159D01*
X6221Y1164D01*
X6205Y1165D01*
Y1030D01*
X6200D01*
Y1025D01*
X6065D01*
X6066Y1009D01*
X6071Y988D01*
X6079Y969D01*
X6090Y950D01*
X6104Y934D01*
X6120Y920D01*
X6139Y909D01*
X6158Y901D01*
X6158Y896D01*
X1192D01*
X1192Y901D01*
X1211Y909D01*
X1230Y920D01*
X1246Y934D01*
X1260Y950D01*
X1271Y969D01*
X1279Y988D01*
X1284Y1009D01*
X1285Y1025D01*
X1150D01*
Y1030D01*
X1145D01*
Y1165D01*
X1129Y1164D01*
X1108Y1159D01*
X1089Y1151D01*
X1070Y1140D01*
X1054Y1126D01*
X1040Y1110D01*
X1029Y1091D01*
X1021Y1072D01*
X1016Y1072D01*
Y2937D01*
X1021Y2937D01*
X1026Y2920D01*
X1035Y2905D01*
X1046Y2891D01*
X1060Y2880D01*
X1075Y2871D01*
X1092Y2866D01*
X1110Y2865D01*
X1115D01*
Y2955D01*
Y3045D01*
X1110D01*
X1092Y3044D01*
X1075Y3039D01*
X1060Y3030D01*
X1046Y3019D01*
X1035Y3005D01*
X1026Y2990D01*
X1021Y2973D01*
X1016Y2973D01*
Y5448D01*
X1021Y5448D01*
X1029Y5429D01*
X1040Y5410D01*
X1054Y5394D01*
X1070Y5380D01*
X1089Y5369D01*
X1108Y5361D01*
X1129Y5356D01*
X1145Y5355D01*
Y5490D01*
X1150D01*
Y5495D01*
X1285D01*
X1284Y5511D01*
X1279Y5532D01*
X1271Y5551D01*
X1260Y5570D01*
X1246Y5586D01*
X1230Y5600D01*
X1211Y5611D01*
X1192Y5619D01*
X1192Y5624D01*
X6158D01*
X6158Y5619D01*
D02*
G37*
%LPC*%
G36*
X5760Y2592D02*
X5749Y2591D01*
X5739Y2587D01*
X5730Y2580D01*
X5724Y2572D01*
X5661D01*
X5655Y2580D01*
X5646Y2587D01*
X5636Y2591D01*
X5625Y2592D01*
X5614Y2591D01*
X5604Y2587D01*
X5595Y2580D01*
X5589Y2572D01*
X5433D01*
X5430Y2575D01*
X5423Y2578D01*
X5415Y2579D01*
X5407Y2578D01*
X5400Y2575D01*
X5394Y2571D01*
X5390Y2565D01*
X5387Y2558D01*
X5386Y2550D01*
X5387Y2542D01*
X5390Y2535D01*
X5394Y2529D01*
X5400Y2525D01*
X5407Y2522D01*
X5415Y2521D01*
X5423Y2522D01*
X5430Y2525D01*
X5433Y2528D01*
X5589D01*
X5595Y2520D01*
X5604Y2513D01*
X5614Y2509D01*
X5625Y2508D01*
X5636Y2509D01*
X5646Y2513D01*
X5655Y2520D01*
X5661Y2528D01*
X5724D01*
X5730Y2520D01*
X5739Y2513D01*
X5749Y2509D01*
X5760Y2508D01*
X5771Y2509D01*
X5781Y2513D01*
X5790Y2520D01*
X5797Y2529D01*
X5801Y2539D01*
X5802Y2550D01*
X5801Y2561D01*
X5797Y2571D01*
X5790Y2580D01*
X5781Y2587D01*
X5771Y2591D01*
X5760Y2592D01*
D02*
G37*
G36*
X4260Y2590D02*
X4249Y2589D01*
X4239Y2585D01*
X4230Y2578D01*
X4223Y2569D01*
X4219Y2559D01*
X4218Y2548D01*
X4219Y2537D01*
X4223Y2527D01*
X4230Y2518D01*
X4239Y2511D01*
X4249Y2507D01*
X4260Y2506D01*
X4271Y2507D01*
X4281Y2511D01*
X4290Y2518D01*
X4297Y2527D01*
X4301Y2537D01*
X4302Y2548D01*
X4301Y2559D01*
X4297Y2569D01*
X4290Y2578D01*
X4281Y2585D01*
X4271Y2589D01*
X4260Y2590D01*
D02*
G37*
G36*
X1342Y2765D02*
X1245D01*
Y2672D01*
X1264Y2674D01*
X1282Y2679D01*
X1299Y2689D01*
X1314Y2701D01*
X1326Y2716D01*
X1336Y2733D01*
X1341Y2751D01*
X1342Y2765D01*
D02*
G37*
G36*
X1235D02*
X1138D01*
X1139Y2751D01*
X1144Y2733D01*
X1154Y2716D01*
X1166Y2701D01*
X1181Y2689D01*
X1198Y2679D01*
X1216Y2674D01*
X1235Y2672D01*
Y2765D01*
D02*
G37*
G36*
X3740Y2728D02*
X3729Y2727D01*
X3719Y2723D01*
X3710Y2716D01*
X3703Y2707D01*
X3699Y2697D01*
X3698Y2686D01*
X3699Y2675D01*
X3701Y2671D01*
X3628Y2598D01*
X3622Y2599D01*
X3622Y2600D01*
X3615Y2609D01*
X3606Y2615D01*
X3596Y2620D01*
X3585Y2621D01*
X3574Y2620D01*
X3564Y2615D01*
X3555Y2609D01*
X3548Y2600D01*
X3544Y2590D01*
X3543Y2579D01*
X3544Y2568D01*
X3548Y2558D01*
X3552Y2552D01*
X3550Y2547D01*
X3531D01*
X3514Y2564D01*
X3516Y2568D01*
X3517Y2579D01*
X3516Y2590D01*
X3512Y2600D01*
X3505Y2609D01*
X3496Y2615D01*
X3486Y2620D01*
X3475Y2621D01*
X3464Y2620D01*
X3454Y2615D01*
X3445Y2609D01*
X3438Y2600D01*
X3434Y2590D01*
X3433Y2579D01*
X3434Y2568D01*
X3438Y2558D01*
X3445Y2549D01*
X3454Y2542D01*
X3464Y2538D01*
X3475Y2536D01*
X3486Y2538D01*
X3490Y2539D01*
X3511Y2518D01*
X3517Y2514D01*
X3524Y2513D01*
X3575D01*
X3576Y2508D01*
X3570Y2505D01*
X3564Y2501D01*
X3560Y2495D01*
X3557Y2488D01*
X3556Y2480D01*
X3557Y2472D01*
X3560Y2465D01*
X3564Y2459D01*
X3570Y2455D01*
X3577Y2452D01*
X3585Y2451D01*
X3593Y2452D01*
X3600Y2455D01*
X3606Y2459D01*
X3608Y2463D01*
X3633D01*
X3673Y2423D01*
X3678Y2419D01*
X3685Y2418D01*
X3685Y2418D01*
X3910D01*
X3917Y2419D01*
X3922Y2423D01*
X4022Y2522D01*
X4027Y2522D01*
X4030Y2518D01*
X4039Y2511D01*
X4049Y2507D01*
X4060Y2506D01*
X4071Y2507D01*
X4081Y2511D01*
X4090Y2518D01*
X4097Y2527D01*
X4101Y2537D01*
X4102Y2548D01*
X4101Y2559D01*
X4097Y2569D01*
X4090Y2578D01*
X4081Y2585D01*
X4071Y2589D01*
X4060Y2590D01*
X4049Y2589D01*
X4039Y2585D01*
X4030Y2578D01*
X4023Y2569D01*
X4022Y2565D01*
X4016Y2564D01*
X4011Y2560D01*
X3903Y2452D01*
X3782D01*
Y2536D01*
X3723D01*
X3716Y2542D01*
X3711Y2546D01*
X3704Y2547D01*
X3620D01*
X3618Y2552D01*
X3622Y2558D01*
X3623Y2561D01*
X3633D01*
X3639Y2563D01*
X3645Y2566D01*
X3725Y2647D01*
X3729Y2645D01*
X3740Y2644D01*
X3751Y2645D01*
X3761Y2649D01*
X3770Y2656D01*
X3777Y2665D01*
X3781Y2675D01*
X3782Y2686D01*
X3781Y2697D01*
X3777Y2707D01*
X3770Y2716D01*
X3761Y2723D01*
X3751Y2727D01*
X3740Y2728D01*
D02*
G37*
G36*
X4160Y2590D02*
X4149Y2589D01*
X4139Y2585D01*
X4130Y2578D01*
X4123Y2569D01*
X4119Y2559D01*
X4118Y2548D01*
X4119Y2537D01*
X4123Y2527D01*
X4130Y2518D01*
X4139Y2511D01*
X4149Y2507D01*
X4160Y2506D01*
X4171Y2507D01*
X4181Y2511D01*
X4190Y2518D01*
X4197Y2527D01*
X4201Y2537D01*
X4202Y2548D01*
X4201Y2559D01*
X4197Y2569D01*
X4190Y2578D01*
X4181Y2585D01*
X4171Y2589D01*
X4160Y2590D01*
D02*
G37*
G36*
X5415Y2409D02*
X5404Y2407D01*
X5394Y2403D01*
X5385Y2396D01*
X5378Y2387D01*
X5374Y2377D01*
X5373Y2366D01*
X5374Y2355D01*
X5378Y2345D01*
X5385Y2336D01*
X5394Y2330D01*
X5404Y2325D01*
X5415Y2324D01*
X5426Y2325D01*
X5436Y2330D01*
X5445Y2336D01*
X5452Y2345D01*
X5456Y2355D01*
X5457Y2366D01*
X5456Y2377D01*
X5452Y2387D01*
X5445Y2396D01*
X5436Y2403D01*
X5426Y2407D01*
X5415Y2409D01*
D02*
G37*
G36*
X5245D02*
X5234Y2407D01*
X5224Y2403D01*
X5215Y2396D01*
X5208Y2387D01*
X5204Y2377D01*
X5203Y2366D01*
X5204Y2355D01*
X5208Y2345D01*
X5215Y2336D01*
X5224Y2330D01*
X5234Y2325D01*
X5245Y2324D01*
X5256Y2325D01*
X5266Y2330D01*
X5275Y2336D01*
X5282Y2345D01*
X5286Y2355D01*
X5287Y2366D01*
X5286Y2377D01*
X5282Y2387D01*
X5275Y2396D01*
X5266Y2403D01*
X5256Y2407D01*
X5245Y2409D01*
D02*
G37*
G36*
X5105D02*
X5094Y2407D01*
X5084Y2403D01*
X5075Y2396D01*
X5068Y2387D01*
X5064Y2377D01*
X5063Y2366D01*
X5064Y2355D01*
X5068Y2345D01*
X5075Y2336D01*
X5084Y2330D01*
X5094Y2325D01*
X5105Y2324D01*
X5116Y2325D01*
X5126Y2330D01*
X5135Y2336D01*
X5142Y2345D01*
X5146Y2355D01*
X5147Y2366D01*
X5146Y2377D01*
X5142Y2387D01*
X5135Y2396D01*
X5126Y2403D01*
X5116Y2407D01*
X5105Y2409D01*
D02*
G37*
G36*
X4425Y2482D02*
X4414Y2481D01*
X4404Y2477D01*
X4395Y2470D01*
X4388Y2461D01*
X4384Y2451D01*
X4383Y2440D01*
X4384Y2429D01*
X4388Y2419D01*
X4395Y2410D01*
X4404Y2403D01*
X4414Y2399D01*
X4425Y2398D01*
X4436Y2399D01*
X4446Y2403D01*
X4455Y2410D01*
X4462Y2419D01*
X4466Y2429D01*
X4467Y2440D01*
X4466Y2451D01*
X4462Y2461D01*
X4455Y2470D01*
X4446Y2477D01*
X4436Y2481D01*
X4425Y2482D01*
D02*
G37*
G36*
X4565Y2472D02*
X4554Y2471D01*
X4544Y2467D01*
X4535Y2460D01*
X4528Y2451D01*
X4524Y2441D01*
X4523Y2430D01*
X4524Y2419D01*
X4528Y2409D01*
X4535Y2400D01*
X4544Y2393D01*
X4554Y2389D01*
X4565Y2388D01*
X4576Y2389D01*
X4586Y2393D01*
X4595Y2400D01*
X4602Y2409D01*
X4606Y2419D01*
X4607Y2430D01*
X4606Y2441D01*
X4602Y2451D01*
X4595Y2460D01*
X4586Y2467D01*
X4576Y2471D01*
X4565Y2472D01*
D02*
G37*
G36*
X4735Y2454D02*
X4727Y2453D01*
X4720Y2450D01*
X4714Y2446D01*
X4710Y2440D01*
X4707Y2433D01*
X4706Y2425D01*
X4707Y2417D01*
X4710Y2410D01*
X4714Y2404D01*
X4720Y2400D01*
X4727Y2397D01*
X4735Y2396D01*
X4739Y2396D01*
X4753Y2382D01*
X4751Y2378D01*
X4662D01*
Y2352D01*
X4603D01*
X4602Y2356D01*
X4595Y2365D01*
X4586Y2372D01*
X4576Y2376D01*
X4565Y2377D01*
X4554Y2376D01*
X4544Y2372D01*
X4535Y2365D01*
X4528Y2356D01*
X4524Y2346D01*
X4523Y2335D01*
X4524Y2324D01*
X4526Y2320D01*
X4493Y2287D01*
X3770D01*
X3763Y2286D01*
X3758Y2282D01*
X3623Y2147D01*
X3613D01*
X3611Y2152D01*
X3615Y2155D01*
X3622Y2164D01*
X3626Y2174D01*
X3627Y2185D01*
X3626Y2196D01*
X3622Y2206D01*
X3615Y2215D01*
X3606Y2222D01*
X3596Y2226D01*
X3585Y2227D01*
X3574Y2226D01*
X3564Y2222D01*
X3555Y2215D01*
X3548Y2206D01*
X3547Y2202D01*
X3513D01*
X3512Y2206D01*
X3505Y2215D01*
X3496Y2222D01*
X3486Y2226D01*
X3475Y2227D01*
X3464Y2226D01*
X3454Y2222D01*
X3445Y2215D01*
X3438Y2206D01*
X3437Y2202D01*
X3350D01*
X3343Y2201D01*
X3338Y2197D01*
X3228Y2087D01*
X3224Y2082D01*
X3223Y2075D01*
Y2066D01*
X3218Y2064D01*
X3208Y2057D01*
X3201Y2047D01*
X3197Y2037D01*
X3195Y2025D01*
X3197Y2013D01*
X3201Y2003D01*
X3208Y1993D01*
X3210Y1992D01*
X3208Y1987D01*
X3172D01*
X3170Y1992D01*
X3172Y1993D01*
X3179Y2003D01*
X3183Y2013D01*
X3185Y2025D01*
X3183Y2037D01*
X3179Y2047D01*
X3172Y2057D01*
X3162Y2064D01*
X3152Y2068D01*
X3140Y2070D01*
X3128Y2068D01*
X3118Y2064D01*
X3108Y2057D01*
X3101Y2047D01*
X3099Y2042D01*
X3081D01*
X3079Y2047D01*
X3072Y2057D01*
X3062Y2064D01*
X3052Y2068D01*
X3040Y2070D01*
X3028Y2068D01*
X3018Y2064D01*
X3008Y2057D01*
X3001Y2047D01*
X2997Y2037D01*
X2995Y2025D01*
X2997Y2013D01*
X3001Y2003D01*
X3008Y1993D01*
X3010Y1992D01*
X3008Y1987D01*
X2972D01*
X2970Y1992D01*
X2972Y1993D01*
X2979Y2003D01*
X2983Y2013D01*
X2985Y2025D01*
X2983Y2037D01*
X2979Y2047D01*
X2972Y2057D01*
X2962Y2064D01*
X2952Y2068D01*
X2940Y2070D01*
X2928Y2068D01*
X2918Y2064D01*
X2908Y2057D01*
X2901Y2047D01*
X2897Y2037D01*
X2895Y2025D01*
X2897Y2013D01*
X2901Y2003D01*
X2908Y1993D01*
X2910Y1992D01*
X2908Y1987D01*
X2872D01*
X2870Y1992D01*
X2872Y1993D01*
X2879Y2003D01*
X2883Y2013D01*
X2885Y2025D01*
X2883Y2037D01*
X2879Y2047D01*
X2872Y2057D01*
X2862Y2064D01*
X2852Y2068D01*
X2840Y2070D01*
X2828Y2068D01*
X2818Y2064D01*
X2808Y2057D01*
X2801Y2047D01*
X2797Y2037D01*
X2795Y2025D01*
X2797Y2013D01*
X2801Y2003D01*
X2808Y1993D01*
X2810Y1992D01*
X2808Y1987D01*
X2772D01*
X2770Y1992D01*
X2772Y1993D01*
X2779Y2003D01*
X2783Y2013D01*
X2785Y2025D01*
X2783Y2037D01*
X2779Y2047D01*
X2772Y2057D01*
X2762Y2064D01*
X2752Y2068D01*
X2740Y2070D01*
X2728Y2068D01*
X2718Y2064D01*
X2708Y2057D01*
X2701Y2047D01*
X2697Y2037D01*
X2695Y2025D01*
X2697Y2013D01*
X2701Y2003D01*
X2708Y1993D01*
X2710Y1992D01*
X2708Y1987D01*
X2672D01*
X2670Y1992D01*
X2672Y1993D01*
X2679Y2003D01*
X2683Y2013D01*
X2685Y2025D01*
X2683Y2037D01*
X2679Y2047D01*
X2672Y2057D01*
X2662Y2064D01*
X2652Y2068D01*
X2640Y2070D01*
X2628Y2068D01*
X2618Y2064D01*
X2608Y2057D01*
X2601Y2047D01*
X2597Y2037D01*
X2595Y2025D01*
X2597Y2013D01*
X2601Y2003D01*
X2608Y1993D01*
X2610Y1992D01*
X2608Y1987D01*
X2572D01*
X2570Y1992D01*
X2572Y1993D01*
X2579Y2003D01*
X2583Y2013D01*
X2585Y2025D01*
X2583Y2037D01*
X2579Y2047D01*
X2572Y2057D01*
X2562Y2064D01*
X2552Y2068D01*
X2540Y2070D01*
X2528Y2068D01*
X2518Y2064D01*
X2508Y2057D01*
X2501Y2047D01*
X2497Y2037D01*
X2495Y2025D01*
X2497Y2013D01*
X2501Y2003D01*
X2508Y1993D01*
X2510Y1992D01*
X2508Y1987D01*
X2472D01*
X2470Y1992D01*
X2472Y1993D01*
X2479Y2003D01*
X2483Y2013D01*
X2485Y2025D01*
X2483Y2037D01*
X2479Y2047D01*
X2472Y2057D01*
X2462Y2064D01*
X2452Y2068D01*
X2440Y2070D01*
X2428Y2068D01*
X2418Y2064D01*
X2408Y2057D01*
X2401Y2047D01*
X2397Y2037D01*
X2395Y2025D01*
X2397Y2013D01*
X2401Y2003D01*
X2408Y1993D01*
X2410Y1992D01*
X2408Y1987D01*
X2372D01*
X2370Y1992D01*
X2372Y1993D01*
X2379Y2003D01*
X2383Y2013D01*
X2385Y2025D01*
X2383Y2037D01*
X2379Y2047D01*
X2372Y2057D01*
X2362Y2064D01*
X2352Y2068D01*
X2340Y2070D01*
X2328Y2068D01*
X2321Y2065D01*
X2313Y2074D01*
Y2158D01*
X2232D01*
Y2156D01*
X2203D01*
Y2115D01*
Y2074D01*
X2232D01*
Y2072D01*
X2253D01*
X2257Y2067D01*
X2276Y2047D01*
X2274Y2042D01*
X2088D01*
X2085Y2045D01*
X2078Y2048D01*
X2070Y2049D01*
X2062Y2048D01*
X2055Y2045D01*
X2049Y2041D01*
X2045Y2035D01*
X2042Y2028D01*
X2041Y2020D01*
X2042Y2012D01*
X2045Y2005D01*
X2049Y1999D01*
X2055Y1995D01*
X2062Y1992D01*
X2070Y1991D01*
X2078Y1992D01*
X2085Y1995D01*
X2088Y1998D01*
X2305D01*
X2308Y1993D01*
X2310Y1992D01*
X2308Y1987D01*
X2255D01*
X2248Y1986D01*
X2243Y1982D01*
X2063Y1802D01*
X2059Y1797D01*
X2058Y1790D01*
Y1727D01*
X2023Y1692D01*
X1991D01*
X1991Y1693D01*
X1985Y1700D01*
X1978Y1706D01*
X1969Y1710D01*
X1960Y1711D01*
X1951Y1710D01*
X1942Y1706D01*
X1935Y1700D01*
X1929Y1693D01*
X1925Y1684D01*
X1924Y1675D01*
X1925Y1666D01*
X1929Y1657D01*
X1935Y1650D01*
X1942Y1644D01*
X1951Y1640D01*
X1960Y1639D01*
X1969Y1640D01*
X1978Y1644D01*
X1985Y1650D01*
X1991Y1657D01*
X1991Y1658D01*
X2030D01*
X2037Y1659D01*
X2042Y1663D01*
X2087Y1708D01*
X2091Y1713D01*
X2092Y1720D01*
Y1783D01*
X2262Y1953D01*
X3065D01*
X3067Y1948D01*
X3065Y1945D01*
X3062Y1938D01*
X3061Y1930D01*
X3062Y1922D01*
X3065Y1915D01*
X3069Y1909D01*
X3075Y1905D01*
X3082Y1902D01*
X3090Y1901D01*
X3098Y1902D01*
X3105Y1905D01*
X3111Y1909D01*
X3113Y1913D01*
X4017D01*
X4019Y1909D01*
X4025Y1905D01*
X4032Y1902D01*
X4040Y1901D01*
X4048Y1902D01*
X4055Y1905D01*
X4061Y1909D01*
X4063Y1913D01*
X4370D01*
X4377Y1914D01*
X4382Y1918D01*
X4421Y1956D01*
X4425Y1956D01*
X4433Y1957D01*
X4440Y1960D01*
X4446Y1964D01*
X4450Y1970D01*
X4453Y1977D01*
X4454Y1985D01*
X4453Y1993D01*
X4450Y2000D01*
X4446Y2006D01*
X4440Y2010D01*
X4433Y2013D01*
X4425Y2014D01*
X4417Y2013D01*
X4410Y2010D01*
X4404Y2006D01*
X4400Y2000D01*
X4397Y1993D01*
X4396Y1985D01*
X4396Y1981D01*
X4363Y1947D01*
X4063D01*
X4061Y1951D01*
X4055Y1955D01*
X4048Y1958D01*
X4040Y1959D01*
X4032Y1958D01*
X4025Y1955D01*
X4019Y1951D01*
X4017Y1947D01*
X3118D01*
X3118Y1948D01*
X3121Y1953D01*
X3285D01*
X3292Y1954D01*
X3297Y1958D01*
X3323Y1984D01*
X3328Y1982D01*
X3340Y1980D01*
X3352Y1982D01*
X3362Y1986D01*
X3372Y1993D01*
X3379Y2003D01*
X3383Y2013D01*
X3385Y2025D01*
X3383Y2037D01*
X3379Y2047D01*
X3372Y2057D01*
X3362Y2064D01*
X3352Y2068D01*
X3340Y2070D01*
X3328Y2068D01*
X3318Y2064D01*
X3308Y2057D01*
X3301Y2047D01*
X3297Y2037D01*
X3295Y2025D01*
X3297Y2013D01*
X3299Y2008D01*
X3278Y1987D01*
X3272D01*
X3270Y1992D01*
X3272Y1993D01*
X3279Y2003D01*
X3283Y2013D01*
X3285Y2025D01*
X3283Y2037D01*
X3279Y2047D01*
X3272Y2057D01*
X3262Y2064D01*
X3261Y2064D01*
X3260Y2070D01*
X3357Y2168D01*
X3437D01*
X3438Y2164D01*
X3445Y2155D01*
X3454Y2148D01*
X3464Y2144D01*
X3475Y2143D01*
X3486Y2144D01*
X3496Y2148D01*
X3505Y2155D01*
X3512Y2164D01*
X3513Y2168D01*
X3547D01*
X3548Y2164D01*
X3555Y2155D01*
X3564Y2148D01*
X3574Y2144D01*
X3582Y2143D01*
X3583Y2138D01*
X3548Y2102D01*
X3505D01*
X3498Y2101D01*
X3493Y2097D01*
X3460Y2065D01*
X3452Y2068D01*
X3440Y2070D01*
X3428Y2068D01*
X3418Y2064D01*
X3408Y2057D01*
X3401Y2047D01*
X3397Y2037D01*
X3395Y2025D01*
X3397Y2013D01*
X3401Y2003D01*
X3408Y1993D01*
X3418Y1986D01*
X3428Y1982D01*
X3440Y1980D01*
X3452Y1982D01*
X3462Y1986D01*
X3472Y1993D01*
X3479Y2003D01*
X3483Y2013D01*
X3485Y2025D01*
X3483Y2037D01*
X3483Y2038D01*
X3510Y2065D01*
X3511Y2065D01*
X3512Y2060D01*
X3508Y2057D01*
X3501Y2047D01*
X3497Y2037D01*
X3495Y2025D01*
X3497Y2013D01*
X3501Y2003D01*
X3508Y1993D01*
X3518Y1986D01*
X3528Y1982D01*
X3540Y1980D01*
X3552Y1982D01*
X3562Y1986D01*
X3572Y1993D01*
X3579Y2003D01*
X3583Y2013D01*
X3585Y2025D01*
X3584Y2030D01*
X3592Y2037D01*
X3596Y2035D01*
X3595Y2025D01*
X3597Y2013D01*
X3601Y2003D01*
X3608Y1993D01*
X3618Y1986D01*
X3628Y1982D01*
X3640Y1980D01*
X3652Y1982D01*
X3662Y1986D01*
X3672Y1993D01*
X3679Y2003D01*
X3683Y2013D01*
X3685Y2025D01*
X3683Y2037D01*
X3681Y2042D01*
X3827Y2188D01*
X3861D01*
X3863Y2183D01*
X3749Y2069D01*
X3740Y2070D01*
X3728Y2068D01*
X3718Y2064D01*
X3708Y2057D01*
X3701Y2047D01*
X3697Y2037D01*
X3695Y2025D01*
X3697Y2013D01*
X3701Y2003D01*
X3708Y1993D01*
X3718Y1986D01*
X3728Y1982D01*
X3740Y1980D01*
X3752Y1982D01*
X3762Y1986D01*
X3772Y1993D01*
X3779Y2003D01*
X3783Y2013D01*
X3785Y2025D01*
X3783Y2037D01*
X3779Y2047D01*
X3778Y2049D01*
X3887Y2158D01*
X4073D01*
X4076Y2154D01*
X4076Y2150D01*
X4077Y2142D01*
X4080Y2135D01*
X4084Y2129D01*
X4090Y2125D01*
X4096Y2122D01*
X4095Y2117D01*
X3957D01*
X3947Y2127D01*
X3942Y2131D01*
X3935Y2132D01*
X3890D01*
X3883Y2131D01*
X3878Y2127D01*
X3828Y2077D01*
X3824Y2072D01*
X3823Y2066D01*
X3818Y2064D01*
X3808Y2057D01*
X3801Y2047D01*
X3797Y2037D01*
X3795Y2025D01*
X3797Y2013D01*
X3801Y2003D01*
X3808Y1993D01*
X3818Y1986D01*
X3828Y1982D01*
X3840Y1980D01*
X3852Y1982D01*
X3862Y1986D01*
X3872Y1993D01*
X3879Y2003D01*
X3883Y2013D01*
X3885Y2025D01*
X3883Y2037D01*
X3879Y2047D01*
X3872Y2057D01*
X3866Y2061D01*
X3866Y2066D01*
X3897Y2098D01*
X3928D01*
X3938Y2088D01*
X3943Y2084D01*
X3950Y2083D01*
X4115D01*
X4122Y2084D01*
X4127Y2088D01*
X4167Y2128D01*
X4181D01*
X4183Y2123D01*
X4129Y2068D01*
X4128Y2068D01*
X4118Y2064D01*
X4108Y2057D01*
X4101Y2047D01*
X4097Y2037D01*
X4095Y2025D01*
X4097Y2013D01*
X4101Y2003D01*
X4108Y1993D01*
X4118Y1986D01*
X4128Y1982D01*
X4140Y1980D01*
X4152Y1982D01*
X4162Y1986D01*
X4172Y1993D01*
X4179Y2003D01*
X4183Y2013D01*
X4185Y2025D01*
X4183Y2037D01*
X4179Y2047D01*
X4172Y2057D01*
X4172Y2057D01*
X4171Y2062D01*
X4207Y2098D01*
X5227D01*
X5229Y2094D01*
X5235Y2090D01*
X5242Y2087D01*
X5250Y2086D01*
X5258Y2087D01*
X5265Y2090D01*
X5271Y2094D01*
X5275Y2100D01*
X5278Y2107D01*
X5279Y2115D01*
X5278Y2123D01*
X5275Y2130D01*
X5271Y2136D01*
X5265Y2140D01*
X5258Y2143D01*
X5250Y2144D01*
X5245Y2144D01*
X5243Y2148D01*
X5247Y2153D01*
X5397D01*
X5399Y2149D01*
X5405Y2145D01*
X5412Y2142D01*
X5420Y2141D01*
X5428Y2142D01*
X5435Y2145D01*
X5441Y2149D01*
X5445Y2155D01*
X5448Y2162D01*
X5449Y2170D01*
X5448Y2178D01*
X5445Y2185D01*
X5441Y2191D01*
X5435Y2195D01*
X5428Y2198D01*
X5420Y2199D01*
X5412Y2198D01*
X5405Y2195D01*
X5399Y2191D01*
X5397Y2187D01*
X5240D01*
X5233Y2186D01*
X5228Y2182D01*
X5208Y2162D01*
X4160D01*
X4153Y2161D01*
X4148Y2157D01*
X4139Y2148D01*
X4134Y2151D01*
X4133Y2158D01*
X4130Y2165D01*
X4126Y2171D01*
X4120Y2175D01*
X4113Y2178D01*
X4105Y2179D01*
X4101Y2179D01*
X4097Y2183D01*
X4099Y2188D01*
X5087D01*
X5089Y2184D01*
X5095Y2180D01*
X5102Y2177D01*
X5110Y2176D01*
X5118Y2177D01*
X5125Y2180D01*
X5131Y2184D01*
X5135Y2190D01*
X5138Y2197D01*
X5139Y2205D01*
X5138Y2213D01*
X5135Y2220D01*
X5131Y2226D01*
X5125Y2230D01*
X5118Y2233D01*
X5110Y2234D01*
X5102Y2233D01*
X5095Y2230D01*
X5089Y2226D01*
X5087Y2222D01*
X5049D01*
X5047Y2227D01*
X5051Y2231D01*
X5055Y2231D01*
X5063Y2232D01*
X5070Y2235D01*
X5076Y2239D01*
X5080Y2245D01*
X5083Y2252D01*
X5084Y2260D01*
X5083Y2268D01*
X5080Y2275D01*
X5076Y2281D01*
X5070Y2285D01*
X5063Y2288D01*
X5055Y2289D01*
X5047Y2288D01*
X5040Y2285D01*
X5034Y2281D01*
X5030Y2275D01*
X5027Y2268D01*
X5026Y2260D01*
X5026Y2256D01*
X5023Y2252D01*
X4513D01*
X4512Y2257D01*
X4512Y2258D01*
X4550Y2296D01*
X4554Y2294D01*
X4565Y2293D01*
X4576Y2294D01*
X4586Y2298D01*
X4595Y2305D01*
X4602Y2314D01*
X4603Y2318D01*
X4662D01*
Y2292D01*
X4818D01*
Y2378D01*
X4795D01*
Y2383D01*
X4793Y2389D01*
X4790Y2395D01*
X4764Y2421D01*
X4764Y2425D01*
X4763Y2433D01*
X4760Y2440D01*
X4756Y2446D01*
X4750Y2450D01*
X4743Y2453D01*
X4735Y2454D01*
D02*
G37*
G36*
X3366Y2720D02*
X3332D01*
Y2684D01*
X3366D01*
Y2720D01*
D02*
G37*
G36*
X3056Y2771D02*
X3022D01*
Y2735D01*
X3056D01*
Y2771D01*
D02*
G37*
G36*
X3405Y2752D02*
Y2730D01*
X3427D01*
X3426Y2732D01*
X3424Y2739D01*
X3419Y2744D01*
X3414Y2749D01*
X3407Y2751D01*
X3405Y2752D01*
D02*
G37*
G36*
X3395D02*
X3393Y2751D01*
X3386Y2749D01*
X3381Y2744D01*
X3376Y2739D01*
X3374Y2732D01*
X3373Y2730D01*
X3395D01*
Y2752D01*
D02*
G37*
G36*
X4275Y2827D02*
X4264Y2826D01*
X4254Y2822D01*
X4245Y2815D01*
X4238Y2806D01*
X4234Y2796D01*
X4233Y2785D01*
X4234Y2774D01*
X4238Y2764D01*
X4245Y2755D01*
X4254Y2748D01*
X4264Y2744D01*
X4275Y2743D01*
X4286Y2744D01*
X4296Y2748D01*
X4305Y2755D01*
X4312Y2764D01*
X4316Y2774D01*
X4317Y2785D01*
X4316Y2796D01*
X4312Y2806D01*
X4305Y2815D01*
X4296Y2822D01*
X4286Y2826D01*
X4275Y2827D01*
D02*
G37*
G36*
X3120Y2757D02*
Y2735D01*
X3142D01*
X3141Y2737D01*
X3139Y2744D01*
X3134Y2749D01*
X3129Y2754D01*
X3122Y2756D01*
X3120Y2757D01*
D02*
G37*
G36*
X3110D02*
X3108Y2756D01*
X3101Y2754D01*
X3096Y2749D01*
X3091Y2744D01*
X3089Y2737D01*
X3088Y2735D01*
X3110D01*
Y2757D01*
D02*
G37*
G36*
X3366Y2766D02*
X3332D01*
Y2730D01*
X3366D01*
Y2766D01*
D02*
G37*
G36*
X3427Y2720D02*
X3405D01*
Y2698D01*
X3407Y2699D01*
X3414Y2701D01*
X3419Y2706D01*
X3424Y2711D01*
X3426Y2718D01*
X3427Y2720D01*
D02*
G37*
G36*
X3395D02*
X3373D01*
X3374Y2718D01*
X3376Y2711D01*
X3381Y2706D01*
X3386Y2701D01*
X3393Y2699D01*
X3395Y2698D01*
Y2720D01*
D02*
G37*
G36*
X3056Y2725D02*
X3022D01*
Y2689D01*
X3056D01*
Y2725D01*
D02*
G37*
G36*
X5920Y2767D02*
X5909Y2766D01*
X5899Y2762D01*
X5890Y2755D01*
X5883Y2746D01*
X5879Y2736D01*
X5878Y2725D01*
X5879Y2714D01*
X5880Y2711D01*
X5877Y2707D01*
X5838D01*
X5837Y2711D01*
X5830Y2720D01*
X5821Y2727D01*
X5811Y2731D01*
X5800Y2732D01*
X5789Y2731D01*
X5779Y2727D01*
X5770Y2720D01*
X5763Y2711D01*
X5762Y2707D01*
X5714D01*
X5712Y2712D01*
X5705Y2721D01*
X5696Y2728D01*
X5686Y2732D01*
X5675Y2734D01*
X5664Y2732D01*
X5654Y2728D01*
X5645Y2721D01*
X5638Y2712D01*
X5634Y2702D01*
X5633Y2691D01*
X5634Y2680D01*
X5638Y2670D01*
X5645Y2661D01*
X5654Y2655D01*
X5664Y2650D01*
X5675Y2649D01*
X5686Y2650D01*
X5696Y2655D01*
X5705Y2661D01*
X5712Y2670D01*
X5713Y2673D01*
X5762D01*
X5763Y2669D01*
X5770Y2660D01*
X5779Y2653D01*
X5789Y2649D01*
X5800Y2648D01*
X5811Y2649D01*
X5821Y2653D01*
X5830Y2660D01*
X5837Y2669D01*
X5838Y2673D01*
X5885D01*
X5892Y2674D01*
X5897Y2678D01*
X5905Y2686D01*
X5909Y2684D01*
X5920Y2683D01*
X5931Y2684D01*
X5941Y2688D01*
X5950Y2695D01*
X5957Y2704D01*
X5961Y2714D01*
X5962Y2725D01*
X5961Y2736D01*
X5957Y2746D01*
X5950Y2755D01*
X5941Y2762D01*
X5931Y2766D01*
X5920Y2767D01*
D02*
G37*
G36*
X3142Y2725D02*
X3120D01*
Y2703D01*
X3122Y2704D01*
X3129Y2706D01*
X3134Y2711D01*
X3139Y2716D01*
X3141Y2723D01*
X3142Y2725D01*
D02*
G37*
G36*
X3110D02*
X3088D01*
X3089Y2723D01*
X3091Y2716D01*
X3096Y2711D01*
X3101Y2706D01*
X3108Y2704D01*
X3110Y2703D01*
Y2725D01*
D02*
G37*
G36*
X4940Y2409D02*
X4929Y2407D01*
X4919Y2403D01*
X4910Y2396D01*
X4903Y2387D01*
X4899Y2377D01*
X4898Y2366D01*
X4899Y2355D01*
X4903Y2345D01*
X4910Y2336D01*
X4919Y2330D01*
X4929Y2325D01*
X4940Y2324D01*
X4951Y2325D01*
X4961Y2330D01*
X4970Y2336D01*
X4977Y2345D01*
X4981Y2355D01*
X4982Y2366D01*
X4981Y2377D01*
X4977Y2387D01*
X4970Y2396D01*
X4961Y2403D01*
X4951Y2407D01*
X4940Y2409D01*
D02*
G37*
G36*
X2193Y2156D02*
X2159D01*
Y2120D01*
X2193D01*
Y2156D01*
D02*
G37*
G36*
X5760Y2199D02*
X5749Y2197D01*
X5739Y2193D01*
X5730Y2186D01*
X5723Y2177D01*
X5719Y2167D01*
X5718Y2156D01*
X5719Y2145D01*
X5723Y2135D01*
X5730Y2126D01*
X5739Y2120D01*
X5749Y2115D01*
X5760Y2114D01*
X5771Y2115D01*
X5781Y2120D01*
X5790Y2126D01*
X5797Y2135D01*
X5801Y2145D01*
X5802Y2156D01*
X5801Y2167D01*
X5797Y2177D01*
X5790Y2186D01*
X5781Y2193D01*
X5771Y2197D01*
X5760Y2199D01*
D02*
G37*
G36*
X5625D02*
X5614Y2197D01*
X5604Y2193D01*
X5595Y2186D01*
X5588Y2177D01*
X5584Y2167D01*
X5583Y2156D01*
X5584Y2145D01*
X5588Y2135D01*
X5595Y2126D01*
X5604Y2120D01*
X5614Y2115D01*
X5625Y2114D01*
X5636Y2115D01*
X5646Y2120D01*
X5655Y2126D01*
X5662Y2135D01*
X5666Y2145D01*
X5667Y2156D01*
X5666Y2167D01*
X5662Y2177D01*
X5655Y2186D01*
X5646Y2193D01*
X5636Y2197D01*
X5625Y2199D01*
D02*
G37*
G36*
X1940Y2305D02*
X1928Y2303D01*
X1918Y2299D01*
X1908Y2292D01*
X1901Y2282D01*
X1897Y2272D01*
X1895Y2260D01*
X1897Y2248D01*
X1901Y2238D01*
X1908Y2228D01*
X1918Y2221D01*
X1928Y2217D01*
X1940Y2215D01*
X1952Y2217D01*
X1962Y2221D01*
X1972Y2228D01*
X1979Y2238D01*
X1983Y2248D01*
X1985Y2260D01*
X1983Y2272D01*
X1979Y2282D01*
X1972Y2292D01*
X1962Y2299D01*
X1952Y2303D01*
X1940Y2305D01*
D02*
G37*
G36*
X2100Y2147D02*
Y2125D01*
X2122D01*
X2121Y2127D01*
X2119Y2134D01*
X2114Y2139D01*
X2109Y2144D01*
X2102Y2146D01*
X2100Y2147D01*
D02*
G37*
G36*
X2090D02*
X2088Y2146D01*
X2081Y2144D01*
X2076Y2139D01*
X2071Y2134D01*
X2069Y2127D01*
X2068Y2125D01*
X2090D01*
Y2147D01*
D02*
G37*
G36*
X1093Y2222D02*
X1081Y2220D01*
X1069Y2217D01*
X1059Y2211D01*
X1049Y2203D01*
X1042Y2194D01*
X1036Y2184D01*
X1032Y2172D01*
X1031Y2160D01*
X1032Y2148D01*
X1036Y2136D01*
X1042Y2126D01*
X1049Y2117D01*
X1059Y2109D01*
X1069Y2103D01*
X1081Y2100D01*
X1093Y2098D01*
X1105Y2100D01*
X1116Y2103D01*
X1127Y2109D01*
X1136Y2117D01*
X1144Y2126D01*
X1150Y2136D01*
X1153Y2148D01*
X1154Y2160D01*
X1153Y2172D01*
X1150Y2184D01*
X1144Y2194D01*
X1136Y2203D01*
X1127Y2211D01*
X1116Y2217D01*
X1105Y2220D01*
X1093Y2222D01*
D02*
G37*
G36*
X4282Y2068D02*
X4245D01*
Y2030D01*
X4282D01*
Y2068D01*
D02*
G37*
G36*
X4235D02*
X4198D01*
Y2030D01*
X4235D01*
Y2068D01*
D02*
G37*
G36*
X1490Y2116D02*
X1479Y2115D01*
X1469Y2110D01*
X1460Y2104D01*
X1453Y2095D01*
X1449Y2085D01*
X1448Y2074D01*
X1449Y2064D01*
X1386Y2001D01*
X1150D01*
X1150Y2002D01*
X1144Y2013D01*
X1136Y2022D01*
X1127Y2030D01*
X1116Y2036D01*
X1105Y2039D01*
X1093Y2040D01*
X1081Y2039D01*
X1069Y2036D01*
X1059Y2030D01*
X1049Y2022D01*
X1042Y2013D01*
X1036Y2002D01*
X1032Y1991D01*
X1031Y1979D01*
X1032Y1967D01*
X1036Y1955D01*
X1042Y1945D01*
X1049Y1935D01*
X1059Y1928D01*
X1069Y1922D01*
X1081Y1919D01*
X1093Y1917D01*
X1105Y1919D01*
X1116Y1922D01*
X1127Y1928D01*
X1136Y1935D01*
X1144Y1945D01*
X1150Y1955D01*
X1150Y1956D01*
X1395D01*
X1404Y1958D01*
X1411Y1963D01*
X1481Y2033D01*
X1490Y2031D01*
X1501Y2033D01*
X1511Y2037D01*
X1520Y2044D01*
X1527Y2053D01*
X1531Y2063D01*
X1532Y2074D01*
X1531Y2085D01*
X1527Y2095D01*
X1520Y2104D01*
X1511Y2110D01*
X1501Y2115D01*
X1490Y2116D01*
D02*
G37*
G36*
X2122Y2115D02*
X2100D01*
Y2093D01*
X2102Y2094D01*
X2109Y2096D01*
X2114Y2101D01*
X2119Y2106D01*
X2121Y2113D01*
X2122Y2115D01*
D02*
G37*
G36*
X2090D02*
X2068D01*
X2069Y2113D01*
X2071Y2106D01*
X2076Y2101D01*
X2081Y2096D01*
X2088Y2094D01*
X2090Y2093D01*
Y2115D01*
D02*
G37*
G36*
X2193Y2110D02*
X2159D01*
Y2074D01*
X2193D01*
Y2110D01*
D02*
G37*
G36*
X2040Y2305D02*
X2028Y2303D01*
X2018Y2299D01*
X2008Y2292D01*
X2001Y2282D01*
X1997Y2272D01*
X1995Y2260D01*
X1997Y2248D01*
X2001Y2238D01*
X2008Y2228D01*
X2018Y2221D01*
X2028Y2217D01*
X2040Y2215D01*
X2052Y2217D01*
X2062Y2221D01*
X2072Y2228D01*
X2079Y2238D01*
X2083Y2248D01*
X2085Y2260D01*
X2083Y2272D01*
X2079Y2282D01*
X2072Y2292D01*
X2062Y2299D01*
X2052Y2303D01*
X2040Y2305D01*
D02*
G37*
G36*
X3040D02*
X3028Y2303D01*
X3018Y2299D01*
X3008Y2292D01*
X3001Y2282D01*
X2997Y2272D01*
X2995Y2260D01*
X2997Y2248D01*
X3001Y2238D01*
X3008Y2228D01*
X3018Y2221D01*
X3028Y2217D01*
X3040Y2215D01*
X3052Y2217D01*
X3062Y2221D01*
X3072Y2228D01*
X3079Y2238D01*
X3083Y2248D01*
X3085Y2260D01*
X3083Y2272D01*
X3079Y2282D01*
X3072Y2292D01*
X3062Y2299D01*
X3052Y2303D01*
X3040Y2305D01*
D02*
G37*
G36*
X2940D02*
X2928Y2303D01*
X2918Y2299D01*
X2908Y2292D01*
X2901Y2282D01*
X2897Y2272D01*
X2895Y2260D01*
X2897Y2248D01*
X2901Y2238D01*
X2908Y2228D01*
X2918Y2221D01*
X2928Y2217D01*
X2940Y2215D01*
X2952Y2217D01*
X2962Y2221D01*
X2972Y2228D01*
X2979Y2238D01*
X2983Y2248D01*
X2985Y2260D01*
X2983Y2272D01*
X2979Y2282D01*
X2972Y2292D01*
X2962Y2299D01*
X2952Y2303D01*
X2940Y2305D01*
D02*
G37*
G36*
X2840D02*
X2828Y2303D01*
X2818Y2299D01*
X2808Y2292D01*
X2801Y2282D01*
X2797Y2272D01*
X2795Y2260D01*
X2797Y2248D01*
X2801Y2238D01*
X2808Y2228D01*
X2818Y2221D01*
X2828Y2217D01*
X2840Y2215D01*
X2852Y2217D01*
X2862Y2221D01*
X2872Y2228D01*
X2879Y2238D01*
X2883Y2248D01*
X2885Y2260D01*
X2883Y2272D01*
X2879Y2282D01*
X2872Y2292D01*
X2862Y2299D01*
X2852Y2303D01*
X2840Y2305D01*
D02*
G37*
G36*
X3940Y2359D02*
X3932Y2358D01*
X3925Y2355D01*
X3919Y2351D01*
X3917Y2347D01*
X3155D01*
X3148Y2346D01*
X3143Y2342D01*
X3128Y2327D01*
X3124Y2322D01*
X3123Y2315D01*
Y2301D01*
X3118Y2299D01*
X3108Y2292D01*
X3101Y2282D01*
X3097Y2272D01*
X3095Y2260D01*
X3097Y2248D01*
X3101Y2238D01*
X3108Y2228D01*
X3118Y2221D01*
X3128Y2217D01*
X3140Y2215D01*
X3152Y2217D01*
X3162Y2221D01*
X3172Y2228D01*
X3179Y2238D01*
X3183Y2248D01*
X3185Y2260D01*
X3183Y2272D01*
X3179Y2282D01*
X3172Y2292D01*
X3162Y2299D01*
X3157Y2301D01*
Y2308D01*
X3162Y2313D01*
X3917D01*
X3919Y2309D01*
X3925Y2305D01*
X3932Y2302D01*
X3940Y2301D01*
X3948Y2302D01*
X3955Y2305D01*
X3961Y2309D01*
X3965Y2315D01*
X3968Y2322D01*
X3969Y2330D01*
X3968Y2338D01*
X3965Y2345D01*
X3961Y2351D01*
X3955Y2355D01*
X3948Y2358D01*
X3940Y2359D01*
D02*
G37*
G36*
X4171Y2377D02*
X4160Y2376D01*
X4150Y2372D01*
X4141Y2365D01*
X4135Y2356D01*
X4130Y2346D01*
X4129Y2335D01*
X4130Y2324D01*
X4135Y2314D01*
X4141Y2305D01*
X4150Y2298D01*
X4160Y2294D01*
X4171Y2293D01*
X4182Y2294D01*
X4192Y2298D01*
X4201Y2305D01*
X4208Y2314D01*
X4212Y2324D01*
X4214Y2335D01*
X4212Y2346D01*
X4208Y2356D01*
X4201Y2365D01*
X4192Y2372D01*
X4182Y2376D01*
X4171Y2377D01*
D02*
G37*
G36*
X3240Y2305D02*
X3228Y2303D01*
X3218Y2299D01*
X3208Y2292D01*
X3201Y2282D01*
X3197Y2272D01*
X3195Y2260D01*
X3197Y2248D01*
X3201Y2238D01*
X3208Y2228D01*
X3218Y2221D01*
X3228Y2217D01*
X3240Y2215D01*
X3252Y2217D01*
X3262Y2221D01*
X3272Y2228D01*
X3279Y2238D01*
X3283Y2248D01*
X3285Y2260D01*
X3283Y2272D01*
X3279Y2282D01*
X3272Y2292D01*
X3262Y2299D01*
X3252Y2303D01*
X3240Y2305D01*
D02*
G37*
G36*
X2740D02*
X2728Y2303D01*
X2718Y2299D01*
X2708Y2292D01*
X2701Y2282D01*
X2697Y2272D01*
X2695Y2260D01*
X2697Y2248D01*
X2701Y2238D01*
X2708Y2228D01*
X2718Y2221D01*
X2728Y2217D01*
X2740Y2215D01*
X2752Y2217D01*
X2762Y2221D01*
X2772Y2228D01*
X2779Y2238D01*
X2783Y2248D01*
X2785Y2260D01*
X2783Y2272D01*
X2779Y2282D01*
X2772Y2292D01*
X2762Y2299D01*
X2752Y2303D01*
X2740Y2305D01*
D02*
G37*
G36*
X2130Y2369D02*
X2122Y2368D01*
X2115Y2365D01*
X2109Y2361D01*
X2105Y2355D01*
X2102Y2348D01*
X2101Y2340D01*
X2102Y2332D01*
X2105Y2325D01*
X2109Y2319D01*
X2115Y2315D01*
X2122Y2312D01*
X2130Y2311D01*
X2138Y2312D01*
X2145Y2315D01*
X2151Y2319D01*
X2153Y2323D01*
X2263D01*
X2302Y2284D01*
X2301Y2282D01*
X2297Y2272D01*
X2295Y2260D01*
X2297Y2248D01*
X2301Y2238D01*
X2308Y2228D01*
X2318Y2221D01*
X2328Y2217D01*
X2340Y2215D01*
X2352Y2217D01*
X2362Y2221D01*
X2372Y2228D01*
X2379Y2238D01*
X2383Y2248D01*
X2385Y2260D01*
X2383Y2272D01*
X2379Y2282D01*
X2372Y2292D01*
X2362Y2299D01*
X2352Y2303D01*
X2340Y2305D01*
X2331Y2304D01*
X2282Y2352D01*
X2277Y2356D01*
X2270Y2357D01*
X2153D01*
X2151Y2361D01*
X2145Y2365D01*
X2138Y2368D01*
X2130Y2369D01*
D02*
G37*
G36*
X2240Y2305D02*
X2228Y2303D01*
X2218Y2299D01*
X2208Y2292D01*
X2201Y2282D01*
X2197Y2272D01*
X2195Y2260D01*
X2197Y2248D01*
X2201Y2238D01*
X2208Y2228D01*
X2218Y2221D01*
X2228Y2217D01*
X2240Y2215D01*
X2252Y2217D01*
X2262Y2221D01*
X2272Y2228D01*
X2279Y2238D01*
X2283Y2248D01*
X2285Y2260D01*
X2283Y2272D01*
X2279Y2282D01*
X2272Y2292D01*
X2262Y2299D01*
X2252Y2303D01*
X2240Y2305D01*
D02*
G37*
G36*
X2140D02*
X2128Y2303D01*
X2118Y2299D01*
X2108Y2292D01*
X2101Y2282D01*
X2097Y2272D01*
X2095Y2260D01*
X2097Y2248D01*
X2101Y2238D01*
X2108Y2228D01*
X2118Y2221D01*
X2128Y2217D01*
X2140Y2215D01*
X2152Y2217D01*
X2162Y2221D01*
X2172Y2228D01*
X2179Y2238D01*
X2183Y2248D01*
X2185Y2260D01*
X2183Y2272D01*
X2179Y2282D01*
X2172Y2292D01*
X2162Y2299D01*
X2152Y2303D01*
X2140Y2305D01*
D02*
G37*
G36*
X2640D02*
X2628Y2303D01*
X2618Y2299D01*
X2608Y2292D01*
X2601Y2282D01*
X2597Y2272D01*
X2595Y2260D01*
X2597Y2248D01*
X2601Y2238D01*
X2608Y2228D01*
X2618Y2221D01*
X2628Y2217D01*
X2640Y2215D01*
X2652Y2217D01*
X2662Y2221D01*
X2672Y2228D01*
X2679Y2238D01*
X2683Y2248D01*
X2685Y2260D01*
X2683Y2272D01*
X2679Y2282D01*
X2672Y2292D01*
X2662Y2299D01*
X2652Y2303D01*
X2640Y2305D01*
D02*
G37*
G36*
X2540D02*
X2528Y2303D01*
X2518Y2299D01*
X2508Y2292D01*
X2501Y2282D01*
X2497Y2272D01*
X2495Y2260D01*
X2497Y2248D01*
X2501Y2238D01*
X2508Y2228D01*
X2518Y2221D01*
X2528Y2217D01*
X2540Y2215D01*
X2552Y2217D01*
X2562Y2221D01*
X2572Y2228D01*
X2579Y2238D01*
X2583Y2248D01*
X2585Y2260D01*
X2583Y2272D01*
X2579Y2282D01*
X2572Y2292D01*
X2562Y2299D01*
X2552Y2303D01*
X2540Y2305D01*
D02*
G37*
G36*
X2440D02*
X2428Y2303D01*
X2418Y2299D01*
X2408Y2292D01*
X2401Y2282D01*
X2397Y2272D01*
X2395Y2260D01*
X2397Y2248D01*
X2401Y2238D01*
X2408Y2228D01*
X2418Y2221D01*
X2428Y2217D01*
X2440Y2215D01*
X2452Y2217D01*
X2462Y2221D01*
X2472Y2228D01*
X2479Y2238D01*
X2483Y2248D01*
X2485Y2260D01*
X2483Y2272D01*
X2479Y2282D01*
X2472Y2292D01*
X2462Y2299D01*
X2452Y2303D01*
X2440Y2305D01*
D02*
G37*
G36*
X4106Y2780D02*
X4072D01*
Y2744D01*
X4106D01*
Y2780D01*
D02*
G37*
G36*
X2340Y3155D02*
X2328Y3153D01*
X2318Y3149D01*
X2308Y3142D01*
X2301Y3132D01*
X2297Y3122D01*
X2295Y3110D01*
X2297Y3098D01*
X2301Y3088D01*
X2308Y3078D01*
X2318Y3071D01*
X2328Y3067D01*
X2340Y3065D01*
X2352Y3067D01*
X2362Y3071D01*
X2372Y3078D01*
X2379Y3088D01*
X2383Y3098D01*
X2385Y3110D01*
X2383Y3122D01*
X2379Y3132D01*
X2372Y3142D01*
X2362Y3149D01*
X2352Y3153D01*
X2340Y3155D01*
D02*
G37*
G36*
X4845Y3081D02*
Y3045D01*
X4881D01*
X4880Y3051D01*
X4876Y3061D01*
X4870Y3070D01*
X4861Y3076D01*
X4851Y3080D01*
X4845Y3081D01*
D02*
G37*
G36*
X4835D02*
X4829Y3080D01*
X4819Y3076D01*
X4810Y3070D01*
X4804Y3061D01*
X4800Y3051D01*
X4799Y3045D01*
X4835D01*
Y3081D01*
D02*
G37*
G36*
X2640Y3155D02*
X2628Y3153D01*
X2618Y3149D01*
X2608Y3142D01*
X2601Y3132D01*
X2597Y3122D01*
X2595Y3110D01*
X2597Y3098D01*
X2601Y3088D01*
X2608Y3078D01*
X2618Y3071D01*
X2628Y3067D01*
X2640Y3065D01*
X2652Y3067D01*
X2662Y3071D01*
X2672Y3078D01*
X2679Y3088D01*
X2683Y3098D01*
X2685Y3110D01*
X2683Y3122D01*
X2679Y3132D01*
X2672Y3142D01*
X2662Y3149D01*
X2652Y3153D01*
X2640Y3155D01*
D02*
G37*
G36*
X2540D02*
X2528Y3153D01*
X2518Y3149D01*
X2508Y3142D01*
X2501Y3132D01*
X2497Y3122D01*
X2495Y3110D01*
X2497Y3098D01*
X2501Y3088D01*
X2508Y3078D01*
X2518Y3071D01*
X2528Y3067D01*
X2540Y3065D01*
X2552Y3067D01*
X2562Y3071D01*
X2572Y3078D01*
X2579Y3088D01*
X2583Y3098D01*
X2585Y3110D01*
X2583Y3122D01*
X2579Y3132D01*
X2572Y3142D01*
X2562Y3149D01*
X2552Y3153D01*
X2540Y3155D01*
D02*
G37*
G36*
X2440D02*
X2428Y3153D01*
X2418Y3149D01*
X2408Y3142D01*
X2401Y3132D01*
X2397Y3122D01*
X2395Y3110D01*
X2397Y3098D01*
X2401Y3088D01*
X2408Y3078D01*
X2418Y3071D01*
X2428Y3067D01*
X2440Y3065D01*
X2452Y3067D01*
X2462Y3071D01*
X2472Y3078D01*
X2479Y3088D01*
X2483Y3098D01*
X2485Y3110D01*
X2483Y3122D01*
X2479Y3132D01*
X2472Y3142D01*
X2462Y3149D01*
X2452Y3153D01*
X2440Y3155D01*
D02*
G37*
G36*
X5840Y3079D02*
X5805D01*
Y3044D01*
X5810Y3045D01*
X5820Y3049D01*
X5829Y3055D01*
X5835Y3064D01*
X5839Y3073D01*
X5840Y3079D01*
D02*
G37*
G36*
X1130Y3045D02*
X1125D01*
Y2960D01*
X1220D01*
X1219Y2973D01*
X1214Y2990D01*
X1205Y3005D01*
X1194Y3019D01*
X1180Y3030D01*
X1165Y3039D01*
X1148Y3044D01*
X1130Y3045D01*
D02*
G37*
G36*
X4400Y2980D02*
Y2945D01*
X4435D01*
X4434Y2950D01*
X4430Y2960D01*
X4424Y2969D01*
X4415Y2975D01*
X4405Y2979D01*
X4400Y2980D01*
D02*
G37*
G36*
X4390D02*
X4385Y2979D01*
X4375Y2975D01*
X4366Y2969D01*
X4360Y2960D01*
X4356Y2950D01*
X4355Y2945D01*
X4390D01*
Y2980D01*
D02*
G37*
G36*
X5795Y3079D02*
X5760D01*
X5761Y3073D01*
X5765Y3064D01*
X5771Y3055D01*
X5780Y3049D01*
X5790Y3045D01*
X5795Y3044D01*
Y3079D01*
D02*
G37*
G36*
X4881Y3035D02*
X4845D01*
Y2999D01*
X4851Y3000D01*
X4861Y3004D01*
X4870Y3010D01*
X4876Y3019D01*
X4880Y3029D01*
X4881Y3035D01*
D02*
G37*
G36*
X4835D02*
X4799D01*
X4800Y3029D01*
X4804Y3019D01*
X4810Y3010D01*
X4819Y3004D01*
X4829Y3000D01*
X4835Y2999D01*
Y3035D01*
D02*
G37*
G36*
X2740Y3155D02*
X2728Y3153D01*
X2718Y3149D01*
X2708Y3142D01*
X2701Y3132D01*
X2697Y3122D01*
X2695Y3110D01*
X2697Y3098D01*
X2701Y3088D01*
X2708Y3078D01*
X2718Y3071D01*
X2728Y3067D01*
X2740Y3065D01*
X2752Y3067D01*
X2762Y3071D01*
X2772Y3078D01*
X2779Y3088D01*
X2783Y3098D01*
X2785Y3110D01*
X2783Y3122D01*
X2779Y3132D01*
X2772Y3142D01*
X2762Y3149D01*
X2752Y3153D01*
X2740Y3155D01*
D02*
G37*
G36*
X2283Y3152D02*
X2245D01*
Y3115D01*
X2283D01*
Y3152D01*
D02*
G37*
G36*
X2235D02*
X2197D01*
Y3115D01*
X2235D01*
Y3152D01*
D02*
G37*
G36*
X5186Y3134D02*
X5142D01*
Y3089D01*
X5150Y3090D01*
X5162Y3095D01*
X5172Y3103D01*
X5180Y3114D01*
X5185Y3126D01*
X5186Y3134D01*
D02*
G37*
G36*
X5142Y3189D02*
Y3144D01*
X5186D01*
X5185Y3152D01*
X5180Y3164D01*
X5172Y3175D01*
X5162Y3183D01*
X5150Y3188D01*
X5142Y3189D01*
D02*
G37*
G36*
X5132D02*
X5124Y3188D01*
X5111Y3183D01*
X5101Y3175D01*
X5093Y3164D01*
X5088Y3152D01*
X5087Y3144D01*
X5132D01*
Y3189D01*
D02*
G37*
G36*
X5795Y3539D02*
X5784Y3537D01*
X5773Y3533D01*
X5764Y3526D01*
X5757Y3517D01*
X5753Y3506D01*
X5751Y3495D01*
X5753Y3484D01*
X5757Y3473D01*
X5764Y3464D01*
X5773Y3457D01*
Y3167D01*
X5735D01*
X5726Y3166D01*
X5719Y3161D01*
X5684Y3126D01*
X5675Y3127D01*
X5664Y3126D01*
X5654Y3122D01*
X5645Y3115D01*
X5639Y3107D01*
X5626D01*
X5601Y3132D01*
X5602Y3141D01*
X5601Y3152D01*
X5597Y3162D01*
X5590Y3171D01*
X5581Y3178D01*
X5571Y3182D01*
X5560Y3184D01*
X5549Y3182D01*
X5539Y3178D01*
X5530Y3171D01*
X5523Y3162D01*
X5519Y3152D01*
X5518Y3141D01*
X5519Y3130D01*
X5523Y3120D01*
X5530Y3111D01*
X5539Y3105D01*
X5549Y3100D01*
X5560Y3099D01*
X5569Y3100D01*
X5600Y3069D01*
X5608Y3064D01*
X5616Y3063D01*
X5639D01*
X5645Y3055D01*
X5654Y3048D01*
X5664Y3044D01*
X5675Y3043D01*
X5686Y3044D01*
X5696Y3048D01*
X5705Y3055D01*
X5712Y3064D01*
X5716Y3074D01*
X5717Y3085D01*
X5716Y3094D01*
X5744Y3123D01*
X5777D01*
X5778Y3118D01*
X5771Y3112D01*
X5765Y3104D01*
X5761Y3094D01*
X5760Y3089D01*
X5840D01*
X5839Y3094D01*
X5835Y3104D01*
X5829Y3112D01*
X5822Y3118D01*
X5823Y3123D01*
X5874D01*
X5878Y3119D01*
X5878Y3119D01*
X5879Y3108D01*
X5883Y3098D01*
X5890Y3089D01*
X5899Y3082D01*
X5909Y3078D01*
X5920Y3076D01*
X5931Y3078D01*
X5941Y3082D01*
X5950Y3089D01*
X5957Y3098D01*
X5961Y3108D01*
X5962Y3119D01*
X5961Y3130D01*
X5957Y3140D01*
X5950Y3149D01*
X5941Y3155D01*
X5931Y3160D01*
X5920Y3161D01*
X5911Y3160D01*
X5910Y3161D01*
X5902Y3166D01*
X5894Y3167D01*
X5817D01*
Y3457D01*
X5826Y3464D01*
X5833Y3473D01*
X5837Y3484D01*
X5839Y3495D01*
X5837Y3506D01*
X5833Y3517D01*
X5826Y3526D01*
X5817Y3533D01*
X5806Y3537D01*
X5795Y3539D01*
D02*
G37*
G36*
X5132Y3134D02*
X5087D01*
X5088Y3126D01*
X5093Y3114D01*
X5101Y3103D01*
X5111Y3095D01*
X5124Y3090D01*
X5132Y3089D01*
Y3134D01*
D02*
G37*
G36*
X3240Y3155D02*
X3228Y3153D01*
X3218Y3149D01*
X3208Y3142D01*
X3201Y3132D01*
X3197Y3122D01*
X3195Y3110D01*
X3197Y3098D01*
X3199Y3093D01*
X3098Y2992D01*
X3054D01*
X3052Y2997D01*
X3123Y3069D01*
X3128Y3067D01*
X3140Y3065D01*
X3152Y3067D01*
X3162Y3071D01*
X3172Y3078D01*
X3179Y3088D01*
X3183Y3098D01*
X3185Y3110D01*
X3183Y3122D01*
X3179Y3132D01*
X3172Y3142D01*
X3162Y3149D01*
X3152Y3153D01*
X3140Y3155D01*
X3128Y3153D01*
X3118Y3149D01*
X3108Y3142D01*
X3101Y3132D01*
X3097Y3122D01*
X3095Y3110D01*
X3097Y3098D01*
X3099Y3093D01*
X3028Y3022D01*
X2998D01*
X2996Y3027D01*
X3035Y3066D01*
X3040Y3065D01*
X3052Y3067D01*
X3062Y3071D01*
X3072Y3078D01*
X3079Y3088D01*
X3083Y3098D01*
X3085Y3110D01*
X3083Y3122D01*
X3079Y3132D01*
X3072Y3142D01*
X3062Y3149D01*
X3052Y3153D01*
X3040Y3155D01*
X3028Y3153D01*
X3018Y3149D01*
X3008Y3142D01*
X3001Y3132D01*
X2997Y3122D01*
X2995Y3110D01*
X2997Y3098D01*
X3001Y3088D01*
X3004Y3084D01*
X2968Y3047D01*
X1813D01*
X1811Y3051D01*
X1805Y3055D01*
X1798Y3058D01*
X1790Y3059D01*
X1782Y3058D01*
X1775Y3055D01*
X1769Y3051D01*
X1765Y3045D01*
X1762Y3038D01*
X1761Y3030D01*
X1762Y3022D01*
X1765Y3015D01*
X1766Y3013D01*
X1763Y3009D01*
X1760Y3009D01*
X1752Y3008D01*
X1745Y3005D01*
X1739Y3001D01*
X1735Y2995D01*
X1732Y2988D01*
X1731Y2980D01*
X1732Y2972D01*
X1735Y2965D01*
X1739Y2959D01*
X1745Y2955D01*
X1752Y2952D01*
X1760Y2951D01*
X1768Y2952D01*
X1775Y2955D01*
X1781Y2959D01*
X1783Y2963D01*
X1800D01*
X1807Y2964D01*
X1812Y2968D01*
X1832Y2988D01*
X1841D01*
X1843Y2983D01*
X1788Y2927D01*
X1778D01*
X1776Y2931D01*
X1770Y2935D01*
X1763Y2938D01*
X1755Y2939D01*
X1747Y2938D01*
X1740Y2935D01*
X1734Y2931D01*
X1730Y2925D01*
X1727Y2918D01*
X1726Y2910D01*
X1727Y2902D01*
X1730Y2895D01*
X1734Y2889D01*
X1740Y2885D01*
X1747Y2882D01*
X1755Y2881D01*
X1763Y2882D01*
X1770Y2885D01*
X1776Y2889D01*
X1778Y2893D01*
X1795D01*
X1802Y2894D01*
X1807Y2898D01*
X1867Y2958D01*
X3105D01*
X3112Y2959D01*
X3117Y2963D01*
X3223Y3069D01*
X3228Y3067D01*
X3240Y3065D01*
X3252Y3067D01*
X3262Y3071D01*
X3272Y3078D01*
X3279Y3088D01*
X3283Y3098D01*
X3285Y3110D01*
X3283Y3122D01*
X3279Y3132D01*
X3272Y3142D01*
X3262Y3149D01*
X3252Y3153D01*
X3240Y3155D01*
D02*
G37*
G36*
X1815Y3264D02*
X1807Y3263D01*
X1800Y3260D01*
X1794Y3256D01*
X1790Y3250D01*
X1787Y3243D01*
X1786Y3235D01*
X1787Y3227D01*
X1790Y3220D01*
X1794Y3214D01*
X1800Y3210D01*
X1807Y3207D01*
X1815Y3206D01*
X1823Y3207D01*
X1830Y3210D01*
X1836Y3214D01*
X1838Y3218D01*
X1988D01*
X2013Y3193D01*
X2018Y3189D01*
X2025Y3188D01*
X2838D01*
X2899Y3127D01*
X2897Y3122D01*
X2895Y3110D01*
X2897Y3098D01*
X2901Y3088D01*
X2908Y3078D01*
X2918Y3071D01*
X2928Y3067D01*
X2940Y3065D01*
X2952Y3067D01*
X2962Y3071D01*
X2972Y3078D01*
X2979Y3088D01*
X2983Y3098D01*
X2985Y3110D01*
X2983Y3122D01*
X2979Y3132D01*
X2972Y3142D01*
X2962Y3149D01*
X2952Y3153D01*
X2940Y3155D01*
X2928Y3153D01*
X2923Y3151D01*
X2857Y3217D01*
X2852Y3221D01*
X2845Y3222D01*
X2032D01*
X2007Y3247D01*
X2002Y3251D01*
X1995Y3252D01*
X1838D01*
X1836Y3256D01*
X1830Y3260D01*
X1823Y3263D01*
X1815Y3264D01*
D02*
G37*
G36*
X2840Y3155D02*
X2828Y3153D01*
X2818Y3149D01*
X2808Y3142D01*
X2801Y3132D01*
X2797Y3122D01*
X2795Y3110D01*
X2797Y3098D01*
X2801Y3088D01*
X2808Y3078D01*
X2818Y3071D01*
X2828Y3067D01*
X2840Y3065D01*
X2852Y3067D01*
X2862Y3071D01*
X2872Y3078D01*
X2879Y3088D01*
X2883Y3098D01*
X2885Y3110D01*
X2883Y3122D01*
X2879Y3132D01*
X2872Y3142D01*
X2862Y3149D01*
X2852Y3153D01*
X2840Y3155D01*
D02*
G37*
G36*
X5333Y3192D02*
X5320Y3190D01*
X5307Y3185D01*
X5296Y3176D01*
X5288Y3165D01*
X5283Y3153D01*
X5281Y3139D01*
X5283Y3126D01*
X5288Y3113D01*
X5296Y3102D01*
X5307Y3094D01*
X5320Y3088D01*
X5333Y3087D01*
X5347Y3088D01*
X5360Y3094D01*
X5371Y3102D01*
X5379Y3113D01*
X5384Y3126D01*
X5386Y3139D01*
X5384Y3153D01*
X5379Y3165D01*
X5371Y3176D01*
X5360Y3185D01*
X5347Y3190D01*
X5333Y3192D01*
D02*
G37*
G36*
X2283Y3105D02*
X2245D01*
Y3068D01*
X2283D01*
Y3105D01*
D02*
G37*
G36*
X2235D02*
X2197D01*
Y3068D01*
X2235D01*
Y3105D01*
D02*
G37*
G36*
X2040Y2905D02*
X2028Y2903D01*
X2018Y2899D01*
X2008Y2892D01*
X2001Y2882D01*
X1997Y2872D01*
X1995Y2860D01*
X1997Y2848D01*
X2001Y2838D01*
X2008Y2828D01*
X2018Y2821D01*
X2028Y2817D01*
X2040Y2815D01*
X2052Y2817D01*
X2062Y2821D01*
X2072Y2828D01*
X2079Y2838D01*
X2083Y2848D01*
X2085Y2860D01*
X2083Y2872D01*
X2079Y2882D01*
X2072Y2892D01*
X2062Y2899D01*
X2052Y2903D01*
X2040Y2905D01*
D02*
G37*
G36*
X1940D02*
X1928Y2903D01*
X1918Y2899D01*
X1908Y2892D01*
X1901Y2882D01*
X1897Y2872D01*
X1895Y2860D01*
X1897Y2848D01*
X1901Y2838D01*
X1908Y2828D01*
X1918Y2821D01*
X1928Y2817D01*
X1940Y2815D01*
X1952Y2817D01*
X1962Y2821D01*
X1972Y2828D01*
X1979Y2838D01*
X1983Y2848D01*
X1985Y2860D01*
X1983Y2872D01*
X1979Y2882D01*
X1972Y2892D01*
X1962Y2899D01*
X1952Y2903D01*
X1940Y2905D01*
D02*
G37*
G36*
X4033Y2828D02*
X3952D01*
Y2802D01*
X3920D01*
X3918Y2806D01*
X3911Y2815D01*
X3902Y2822D01*
X3892Y2826D01*
X3881Y2827D01*
X3870Y2826D01*
X3860Y2822D01*
X3851Y2815D01*
X3845Y2806D01*
X3840Y2796D01*
X3839Y2785D01*
X3840Y2774D01*
X3845Y2764D01*
X3851Y2755D01*
X3860Y2748D01*
X3870Y2744D01*
X3881Y2743D01*
X3892Y2744D01*
X3902Y2748D01*
X3911Y2755D01*
X3918Y2764D01*
X3920Y2768D01*
X3952D01*
Y2742D01*
X4033D01*
Y2744D01*
X4062D01*
Y2785D01*
Y2826D01*
X4033D01*
Y2828D01*
D02*
G37*
G36*
X2340Y2905D02*
X2328Y2903D01*
X2318Y2899D01*
X2308Y2892D01*
X2301Y2882D01*
X2297Y2872D01*
X2295Y2860D01*
X2297Y2848D01*
X2301Y2838D01*
X2308Y2828D01*
X2318Y2821D01*
X2328Y2817D01*
X2340Y2815D01*
X2352Y2817D01*
X2362Y2821D01*
X2372Y2828D01*
X2379Y2838D01*
X2383Y2848D01*
X2385Y2860D01*
X2383Y2872D01*
X2379Y2882D01*
X2372Y2892D01*
X2362Y2899D01*
X2352Y2903D01*
X2340Y2905D01*
D02*
G37*
G36*
X2240D02*
X2228Y2903D01*
X2218Y2899D01*
X2208Y2892D01*
X2201Y2882D01*
X2197Y2872D01*
X2195Y2860D01*
X2197Y2848D01*
X2201Y2838D01*
X2208Y2828D01*
X2218Y2821D01*
X2228Y2817D01*
X2240Y2815D01*
X2252Y2817D01*
X2262Y2821D01*
X2272Y2828D01*
X2279Y2838D01*
X2283Y2848D01*
X2285Y2860D01*
X2283Y2872D01*
X2279Y2882D01*
X2272Y2892D01*
X2262Y2899D01*
X2252Y2903D01*
X2240Y2905D01*
D02*
G37*
G36*
X2140D02*
X2128Y2903D01*
X2118Y2899D01*
X2108Y2892D01*
X2101Y2882D01*
X2097Y2872D01*
X2095Y2860D01*
X2097Y2848D01*
X2101Y2838D01*
X2108Y2828D01*
X2118Y2821D01*
X2128Y2817D01*
X2140Y2815D01*
X2152Y2817D01*
X2162Y2821D01*
X2172Y2828D01*
X2179Y2838D01*
X2183Y2848D01*
X2185Y2860D01*
X2183Y2872D01*
X2179Y2882D01*
X2172Y2892D01*
X2162Y2899D01*
X2152Y2903D01*
X2140Y2905D01*
D02*
G37*
G36*
X4106Y2826D02*
X4072D01*
Y2790D01*
X4106D01*
Y2826D01*
D02*
G37*
G36*
X1235Y2868D02*
X1216Y2866D01*
X1198Y2861D01*
X1181Y2851D01*
X1166Y2839D01*
X1154Y2824D01*
X1144Y2807D01*
X1139Y2789D01*
X1138Y2775D01*
X1235D01*
Y2868D01*
D02*
G37*
G36*
X4177Y2775D02*
X4155D01*
Y2753D01*
X4157Y2754D01*
X4164Y2756D01*
X4169Y2761D01*
X4174Y2766D01*
X4176Y2773D01*
X4177Y2775D01*
D02*
G37*
G36*
X4145D02*
X4123D01*
X4124Y2773D01*
X4126Y2766D01*
X4131Y2761D01*
X4136Y2756D01*
X4143Y2754D01*
X4145Y2753D01*
Y2775D01*
D02*
G37*
G36*
X4155Y2807D02*
Y2785D01*
X4177D01*
X4176Y2787D01*
X4174Y2794D01*
X4169Y2799D01*
X4164Y2804D01*
X4157Y2806D01*
X4155Y2807D01*
D02*
G37*
G36*
X4145D02*
X4143Y2806D01*
X4136Y2804D01*
X4131Y2799D01*
X4126Y2794D01*
X4124Y2787D01*
X4123Y2785D01*
X4145D01*
Y2807D01*
D02*
G37*
G36*
X1245Y2868D02*
Y2775D01*
X1342D01*
X1341Y2789D01*
X1336Y2807D01*
X1326Y2824D01*
X1314Y2839D01*
X1299Y2851D01*
X1282Y2861D01*
X1264Y2866D01*
X1245Y2868D01*
D02*
G37*
G36*
X2440Y2905D02*
X2428Y2903D01*
X2418Y2899D01*
X2408Y2892D01*
X2401Y2882D01*
X2397Y2872D01*
X2395Y2860D01*
X2397Y2848D01*
X2401Y2838D01*
X2408Y2828D01*
X2418Y2821D01*
X2428Y2817D01*
X2440Y2815D01*
X2452Y2817D01*
X2462Y2821D01*
X2472Y2828D01*
X2479Y2838D01*
X2483Y2848D01*
X2485Y2860D01*
X2483Y2872D01*
X2479Y2882D01*
X2472Y2892D01*
X2462Y2899D01*
X2452Y2903D01*
X2440Y2905D01*
D02*
G37*
G36*
X3625Y2877D02*
X3623Y2876D01*
X3616Y2874D01*
X3611Y2869D01*
X3606Y2864D01*
X3604Y2857D01*
X3603Y2855D01*
X3625D01*
Y2877D01*
D02*
G37*
G36*
X5400Y2937D02*
X5389Y2936D01*
X5379Y2932D01*
X5370Y2925D01*
X5363Y2916D01*
X5359Y2906D01*
X5358Y2895D01*
X5359Y2884D01*
X5363Y2874D01*
X5370Y2865D01*
X5379Y2858D01*
X5389Y2854D01*
X5400Y2853D01*
X5411Y2854D01*
X5421Y2858D01*
X5430Y2865D01*
X5437Y2874D01*
X5441Y2884D01*
X5442Y2895D01*
X5441Y2906D01*
X5437Y2916D01*
X5430Y2925D01*
X5421Y2932D01*
X5411Y2936D01*
X5400Y2937D01*
D02*
G37*
G36*
X5006Y2937D02*
X4995Y2936D01*
X4985Y2932D01*
X4976Y2925D01*
X4970Y2916D01*
X4965Y2906D01*
X4964Y2895D01*
X4965Y2884D01*
X4970Y2874D01*
X4976Y2865D01*
X4985Y2858D01*
X4995Y2854D01*
X5006Y2853D01*
X5017Y2854D01*
X5027Y2858D01*
X5036Y2865D01*
X5043Y2874D01*
X5047Y2884D01*
X5049Y2895D01*
X5047Y2906D01*
X5043Y2916D01*
X5036Y2925D01*
X5027Y2932D01*
X5017Y2936D01*
X5006Y2937D01*
D02*
G37*
G36*
X4090Y3017D02*
X3930D01*
X3921Y3016D01*
X3914Y3011D01*
X3856Y2952D01*
X2985D01*
X2976Y2951D01*
X2969Y2946D01*
X2925Y2902D01*
X2918Y2899D01*
X2908Y2892D01*
X2901Y2882D01*
X2897Y2872D01*
X2895Y2860D01*
X2897Y2848D01*
X2901Y2838D01*
X2908Y2828D01*
X2918Y2821D01*
X2918Y2821D01*
Y2773D01*
X2902D01*
Y2752D01*
X1593D01*
X1590Y2755D01*
X1583Y2758D01*
X1575Y2759D01*
X1567Y2758D01*
X1560Y2755D01*
X1554Y2751D01*
X1550Y2745D01*
X1547Y2738D01*
X1546Y2730D01*
X1547Y2722D01*
X1550Y2715D01*
X1554Y2709D01*
X1560Y2705D01*
X1567Y2702D01*
X1575Y2701D01*
X1583Y2702D01*
X1590Y2705D01*
X1593Y2708D01*
X2902D01*
Y2687D01*
X2983D01*
Y2689D01*
X3012D01*
Y2730D01*
Y2771D01*
X2983D01*
Y2773D01*
X2962D01*
Y2821D01*
X2962Y2821D01*
X2972Y2828D01*
X2979Y2838D01*
X2983Y2848D01*
X2985Y2860D01*
X2983Y2872D01*
X2979Y2882D01*
X2975Y2888D01*
X2994Y2908D01*
X3025D01*
X3026Y2903D01*
X3018Y2899D01*
X3008Y2892D01*
X3001Y2882D01*
X2997Y2872D01*
X2995Y2860D01*
X2997Y2848D01*
X3001Y2838D01*
X3008Y2828D01*
X3018Y2821D01*
X3028Y2817D01*
X3040Y2815D01*
X3052Y2817D01*
X3062Y2821D01*
X3072Y2828D01*
X3079Y2838D01*
X3083Y2848D01*
X3085Y2860D01*
X3083Y2872D01*
X3079Y2882D01*
X3072Y2892D01*
X3062Y2899D01*
X3054Y2903D01*
X3055Y2908D01*
X3133D01*
X3137Y2906D01*
X3138Y2903D01*
X3138Y2903D01*
X3138Y2903D01*
X3138Y2903D01*
X3137Y2903D01*
D01*
X3129Y2901D01*
X3119Y2897D01*
X3110Y2890D01*
X3103Y2881D01*
X3099Y2871D01*
X3098Y2865D01*
X3182D01*
X3181Y2871D01*
X3177Y2881D01*
X3170Y2890D01*
X3161Y2897D01*
X3151Y2901D01*
X3143Y2903D01*
X3143D01*
X3142Y2903D01*
X3142Y2903D01*
X3142Y2903D01*
X3142Y2903D01*
X3142Y2906D01*
X3143Y2906D01*
X3147Y2908D01*
X3192D01*
X3195Y2905D01*
X3195Y2903D01*
Y2816D01*
X3235D01*
Y2768D01*
X3212D01*
Y2682D01*
X3293D01*
Y2684D01*
X3322D01*
Y2725D01*
Y2766D01*
X3293D01*
Y2768D01*
X3270D01*
Y2816D01*
X3284D01*
Y2843D01*
X3498D01*
X3543Y2798D01*
X3548Y2794D01*
X3555Y2793D01*
X3655D01*
X3662Y2794D01*
X3667Y2798D01*
X3707Y2838D01*
X4290D01*
X4297Y2839D01*
X4302Y2843D01*
X4337Y2878D01*
X4408D01*
X4409Y2873D01*
X4404Y2870D01*
X4395Y2864D01*
X4388Y2855D01*
X4384Y2845D01*
X4383Y2834D01*
X4384Y2823D01*
X4388Y2813D01*
X4395Y2804D01*
X4404Y2797D01*
X4414Y2793D01*
X4425Y2791D01*
X4436Y2793D01*
X4446Y2797D01*
X4455Y2804D01*
X4461Y2811D01*
X4525D01*
X4528Y2803D01*
X4535Y2794D01*
X4544Y2787D01*
X4554Y2783D01*
X4565Y2781D01*
X4574Y2783D01*
X4613Y2744D01*
X4620Y2739D01*
X4629Y2738D01*
X4904D01*
X4910Y2730D01*
X4919Y2723D01*
X4929Y2719D01*
X4940Y2718D01*
X4951Y2719D01*
X4961Y2723D01*
X4970Y2730D01*
X4976Y2738D01*
X5069D01*
X5075Y2730D01*
X5084Y2723D01*
X5094Y2719D01*
X5105Y2718D01*
X5116Y2719D01*
X5126Y2723D01*
X5135Y2730D01*
X5141Y2738D01*
X5209D01*
X5215Y2730D01*
X5224Y2723D01*
X5234Y2719D01*
X5245Y2718D01*
X5256Y2719D01*
X5266Y2723D01*
X5275Y2730D01*
X5281Y2738D01*
X5379D01*
X5385Y2730D01*
X5394Y2723D01*
X5404Y2719D01*
X5415Y2718D01*
X5426Y2719D01*
X5436Y2723D01*
X5445Y2730D01*
X5452Y2739D01*
X5456Y2749D01*
X5457Y2760D01*
X5456Y2771D01*
X5452Y2781D01*
X5445Y2790D01*
X5436Y2797D01*
X5426Y2801D01*
X5415Y2802D01*
X5404Y2801D01*
X5394Y2797D01*
X5385Y2790D01*
X5379Y2782D01*
X5281D01*
X5275Y2790D01*
X5266Y2797D01*
X5256Y2801D01*
X5245Y2802D01*
X5234Y2801D01*
X5224Y2797D01*
X5215Y2790D01*
X5209Y2782D01*
X5141D01*
X5135Y2790D01*
X5126Y2797D01*
X5116Y2801D01*
X5105Y2802D01*
X5094Y2801D01*
X5084Y2797D01*
X5075Y2790D01*
X5069Y2782D01*
X4976D01*
X4970Y2790D01*
X4961Y2797D01*
X4951Y2801D01*
X4940Y2802D01*
X4929Y2801D01*
X4919Y2797D01*
X4910Y2790D01*
X4904Y2782D01*
X4638D01*
X4606Y2814D01*
X4607Y2824D01*
X4606Y2835D01*
X4602Y2845D01*
X4595Y2854D01*
X4586Y2860D01*
X4576Y2865D01*
X4565Y2866D01*
X4554Y2865D01*
X4544Y2860D01*
X4538Y2856D01*
X4461D01*
X4455Y2864D01*
X4446Y2870D01*
X4441Y2873D01*
X4442Y2878D01*
X4890D01*
X4897Y2879D01*
X4902Y2883D01*
X4967Y2948D01*
X5282D01*
X5284Y2944D01*
X5290Y2940D01*
X5297Y2937D01*
X5305Y2936D01*
X5313Y2937D01*
X5320Y2940D01*
X5326Y2944D01*
X5330Y2950D01*
X5333Y2957D01*
X5334Y2965D01*
X5333Y2973D01*
X5330Y2980D01*
X5326Y2986D01*
X5320Y2990D01*
X5313Y2993D01*
X5305Y2994D01*
X5297Y2993D01*
X5290Y2990D01*
X5284Y2986D01*
X5282Y2982D01*
X4960D01*
X4953Y2981D01*
X4948Y2977D01*
X4948Y2977D01*
X4883Y2912D01*
X4430D01*
X4428Y2917D01*
X4430Y2920D01*
X4434Y2930D01*
X4435Y2935D01*
X4355D01*
X4356Y2930D01*
X4360Y2920D01*
X4362Y2917D01*
X4360Y2912D01*
X4330D01*
X4323Y2911D01*
X4318Y2907D01*
X4283Y2872D01*
X3700D01*
X3693Y2871D01*
X3688Y2867D01*
X3660Y2840D01*
X3656Y2843D01*
X3656Y2843D01*
X3657Y2845D01*
X3603D01*
X3604Y2843D01*
X3606Y2836D01*
X3610Y2832D01*
X3607Y2827D01*
X3562D01*
X3517Y2872D01*
X3512Y2876D01*
X3505Y2877D01*
X3288D01*
X3284Y2881D01*
Y2903D01*
X3284Y2905D01*
X3288Y2908D01*
X3288Y2908D01*
X3865D01*
X3874Y2909D01*
X3881Y2914D01*
X3939Y2973D01*
X3967D01*
X3970Y2968D01*
X3965Y2961D01*
X3960Y2951D01*
X3959Y2940D01*
X3960Y2929D01*
X3965Y2919D01*
X3971Y2910D01*
X3980Y2903D01*
X3990Y2899D01*
X4001Y2898D01*
X4012Y2899D01*
X4022Y2903D01*
X4031Y2910D01*
X4038Y2919D01*
X4042Y2929D01*
X4044Y2940D01*
X4042Y2951D01*
X4038Y2961D01*
X4033Y2968D01*
X4036Y2973D01*
X4081D01*
X4111Y2942D01*
X4112Y2937D01*
X4115Y2930D01*
X4119Y2924D01*
X4125Y2920D01*
X4132Y2917D01*
X4140Y2916D01*
X4148Y2917D01*
X4155Y2920D01*
X4158Y2923D01*
X4282D01*
X4285Y2920D01*
X4292Y2917D01*
X4300Y2916D01*
X4308Y2917D01*
X4315Y2920D01*
X4321Y2924D01*
X4325Y2930D01*
X4328Y2937D01*
X4329Y2945D01*
X4328Y2953D01*
X4325Y2960D01*
X4321Y2966D01*
X4315Y2970D01*
X4308Y2973D01*
X4300Y2974D01*
X4292Y2973D01*
X4285Y2970D01*
X4282Y2967D01*
X4158D01*
X4155Y2970D01*
X4148Y2973D01*
X4143Y2974D01*
X4106Y3011D01*
X4099Y3016D01*
X4090Y3017D01*
D02*
G37*
G36*
X1220Y2950D02*
X1125D01*
Y2865D01*
X1130D01*
X1148Y2866D01*
X1165Y2871D01*
X1180Y2880D01*
X1194Y2891D01*
X1205Y2905D01*
X1214Y2920D01*
X1219Y2937D01*
X1220Y2950D01*
D02*
G37*
G36*
X3635Y2877D02*
Y2855D01*
X3657D01*
X3656Y2857D01*
X3654Y2864D01*
X3649Y2869D01*
X3644Y2874D01*
X3637Y2876D01*
X3635Y2877D01*
D02*
G37*
G36*
X1360Y3067D02*
X1340Y3066D01*
X1322Y3060D01*
X1304Y3051D01*
X1289Y3038D01*
X1277Y3023D01*
X1268Y3006D01*
X1262Y2987D01*
X1260Y2967D01*
Y2943D01*
X1262Y2923D01*
X1268Y2904D01*
X1277Y2887D01*
X1289Y2872D01*
X1304Y2859D01*
X1322Y2850D01*
X1340Y2844D01*
X1360Y2843D01*
X1380Y2844D01*
X1398Y2850D01*
X1416Y2859D01*
X1431Y2872D01*
X1443Y2887D01*
X1452Y2904D01*
X1458Y2923D01*
X1460Y2943D01*
Y2967D01*
X1458Y2987D01*
X1452Y3006D01*
X1443Y3023D01*
X1431Y3038D01*
X1416Y3051D01*
X1398Y3060D01*
X1380Y3066D01*
X1360Y3067D01*
D02*
G37*
G36*
X2740Y2905D02*
X2728Y2903D01*
X2718Y2899D01*
X2708Y2892D01*
X2701Y2882D01*
X2697Y2872D01*
X2695Y2860D01*
X2697Y2848D01*
X2701Y2838D01*
X2708Y2828D01*
X2718Y2821D01*
X2728Y2817D01*
X2740Y2815D01*
X2752Y2817D01*
X2762Y2821D01*
X2772Y2828D01*
X2779Y2838D01*
X2783Y2848D01*
X2785Y2860D01*
X2783Y2872D01*
X2779Y2882D01*
X2772Y2892D01*
X2762Y2899D01*
X2752Y2903D01*
X2740Y2905D01*
D02*
G37*
G36*
X2640D02*
X2628Y2903D01*
X2618Y2899D01*
X2608Y2892D01*
X2601Y2882D01*
X2597Y2872D01*
X2595Y2860D01*
X2597Y2848D01*
X2601Y2838D01*
X2608Y2828D01*
X2618Y2821D01*
X2628Y2817D01*
X2640Y2815D01*
X2652Y2817D01*
X2662Y2821D01*
X2672Y2828D01*
X2679Y2838D01*
X2683Y2848D01*
X2685Y2860D01*
X2683Y2872D01*
X2679Y2882D01*
X2672Y2892D01*
X2662Y2899D01*
X2652Y2903D01*
X2640Y2905D01*
D02*
G37*
G36*
X2540D02*
X2528Y2903D01*
X2518Y2899D01*
X2508Y2892D01*
X2501Y2882D01*
X2497Y2872D01*
X2495Y2860D01*
X2497Y2848D01*
X2501Y2838D01*
X2508Y2828D01*
X2518Y2821D01*
X2528Y2817D01*
X2540Y2815D01*
X2552Y2817D01*
X2562Y2821D01*
X2572Y2828D01*
X2579Y2838D01*
X2583Y2848D01*
X2585Y2860D01*
X2583Y2872D01*
X2579Y2882D01*
X2572Y2892D01*
X2562Y2899D01*
X2552Y2903D01*
X2540Y2905D01*
D02*
G37*
G36*
X3182Y2855D02*
X3145D01*
Y2818D01*
X3151Y2819D01*
X3161Y2823D01*
X3170Y2830D01*
X3177Y2839D01*
X3181Y2849D01*
X3182Y2855D01*
D02*
G37*
G36*
X3135D02*
X3098D01*
X3099Y2849D01*
X3103Y2839D01*
X3110Y2830D01*
X3119Y2823D01*
X3129Y2819D01*
X3135Y2818D01*
Y2855D01*
D02*
G37*
G36*
X2840Y2905D02*
X2828Y2903D01*
X2818Y2899D01*
X2808Y2892D01*
X2801Y2882D01*
X2797Y2872D01*
X2795Y2860D01*
X2797Y2848D01*
X2801Y2838D01*
X2808Y2828D01*
X2818Y2821D01*
X2828Y2817D01*
X2840Y2815D01*
X2852Y2817D01*
X2862Y2821D01*
X2872Y2828D01*
X2879Y2838D01*
X2883Y2848D01*
X2885Y2860D01*
X2883Y2872D01*
X2879Y2882D01*
X2872Y2892D01*
X2862Y2899D01*
X2852Y2903D01*
X2840Y2905D01*
D02*
G37*
G36*
X1085Y1252D02*
X1083Y1251D01*
X1076Y1249D01*
X1071Y1244D01*
X1066Y1239D01*
X1064Y1232D01*
X1063Y1230D01*
X1085D01*
Y1252D01*
D02*
G37*
G36*
X3510Y1287D02*
X3499Y1286D01*
X3489Y1282D01*
X3480Y1275D01*
X3473Y1266D01*
X3469Y1256D01*
X3468Y1245D01*
X3469Y1234D01*
X3473Y1224D01*
X3480Y1215D01*
X3489Y1208D01*
X3499Y1204D01*
X3510Y1203D01*
X3521Y1204D01*
X3531Y1208D01*
X3540Y1215D01*
X3547Y1224D01*
X3551Y1234D01*
X3552Y1245D01*
X3551Y1256D01*
X3547Y1266D01*
X3540Y1275D01*
X3531Y1282D01*
X3521Y1286D01*
X3510Y1287D01*
D02*
G37*
G36*
X3116Y1287D02*
X3105Y1286D01*
X3095Y1282D01*
X3086Y1275D01*
X3080Y1266D01*
X3075Y1256D01*
X3074Y1245D01*
X3075Y1234D01*
X3077Y1230D01*
X3055Y1208D01*
X2982D01*
Y1127D01*
Y1052D01*
X3068D01*
Y1075D01*
X3101D01*
X3104Y1073D01*
X3114Y1069D01*
X3125Y1068D01*
X3136Y1069D01*
X3146Y1073D01*
X3155Y1080D01*
X3162Y1089D01*
X3166Y1099D01*
X3167Y1110D01*
X3166Y1121D01*
X3162Y1131D01*
X3155Y1140D01*
X3146Y1147D01*
X3136Y1151D01*
X3125Y1152D01*
X3114Y1151D01*
X3104Y1147D01*
X3095Y1140D01*
X3088Y1131D01*
X3084Y1121D01*
X3083Y1110D01*
X3083Y1110D01*
X3068D01*
Y1127D01*
Y1172D01*
X3101Y1206D01*
X3105Y1204D01*
X3116Y1203D01*
X3127Y1204D01*
X3137Y1208D01*
X3146Y1215D01*
X3153Y1224D01*
X3157Y1234D01*
X3159Y1245D01*
X3157Y1256D01*
X3153Y1266D01*
X3146Y1275D01*
X3137Y1282D01*
X3127Y1286D01*
X3116Y1287D01*
D02*
G37*
G36*
X5690Y1335D02*
X5676Y1333D01*
X5662Y1329D01*
X5650Y1322D01*
X5639Y1313D01*
X5630Y1302D01*
X5623Y1290D01*
X5619Y1276D01*
X5618Y1262D01*
X5619Y1248D01*
X5623Y1234D01*
X5630Y1222D01*
X5639Y1211D01*
X5650Y1202D01*
X5662Y1195D01*
X5676Y1191D01*
X5690Y1190D01*
X5704Y1191D01*
X5718Y1195D01*
X5730Y1202D01*
X5741Y1211D01*
X5750Y1222D01*
X5757Y1234D01*
X5760Y1245D01*
X5929D01*
X5929Y1244D01*
X5935Y1240D01*
X5942Y1237D01*
X5950Y1236D01*
X5958Y1237D01*
X5965Y1240D01*
X5971Y1244D01*
X5975Y1250D01*
X5978Y1257D01*
X5979Y1265D01*
X5978Y1273D01*
X5975Y1280D01*
X5971Y1286D01*
X5965Y1290D01*
X5958Y1293D01*
X5950Y1294D01*
X5942Y1293D01*
X5935Y1290D01*
X5929Y1286D01*
X5925Y1280D01*
X5925Y1279D01*
X5760D01*
X5757Y1290D01*
X5750Y1302D01*
X5741Y1313D01*
X5730Y1322D01*
X5718Y1329D01*
X5704Y1333D01*
X5690Y1335D01*
D02*
G37*
G36*
X1178Y1271D02*
X1144D01*
Y1235D01*
X1178D01*
Y1271D01*
D02*
G37*
G36*
X1095Y1252D02*
Y1230D01*
X1117D01*
X1116Y1232D01*
X1114Y1239D01*
X1109Y1244D01*
X1104Y1249D01*
X1097Y1251D01*
X1095Y1252D01*
D02*
G37*
G36*
X1117Y1220D02*
X1095D01*
Y1198D01*
X1097Y1199D01*
X1104Y1201D01*
X1109Y1206D01*
X1114Y1211D01*
X1116Y1218D01*
X1117Y1220D01*
D02*
G37*
G36*
X1178Y1225D02*
X1144D01*
Y1189D01*
X1178D01*
Y1225D01*
D02*
G37*
G36*
X5385Y1184D02*
X5374Y1182D01*
X5364Y1178D01*
X5355Y1171D01*
X5348Y1162D01*
X5347Y1159D01*
X5263D01*
X5262Y1162D01*
X5255Y1171D01*
X5246Y1178D01*
X5236Y1182D01*
X5225Y1184D01*
X5214Y1182D01*
X5204Y1178D01*
X5195Y1171D01*
X5188Y1162D01*
X5187Y1159D01*
X5051D01*
X5045Y1166D01*
X5036Y1173D01*
X5026Y1177D01*
X5015Y1179D01*
X5004Y1177D01*
X4994Y1173D01*
X4985Y1166D01*
X4978Y1157D01*
X4977Y1154D01*
X4868D01*
X4867Y1157D01*
X4860Y1166D01*
X4851Y1173D01*
X4841Y1177D01*
X4830Y1179D01*
X4819Y1177D01*
X4814Y1175D01*
X4813Y1176D01*
X4806Y1177D01*
X4645D01*
X4638Y1176D01*
X4633Y1172D01*
X4600Y1140D01*
X4596Y1143D01*
X4586Y1147D01*
X4575Y1149D01*
X4564Y1147D01*
X4554Y1143D01*
X4545Y1136D01*
X4538Y1127D01*
X4534Y1117D01*
X4533Y1106D01*
X4534Y1095D01*
X4538Y1085D01*
X4545Y1076D01*
X4554Y1070D01*
X4564Y1065D01*
X4575Y1064D01*
X4586Y1065D01*
X4596Y1070D01*
X4605Y1076D01*
X4612Y1085D01*
X4616Y1095D01*
X4617Y1106D01*
X4617Y1108D01*
X4652Y1143D01*
X4665D01*
X4667Y1138D01*
X4663Y1132D01*
X4659Y1122D01*
X4658Y1111D01*
X4659Y1100D01*
X4663Y1090D01*
X4670Y1081D01*
X4679Y1075D01*
X4689Y1070D01*
X4700Y1069D01*
X4711Y1070D01*
X4721Y1075D01*
X4730Y1081D01*
X4737Y1090D01*
X4741Y1100D01*
X4742Y1111D01*
X4741Y1122D01*
X4737Y1132D01*
X4733Y1138D01*
X4735Y1143D01*
X4785D01*
X4788Y1139D01*
X4788Y1136D01*
X4789Y1125D01*
X4793Y1115D01*
X4800Y1106D01*
X4809Y1100D01*
X4819Y1095D01*
X4830Y1094D01*
X4841Y1095D01*
X4851Y1100D01*
X4860Y1106D01*
X4867Y1115D01*
X4868Y1119D01*
X4977D01*
X4978Y1115D01*
X4985Y1106D01*
X4994Y1100D01*
X5004Y1095D01*
X5015Y1094D01*
X5026Y1095D01*
X5036Y1100D01*
X5045Y1106D01*
X5052Y1115D01*
X5055Y1124D01*
X5187D01*
X5188Y1120D01*
X5195Y1111D01*
X5204Y1105D01*
X5214Y1100D01*
X5225Y1099D01*
X5236Y1100D01*
X5246Y1105D01*
X5255Y1111D01*
X5262Y1120D01*
X5263Y1124D01*
X5347D01*
X5348Y1120D01*
X5355Y1111D01*
X5364Y1105D01*
X5368Y1103D01*
Y1053D01*
X5332D01*
Y1051D01*
X5303D01*
Y1010D01*
Y969D01*
X5332D01*
Y967D01*
X5413D01*
Y1053D01*
X5402D01*
Y1103D01*
X5406Y1105D01*
X5415Y1111D01*
X5422Y1120D01*
X5426Y1130D01*
X5427Y1141D01*
X5426Y1152D01*
X5422Y1162D01*
X5415Y1171D01*
X5406Y1178D01*
X5396Y1182D01*
X5385Y1184D01*
D02*
G37*
G36*
X1625Y1229D02*
X1614Y1227D01*
X1603Y1223D01*
X1594Y1216D01*
X1587Y1207D01*
X1583Y1196D01*
X1581Y1185D01*
X1583Y1174D01*
X1587Y1163D01*
X1594Y1154D01*
X1603Y1147D01*
X1614Y1143D01*
X1625Y1141D01*
X1636Y1143D01*
X1647Y1147D01*
X1656Y1154D01*
X1663Y1163D01*
X2087D01*
X2090Y1160D01*
X2097Y1157D01*
X2105Y1156D01*
X2113Y1157D01*
X2120Y1160D01*
X2123Y1163D01*
X2517D01*
X2520Y1160D01*
X2527Y1157D01*
X2535Y1156D01*
X2543Y1157D01*
X2550Y1160D01*
X2556Y1164D01*
X2560Y1170D01*
X2563Y1177D01*
X2564Y1185D01*
X2563Y1193D01*
X2560Y1200D01*
X2556Y1206D01*
X2550Y1210D01*
X2543Y1213D01*
X2535Y1214D01*
X2527Y1213D01*
X2520Y1210D01*
X2517Y1207D01*
X2123D01*
X2120Y1210D01*
X2113Y1213D01*
X2105Y1214D01*
X2097Y1213D01*
X2090Y1210D01*
X2087Y1207D01*
X1663D01*
X1656Y1216D01*
X1647Y1223D01*
X1636Y1227D01*
X1625Y1229D01*
D02*
G37*
G36*
X1085Y1220D02*
X1063D01*
X1064Y1218D01*
X1066Y1211D01*
X1071Y1206D01*
X1076Y1201D01*
X1083Y1199D01*
X1085Y1198D01*
Y1220D01*
D02*
G37*
G36*
X1530Y1226D02*
Y1190D01*
X1566D01*
X1565Y1196D01*
X1561Y1206D01*
X1555Y1215D01*
X1546Y1221D01*
X1536Y1225D01*
X1530Y1226D01*
D02*
G37*
G36*
X1520D02*
X1514Y1225D01*
X1504Y1221D01*
X1495Y1215D01*
X1489Y1206D01*
X1485Y1196D01*
X1484Y1190D01*
X1520D01*
Y1226D01*
D02*
G37*
G36*
X2640Y1470D02*
X2628Y1468D01*
X2618Y1464D01*
X2608Y1457D01*
X2601Y1447D01*
X2597Y1437D01*
X2595Y1425D01*
X2597Y1413D01*
X2601Y1403D01*
X2608Y1393D01*
X2618Y1386D01*
X2619Y1386D01*
X2620Y1380D01*
X2593Y1352D01*
X2287D01*
X2214Y1426D01*
X2214Y1430D01*
X2213Y1438D01*
X2210Y1445D01*
X2206Y1451D01*
X2200Y1455D01*
X2193Y1458D01*
X2185Y1459D01*
X2177Y1458D01*
X2170Y1455D01*
X2164Y1451D01*
X2160Y1445D01*
X2157Y1438D01*
X2156Y1430D01*
X2157Y1422D01*
X2160Y1415D01*
X2164Y1409D01*
X2170Y1405D01*
X2177Y1402D01*
X2185Y1401D01*
X2189Y1401D01*
X2268Y1323D01*
X2273Y1319D01*
X2280Y1318D01*
X2600D01*
X2607Y1319D01*
X2612Y1323D01*
X2652Y1363D01*
X2656Y1368D01*
X2657Y1375D01*
Y1384D01*
X2662Y1386D01*
X2672Y1393D01*
X2679Y1403D01*
X2683Y1413D01*
X2685Y1425D01*
X2683Y1437D01*
X2679Y1447D01*
X2672Y1457D01*
X2662Y1464D01*
X2652Y1468D01*
X2640Y1470D01*
D02*
G37*
G36*
X3840D02*
X3828Y1468D01*
X3818Y1464D01*
X3808Y1457D01*
X3801Y1447D01*
X3797Y1437D01*
X3795Y1425D01*
X3797Y1413D01*
X3801Y1403D01*
X3808Y1393D01*
X3818Y1386D01*
X3828Y1382D01*
X3840Y1380D01*
X3852Y1382D01*
X3862Y1386D01*
X3872Y1393D01*
X3879Y1403D01*
X3883Y1413D01*
X3885Y1425D01*
X3883Y1437D01*
X3879Y1447D01*
X3872Y1457D01*
X3862Y1464D01*
X3852Y1468D01*
X3840Y1470D01*
D02*
G37*
G36*
X3640D02*
X3628Y1468D01*
X3618Y1464D01*
X3608Y1457D01*
X3601Y1447D01*
X3597Y1437D01*
X3595Y1425D01*
X3597Y1413D01*
X3601Y1403D01*
X3608Y1393D01*
X3618Y1386D01*
X3628Y1382D01*
X3640Y1380D01*
X3652Y1382D01*
X3662Y1386D01*
X3672Y1393D01*
X3679Y1403D01*
X3683Y1413D01*
X3685Y1425D01*
X3683Y1437D01*
X3679Y1447D01*
X3672Y1457D01*
X3662Y1464D01*
X3652Y1468D01*
X3640Y1470D01*
D02*
G37*
G36*
X3540D02*
X3528Y1468D01*
X3518Y1464D01*
X3508Y1457D01*
X3501Y1447D01*
X3497Y1437D01*
X3495Y1425D01*
X3497Y1413D01*
X3501Y1403D01*
X3508Y1393D01*
X3518Y1386D01*
X3528Y1382D01*
X3540Y1380D01*
X3552Y1382D01*
X3562Y1386D01*
X3572Y1393D01*
X3579Y1403D01*
X3583Y1413D01*
X3585Y1425D01*
X3583Y1437D01*
X3579Y1447D01*
X3572Y1457D01*
X3562Y1464D01*
X3552Y1468D01*
X3540Y1470D01*
D02*
G37*
G36*
X2435Y1420D02*
X2398D01*
X2399Y1414D01*
X2403Y1404D01*
X2410Y1395D01*
X2419Y1388D01*
X2429Y1384D01*
X2435Y1383D01*
Y1420D01*
D02*
G37*
G36*
X4240Y1470D02*
X4228Y1468D01*
X4218Y1464D01*
X4208Y1457D01*
X4201Y1447D01*
X4197Y1437D01*
X4195Y1425D01*
X4197Y1413D01*
X4201Y1403D01*
X4208Y1393D01*
X4218Y1386D01*
X4228Y1382D01*
X4240Y1380D01*
X4252Y1382D01*
X4262Y1386D01*
X4272Y1393D01*
X4279Y1403D01*
X4283Y1413D01*
X4285Y1425D01*
X4283Y1437D01*
X4279Y1447D01*
X4272Y1457D01*
X4262Y1464D01*
X4252Y1468D01*
X4240Y1470D01*
D02*
G37*
G36*
X4140D02*
X4128Y1468D01*
X4118Y1464D01*
X4108Y1457D01*
X4101Y1447D01*
X4097Y1437D01*
X4095Y1425D01*
X4097Y1413D01*
X4101Y1403D01*
X4108Y1393D01*
X4118Y1386D01*
X4128Y1382D01*
X4140Y1380D01*
X4152Y1382D01*
X4162Y1386D01*
X4172Y1393D01*
X4179Y1403D01*
X4183Y1413D01*
X4185Y1425D01*
X4183Y1437D01*
X4179Y1447D01*
X4172Y1457D01*
X4162Y1464D01*
X4152Y1468D01*
X4140Y1470D01*
D02*
G37*
G36*
X3440D02*
X3428Y1468D01*
X3418Y1464D01*
X3408Y1457D01*
X3401Y1447D01*
X3397Y1437D01*
X3395Y1425D01*
X3397Y1413D01*
X3401Y1403D01*
X3408Y1393D01*
X3418Y1386D01*
X3428Y1382D01*
X3440Y1380D01*
X3452Y1382D01*
X3462Y1386D01*
X3472Y1393D01*
X3479Y1403D01*
X3483Y1413D01*
X3485Y1425D01*
X3483Y1437D01*
X3479Y1447D01*
X3472Y1457D01*
X3462Y1464D01*
X3452Y1468D01*
X3440Y1470D01*
D02*
G37*
G36*
X2540D02*
X2528Y1468D01*
X2518Y1464D01*
X2508Y1457D01*
X2501Y1447D01*
X2497Y1437D01*
X2495Y1425D01*
X2497Y1413D01*
X2501Y1403D01*
X2508Y1393D01*
X2518Y1386D01*
X2528Y1382D01*
X2540Y1380D01*
X2552Y1382D01*
X2562Y1386D01*
X2572Y1393D01*
X2579Y1403D01*
X2583Y1413D01*
X2585Y1425D01*
X2583Y1437D01*
X2579Y1447D01*
X2572Y1457D01*
X2562Y1464D01*
X2552Y1468D01*
X2540Y1470D01*
D02*
G37*
G36*
X2340D02*
X2328Y1468D01*
X2318Y1464D01*
X2308Y1457D01*
X2301Y1447D01*
X2297Y1437D01*
X2295Y1425D01*
X2297Y1413D01*
X2301Y1403D01*
X2308Y1393D01*
X2318Y1386D01*
X2328Y1382D01*
X2340Y1380D01*
X2352Y1382D01*
X2362Y1386D01*
X2372Y1393D01*
X2379Y1403D01*
X2383Y1413D01*
X2385Y1425D01*
X2383Y1437D01*
X2379Y1447D01*
X2372Y1457D01*
X2362Y1464D01*
X2352Y1468D01*
X2340Y1470D01*
D02*
G37*
G36*
X1406Y1432D02*
X1395Y1431D01*
X1385Y1427D01*
X1376Y1420D01*
X1370Y1411D01*
X1365Y1401D01*
X1364Y1390D01*
X1365Y1381D01*
X1342Y1357D01*
X1203D01*
X1200Y1360D01*
X1193Y1363D01*
X1185Y1364D01*
X1177Y1363D01*
X1170Y1360D01*
X1164Y1356D01*
X1160Y1350D01*
X1157Y1343D01*
X1156Y1335D01*
X1157Y1327D01*
X1160Y1320D01*
X1164Y1314D01*
X1170Y1310D01*
X1177Y1307D01*
X1185Y1306D01*
X1193Y1307D01*
X1200Y1310D01*
X1203Y1313D01*
X1351D01*
X1360Y1314D01*
X1367Y1319D01*
X1379Y1331D01*
X1384Y1329D01*
Y1228D01*
X1382D01*
Y1227D01*
X1377Y1225D01*
X1356Y1246D01*
X1349Y1251D01*
X1340Y1252D01*
X1298D01*
Y1273D01*
X1217D01*
Y1271D01*
X1188D01*
Y1230D01*
Y1189D01*
X1217D01*
Y1187D01*
X1298D01*
Y1208D01*
X1331D01*
X1369Y1169D01*
X1376Y1164D01*
X1382Y1163D01*
Y1142D01*
X1468D01*
Y1228D01*
X1429D01*
Y1354D01*
X1436Y1360D01*
X1443Y1369D01*
X1447Y1379D01*
X1449Y1390D01*
X1447Y1401D01*
X1443Y1411D01*
X1436Y1420D01*
X1427Y1427D01*
X1417Y1431D01*
X1406Y1432D01*
D02*
G37*
G36*
X3340Y1470D02*
X3328Y1468D01*
X3318Y1464D01*
X3308Y1457D01*
X3301Y1447D01*
X3297Y1437D01*
X3295Y1425D01*
X3297Y1413D01*
X3301Y1403D01*
X3308Y1393D01*
X3318Y1386D01*
X3328Y1382D01*
X3340Y1380D01*
X3352Y1382D01*
X3362Y1386D01*
X3372Y1393D01*
X3379Y1403D01*
X3383Y1413D01*
X3385Y1425D01*
X3383Y1437D01*
X3379Y1447D01*
X3372Y1457D01*
X3362Y1464D01*
X3352Y1468D01*
X3340Y1470D01*
D02*
G37*
G36*
X3240D02*
X3228Y1468D01*
X3218Y1464D01*
X3208Y1457D01*
X3201Y1447D01*
X3197Y1437D01*
X3195Y1425D01*
X3197Y1413D01*
X3201Y1403D01*
X3208Y1393D01*
X3218Y1386D01*
X3228Y1382D01*
X3240Y1380D01*
X3252Y1382D01*
X3262Y1386D01*
X3272Y1393D01*
X3279Y1403D01*
X3283Y1413D01*
X3285Y1425D01*
X3283Y1437D01*
X3279Y1447D01*
X3272Y1457D01*
X3262Y1464D01*
X3252Y1468D01*
X3240Y1470D01*
D02*
G37*
G36*
X3140D02*
X3128Y1468D01*
X3118Y1464D01*
X3108Y1457D01*
X3101Y1447D01*
X3097Y1437D01*
X3095Y1425D01*
X3097Y1413D01*
X3101Y1403D01*
X3108Y1393D01*
X3118Y1386D01*
X3128Y1382D01*
X3140Y1380D01*
X3152Y1382D01*
X3162Y1386D01*
X3172Y1393D01*
X3179Y1403D01*
X3183Y1413D01*
X3185Y1425D01*
X3183Y1437D01*
X3179Y1447D01*
X3172Y1457D01*
X3162Y1464D01*
X3152Y1468D01*
X3140Y1470D01*
D02*
G37*
G36*
X3965Y1080D02*
X3878D01*
X3879Y1067D01*
X3884Y1049D01*
X3893Y1033D01*
X3904Y1019D01*
X3918Y1008D01*
X3934Y999D01*
X3952Y994D01*
X3965Y993D01*
Y1080D01*
D02*
G37*
G36*
X5242Y1005D02*
X5220D01*
Y983D01*
X5222Y984D01*
X5229Y986D01*
X5234Y991D01*
X5239Y996D01*
X5241Y1003D01*
X5242Y1005D01*
D02*
G37*
G36*
X5210D02*
X5188D01*
X5189Y1003D01*
X5191Y996D01*
X5196Y991D01*
X5201Y986D01*
X5208Y984D01*
X5210Y983D01*
Y1005D01*
D02*
G37*
G36*
X5782Y1080D02*
X5695D01*
Y993D01*
X5708Y994D01*
X5726Y999D01*
X5742Y1008D01*
X5756Y1019D01*
X5767Y1033D01*
X5776Y1049D01*
X5781Y1067D01*
X5782Y1080D01*
D02*
G37*
G36*
X5685D02*
X5598D01*
X5599Y1067D01*
X5604Y1049D01*
X5613Y1033D01*
X5624Y1019D01*
X5638Y1008D01*
X5654Y999D01*
X5672Y994D01*
X5685Y993D01*
Y1080D01*
D02*
G37*
G36*
X4062D02*
X3975D01*
Y993D01*
X3988Y994D01*
X4006Y999D01*
X4022Y1008D01*
X4036Y1019D01*
X4047Y1033D01*
X4056Y1049D01*
X4061Y1067D01*
X4062Y1080D01*
D02*
G37*
G36*
X5293Y1005D02*
X5259D01*
Y969D01*
X5293D01*
Y1005D01*
D02*
G37*
G36*
X5523Y1021D02*
X5511Y1019D01*
X5500Y1016D01*
X5490Y1010D01*
X5481Y1003D01*
X5473Y994D01*
X5468Y984D01*
X5464Y973D01*
X5463Y961D01*
X5464Y949D01*
X5468Y938D01*
X5473Y928D01*
X5481Y919D01*
X5490Y911D01*
X5500Y906D01*
X5511Y903D01*
X5523Y901D01*
X5534Y903D01*
X5545Y906D01*
X5556Y911D01*
X5565Y919D01*
X5572Y928D01*
X5578Y938D01*
X5581Y949D01*
X5582Y961D01*
X5581Y973D01*
X5578Y984D01*
X5572Y994D01*
X5565Y1003D01*
X5556Y1010D01*
X5545Y1016D01*
X5534Y1019D01*
X5523Y1021D01*
D02*
G37*
G36*
X4137D02*
X4126Y1019D01*
X4115Y1016D01*
X4104Y1010D01*
X4095Y1003D01*
X4088Y994D01*
X4082Y984D01*
X4079Y973D01*
X4078Y961D01*
X4079Y949D01*
X4082Y938D01*
X4088Y928D01*
X4095Y919D01*
X4104Y911D01*
X4115Y906D01*
X4126Y903D01*
X4137Y901D01*
X4149Y903D01*
X4160Y906D01*
X4170Y911D01*
X4179Y919D01*
X4187Y928D01*
X4192Y938D01*
X4196Y949D01*
X4197Y961D01*
X4196Y973D01*
X4192Y984D01*
X4187Y994D01*
X4179Y1003D01*
X4170Y1010D01*
X4160Y1016D01*
X4149Y1019D01*
X4137Y1021D01*
D02*
G37*
G36*
X3803D02*
X3791Y1019D01*
X3780Y1016D01*
X3770Y1010D01*
X3761Y1003D01*
X3753Y994D01*
X3748Y984D01*
X3744Y973D01*
X3743Y961D01*
X3744Y949D01*
X3748Y938D01*
X3753Y928D01*
X3761Y919D01*
X3770Y911D01*
X3780Y906D01*
X3791Y903D01*
X3803Y901D01*
X3814Y903D01*
X3825Y906D01*
X3836Y911D01*
X3845Y919D01*
X3852Y928D01*
X3858Y938D01*
X3861Y949D01*
X3862Y961D01*
X3861Y973D01*
X3858Y984D01*
X3852Y994D01*
X3845Y1003D01*
X3836Y1010D01*
X3825Y1016D01*
X3814Y1019D01*
X3803Y1021D01*
D02*
G37*
G36*
X1802Y990D02*
X1780D01*
Y968D01*
X1782Y969D01*
X1789Y971D01*
X1794Y976D01*
X1799Y981D01*
X1801Y988D01*
X1802Y990D01*
D02*
G37*
G36*
X1770D02*
X1748D01*
X1749Y988D01*
X1751Y981D01*
X1756Y976D01*
X1761Y971D01*
X1768Y969D01*
X1770Y968D01*
Y990D01*
D02*
G37*
G36*
X5857Y1021D02*
X5846Y1019D01*
X5835Y1016D01*
X5824Y1010D01*
X5815Y1003D01*
X5808Y994D01*
X5802Y984D01*
X5799Y973D01*
X5798Y961D01*
X5799Y949D01*
X5802Y938D01*
X5808Y928D01*
X5815Y919D01*
X5824Y911D01*
X5835Y906D01*
X5846Y903D01*
X5857Y901D01*
X5869Y903D01*
X5880Y906D01*
X5890Y911D01*
X5899Y919D01*
X5907Y928D01*
X5912Y938D01*
X5916Y949D01*
X5917Y961D01*
X5916Y973D01*
X5912Y984D01*
X5907Y994D01*
X5899Y1003D01*
X5890Y1010D01*
X5880Y1016D01*
X5869Y1019D01*
X5857Y1021D01*
D02*
G37*
G36*
X1770Y1022D02*
X1768Y1021D01*
X1761Y1019D01*
X1756Y1014D01*
X1751Y1009D01*
X1749Y1002D01*
X1748Y1000D01*
X1770D01*
Y1022D01*
D02*
G37*
G36*
X5685Y1177D02*
X5672Y1176D01*
X5654Y1171D01*
X5638Y1162D01*
X5624Y1151D01*
X5613Y1137D01*
X5604Y1121D01*
X5599Y1103D01*
X5598Y1090D01*
X5685D01*
Y1177D01*
D02*
G37*
G36*
X3975D02*
Y1090D01*
X4062D01*
X4061Y1103D01*
X4056Y1121D01*
X4047Y1137D01*
X4036Y1151D01*
X4022Y1162D01*
X4006Y1171D01*
X3988Y1176D01*
X3975Y1177D01*
D02*
G37*
G36*
X3965D02*
X3952Y1176D01*
X3934Y1171D01*
X3918Y1162D01*
X3904Y1151D01*
X3893Y1137D01*
X3884Y1121D01*
X3879Y1103D01*
X3878Y1090D01*
X3965D01*
Y1177D01*
D02*
G37*
G36*
X1566Y1180D02*
X1530D01*
Y1144D01*
X1536Y1145D01*
X1546Y1149D01*
X1555Y1155D01*
X1561Y1164D01*
X1565Y1174D01*
X1566Y1180D01*
D02*
G37*
G36*
X1520D02*
X1484D01*
X1485Y1174D01*
X1489Y1164D01*
X1495Y1155D01*
X1504Y1149D01*
X1514Y1145D01*
X1520Y1144D01*
Y1180D01*
D02*
G37*
G36*
X5695Y1177D02*
Y1090D01*
X5782D01*
X5781Y1103D01*
X5776Y1121D01*
X5767Y1137D01*
X5756Y1151D01*
X5742Y1162D01*
X5726Y1171D01*
X5708Y1176D01*
X5695Y1177D01*
D02*
G37*
G36*
X6195Y1165D02*
X6179Y1164D01*
X6158Y1159D01*
X6139Y1151D01*
X6120Y1140D01*
X6104Y1126D01*
X6090Y1110D01*
X6079Y1091D01*
X6071Y1072D01*
X6066Y1051D01*
X6065Y1035D01*
X6195D01*
Y1165D01*
D02*
G37*
G36*
X5220Y1037D02*
Y1015D01*
X5242D01*
X5241Y1017D01*
X5239Y1024D01*
X5234Y1029D01*
X5229Y1034D01*
X5222Y1036D01*
X5220Y1037D01*
D02*
G37*
G36*
X5210D02*
X5208Y1036D01*
X5201Y1034D01*
X5196Y1029D01*
X5191Y1024D01*
X5189Y1017D01*
X5188Y1015D01*
X5210D01*
Y1037D01*
D02*
G37*
G36*
X1780Y1022D02*
Y1000D01*
X1802D01*
X1801Y1002D01*
X1799Y1009D01*
X1794Y1014D01*
X1789Y1019D01*
X1782Y1021D01*
X1780Y1022D01*
D02*
G37*
G36*
X1155Y1165D02*
Y1035D01*
X1285D01*
X1284Y1051D01*
X1279Y1072D01*
X1271Y1091D01*
X1260Y1110D01*
X1246Y1126D01*
X1230Y1140D01*
X1211Y1151D01*
X1192Y1159D01*
X1171Y1164D01*
X1155Y1165D01*
D02*
G37*
G36*
X3420Y1077D02*
X3410Y1076D01*
X3401Y1072D01*
X3394Y1066D01*
X3388Y1059D01*
X3384Y1050D01*
X3383Y1040D01*
X3383Y1035D01*
X3371Y1022D01*
X2553D01*
X2550Y1025D01*
X2543Y1028D01*
X2535Y1029D01*
X2527Y1028D01*
X2520Y1025D01*
X2514Y1021D01*
X2510Y1015D01*
X2507Y1008D01*
X2506Y1000D01*
X2507Y992D01*
X2510Y985D01*
X2514Y979D01*
X2520Y975D01*
X2527Y972D01*
X2535Y971D01*
X2543Y972D01*
X2550Y975D01*
X2553Y978D01*
X3380D01*
X3389Y979D01*
X3396Y984D01*
X3415Y1003D01*
X3420Y1003D01*
X3430Y1004D01*
X3439Y1008D01*
X3446Y1014D01*
X3452Y1021D01*
X3456Y1030D01*
X3457Y1040D01*
X3456Y1050D01*
X3452Y1059D01*
X3446Y1066D01*
X3439Y1072D01*
X3430Y1076D01*
X3420Y1077D01*
D02*
G37*
G36*
X5293Y1051D02*
X5259D01*
Y1015D01*
X5293D01*
Y1051D01*
D02*
G37*
G36*
X2482Y1420D02*
X2445D01*
Y1383D01*
X2451Y1384D01*
X2461Y1388D01*
X2470Y1395D01*
X2477Y1404D01*
X2481Y1414D01*
X2482Y1420D01*
D02*
G37*
G36*
X1993Y1770D02*
X1965D01*
Y1742D01*
X1969Y1742D01*
X1977Y1746D01*
X1984Y1751D01*
X1989Y1758D01*
X1993Y1766D01*
X1993Y1770D01*
D02*
G37*
G36*
X1955D02*
X1927D01*
X1927Y1766D01*
X1931Y1758D01*
X1936Y1751D01*
X1943Y1746D01*
X1951Y1742D01*
X1955Y1742D01*
Y1770D01*
D02*
G37*
G36*
X4693Y1691D02*
X4659D01*
Y1655D01*
X4693D01*
Y1691D01*
D02*
G37*
G36*
X3526Y1906D02*
X3492D01*
Y1870D01*
X3526D01*
Y1906D01*
D02*
G37*
G36*
X1965Y1808D02*
Y1780D01*
X1993D01*
X1993Y1784D01*
X1989Y1792D01*
X1984Y1799D01*
X1977Y1804D01*
X1969Y1808D01*
X1965Y1808D01*
D02*
G37*
G36*
X1955D02*
X1951Y1808D01*
X1943Y1804D01*
X1936Y1799D01*
X1931Y1792D01*
X1927Y1784D01*
X1927Y1780D01*
X1955D01*
Y1808D01*
D02*
G37*
G36*
X4630Y1677D02*
Y1655D01*
X4652D01*
X4651Y1657D01*
X4649Y1664D01*
X4644Y1669D01*
X4639Y1674D01*
X4632Y1676D01*
X4630Y1677D01*
D02*
G37*
G36*
X5950Y1715D02*
X5940Y1714D01*
X5930Y1710D01*
X5922Y1703D01*
X5915Y1695D01*
X5911Y1685D01*
X5910Y1675D01*
X5911Y1665D01*
X5915Y1655D01*
X5922Y1647D01*
X5930Y1640D01*
X5940Y1636D01*
X5950Y1635D01*
X5960Y1636D01*
X5970Y1640D01*
X5978Y1647D01*
X5985Y1655D01*
X5989Y1665D01*
X5990Y1675D01*
X5989Y1685D01*
X5985Y1695D01*
X5978Y1703D01*
X5970Y1710D01*
X5960Y1714D01*
X5950Y1715D01*
D02*
G37*
G36*
X4652Y1645D02*
X4630D01*
Y1623D01*
X4632Y1624D01*
X4639Y1626D01*
X4644Y1631D01*
X4649Y1636D01*
X4651Y1643D01*
X4652Y1645D01*
D02*
G37*
G36*
X4620D02*
X4598D01*
X4599Y1643D01*
X4601Y1636D01*
X4606Y1631D01*
X4611Y1626D01*
X4618Y1624D01*
X4620Y1623D01*
Y1645D01*
D02*
G37*
G36*
Y1677D02*
X4618Y1676D01*
X4611Y1674D01*
X4606Y1669D01*
X4601Y1664D01*
X4599Y1657D01*
X4598Y1655D01*
X4620D01*
Y1677D01*
D02*
G37*
G36*
X5630Y1687D02*
Y1650D01*
X5667D01*
X5666Y1656D01*
X5662Y1666D01*
X5655Y1675D01*
X5646Y1682D01*
X5636Y1686D01*
X5630Y1687D01*
D02*
G37*
G36*
X5620D02*
X5614Y1686D01*
X5604Y1682D01*
X5595Y1675D01*
X5588Y1666D01*
X5584Y1656D01*
X5583Y1650D01*
X5620D01*
Y1687D01*
D02*
G37*
G36*
X3453Y1908D02*
X3372D01*
Y1882D01*
X3363D01*
X3361Y1886D01*
X3355Y1890D01*
X3348Y1893D01*
X3340Y1894D01*
X3332Y1893D01*
X3325Y1890D01*
X3319Y1886D01*
X3315Y1880D01*
X3312Y1873D01*
X3311Y1865D01*
X3312Y1857D01*
X3315Y1850D01*
X3319Y1844D01*
X3325Y1840D01*
X3332Y1837D01*
X3340Y1836D01*
X3348Y1837D01*
X3355Y1840D01*
X3361Y1844D01*
X3363Y1848D01*
X3369D01*
X3372Y1844D01*
Y1827D01*
X3372Y1822D01*
X3367Y1822D01*
X3367D01*
X2947D01*
X2917Y1852D01*
X2912Y1856D01*
X2905Y1857D01*
X2263D01*
X2261Y1861D01*
X2255Y1865D01*
X2248Y1868D01*
X2240Y1869D01*
X2232Y1868D01*
X2225Y1865D01*
X2219Y1861D01*
X2215Y1855D01*
X2212Y1848D01*
X2211Y1840D01*
X2212Y1832D01*
X2215Y1825D01*
X2219Y1819D01*
X2225Y1815D01*
X2232Y1812D01*
X2240Y1811D01*
X2248Y1812D01*
X2255Y1815D01*
X2261Y1819D01*
X2263Y1823D01*
X2865D01*
X2867Y1818D01*
X2865Y1815D01*
X2862Y1808D01*
X2861Y1800D01*
X2862Y1792D01*
X2865Y1785D01*
X2867Y1782D01*
X2865Y1777D01*
X2813D01*
X2811Y1781D01*
X2805Y1785D01*
X2798Y1788D01*
X2790Y1789D01*
X2782Y1788D01*
X2775Y1785D01*
X2769Y1781D01*
X2765Y1775D01*
X2762Y1768D01*
X2761Y1760D01*
X2762Y1752D01*
X2765Y1745D01*
X2769Y1739D01*
X2772Y1737D01*
X2770Y1732D01*
X2722D01*
X2719Y1735D01*
X2718Y1743D01*
X2715Y1750D01*
X2711Y1756D01*
X2705Y1760D01*
X2698Y1763D01*
X2690Y1764D01*
X2682Y1763D01*
X2675Y1760D01*
X2669Y1756D01*
X2665Y1750D01*
X2662Y1743D01*
X2661Y1735D01*
X2662Y1727D01*
X2665Y1720D01*
X2669Y1714D01*
X2675Y1710D01*
X2681Y1707D01*
X2680Y1702D01*
X2613D01*
X2611Y1706D01*
X2605Y1710D01*
X2598Y1713D01*
X2590Y1714D01*
X2582Y1713D01*
X2575Y1710D01*
X2569Y1706D01*
X2565Y1700D01*
X2562Y1693D01*
X2561Y1685D01*
X2562Y1677D01*
X2565Y1670D01*
X2567Y1667D01*
X2565Y1662D01*
X2458D01*
X2456Y1666D01*
X2450Y1670D01*
X2443Y1673D01*
X2435Y1674D01*
X2427Y1673D01*
X2420Y1670D01*
X2414Y1666D01*
X2410Y1660D01*
X2407Y1653D01*
X2406Y1645D01*
X2407Y1637D01*
X2410Y1630D01*
X2414Y1624D01*
X2420Y1620D01*
X2427Y1617D01*
X2435Y1616D01*
X2443Y1617D01*
X2450Y1620D01*
X2456Y1624D01*
X2458Y1628D01*
X2720D01*
X2722Y1623D01*
X2720Y1620D01*
X2717Y1613D01*
X2716Y1605D01*
X2717Y1597D01*
X2720Y1590D01*
X2724Y1584D01*
X2730Y1580D01*
X2737Y1577D01*
X2745Y1576D01*
X2753Y1577D01*
X2753Y1577D01*
X2799Y1532D01*
X2797Y1527D01*
X2767D01*
X2717Y1577D01*
X2712Y1581D01*
X2705Y1582D01*
X2524D01*
X2523Y1588D01*
X2520Y1595D01*
X2516Y1601D01*
X2510Y1605D01*
X2503Y1608D01*
X2495Y1609D01*
X2487Y1608D01*
X2480Y1605D01*
X2474Y1601D01*
X2470Y1595D01*
X2467Y1588D01*
X2466Y1580D01*
X2467Y1572D01*
X2470Y1565D01*
X2474Y1559D01*
X2480Y1555D01*
X2486Y1552D01*
X2485Y1547D01*
X2422D01*
X2419Y1551D01*
X2419Y1555D01*
X2418Y1563D01*
X2415Y1570D01*
X2411Y1576D01*
X2405Y1580D01*
X2398Y1583D01*
X2390Y1584D01*
X2382Y1583D01*
X2375Y1580D01*
X2369Y1576D01*
X2365Y1570D01*
X2362Y1563D01*
X2361Y1555D01*
X2362Y1547D01*
X2365Y1540D01*
X2369Y1534D01*
X2375Y1530D01*
X2382Y1527D01*
X2390Y1526D01*
X2394Y1526D01*
X2403Y1518D01*
X2408Y1514D01*
X2415Y1513D01*
X2648D01*
X2688Y1473D01*
X2693Y1469D01*
X2700Y1468D01*
X2714D01*
X2716Y1463D01*
X2708Y1457D01*
X2701Y1447D01*
X2697Y1437D01*
X2695Y1425D01*
X2697Y1413D01*
X2701Y1403D01*
X2708Y1393D01*
X2718Y1386D01*
X2728Y1382D01*
X2740Y1380D01*
X2752Y1382D01*
X2762Y1386D01*
X2772Y1393D01*
X2779Y1403D01*
X2783Y1413D01*
X2785Y1425D01*
X2783Y1437D01*
X2779Y1447D01*
X2772Y1457D01*
X2764Y1463D01*
X2766Y1468D01*
X2814D01*
X2816Y1463D01*
X2808Y1457D01*
X2801Y1447D01*
X2797Y1437D01*
X2795Y1425D01*
X2797Y1413D01*
X2801Y1403D01*
X2808Y1393D01*
X2818Y1386D01*
X2828Y1382D01*
X2840Y1380D01*
X2852Y1382D01*
X2862Y1386D01*
X2872Y1393D01*
X2879Y1403D01*
X2883Y1413D01*
X2885Y1425D01*
X2884Y1429D01*
X2889Y1431D01*
X2895Y1425D01*
X2895Y1425D01*
X2897Y1413D01*
X2901Y1403D01*
X2908Y1393D01*
X2918Y1386D01*
X2928Y1382D01*
X2940Y1380D01*
X2952Y1382D01*
X2962Y1386D01*
X2972Y1393D01*
X2979Y1403D01*
X2983Y1413D01*
X2985Y1425D01*
X2983Y1437D01*
X2979Y1447D01*
X2972Y1457D01*
X2962Y1464D01*
X2952Y1468D01*
X2940Y1470D01*
X2928Y1468D01*
X2918Y1464D01*
X2911Y1459D01*
X2881Y1488D01*
X2883Y1493D01*
X2948D01*
X2999Y1442D01*
X2997Y1437D01*
X2995Y1425D01*
X2997Y1413D01*
X3001Y1403D01*
X3008Y1393D01*
X3018Y1386D01*
X3028Y1382D01*
X3040Y1380D01*
X3052Y1382D01*
X3062Y1386D01*
X3072Y1393D01*
X3079Y1403D01*
X3083Y1413D01*
X3085Y1425D01*
X3083Y1437D01*
X3079Y1447D01*
X3072Y1457D01*
X3062Y1464D01*
X3052Y1468D01*
X3040Y1470D01*
X3028Y1468D01*
X3023Y1466D01*
X2988Y1502D01*
X2991Y1506D01*
X2998Y1507D01*
X3005Y1510D01*
X3011Y1514D01*
X3015Y1520D01*
X3018Y1527D01*
X3019Y1535D01*
X3018Y1543D01*
X3016Y1548D01*
X3019Y1553D01*
X3167D01*
X3169Y1549D01*
X3175Y1545D01*
X3182Y1542D01*
X3190Y1541D01*
X3198Y1542D01*
X3205Y1545D01*
X3211Y1549D01*
X3215Y1555D01*
X3218Y1562D01*
X3219Y1570D01*
X3219Y1575D01*
X3223Y1577D01*
X3263Y1538D01*
X3268Y1534D01*
X3275Y1533D01*
X3512D01*
X3514Y1529D01*
X3520Y1525D01*
X3527Y1522D01*
X3535Y1521D01*
X3543Y1522D01*
X3550Y1525D01*
X3556Y1529D01*
X3560Y1535D01*
X3563Y1542D01*
X3564Y1550D01*
X3563Y1558D01*
X3560Y1565D01*
X3556Y1571D01*
X3550Y1575D01*
X3543Y1578D01*
X3535Y1579D01*
X3527Y1578D01*
X3520Y1575D01*
X3514Y1571D01*
X3512Y1567D01*
X3282D01*
X3238Y1612D01*
X3241Y1616D01*
X3248Y1617D01*
X3255Y1620D01*
X3261Y1624D01*
X3265Y1630D01*
X3268Y1637D01*
X3269Y1645D01*
X3268Y1653D01*
X3265Y1660D01*
X3261Y1666D01*
X3255Y1670D01*
X3248Y1673D01*
X3240Y1674D01*
X3236Y1674D01*
X3202Y1707D01*
X3202Y1708D01*
X3203Y1713D01*
X3223D01*
X3311Y1624D01*
X3311Y1620D01*
X3312Y1612D01*
X3315Y1605D01*
X3319Y1599D01*
X3325Y1595D01*
X3332Y1592D01*
X3340Y1591D01*
X3348Y1592D01*
X3355Y1595D01*
X3361Y1599D01*
X3365Y1605D01*
X3368Y1612D01*
X3369Y1620D01*
X3368Y1628D01*
X3365Y1635D01*
X3361Y1641D01*
X3355Y1645D01*
X3348Y1648D01*
X3340Y1649D01*
X3336Y1649D01*
X3242Y1742D01*
X3237Y1746D01*
X3230Y1747D01*
X2937D01*
X2937Y1748D01*
X2940Y1753D01*
X3263D01*
X3396Y1619D01*
X3396Y1615D01*
X3397Y1607D01*
X3400Y1600D01*
X3404Y1594D01*
X3410Y1590D01*
X3417Y1587D01*
X3425Y1586D01*
X3433Y1587D01*
X3440Y1590D01*
X3446Y1594D01*
X3450Y1600D01*
X3453Y1607D01*
X3454Y1615D01*
X3453Y1623D01*
X3450Y1630D01*
X3446Y1636D01*
X3440Y1640D01*
X3433Y1643D01*
X3425Y1644D01*
X3421Y1644D01*
X3282Y1782D01*
X3282Y1783D01*
X3283Y1788D01*
X3518D01*
X3611Y1694D01*
X3611Y1690D01*
X3612Y1682D01*
X3615Y1675D01*
X3619Y1669D01*
X3625Y1665D01*
X3632Y1662D01*
X3640Y1661D01*
X3648Y1662D01*
X3655Y1665D01*
X3661Y1669D01*
X3665Y1675D01*
X3668Y1682D01*
X3669Y1690D01*
X3668Y1698D01*
X3665Y1705D01*
X3661Y1711D01*
X3655Y1715D01*
X3648Y1718D01*
X3640Y1719D01*
X3636Y1719D01*
X3537Y1817D01*
X3532Y1821D01*
X3530Y1821D01*
X3526Y1824D01*
X3526Y1827D01*
Y1827D01*
Y1860D01*
X3487D01*
Y1865D01*
X3482D01*
Y1906D01*
X3453D01*
Y1908D01*
D02*
G37*
G36*
X3940Y2070D02*
X3928Y2068D01*
X3918Y2064D01*
X3908Y2057D01*
X3901Y2047D01*
X3897Y2037D01*
X3895Y2025D01*
X3897Y2013D01*
X3901Y2003D01*
X3908Y1993D01*
X3918Y1986D01*
X3928Y1982D01*
X3940Y1980D01*
X3952Y1982D01*
X3962Y1986D01*
X3972Y1993D01*
X3979Y2003D01*
X3983Y2013D01*
X3985Y2025D01*
X3983Y2037D01*
X3979Y2047D01*
X3972Y2057D01*
X3962Y2064D01*
X3952Y2068D01*
X3940Y2070D01*
D02*
G37*
G36*
X1770Y1967D02*
X1758Y1966D01*
X1748Y1961D01*
X1738Y1954D01*
X1731Y1945D01*
X1729Y1939D01*
X1679D01*
Y1967D01*
X1591D01*
Y1878D01*
X1679D01*
Y1905D01*
X1729D01*
X1731Y1900D01*
X1738Y1890D01*
X1748Y1883D01*
X1758Y1879D01*
X1770Y1877D01*
X1782Y1879D01*
X1792Y1883D01*
X1802Y1890D01*
X1809Y1900D01*
X1813Y1911D01*
X1815Y1922D01*
X1813Y1934D01*
X1809Y1945D01*
X1802Y1954D01*
X1792Y1961D01*
X1782Y1966D01*
X1770Y1967D01*
D02*
G37*
G36*
X5625Y1990D02*
X5613Y1988D01*
X5603Y1984D01*
X5593Y1977D01*
X5586Y1967D01*
X5582Y1957D01*
X5580Y1945D01*
X5582Y1933D01*
X5586Y1923D01*
X5593Y1913D01*
X5603Y1906D01*
X5613Y1902D01*
X5625Y1900D01*
X5637Y1902D01*
X5647Y1906D01*
X5657Y1913D01*
X5664Y1923D01*
X5668Y1933D01*
X5670Y1945D01*
X5668Y1957D01*
X5664Y1967D01*
X5657Y1977D01*
X5647Y1984D01*
X5637Y1988D01*
X5625Y1990D01*
D02*
G37*
G36*
X4282Y2020D02*
X4245D01*
Y1982D01*
X4282D01*
Y2020D01*
D02*
G37*
G36*
X4235D02*
X4198D01*
Y1982D01*
X4235D01*
Y2020D01*
D02*
G37*
G36*
X4040Y2070D02*
X4028Y2068D01*
X4018Y2064D01*
X4008Y2057D01*
X4001Y2047D01*
X3997Y2037D01*
X3995Y2025D01*
X3997Y2013D01*
X4001Y2003D01*
X4008Y1993D01*
X4018Y1986D01*
X4028Y1982D01*
X4040Y1980D01*
X4052Y1982D01*
X4062Y1986D01*
X4072Y1993D01*
X4079Y2003D01*
X4083Y2013D01*
X4085Y2025D01*
X4083Y2037D01*
X4079Y2047D01*
X4072Y2057D01*
X4062Y2064D01*
X4052Y2068D01*
X4040Y2070D01*
D02*
G37*
G36*
X5525Y1990D02*
X5513Y1988D01*
X5503Y1984D01*
X5493Y1977D01*
X5486Y1967D01*
X5482Y1957D01*
X5480Y1945D01*
X5482Y1933D01*
X5484Y1928D01*
X5418Y1862D01*
X4105D01*
X4098Y1861D01*
X4093Y1857D01*
X3844Y1609D01*
X3840Y1609D01*
X3832Y1608D01*
X3825Y1605D01*
X3819Y1601D01*
X3815Y1595D01*
X3812Y1588D01*
X3811Y1580D01*
X3812Y1572D01*
X3815Y1565D01*
X3819Y1559D01*
X3825Y1555D01*
X3831Y1552D01*
X3830Y1547D01*
X3800D01*
X3793Y1546D01*
X3788Y1542D01*
X3728Y1482D01*
X3724Y1477D01*
X3723Y1470D01*
Y1466D01*
X3718Y1464D01*
X3708Y1457D01*
X3701Y1447D01*
X3697Y1437D01*
X3695Y1425D01*
X3697Y1413D01*
X3701Y1403D01*
X3708Y1393D01*
X3718Y1386D01*
X3728Y1382D01*
X3740Y1380D01*
X3752Y1382D01*
X3762Y1386D01*
X3772Y1393D01*
X3779Y1403D01*
X3783Y1413D01*
X3785Y1425D01*
X3783Y1437D01*
X3779Y1447D01*
X3772Y1457D01*
X3764Y1463D01*
X3763Y1469D01*
X3807Y1513D01*
X3970D01*
X3977Y1514D01*
X3982Y1518D01*
X4262Y1798D01*
X5323D01*
X5408Y1713D01*
Y1686D01*
X5403Y1684D01*
X5393Y1677D01*
X5386Y1667D01*
X5382Y1657D01*
X5380Y1645D01*
X5382Y1633D01*
X5386Y1623D01*
X5393Y1613D01*
X5403Y1606D01*
X5413Y1602D01*
X5425Y1600D01*
X5437Y1602D01*
X5447Y1606D01*
X5457Y1613D01*
X5464Y1623D01*
X5468Y1633D01*
X5470Y1645D01*
X5468Y1657D01*
X5464Y1667D01*
X5457Y1677D01*
X5447Y1684D01*
X5442Y1686D01*
Y1720D01*
X5441Y1727D01*
X5437Y1732D01*
X5347Y1823D01*
X5349Y1828D01*
X5425D01*
X5432Y1829D01*
X5437Y1833D01*
X5508Y1904D01*
X5513Y1902D01*
X5525Y1900D01*
X5537Y1902D01*
X5547Y1906D01*
X5557Y1913D01*
X5564Y1923D01*
X5568Y1933D01*
X5570Y1945D01*
X5568Y1957D01*
X5564Y1967D01*
X5557Y1977D01*
X5547Y1984D01*
X5537Y1988D01*
X5525Y1990D01*
D02*
G37*
G36*
X5125D02*
X5113Y1988D01*
X5103Y1984D01*
X5093Y1977D01*
X5086Y1967D01*
X5082Y1957D01*
X5080Y1945D01*
X5082Y1933D01*
X5086Y1923D01*
X5093Y1913D01*
X5103Y1906D01*
X5113Y1902D01*
X5125Y1900D01*
X5137Y1902D01*
X5147Y1906D01*
X5157Y1913D01*
X5164Y1923D01*
X5168Y1933D01*
X5170Y1945D01*
X5168Y1957D01*
X5164Y1967D01*
X5157Y1977D01*
X5147Y1984D01*
X5137Y1988D01*
X5125Y1990D01*
D02*
G37*
G36*
X5025D02*
X5013Y1988D01*
X5003Y1984D01*
X4993Y1977D01*
X4986Y1967D01*
X4982Y1957D01*
X4980Y1945D01*
X4982Y1933D01*
X4986Y1923D01*
X4993Y1913D01*
X5003Y1906D01*
X5013Y1902D01*
X5025Y1900D01*
X5037Y1902D01*
X5047Y1906D01*
X5057Y1913D01*
X5064Y1923D01*
X5068Y1933D01*
X5070Y1945D01*
X5068Y1957D01*
X5064Y1967D01*
X5057Y1977D01*
X5047Y1984D01*
X5037Y1988D01*
X5025Y1990D01*
D02*
G37*
G36*
X4925D02*
X4913Y1988D01*
X4903Y1984D01*
X4893Y1977D01*
X4886Y1967D01*
X4882Y1957D01*
X4880Y1945D01*
X4882Y1933D01*
X4886Y1923D01*
X4893Y1913D01*
X4903Y1906D01*
X4913Y1902D01*
X4925Y1900D01*
X4937Y1902D01*
X4947Y1906D01*
X4957Y1913D01*
X4964Y1923D01*
X4968Y1933D01*
X4970Y1945D01*
X4968Y1957D01*
X4964Y1967D01*
X4957Y1977D01*
X4947Y1984D01*
X4937Y1988D01*
X4925Y1990D01*
D02*
G37*
G36*
X5425D02*
X5413Y1988D01*
X5403Y1984D01*
X5393Y1977D01*
X5386Y1967D01*
X5382Y1957D01*
X5380Y1945D01*
X5382Y1933D01*
X5386Y1923D01*
X5393Y1913D01*
X5403Y1906D01*
X5413Y1902D01*
X5425Y1900D01*
X5437Y1902D01*
X5447Y1906D01*
X5457Y1913D01*
X5464Y1923D01*
X5468Y1933D01*
X5470Y1945D01*
X5468Y1957D01*
X5464Y1967D01*
X5457Y1977D01*
X5447Y1984D01*
X5437Y1988D01*
X5425Y1990D01*
D02*
G37*
G36*
X5325D02*
X5313Y1988D01*
X5303Y1984D01*
X5293Y1977D01*
X5286Y1967D01*
X5282Y1957D01*
X5280Y1945D01*
X5282Y1933D01*
X5286Y1923D01*
X5293Y1913D01*
X5303Y1906D01*
X5313Y1902D01*
X5325Y1900D01*
X5337Y1902D01*
X5347Y1906D01*
X5357Y1913D01*
X5364Y1923D01*
X5368Y1933D01*
X5370Y1945D01*
X5368Y1957D01*
X5364Y1967D01*
X5357Y1977D01*
X5347Y1984D01*
X5337Y1988D01*
X5325Y1990D01*
D02*
G37*
G36*
X5225D02*
X5213Y1988D01*
X5203Y1984D01*
X5193Y1977D01*
X5186Y1967D01*
X5182Y1957D01*
X5180Y1945D01*
X5182Y1933D01*
X5186Y1923D01*
X5193Y1913D01*
X5203Y1906D01*
X5213Y1902D01*
X5225Y1900D01*
X5237Y1902D01*
X5247Y1906D01*
X5257Y1913D01*
X5264Y1923D01*
X5268Y1933D01*
X5270Y1945D01*
X5268Y1957D01*
X5264Y1967D01*
X5257Y1977D01*
X5247Y1984D01*
X5237Y1988D01*
X5225Y1990D01*
D02*
G37*
G36*
X1306Y1520D02*
X1273D01*
Y1486D01*
X1278Y1487D01*
X1287Y1491D01*
X1296Y1497D01*
X1302Y1505D01*
X1306Y1515D01*
X1306Y1520D01*
D02*
G37*
G36*
X1263D02*
X1229D01*
X1230Y1515D01*
X1234Y1505D01*
X1240Y1497D01*
X1248Y1491D01*
X1258Y1487D01*
X1263Y1486D01*
Y1520D01*
D02*
G37*
G36*
X1171Y1566D02*
X1089D01*
Y1484D01*
X1171D01*
Y1566D01*
D02*
G37*
G36*
X5225Y1577D02*
X5214Y1576D01*
X5204Y1572D01*
X5195Y1565D01*
X5188Y1556D01*
X5184Y1546D01*
X5183Y1535D01*
X5184Y1524D01*
X5188Y1514D01*
X5195Y1505D01*
X5204Y1498D01*
X5214Y1494D01*
X5225Y1493D01*
X5236Y1494D01*
X5246Y1498D01*
X5255Y1505D01*
X5262Y1514D01*
X5266Y1524D01*
X5267Y1535D01*
X5266Y1546D01*
X5262Y1556D01*
X5255Y1565D01*
X5246Y1572D01*
X5236Y1576D01*
X5225Y1577D01*
D02*
G37*
G36*
X5015Y1572D02*
X5004Y1571D01*
X4994Y1567D01*
X4985Y1560D01*
X4978Y1551D01*
X4974Y1541D01*
X4973Y1530D01*
X4974Y1519D01*
X4978Y1509D01*
X4985Y1500D01*
X4994Y1493D01*
X5004Y1489D01*
X5015Y1488D01*
X5026Y1489D01*
X5036Y1493D01*
X5045Y1500D01*
X5052Y1509D01*
X5056Y1519D01*
X5057Y1530D01*
X5056Y1541D01*
X5052Y1551D01*
X5045Y1560D01*
X5036Y1567D01*
X5026Y1571D01*
X5015Y1572D01*
D02*
G37*
G36*
X4830D02*
X4819Y1571D01*
X4809Y1567D01*
X4800Y1560D01*
X4793Y1551D01*
X4789Y1541D01*
X4788Y1530D01*
X4789Y1519D01*
X4793Y1509D01*
X4800Y1500D01*
X4809Y1493D01*
X4819Y1489D01*
X4830Y1488D01*
X4841Y1489D01*
X4851Y1493D01*
X4860Y1500D01*
X4867Y1509D01*
X4871Y1519D01*
X4872Y1530D01*
X4871Y1541D01*
X4867Y1551D01*
X4860Y1560D01*
X4851Y1567D01*
X4841Y1571D01*
X4830Y1572D01*
D02*
G37*
G36*
X5950Y1515D02*
X5940Y1514D01*
X5930Y1510D01*
X5922Y1503D01*
X5915Y1495D01*
X5911Y1485D01*
X5910Y1475D01*
X5911Y1465D01*
X5915Y1455D01*
X5922Y1447D01*
X5930Y1440D01*
X5940Y1436D01*
X5950Y1435D01*
X5960Y1436D01*
X5970Y1440D01*
X5978Y1447D01*
X5985Y1455D01*
X5989Y1465D01*
X5990Y1475D01*
X5989Y1485D01*
X5985Y1495D01*
X5978Y1503D01*
X5970Y1510D01*
X5960Y1514D01*
X5950Y1515D01*
D02*
G37*
G36*
X5825Y1429D02*
X5817Y1428D01*
X5810Y1425D01*
X5807Y1422D01*
X4943D01*
X4940Y1425D01*
X4933Y1428D01*
X4925Y1429D01*
X4917Y1428D01*
X4910Y1425D01*
X4904Y1421D01*
X4900Y1415D01*
X4897Y1408D01*
X4896Y1400D01*
X4897Y1392D01*
X4900Y1385D01*
X4904Y1379D01*
X4910Y1375D01*
X4917Y1372D01*
X4925Y1371D01*
X4933Y1372D01*
X4940Y1375D01*
X4943Y1378D01*
X5807D01*
X5810Y1375D01*
X5817Y1372D01*
X5825Y1371D01*
X5833Y1372D01*
X5840Y1375D01*
X5846Y1379D01*
X5850Y1385D01*
X5853Y1392D01*
X5854Y1400D01*
X5853Y1408D01*
X5850Y1415D01*
X5846Y1421D01*
X5840Y1425D01*
X5833Y1428D01*
X5825Y1429D01*
D02*
G37*
G36*
X4040Y1470D02*
X4028Y1468D01*
X4018Y1464D01*
X4008Y1457D01*
X4001Y1447D01*
X3997Y1437D01*
X3995Y1425D01*
X3996Y1420D01*
X3988Y1413D01*
X3984Y1415D01*
X3985Y1425D01*
X3983Y1437D01*
X3979Y1447D01*
X3972Y1457D01*
X3962Y1464D01*
X3952Y1468D01*
X3940Y1470D01*
X3928Y1468D01*
X3918Y1464D01*
X3908Y1457D01*
X3901Y1447D01*
X3897Y1437D01*
X3895Y1425D01*
X3897Y1413D01*
X3901Y1403D01*
X3904Y1399D01*
X3873Y1367D01*
X3000D01*
X2993Y1366D01*
X2988Y1362D01*
X2988Y1362D01*
X2938Y1312D01*
X1883D01*
X1881Y1316D01*
X1875Y1320D01*
X1868Y1323D01*
X1860Y1324D01*
X1852Y1323D01*
X1845Y1320D01*
X1839Y1316D01*
X1835Y1310D01*
X1832Y1303D01*
X1831Y1295D01*
X1832Y1287D01*
X1835Y1280D01*
X1839Y1274D01*
X1845Y1270D01*
X1852Y1267D01*
X1860Y1266D01*
X1868Y1267D01*
X1875Y1270D01*
X1881Y1274D01*
X1883Y1278D01*
X1970D01*
X1972Y1273D01*
X1970Y1270D01*
X1967Y1263D01*
X1966Y1255D01*
X1967Y1247D01*
X1970Y1240D01*
X1974Y1234D01*
X1980Y1230D01*
X1987Y1227D01*
X1995Y1226D01*
X2003Y1227D01*
X2010Y1230D01*
X2016Y1234D01*
X2018Y1238D01*
X2995D01*
X3002Y1239D01*
X3007Y1243D01*
X3062Y1298D01*
X3902D01*
X3905Y1293D01*
X3903Y1290D01*
X3900Y1279D01*
X3671D01*
X3664Y1278D01*
X3659Y1274D01*
X3534Y1149D01*
X3530Y1151D01*
X3519Y1152D01*
X3508Y1151D01*
X3498Y1147D01*
X3489Y1140D01*
X3482Y1131D01*
X3478Y1121D01*
X3476Y1110D01*
X3478Y1099D01*
X3482Y1089D01*
X3489Y1080D01*
X3498Y1073D01*
X3508Y1069D01*
X3519Y1068D01*
X3530Y1069D01*
X3540Y1073D01*
X3549Y1080D01*
X3555Y1089D01*
X3560Y1099D01*
X3561Y1110D01*
X3560Y1121D01*
X3558Y1125D01*
X3678Y1245D01*
X3900D01*
X3903Y1234D01*
X3910Y1222D01*
X3919Y1211D01*
X3930Y1202D01*
X3942Y1195D01*
X3956Y1191D01*
X3970Y1190D01*
X3984Y1191D01*
X3998Y1195D01*
X4010Y1202D01*
X4021Y1211D01*
X4030Y1222D01*
X4037Y1234D01*
X4041Y1248D01*
X4042Y1262D01*
X4041Y1276D01*
X4037Y1290D01*
X4030Y1302D01*
X4021Y1313D01*
X4010Y1322D01*
X3998Y1329D01*
X3984Y1333D01*
X3970Y1335D01*
X3965Y1334D01*
X3963Y1339D01*
X4014Y1389D01*
X4018Y1386D01*
X4028Y1382D01*
X4040Y1380D01*
X4052Y1382D01*
X4062Y1386D01*
X4072Y1393D01*
X4079Y1403D01*
X4083Y1413D01*
X4085Y1425D01*
X4083Y1437D01*
X4079Y1447D01*
X4072Y1457D01*
X4062Y1464D01*
X4052Y1468D01*
X4040Y1470D01*
D02*
G37*
G36*
X1800Y1432D02*
X1789Y1431D01*
X1779Y1427D01*
X1770Y1420D01*
X1764Y1412D01*
X1653D01*
X1650Y1415D01*
X1643Y1418D01*
X1635Y1419D01*
X1627Y1418D01*
X1620Y1415D01*
X1614Y1411D01*
X1610Y1405D01*
X1607Y1398D01*
X1606Y1390D01*
X1607Y1382D01*
X1610Y1375D01*
X1614Y1369D01*
X1620Y1365D01*
X1627Y1362D01*
X1635Y1361D01*
X1643Y1362D01*
X1650Y1365D01*
X1653Y1368D01*
X1764D01*
X1770Y1360D01*
X1779Y1353D01*
X1789Y1349D01*
X1800Y1348D01*
X1811Y1349D01*
X1821Y1353D01*
X1830Y1360D01*
X1837Y1369D01*
X1841Y1379D01*
X1842Y1390D01*
X1841Y1401D01*
X1837Y1411D01*
X1830Y1420D01*
X1821Y1427D01*
X1811Y1431D01*
X1800Y1432D01*
D02*
G37*
G36*
X2445Y1467D02*
Y1430D01*
X2482D01*
X2481Y1436D01*
X2477Y1446D01*
X2470Y1455D01*
X2461Y1462D01*
X2451Y1466D01*
X2445Y1467D01*
D02*
G37*
G36*
X2435D02*
X2429Y1466D01*
X2419Y1462D01*
X2410Y1455D01*
X2403Y1446D01*
X2399Y1436D01*
X2398Y1430D01*
X2435D01*
Y1467D01*
D02*
G37*
G36*
X4700Y1547D02*
X4689Y1546D01*
X4679Y1542D01*
X4670Y1535D01*
X4663Y1526D01*
X4659Y1516D01*
X4658Y1505D01*
X4659Y1494D01*
X4663Y1484D01*
X4670Y1475D01*
X4679Y1468D01*
X4683Y1467D01*
Y1423D01*
X4592D01*
Y1462D01*
X4596Y1463D01*
X4605Y1470D01*
X4612Y1479D01*
X4616Y1489D01*
X4617Y1500D01*
X4616Y1511D01*
X4612Y1521D01*
X4605Y1530D01*
X4596Y1537D01*
X4586Y1541D01*
X4575Y1542D01*
X4564Y1541D01*
X4554Y1537D01*
X4545Y1530D01*
X4538Y1521D01*
X4534Y1511D01*
X4533Y1500D01*
X4534Y1489D01*
X4538Y1479D01*
X4545Y1470D01*
X4554Y1463D01*
X4558Y1462D01*
Y1423D01*
X4557D01*
Y1337D01*
X4713D01*
Y1396D01*
X4716Y1401D01*
X4717Y1408D01*
Y1467D01*
X4721Y1468D01*
X4730Y1475D01*
X4737Y1484D01*
X4741Y1494D01*
X4742Y1505D01*
X4741Y1516D01*
X4737Y1526D01*
X4730Y1535D01*
X4721Y1542D01*
X4711Y1546D01*
X4700Y1547D01*
D02*
G37*
G36*
X5385Y1577D02*
X5374Y1576D01*
X5364Y1572D01*
X5355Y1565D01*
X5348Y1556D01*
X5344Y1546D01*
X5343Y1535D01*
X5344Y1524D01*
X5348Y1514D01*
X5355Y1505D01*
X5364Y1498D01*
X5374Y1494D01*
X5385Y1493D01*
X5396Y1494D01*
X5406Y1498D01*
X5415Y1505D01*
X5422Y1514D01*
X5426Y1524D01*
X5427Y1535D01*
X5426Y1546D01*
X5422Y1556D01*
X5415Y1565D01*
X5406Y1572D01*
X5396Y1576D01*
X5385Y1577D01*
D02*
G37*
G36*
X4813Y1693D02*
X4732D01*
Y1691D01*
X4703D01*
Y1650D01*
Y1609D01*
X4732D01*
Y1607D01*
X4813D01*
Y1628D01*
X4880D01*
Y1600D01*
X4970D01*
Y1689D01*
X4880D01*
Y1662D01*
X4813D01*
Y1693D01*
D02*
G37*
G36*
X5525Y1690D02*
X5513Y1688D01*
X5503Y1684D01*
X5493Y1677D01*
X5486Y1667D01*
X5482Y1657D01*
X5480Y1645D01*
X5482Y1633D01*
X5486Y1623D01*
X5493Y1613D01*
X5503Y1606D01*
X5513Y1602D01*
X5525Y1600D01*
X5537Y1602D01*
X5547Y1606D01*
X5557Y1613D01*
X5564Y1623D01*
X5568Y1633D01*
X5570Y1645D01*
X5568Y1657D01*
X5564Y1667D01*
X5557Y1677D01*
X5547Y1684D01*
X5537Y1688D01*
X5525Y1690D01*
D02*
G37*
G36*
X5325D02*
X5313Y1688D01*
X5303Y1684D01*
X5293Y1677D01*
X5286Y1667D01*
X5282Y1657D01*
X5280Y1645D01*
X5282Y1633D01*
X5286Y1623D01*
X5293Y1613D01*
X5303Y1606D01*
X5313Y1602D01*
X5325Y1600D01*
X5337Y1602D01*
X5347Y1606D01*
X5357Y1613D01*
X5364Y1623D01*
X5368Y1633D01*
X5370Y1645D01*
X5368Y1657D01*
X5364Y1667D01*
X5357Y1677D01*
X5347Y1684D01*
X5337Y1688D01*
X5325Y1690D01*
D02*
G37*
G36*
X4693Y1645D02*
X4659D01*
Y1609D01*
X4693D01*
Y1645D01*
D02*
G37*
G36*
X5667Y1640D02*
X5630D01*
Y1603D01*
X5636Y1604D01*
X5646Y1608D01*
X5655Y1615D01*
X5662Y1624D01*
X5666Y1634D01*
X5667Y1640D01*
D02*
G37*
G36*
X5620D02*
X5583D01*
X5584Y1634D01*
X5588Y1624D01*
X5595Y1615D01*
X5604Y1608D01*
X5614Y1604D01*
X5620Y1603D01*
Y1640D01*
D02*
G37*
G36*
X5225Y1690D02*
X5213Y1688D01*
X5203Y1684D01*
X5193Y1677D01*
X5186Y1667D01*
X5182Y1657D01*
X5180Y1645D01*
X5182Y1633D01*
X5186Y1623D01*
X5193Y1613D01*
X5203Y1606D01*
X5213Y1602D01*
X5225Y1600D01*
X5237Y1602D01*
X5247Y1606D01*
X5257Y1613D01*
X5264Y1623D01*
X5268Y1633D01*
X5270Y1645D01*
X5268Y1657D01*
X5264Y1667D01*
X5257Y1677D01*
X5247Y1684D01*
X5237Y1688D01*
X5225Y1690D01*
D02*
G37*
G36*
X5950Y1615D02*
X5940Y1614D01*
X5930Y1610D01*
X5922Y1603D01*
X5915Y1595D01*
X5911Y1585D01*
X5910Y1575D01*
X5911Y1565D01*
X5913Y1562D01*
X5888Y1537D01*
X5508D01*
X5506Y1541D01*
X5500Y1545D01*
X5493Y1548D01*
X5485Y1549D01*
X5477Y1548D01*
X5470Y1545D01*
X5464Y1541D01*
X5460Y1535D01*
X5457Y1528D01*
X5456Y1520D01*
X5457Y1512D01*
X5460Y1505D01*
X5464Y1499D01*
X5470Y1495D01*
X5477Y1492D01*
X5485Y1491D01*
X5493Y1492D01*
X5500Y1495D01*
X5506Y1499D01*
X5508Y1503D01*
X5895D01*
X5902Y1504D01*
X5907Y1508D01*
X5937Y1538D01*
X5940Y1536D01*
X5950Y1535D01*
X5960Y1536D01*
X5970Y1540D01*
X5978Y1547D01*
X5985Y1555D01*
X5989Y1565D01*
X5990Y1575D01*
X5989Y1585D01*
X5985Y1595D01*
X5978Y1603D01*
X5970Y1610D01*
X5960Y1614D01*
X5950Y1615D01*
D02*
G37*
G36*
X1273Y1564D02*
Y1530D01*
X1306D01*
X1306Y1535D01*
X1302Y1545D01*
X1296Y1553D01*
X1287Y1559D01*
X1278Y1563D01*
X1273Y1564D01*
D02*
G37*
G36*
X1263D02*
X1258Y1563D01*
X1248Y1559D01*
X1240Y1553D01*
X1234Y1545D01*
X1230Y1535D01*
X1229Y1530D01*
X1263D01*
Y1564D01*
D02*
G37*
G36*
X5125Y1690D02*
X5113Y1688D01*
X5103Y1684D01*
X5093Y1677D01*
X5086Y1667D01*
X5082Y1657D01*
X5080Y1645D01*
X5082Y1633D01*
X5086Y1623D01*
X5093Y1613D01*
X5103Y1606D01*
X5113Y1602D01*
X5125Y1600D01*
X5137Y1602D01*
X5147Y1606D01*
X5157Y1613D01*
X5164Y1623D01*
X5168Y1633D01*
X5170Y1645D01*
X5168Y1657D01*
X5164Y1667D01*
X5157Y1677D01*
X5147Y1684D01*
X5137Y1688D01*
X5125Y1690D01*
D02*
G37*
G36*
X5025D02*
X5013Y1688D01*
X5003Y1684D01*
X4993Y1677D01*
X4986Y1667D01*
X4982Y1657D01*
X4980Y1645D01*
X4982Y1633D01*
X4986Y1623D01*
X4993Y1613D01*
X5003Y1606D01*
X5013Y1602D01*
X5025Y1600D01*
X5037Y1602D01*
X5047Y1606D01*
X5057Y1613D01*
X5064Y1623D01*
X5068Y1633D01*
X5070Y1645D01*
X5068Y1657D01*
X5064Y1667D01*
X5057Y1677D01*
X5047Y1684D01*
X5037Y1688D01*
X5025Y1690D01*
D02*
G37*
G36*
X1490Y1722D02*
X1479Y1721D01*
X1469Y1717D01*
X1460Y1710D01*
X1453Y1701D01*
X1449Y1691D01*
X1448Y1680D01*
X1449Y1669D01*
X1453Y1659D01*
X1460Y1650D01*
X1469Y1643D01*
X1479Y1639D01*
X1490Y1638D01*
X1501Y1639D01*
X1511Y1643D01*
X1520Y1650D01*
X1520Y1651D01*
X1525Y1651D01*
X1556Y1621D01*
X1561Y1617D01*
X1568Y1616D01*
X1568Y1616D01*
X1621D01*
X1622Y1611D01*
X1613Y1607D01*
X1603Y1600D01*
X1596Y1590D01*
X1592Y1579D01*
X1590Y1568D01*
X1592Y1556D01*
X1596Y1545D01*
X1603Y1536D01*
X1613Y1529D01*
X1623Y1524D01*
X1635Y1523D01*
X1647Y1524D01*
X1657Y1529D01*
X1667Y1536D01*
X1674Y1545D01*
X1678Y1556D01*
X1680Y1568D01*
X1678Y1579D01*
X1674Y1590D01*
X1667Y1600D01*
X1657Y1607D01*
X1648Y1611D01*
X1649Y1616D01*
X1698D01*
X1726Y1588D01*
Y1523D01*
X1814D01*
Y1558D01*
X1929D01*
X1929Y1557D01*
X1935Y1550D01*
X1942Y1544D01*
X1951Y1540D01*
X1960Y1539D01*
X1969Y1540D01*
X1978Y1544D01*
X1985Y1550D01*
X1991Y1557D01*
X1995Y1566D01*
X1996Y1575D01*
X1995Y1584D01*
X1991Y1593D01*
X1985Y1600D01*
X1978Y1606D01*
X1969Y1610D01*
X1960Y1611D01*
X1951Y1610D01*
X1942Y1606D01*
X1935Y1600D01*
X1929Y1593D01*
X1929Y1592D01*
X1814D01*
Y1612D01*
X1750D01*
X1717Y1645D01*
X1712Y1649D01*
X1705Y1650D01*
X1575D01*
X1533Y1692D01*
X1529Y1695D01*
X1527Y1701D01*
X1520Y1710D01*
X1511Y1717D01*
X1501Y1721D01*
X1490Y1722D01*
D02*
G37*
G36*
X5238Y5269D02*
X5225Y5268D01*
X5213Y5263D01*
X5203Y5255D01*
X5195Y5245D01*
X5190Y5233D01*
X5189Y5220D01*
X5190Y5207D01*
X5195Y5195D01*
X5203Y5185D01*
X5213Y5177D01*
X5225Y5172D01*
X5238Y5171D01*
X5251Y5172D01*
X5262Y5177D01*
X5273Y5185D01*
X5280Y5195D01*
X5285Y5207D01*
X5287Y5220D01*
X5285Y5233D01*
X5280Y5245D01*
X5273Y5255D01*
X5262Y5263D01*
X5251Y5268D01*
X5238Y5269D01*
D02*
G37*
G36*
X4193Y5263D02*
X4098D01*
Y5168D01*
X4113Y5169D01*
X4131Y5175D01*
X4149Y5184D01*
X4164Y5197D01*
X4177Y5212D01*
X4186Y5230D01*
X4192Y5248D01*
X4193Y5263D01*
D02*
G37*
G36*
X4088D02*
X3993D01*
X3994Y5248D01*
X4000Y5230D01*
X4009Y5212D01*
X4022Y5197D01*
X4037Y5184D01*
X4055Y5175D01*
X4073Y5169D01*
X4088Y5168D01*
Y5263D01*
D02*
G37*
G36*
X4797Y5274D02*
X4784Y5273D01*
X4773Y5268D01*
X4762Y5260D01*
X4755Y5250D01*
X4750Y5238D01*
X4748Y5225D01*
X4750Y5212D01*
X4755Y5200D01*
X4762Y5190D01*
X4773Y5182D01*
X4784Y5177D01*
X4797Y5176D01*
X4810Y5177D01*
X4822Y5182D01*
X4832Y5190D01*
X4840Y5200D01*
X4845Y5212D01*
X4846Y5225D01*
X4845Y5238D01*
X4840Y5250D01*
X4832Y5260D01*
X4822Y5268D01*
X4810Y5273D01*
X4797Y5274D01*
D02*
G37*
G36*
X4443D02*
X4430Y5273D01*
X4418Y5268D01*
X4408Y5260D01*
X4400Y5250D01*
X4395Y5238D01*
X4394Y5225D01*
X4395Y5212D01*
X4400Y5200D01*
X4408Y5190D01*
X4418Y5182D01*
X4430Y5177D01*
X4443Y5176D01*
X4456Y5177D01*
X4467Y5182D01*
X4478Y5190D01*
X4485Y5200D01*
X4490Y5212D01*
X4492Y5225D01*
X4490Y5238D01*
X4485Y5250D01*
X4478Y5260D01*
X4467Y5268D01*
X4456Y5273D01*
X4443Y5274D01*
D02*
G37*
G36*
X5592Y5269D02*
X5579Y5268D01*
X5568Y5263D01*
X5557Y5255D01*
X5550Y5245D01*
X5545Y5233D01*
X5543Y5220D01*
X5545Y5207D01*
X5550Y5195D01*
X5557Y5185D01*
X5568Y5177D01*
X5579Y5172D01*
X5592Y5171D01*
X5605Y5172D01*
X5617Y5177D01*
X5627Y5185D01*
X5635Y5195D01*
X5640Y5207D01*
X5641Y5220D01*
X5640Y5233D01*
X5635Y5245D01*
X5627Y5255D01*
X5617Y5263D01*
X5605Y5268D01*
X5592Y5269D01*
D02*
G37*
G36*
X3209Y5263D02*
X3114D01*
Y5168D01*
X3129Y5169D01*
X3147Y5175D01*
X3165Y5184D01*
X3180Y5197D01*
X3193Y5212D01*
X3202Y5230D01*
X3208Y5248D01*
X3209Y5263D01*
D02*
G37*
G36*
X1849D02*
X1754D01*
Y5168D01*
X1769Y5169D01*
X1787Y5175D01*
X1805Y5184D01*
X1820Y5197D01*
X1833Y5212D01*
X1842Y5230D01*
X1848Y5248D01*
X1849Y5263D01*
D02*
G37*
G36*
X1744D02*
X1649D01*
X1650Y5248D01*
X1656Y5230D01*
X1665Y5212D01*
X1678Y5197D01*
X1693Y5184D01*
X1711Y5175D01*
X1729Y5169D01*
X1744Y5168D01*
Y5263D01*
D02*
G37*
G36*
X3864Y5260D02*
X3770D01*
Y5166D01*
X3864D01*
Y5260D01*
D02*
G37*
G36*
X3104Y5263D02*
X3009D01*
X3010Y5248D01*
X3016Y5230D01*
X3025Y5212D01*
X3038Y5197D01*
X3053Y5184D01*
X3071Y5175D01*
X3089Y5169D01*
X3104Y5168D01*
Y5263D01*
D02*
G37*
G36*
X2833D02*
X2738D01*
Y5168D01*
X2753Y5169D01*
X2771Y5175D01*
X2789Y5184D01*
X2804Y5197D01*
X2817Y5212D01*
X2826Y5230D01*
X2832Y5248D01*
X2833Y5263D01*
D02*
G37*
G36*
X2728D02*
X2633D01*
X2634Y5248D01*
X2640Y5230D01*
X2649Y5212D01*
X2662Y5197D01*
X2677Y5184D01*
X2695Y5175D01*
X2713Y5169D01*
X2728Y5168D01*
Y5263D01*
D02*
G37*
G36*
X2403Y5372D02*
X2391Y5371D01*
X2379Y5366D01*
X2369Y5359D01*
X2362Y5349D01*
X2357Y5337D01*
X2356Y5325D01*
X2357Y5313D01*
X2362Y5301D01*
X2369Y5291D01*
X2379Y5284D01*
X2391Y5279D01*
X2403Y5278D01*
X2415Y5279D01*
X2427Y5284D01*
X2437Y5291D01*
X2444Y5301D01*
X2447Y5308D01*
X2495D01*
X2517Y5285D01*
Y5227D01*
X2519D01*
Y5198D01*
X2601D01*
Y5227D01*
X2603D01*
Y5308D01*
X2544D01*
X2515Y5337D01*
X2509Y5341D01*
X2502Y5342D01*
X2447D01*
X2444Y5349D01*
X2437Y5359D01*
X2427Y5366D01*
X2415Y5371D01*
X2403Y5372D01*
D02*
G37*
G36*
X3114Y5368D02*
Y5273D01*
X3209D01*
X3208Y5288D01*
X3202Y5306D01*
X3193Y5324D01*
X3180Y5339D01*
X3165Y5352D01*
X3147Y5361D01*
X3129Y5367D01*
X3114Y5368D01*
D02*
G37*
G36*
X3104D02*
X3089Y5367D01*
X3071Y5361D01*
X3053Y5352D01*
X3038Y5339D01*
X3025Y5324D01*
X3016Y5306D01*
X3010Y5288D01*
X3009Y5273D01*
X3104D01*
Y5368D01*
D02*
G37*
G36*
X2738D02*
Y5273D01*
X2833D01*
X2832Y5288D01*
X2826Y5306D01*
X2817Y5324D01*
X2804Y5339D01*
X2789Y5352D01*
X2771Y5361D01*
X2753Y5367D01*
X2738Y5368D01*
D02*
G37*
G36*
X2028Y5433D02*
X1947D01*
Y5431D01*
X1918D01*
Y5390D01*
Y5349D01*
X1947D01*
Y5347D01*
X2028D01*
Y5366D01*
X2033Y5368D01*
X2044Y5357D01*
X2038Y5349D01*
X2033Y5337D01*
X2032Y5325D01*
X2033Y5313D01*
X2038Y5301D01*
X2045Y5291D01*
X2055Y5284D01*
X2067Y5279D01*
X2079Y5278D01*
X2091Y5279D01*
X2103Y5284D01*
X2113Y5291D01*
X2120Y5301D01*
X2125Y5313D01*
X2126Y5325D01*
X2125Y5337D01*
X2120Y5349D01*
X2113Y5359D01*
X2103Y5366D01*
X2091Y5371D01*
X2079Y5372D01*
X2077Y5372D01*
X2047Y5402D01*
X2042Y5406D01*
X2035Y5407D01*
X2028D01*
Y5433D01*
D02*
G37*
G36*
X4098Y5368D02*
Y5273D01*
X4193D01*
X4192Y5288D01*
X4186Y5306D01*
X4177Y5324D01*
X4164Y5339D01*
X4149Y5352D01*
X4131Y5361D01*
X4113Y5367D01*
X4098Y5368D01*
D02*
G37*
G36*
X4088D02*
X4073Y5367D01*
X4055Y5361D01*
X4037Y5352D01*
X4022Y5339D01*
X4009Y5324D01*
X4000Y5306D01*
X3994Y5288D01*
X3993Y5273D01*
X4088D01*
Y5368D01*
D02*
G37*
G36*
X2728D02*
X2713Y5367D01*
X2695Y5361D01*
X2677Y5352D01*
X2662Y5339D01*
X2649Y5324D01*
X2640Y5306D01*
X2634Y5288D01*
X2633Y5273D01*
X2728D01*
Y5368D01*
D02*
G37*
G36*
X3945Y5272D02*
X3943Y5271D01*
X3936Y5269D01*
X3931Y5264D01*
X3926Y5259D01*
X3924Y5252D01*
X3923Y5250D01*
X3945D01*
Y5272D01*
D02*
G37*
G36*
X3977Y5240D02*
X3955D01*
Y5218D01*
X3957Y5219D01*
X3964Y5221D01*
X3969Y5226D01*
X3974Y5231D01*
X3976Y5238D01*
X3977Y5240D01*
D02*
G37*
G36*
X3945D02*
X3923D01*
X3924Y5238D01*
X3926Y5231D01*
X3931Y5226D01*
X3936Y5221D01*
X3943Y5219D01*
X3945Y5218D01*
Y5240D01*
D02*
G37*
G36*
X1754Y5368D02*
Y5273D01*
X1849D01*
X1848Y5288D01*
X1842Y5306D01*
X1833Y5324D01*
X1820Y5339D01*
X1805Y5352D01*
X1787Y5361D01*
X1769Y5367D01*
X1754Y5368D01*
D02*
G37*
G36*
X1744D02*
X1729Y5367D01*
X1711Y5361D01*
X1693Y5352D01*
X1678Y5339D01*
X1665Y5324D01*
X1656Y5306D01*
X1650Y5288D01*
X1649Y5273D01*
X1744D01*
Y5368D01*
D02*
G37*
G36*
X3955Y5272D02*
Y5250D01*
X3977D01*
X3976Y5252D01*
X3974Y5259D01*
X3969Y5264D01*
X3964Y5269D01*
X3957Y5271D01*
X3955Y5272D01*
D02*
G37*
G36*
X2105Y5047D02*
X2103Y5046D01*
X2096Y5044D01*
X2091Y5039D01*
X2086Y5034D01*
X2084Y5027D01*
X2083Y5025D01*
X2105D01*
Y5047D01*
D02*
G37*
G36*
X2137Y5015D02*
X2115D01*
Y4993D01*
X2117Y4994D01*
X2124Y4996D01*
X2129Y5001D01*
X2134Y5006D01*
X2136Y5013D01*
X2137Y5015D01*
D02*
G37*
G36*
X2105D02*
X2083D01*
X2084Y5013D01*
X2086Y5006D01*
X2091Y5001D01*
X2096Y4996D01*
X2103Y4994D01*
X2105Y4993D01*
Y5015D01*
D02*
G37*
G36*
X2025Y5260D02*
X2013Y5259D01*
X2001Y5254D01*
X1991Y5247D01*
X1984Y5237D01*
X1979Y5225D01*
X1978Y5213D01*
X1979Y5201D01*
X1984Y5189D01*
X1991Y5179D01*
X2001Y5172D01*
X2008Y5169D01*
Y5143D01*
X1977D01*
Y5062D01*
X1979D01*
Y5033D01*
X2061D01*
Y5062D01*
X2063D01*
Y5143D01*
X2042D01*
Y5169D01*
X2049Y5172D01*
X2059Y5179D01*
X2066Y5189D01*
X2071Y5201D01*
X2072Y5213D01*
X2071Y5225D01*
X2066Y5237D01*
X2059Y5247D01*
X2049Y5254D01*
X2037Y5259D01*
X2025Y5260D01*
D02*
G37*
G36*
X3385D02*
X3373Y5259D01*
X3361Y5254D01*
X3351Y5247D01*
X3344Y5237D01*
X3339Y5225D01*
X3338Y5213D01*
X3339Y5201D01*
X3344Y5189D01*
X3351Y5179D01*
X3361Y5172D01*
X3368Y5169D01*
Y5138D01*
X3342D01*
Y5057D01*
X3344D01*
Y5028D01*
X3426D01*
Y5057D01*
X3428D01*
Y5138D01*
X3402D01*
Y5169D01*
X3409Y5172D01*
X3419Y5179D01*
X3426Y5189D01*
X3431Y5201D01*
X3432Y5213D01*
X3431Y5225D01*
X3426Y5237D01*
X3419Y5247D01*
X3409Y5254D01*
X3397Y5259D01*
X3385Y5260D01*
D02*
G37*
G36*
X2115Y5047D02*
Y5025D01*
X2137D01*
X2136Y5027D01*
X2134Y5034D01*
X2129Y5039D01*
X2124Y5044D01*
X2117Y5046D01*
X2115Y5047D01*
D02*
G37*
G36*
X2061Y5023D02*
X2025D01*
Y4989D01*
X2061D01*
Y5023D01*
D02*
G37*
G36*
X4723Y5019D02*
Y4974D01*
X4768D01*
X4767Y4982D01*
X4762Y4994D01*
X4754Y5005D01*
X4744Y5013D01*
X4731Y5018D01*
X4723Y5019D01*
D02*
G37*
G36*
X4713D02*
X4705Y5018D01*
X4693Y5013D01*
X4683Y5005D01*
X4675Y4994D01*
X4670Y4982D01*
X4669Y4974D01*
X4713D01*
Y5019D01*
D02*
G37*
G36*
X5518Y5014D02*
Y4969D01*
X5563D01*
X5562Y4977D01*
X5557Y4989D01*
X5549Y5000D01*
X5539Y5008D01*
X5526Y5013D01*
X5518Y5014D01*
D02*
G37*
G36*
X2015Y5023D02*
X1979D01*
Y4989D01*
X2015D01*
Y5023D01*
D02*
G37*
G36*
X3426Y5018D02*
X3390D01*
Y4984D01*
X3426D01*
Y5018D01*
D02*
G37*
G36*
X3380D02*
X3344D01*
Y4984D01*
X3380D01*
Y5018D01*
D02*
G37*
G36*
X5430Y5079D02*
X5422Y5078D01*
X5415Y5075D01*
X5409Y5071D01*
X5407Y5067D01*
X4073D01*
X4071Y5071D01*
X4065Y5075D01*
X4058Y5078D01*
X4050Y5079D01*
X4042Y5078D01*
X4035Y5075D01*
X4029Y5071D01*
X4025Y5065D01*
X4022Y5058D01*
X4021Y5050D01*
X4022Y5042D01*
X4025Y5035D01*
X4029Y5029D01*
X4035Y5025D01*
X4042Y5022D01*
X4050Y5021D01*
X4058Y5022D01*
X4065Y5025D01*
X4071Y5029D01*
X4073Y5033D01*
X5407D01*
X5409Y5029D01*
X5415Y5025D01*
X5422Y5022D01*
X5430Y5021D01*
X5438Y5022D01*
X5445Y5025D01*
X5451Y5029D01*
X5455Y5035D01*
X5458Y5042D01*
X5459Y5050D01*
X5458Y5058D01*
X5455Y5065D01*
X5451Y5071D01*
X5445Y5075D01*
X5438Y5078D01*
X5430Y5079D01*
D02*
G37*
G36*
X3493Y5260D02*
X3481Y5259D01*
X3469Y5254D01*
X3459Y5247D01*
X3452Y5237D01*
X3447Y5225D01*
X3446Y5213D01*
X3447Y5201D01*
X3452Y5189D01*
X3459Y5179D01*
X3469Y5172D01*
X3481Y5167D01*
X3493Y5166D01*
X3505Y5167D01*
X3517Y5172D01*
X3527Y5179D01*
X3534Y5189D01*
X3539Y5201D01*
X3540Y5213D01*
X3539Y5225D01*
X3534Y5237D01*
X3527Y5247D01*
X3517Y5254D01*
X3505Y5259D01*
X3493Y5260D01*
D02*
G37*
G36*
X2349D02*
X2337Y5259D01*
X2325Y5254D01*
X2315Y5247D01*
X2308Y5237D01*
X2303Y5225D01*
X2302Y5213D01*
X2303Y5201D01*
X2308Y5189D01*
X2315Y5179D01*
X2325Y5172D01*
X2337Y5167D01*
X2349Y5166D01*
X2361Y5167D01*
X2373Y5172D01*
X2383Y5179D01*
X2390Y5189D01*
X2395Y5201D01*
X2396Y5213D01*
X2395Y5225D01*
X2390Y5237D01*
X2383Y5247D01*
X2373Y5254D01*
X2361Y5259D01*
X2349Y5260D01*
D02*
G37*
G36*
X2241D02*
X2229Y5259D01*
X2217Y5254D01*
X2207Y5247D01*
X2200Y5237D01*
X2195Y5225D01*
X2194Y5213D01*
X2195Y5201D01*
X2200Y5189D01*
X2207Y5179D01*
X2217Y5172D01*
X2229Y5167D01*
X2241Y5166D01*
X2253Y5167D01*
X2265Y5172D01*
X2275Y5179D01*
X2282Y5189D01*
X2287Y5201D01*
X2288Y5213D01*
X2287Y5225D01*
X2282Y5237D01*
X2275Y5247D01*
X2265Y5254D01*
X2253Y5259D01*
X2241Y5260D01*
D02*
G37*
G36*
X2504Y5260D02*
X2410D01*
Y5166D01*
X2504D01*
Y5260D01*
D02*
G37*
G36*
X3709Y5260D02*
X3697Y5259D01*
X3685Y5254D01*
X3675Y5247D01*
X3668Y5237D01*
X3663Y5225D01*
X3662Y5213D01*
X3663Y5201D01*
X3668Y5189D01*
X3675Y5179D01*
X3685Y5172D01*
X3697Y5167D01*
X3709Y5166D01*
X3721Y5167D01*
X3733Y5172D01*
X3743Y5179D01*
X3750Y5189D01*
X3755Y5201D01*
X3756Y5213D01*
X3755Y5225D01*
X3750Y5237D01*
X3743Y5247D01*
X3733Y5254D01*
X3721Y5259D01*
X3709Y5260D01*
D02*
G37*
G36*
X3601D02*
X3589Y5259D01*
X3577Y5254D01*
X3567Y5247D01*
X3560Y5237D01*
X3555Y5225D01*
X3554Y5213D01*
X3555Y5201D01*
X3560Y5189D01*
X3567Y5179D01*
X3577Y5172D01*
X3589Y5167D01*
X3601Y5166D01*
X3613Y5167D01*
X3625Y5172D01*
X3635Y5179D01*
X3642Y5189D01*
X3647Y5201D01*
X3648Y5213D01*
X3647Y5225D01*
X3642Y5237D01*
X3635Y5247D01*
X3625Y5254D01*
X3613Y5259D01*
X3601Y5260D01*
D02*
G37*
G36*
X2133D02*
X2121Y5259D01*
X2109Y5254D01*
X2099Y5247D01*
X2092Y5237D01*
X2087Y5225D01*
X2086Y5213D01*
X2087Y5201D01*
X2092Y5189D01*
X2099Y5179D01*
X2109Y5172D01*
X2121Y5167D01*
X2133Y5166D01*
X2145Y5167D01*
X2157Y5172D01*
X2167Y5179D01*
X2174Y5189D01*
X2179Y5201D01*
X2180Y5213D01*
X2179Y5225D01*
X2174Y5237D01*
X2167Y5247D01*
X2157Y5254D01*
X2145Y5259D01*
X2133Y5260D01*
D02*
G37*
G36*
X2625Y5137D02*
X2623Y5136D01*
X2616Y5134D01*
X2611Y5129D01*
X2606Y5124D01*
X2604Y5117D01*
X2603Y5115D01*
X2625D01*
Y5137D01*
D02*
G37*
G36*
X2657Y5105D02*
X2635D01*
Y5083D01*
X2637Y5084D01*
X2644Y5086D01*
X2649Y5091D01*
X2654Y5096D01*
X2656Y5103D01*
X2657Y5105D01*
D02*
G37*
G36*
X2625D02*
X2603D01*
X2604Y5103D01*
X2606Y5096D01*
X2611Y5091D01*
X2616Y5086D01*
X2623Y5084D01*
X2625Y5083D01*
Y5105D01*
D02*
G37*
G36*
X2601Y5188D02*
X2565D01*
Y5154D01*
X2601D01*
Y5188D01*
D02*
G37*
G36*
X2555D02*
X2519D01*
Y5154D01*
X2555D01*
Y5188D01*
D02*
G37*
G36*
X2635Y5137D02*
Y5115D01*
X2657D01*
X2656Y5117D01*
X2654Y5124D01*
X2649Y5129D01*
X2644Y5134D01*
X2637Y5136D01*
X2635Y5137D01*
D02*
G37*
G36*
X2910Y5549D02*
X2902Y5548D01*
X2895Y5545D01*
X2892Y5542D01*
X2390D01*
X2381Y5541D01*
X2374Y5536D01*
X2342Y5503D01*
X2337Y5496D01*
X2335Y5488D01*
Y5478D01*
X2317D01*
Y5426D01*
X2279Y5388D01*
X2274Y5381D01*
X2273Y5372D01*
Y5367D01*
X2271Y5366D01*
X2261Y5359D01*
X2254Y5349D01*
X2249Y5337D01*
X2248Y5325D01*
X2249Y5313D01*
X2254Y5301D01*
X2261Y5291D01*
X2271Y5284D01*
X2283Y5279D01*
X2295Y5278D01*
X2307Y5279D01*
X2319Y5284D01*
X2329Y5291D01*
X2336Y5301D01*
X2341Y5313D01*
X2342Y5325D01*
X2341Y5337D01*
X2336Y5349D01*
X2329Y5359D01*
X2323Y5363D01*
X2322Y5368D01*
X2347Y5392D01*
X2398D01*
Y5394D01*
X2427D01*
Y5435D01*
Y5476D01*
X2398D01*
Y5478D01*
X2386D01*
X2384Y5483D01*
X2399Y5498D01*
X2892D01*
X2895Y5495D01*
X2902Y5492D01*
X2910Y5491D01*
X2918Y5492D01*
X2925Y5495D01*
X2928Y5498D01*
X3581D01*
X3595Y5483D01*
Y5468D01*
X3577D01*
Y5466D01*
X3548D01*
Y5425D01*
Y5384D01*
X3577D01*
Y5382D01*
X3628D01*
X3633Y5378D01*
Y5367D01*
X3631Y5366D01*
X3621Y5359D01*
X3614Y5349D01*
X3609Y5337D01*
X3608Y5325D01*
X3609Y5313D01*
X3614Y5301D01*
X3621Y5291D01*
X3631Y5284D01*
X3643Y5279D01*
X3655Y5278D01*
X3667Y5279D01*
X3679Y5284D01*
X3689Y5291D01*
X3696Y5301D01*
X3701Y5313D01*
X3702Y5325D01*
X3701Y5337D01*
X3696Y5349D01*
X3689Y5359D01*
X3679Y5366D01*
X3677Y5367D01*
Y5387D01*
X3676Y5396D01*
X3671Y5403D01*
X3658Y5416D01*
Y5468D01*
X3640D01*
Y5493D01*
X3638Y5501D01*
X3633Y5508D01*
X3606Y5536D01*
X3599Y5541D01*
X3590Y5542D01*
X2928D01*
X2925Y5545D01*
X2918Y5548D01*
X2910Y5549D01*
D02*
G37*
G36*
X5508Y5471D02*
X5464D01*
X5465Y5463D01*
X5470Y5451D01*
X5478Y5440D01*
X5488Y5432D01*
X5500Y5427D01*
X5508Y5426D01*
Y5471D01*
D02*
G37*
G36*
X5317Y5528D02*
X5303Y5527D01*
X5290Y5521D01*
X5279Y5513D01*
X5271Y5502D01*
X5266Y5489D01*
X5264Y5476D01*
X5266Y5462D01*
X5271Y5450D01*
X5279Y5439D01*
X5290Y5430D01*
X5303Y5425D01*
X5317Y5423D01*
X5330Y5425D01*
X5343Y5430D01*
X5354Y5439D01*
X5362Y5450D01*
X5367Y5462D01*
X5369Y5476D01*
X5367Y5489D01*
X5362Y5502D01*
X5354Y5513D01*
X5343Y5521D01*
X5330Y5527D01*
X5317Y5528D01*
D02*
G37*
G36*
X3245Y5442D02*
Y5420D01*
X3267D01*
X3266Y5422D01*
X3264Y5429D01*
X3259Y5434D01*
X3254Y5439D01*
X3247Y5441D01*
X3245Y5442D01*
D02*
G37*
G36*
X1862Y5450D02*
X1840D01*
Y5428D01*
X1842Y5429D01*
X1849Y5431D01*
X1854Y5436D01*
X1859Y5441D01*
X1861Y5448D01*
X1862Y5450D01*
D02*
G37*
G36*
X1830D02*
X1808D01*
X1809Y5448D01*
X1811Y5441D01*
X1816Y5436D01*
X1821Y5431D01*
X1828Y5429D01*
X1830Y5428D01*
Y5450D01*
D02*
G37*
G36*
X5563Y5471D02*
X5518D01*
Y5426D01*
X5526Y5427D01*
X5539Y5432D01*
X5549Y5440D01*
X5557Y5451D01*
X5562Y5463D01*
X5563Y5471D01*
D02*
G37*
G36*
X3235Y5442D02*
X3233Y5441D01*
X3226Y5439D01*
X3221Y5434D01*
X3216Y5429D01*
X3214Y5422D01*
X3213Y5420D01*
X3235D01*
Y5442D01*
D02*
G37*
G36*
X3465Y5420D02*
X3443D01*
X3444Y5418D01*
X3446Y5411D01*
X3451Y5406D01*
X3456Y5401D01*
X3463Y5399D01*
X3465Y5398D01*
Y5420D01*
D02*
G37*
G36*
X1908Y5431D02*
X1874D01*
Y5395D01*
X1908D01*
Y5431D01*
D02*
G37*
G36*
X2471Y5430D02*
X2437D01*
Y5394D01*
X2471D01*
Y5430D01*
D02*
G37*
G36*
X2547Y5435D02*
X2525D01*
Y5413D01*
X2527Y5414D01*
X2534Y5416D01*
X2539Y5421D01*
X2544Y5426D01*
X2546Y5433D01*
X2547Y5435D01*
D02*
G37*
G36*
X2515D02*
X2493D01*
X2494Y5433D01*
X2496Y5426D01*
X2501Y5421D01*
X2506Y5416D01*
X2513Y5414D01*
X2515Y5413D01*
Y5435D01*
D02*
G37*
G36*
X3497Y5420D02*
X3475D01*
Y5398D01*
X3477Y5399D01*
X3484Y5401D01*
X3489Y5406D01*
X3494Y5411D01*
X3496Y5418D01*
X3497Y5420D01*
D02*
G37*
G36*
X3465Y5452D02*
X3463Y5451D01*
X3456Y5449D01*
X3451Y5444D01*
X3446Y5439D01*
X3444Y5432D01*
X3443Y5430D01*
X3465D01*
Y5452D01*
D02*
G37*
G36*
X5508Y5526D02*
X5500Y5525D01*
X5488Y5520D01*
X5478Y5512D01*
X5470Y5501D01*
X5465Y5489D01*
X5464Y5481D01*
X5508D01*
Y5526D01*
D02*
G37*
G36*
X1840Y5482D02*
Y5460D01*
X1862D01*
X1861Y5462D01*
X1859Y5469D01*
X1854Y5474D01*
X1849Y5479D01*
X1842Y5481D01*
X1840Y5482D01*
D02*
G37*
G36*
X1830D02*
X1828Y5481D01*
X1821Y5479D01*
X1816Y5474D01*
X1811Y5469D01*
X1809Y5462D01*
X1808Y5460D01*
X1830D01*
Y5482D01*
D02*
G37*
G36*
X4723Y5531D02*
Y5486D01*
X4768D01*
X4767Y5494D01*
X4762Y5506D01*
X4754Y5517D01*
X4744Y5525D01*
X4731Y5530D01*
X4723Y5531D01*
D02*
G37*
G36*
X4713D02*
X4705Y5530D01*
X4693Y5525D01*
X4683Y5517D01*
X4675Y5506D01*
X4670Y5494D01*
X4669Y5486D01*
X4713D01*
Y5531D01*
D02*
G37*
G36*
X5518Y5526D02*
Y5481D01*
X5563D01*
X5562Y5489D01*
X5557Y5501D01*
X5549Y5512D01*
X5539Y5520D01*
X5526Y5525D01*
X5518Y5526D01*
D02*
G37*
G36*
X2525Y5467D02*
Y5445D01*
X2547D01*
X2546Y5447D01*
X2544Y5454D01*
X2539Y5459D01*
X2534Y5464D01*
X2527Y5466D01*
X2525Y5467D01*
D02*
G37*
G36*
X4713Y5476D02*
X4669D01*
X4670Y5468D01*
X4675Y5456D01*
X4683Y5445D01*
X4693Y5437D01*
X4705Y5432D01*
X4713Y5431D01*
Y5476D01*
D02*
G37*
G36*
X3538Y5466D02*
X3504D01*
Y5430D01*
X3538D01*
Y5466D01*
D02*
G37*
G36*
X3475Y5452D02*
Y5430D01*
X3497D01*
X3496Y5432D01*
X3494Y5439D01*
X3489Y5444D01*
X3484Y5449D01*
X3477Y5451D01*
X3475Y5452D01*
D02*
G37*
G36*
X2515Y5467D02*
X2513Y5466D01*
X2506Y5464D01*
X2501Y5459D01*
X2496Y5454D01*
X2494Y5447D01*
X2493Y5445D01*
X2515D01*
Y5467D01*
D02*
G37*
G36*
X2471Y5476D02*
X2437D01*
Y5440D01*
X2471D01*
Y5476D01*
D02*
G37*
G36*
X4768Y5476D02*
X4723D01*
Y5431D01*
X4731Y5432D01*
X4744Y5437D01*
X4754Y5445D01*
X4762Y5456D01*
X4767Y5468D01*
X4768Y5476D01*
D02*
G37*
G36*
X2192Y5370D02*
Y5330D01*
X2232D01*
X2231Y5337D01*
X2226Y5348D01*
X2219Y5357D01*
X2210Y5364D01*
X2199Y5369D01*
X2192Y5370D01*
D02*
G37*
G36*
X2182D02*
X2175Y5369D01*
X2164Y5364D01*
X2155Y5357D01*
X2148Y5348D01*
X2143Y5337D01*
X2142Y5330D01*
X2182D01*
Y5370D01*
D02*
G37*
G36*
X4656Y5360D02*
X4622D01*
Y5324D01*
X4656D01*
Y5360D01*
D02*
G37*
G36*
X3552Y5370D02*
Y5330D01*
X3592D01*
X3591Y5337D01*
X3586Y5348D01*
X3579Y5357D01*
X3570Y5364D01*
X3559Y5369D01*
X3552Y5370D01*
D02*
G37*
G36*
X3542D02*
X3535Y5369D01*
X3524Y5364D01*
X3515Y5357D01*
X3508Y5348D01*
X3503Y5337D01*
X3502Y5330D01*
X3542D01*
Y5370D01*
D02*
G37*
G36*
X3253Y5366D02*
X3219D01*
Y5330D01*
X3253D01*
Y5366D01*
D02*
G37*
G36*
X4522Y5533D02*
X4508Y5532D01*
X4495Y5526D01*
X4484Y5518D01*
X4476Y5507D01*
X4471Y5494D01*
X4469Y5481D01*
X4471Y5467D01*
X4476Y5455D01*
X4484Y5444D01*
X4495Y5435D01*
X4504Y5432D01*
Y5408D01*
X4502D01*
Y5322D01*
X4583D01*
Y5324D01*
X4612D01*
Y5365D01*
Y5406D01*
X4583D01*
Y5408D01*
X4539D01*
Y5432D01*
X4548Y5435D01*
X4559Y5444D01*
X4567Y5455D01*
X4572Y5467D01*
X4574Y5481D01*
X4572Y5494D01*
X4567Y5507D01*
X4559Y5518D01*
X4548Y5526D01*
X4535Y5532D01*
X4522Y5533D01*
D02*
G37*
G36*
X3542Y5320D02*
X3502D01*
X3503Y5313D01*
X3508Y5302D01*
X3515Y5293D01*
X3524Y5286D01*
X3535Y5281D01*
X3542Y5280D01*
Y5320D01*
D02*
G37*
G36*
X2232D02*
X2192D01*
Y5280D01*
X2199Y5281D01*
X2210Y5286D01*
X2219Y5293D01*
X2226Y5302D01*
X2231Y5313D01*
X2232Y5320D01*
D02*
G37*
G36*
X2182D02*
X2142D01*
X2143Y5313D01*
X2148Y5302D01*
X2155Y5293D01*
X2164Y5286D01*
X2175Y5281D01*
X2182Y5280D01*
Y5320D01*
D02*
G37*
G36*
X3986Y5325D02*
X3952D01*
Y5289D01*
X3986D01*
Y5325D01*
D02*
G37*
G36*
X3253Y5320D02*
X3219D01*
Y5284D01*
X3253D01*
Y5320D01*
D02*
G37*
G36*
X3592D02*
X3552D01*
Y5280D01*
X3559Y5281D01*
X3570Y5286D01*
X3579Y5293D01*
X3586Y5302D01*
X3591Y5313D01*
X3592Y5320D01*
D02*
G37*
G36*
X3986Y5371D02*
X3952D01*
Y5335D01*
X3986D01*
Y5371D01*
D02*
G37*
G36*
X4710Y5392D02*
Y5370D01*
X4732D01*
X4731Y5372D01*
X4729Y5379D01*
X4724Y5384D01*
X4719Y5389D01*
X4712Y5391D01*
X4710Y5392D01*
D02*
G37*
G36*
X4700D02*
X4698Y5391D01*
X4691Y5389D01*
X4686Y5384D01*
X4681Y5379D01*
X4679Y5372D01*
X4678Y5370D01*
X4700D01*
Y5392D01*
D02*
G37*
G36*
X4656Y5406D02*
X4622D01*
Y5370D01*
X4656D01*
Y5406D01*
D02*
G37*
G36*
X3267Y5410D02*
X3245D01*
Y5388D01*
X3247Y5389D01*
X3254Y5391D01*
X3259Y5396D01*
X3264Y5401D01*
X3266Y5408D01*
X3267Y5410D01*
D02*
G37*
G36*
X3235D02*
X3213D01*
X3214Y5408D01*
X3216Y5401D01*
X3221Y5396D01*
X3226Y5391D01*
X3233Y5389D01*
X3235Y5388D01*
Y5410D01*
D02*
G37*
G36*
X3538Y5420D02*
X3504D01*
Y5384D01*
X3538D01*
Y5420D01*
D02*
G37*
G36*
X6195Y5485D02*
X6065D01*
X6066Y5469D01*
X6071Y5448D01*
X6079Y5429D01*
X6090Y5410D01*
X6104Y5394D01*
X6120Y5380D01*
X6139Y5369D01*
X6158Y5361D01*
X6179Y5356D01*
X6195Y5355D01*
Y5485D01*
D02*
G37*
G36*
X3439Y5372D02*
X3427Y5371D01*
X3415Y5366D01*
X3405Y5359D01*
X3398Y5349D01*
X3395Y5342D01*
X3373D01*
Y5368D01*
X3292D01*
Y5366D01*
X3263D01*
Y5325D01*
Y5284D01*
X3292D01*
Y5282D01*
X3373D01*
Y5308D01*
X3395D01*
X3398Y5301D01*
X3405Y5291D01*
X3415Y5284D01*
X3427Y5279D01*
X3439Y5278D01*
X3451Y5279D01*
X3463Y5284D01*
X3473Y5291D01*
X3480Y5301D01*
X3485Y5313D01*
X3486Y5325D01*
X3485Y5337D01*
X3480Y5349D01*
X3473Y5359D01*
X3463Y5366D01*
X3451Y5371D01*
X3439Y5372D01*
D02*
G37*
G36*
X4732Y5360D02*
X4710D01*
Y5338D01*
X4712Y5339D01*
X4719Y5341D01*
X4724Y5346D01*
X4729Y5351D01*
X4731Y5358D01*
X4732Y5360D01*
D02*
G37*
G36*
X4700D02*
X4678D01*
X4679Y5358D01*
X4681Y5351D01*
X4686Y5346D01*
X4691Y5341D01*
X4698Y5339D01*
X4700Y5338D01*
Y5360D01*
D02*
G37*
G36*
X1285Y5485D02*
X1155D01*
Y5355D01*
X1171Y5356D01*
X1192Y5361D01*
X1211Y5369D01*
X1230Y5380D01*
X1246Y5394D01*
X1260Y5410D01*
X1271Y5429D01*
X1279Y5448D01*
X1284Y5469D01*
X1285Y5485D01*
D02*
G37*
G36*
X1908Y5385D02*
X1874D01*
Y5349D01*
X1908D01*
Y5385D01*
D02*
G37*
G36*
X3913Y5373D02*
X3832D01*
Y5342D01*
X3807D01*
X3804Y5349D01*
X3797Y5359D01*
X3787Y5366D01*
X3775Y5371D01*
X3763Y5372D01*
X3751Y5371D01*
X3739Y5366D01*
X3729Y5359D01*
X3722Y5349D01*
X3717Y5337D01*
X3716Y5325D01*
X3717Y5313D01*
X3722Y5301D01*
X3729Y5291D01*
X3739Y5284D01*
X3751Y5279D01*
X3763Y5278D01*
X3775Y5279D01*
X3787Y5284D01*
X3797Y5291D01*
X3804Y5301D01*
X3807Y5308D01*
X3832D01*
Y5287D01*
X3913D01*
Y5289D01*
X3942D01*
Y5330D01*
Y5371D01*
X3913D01*
Y5373D01*
D02*
G37*
G36*
X5132Y3646D02*
X5087D01*
X5088Y3638D01*
X5093Y3626D01*
X5101Y3615D01*
X5111Y3607D01*
X5124Y3602D01*
X5132Y3601D01*
Y3646D01*
D02*
G37*
G36*
X1408Y3601D02*
X1367D01*
X1348Y3582D01*
X1330Y3601D01*
X1288D01*
X1267Y3580D01*
Y3538D01*
X1288Y3518D01*
X1330D01*
X1348Y3536D01*
X1367Y3518D01*
X1408D01*
X1429Y3538D01*
Y3580D01*
X1408Y3601D01*
D02*
G37*
G36*
X3740Y3755D02*
X3728Y3753D01*
X3718Y3749D01*
X3708Y3742D01*
X3701Y3732D01*
X3697Y3722D01*
X3695Y3710D01*
X3697Y3698D01*
X3701Y3688D01*
X3708Y3678D01*
X3718Y3671D01*
X3723Y3669D01*
Y3645D01*
X3724Y3638D01*
X3728Y3633D01*
X3779Y3581D01*
X3785Y3578D01*
X3791Y3576D01*
X4352D01*
X4353Y3573D01*
X4360Y3564D01*
X4369Y3557D01*
X4379Y3553D01*
X4390Y3551D01*
X4401Y3553D01*
X4411Y3557D01*
X4420Y3564D01*
X4427Y3573D01*
X4431Y3583D01*
X4432Y3594D01*
X4431Y3605D01*
X4427Y3615D01*
X4420Y3624D01*
X4411Y3630D01*
X4401Y3635D01*
X4390Y3636D01*
X4379Y3635D01*
X4369Y3630D01*
X4360Y3624D01*
X4353Y3615D01*
X4352Y3611D01*
X3798D01*
X3757Y3652D01*
Y3669D01*
X3762Y3671D01*
X3772Y3678D01*
X3779Y3688D01*
X3783Y3698D01*
X3785Y3710D01*
X3783Y3722D01*
X3779Y3732D01*
X3772Y3742D01*
X3762Y3749D01*
X3752Y3753D01*
X3740Y3755D01*
D02*
G37*
G36*
X5132Y3701D02*
X5124Y3700D01*
X5111Y3695D01*
X5101Y3687D01*
X5093Y3676D01*
X5088Y3664D01*
X5087Y3656D01*
X5132D01*
Y3701D01*
D02*
G37*
G36*
X2540Y3755D02*
X2528Y3753D01*
X2518Y3749D01*
X2508Y3742D01*
X2501Y3732D01*
X2497Y3722D01*
X2495Y3710D01*
X2497Y3698D01*
X2501Y3688D01*
X2508Y3678D01*
X2518Y3671D01*
X2519Y3671D01*
X2520Y3665D01*
X2498Y3642D01*
X1973D01*
X1971Y3646D01*
X1965Y3650D01*
X1958Y3653D01*
X1950Y3654D01*
X1942Y3653D01*
X1935Y3650D01*
X1929Y3646D01*
X1925Y3640D01*
X1922Y3633D01*
X1921Y3625D01*
X1922Y3617D01*
X1925Y3610D01*
X1929Y3604D01*
X1935Y3600D01*
X1942Y3597D01*
X1950Y3596D01*
X1958Y3597D01*
X1965Y3600D01*
X1971Y3604D01*
X1973Y3608D01*
X2505D01*
X2512Y3609D01*
X2517Y3613D01*
X2552Y3648D01*
X2556Y3653D01*
X2557Y3660D01*
Y3669D01*
X2562Y3671D01*
X2572Y3678D01*
X2579Y3688D01*
X2583Y3698D01*
X2585Y3710D01*
X2583Y3722D01*
X2579Y3732D01*
X2572Y3742D01*
X2562Y3749D01*
X2552Y3753D01*
X2540Y3755D01*
D02*
G37*
G36*
X5186Y3646D02*
X5142D01*
Y3601D01*
X5150Y3602D01*
X5162Y3607D01*
X5172Y3615D01*
X5180Y3626D01*
X5185Y3638D01*
X5186Y3646D01*
D02*
G37*
G36*
X4845Y3541D02*
Y3505D01*
X4881D01*
X4880Y3511D01*
X4876Y3521D01*
X4870Y3530D01*
X4861Y3536D01*
X4851Y3540D01*
X4845Y3541D01*
D02*
G37*
G36*
X1304Y3500D02*
X1289D01*
X1269Y3481D01*
Y3466D01*
X1304D01*
Y3500D01*
D02*
G37*
G36*
X2006Y3501D02*
X1972D01*
Y3465D01*
X2006D01*
Y3501D01*
D02*
G37*
G36*
X4881Y3495D02*
X4845D01*
Y3459D01*
X4851Y3460D01*
X4861Y3464D01*
X4870Y3470D01*
X4876Y3479D01*
X4880Y3489D01*
X4881Y3495D01*
D02*
G37*
G36*
X4835Y3541D02*
X4829Y3540D01*
X4819Y3536D01*
X4810Y3530D01*
X4804Y3521D01*
X4800Y3511D01*
X4799Y3505D01*
X4835D01*
Y3541D01*
D02*
G37*
G36*
X5333Y3703D02*
X5320Y3702D01*
X5307Y3696D01*
X5296Y3688D01*
X5288Y3677D01*
X5283Y3664D01*
X5281Y3651D01*
X5283Y3637D01*
X5288Y3625D01*
X5296Y3614D01*
X5307Y3605D01*
X5320Y3600D01*
X5333Y3598D01*
X5347Y3600D01*
X5360Y3605D01*
X5371Y3614D01*
X5379Y3625D01*
X5383Y3634D01*
X5457D01*
X5528Y3562D01*
X5523Y3556D01*
X5519Y3546D01*
X5518Y3535D01*
X5519Y3524D01*
X5523Y3514D01*
X5530Y3505D01*
X5539Y3498D01*
X5549Y3494D01*
X5560Y3493D01*
X5571Y3494D01*
X5581Y3498D01*
X5590Y3505D01*
X5597Y3514D01*
X5601Y3524D01*
X5602Y3535D01*
X5601Y3546D01*
X5597Y3556D01*
X5590Y3565D01*
X5581Y3572D01*
X5571Y3576D01*
X5562Y3577D01*
X5476Y3663D01*
X5471Y3667D01*
X5464Y3668D01*
X5383D01*
X5379Y3677D01*
X5371Y3688D01*
X5360Y3696D01*
X5347Y3702D01*
X5333Y3703D01*
D02*
G37*
G36*
X1408Y3502D02*
X1367D01*
X1347Y3482D01*
X1329Y3500D01*
X1314D01*
Y3461D01*
Y3421D01*
X1329D01*
X1347Y3439D01*
X1367Y3419D01*
X1408D01*
X1429Y3440D01*
Y3482D01*
X1408Y3502D01*
D02*
G37*
G36*
X5142Y3701D02*
Y3656D01*
X5186D01*
X5185Y3664D01*
X5180Y3676D01*
X5172Y3687D01*
X5162Y3695D01*
X5150Y3700D01*
X5142Y3701D01*
D02*
G37*
G36*
X4040Y3755D02*
X4028Y3753D01*
X4018Y3749D01*
X4008Y3742D01*
X4001Y3732D01*
X3997Y3722D01*
X3995Y3710D01*
X3997Y3698D01*
X4001Y3688D01*
X4008Y3678D01*
X4018Y3671D01*
X4028Y3667D01*
X4040Y3665D01*
X4052Y3667D01*
X4062Y3671D01*
X4072Y3678D01*
X4079Y3688D01*
X4083Y3698D01*
X4085Y3710D01*
X4083Y3722D01*
X4079Y3732D01*
X4072Y3742D01*
X4062Y3749D01*
X4052Y3753D01*
X4040Y3755D01*
D02*
G37*
G36*
X3940D02*
X3928Y3753D01*
X3918Y3749D01*
X3908Y3742D01*
X3901Y3732D01*
X3897Y3722D01*
X3895Y3710D01*
X3897Y3698D01*
X3901Y3688D01*
X3908Y3678D01*
X3918Y3671D01*
X3928Y3667D01*
X3940Y3665D01*
X3952Y3667D01*
X3962Y3671D01*
X3972Y3678D01*
X3979Y3688D01*
X3983Y3698D01*
X3985Y3710D01*
X3983Y3722D01*
X3979Y3732D01*
X3972Y3742D01*
X3962Y3749D01*
X3952Y3753D01*
X3940Y3755D01*
D02*
G37*
G36*
X3840D02*
X3828Y3753D01*
X3818Y3749D01*
X3808Y3742D01*
X3801Y3732D01*
X3797Y3722D01*
X3795Y3710D01*
X3797Y3698D01*
X3801Y3688D01*
X3808Y3678D01*
X3818Y3671D01*
X3828Y3667D01*
X3840Y3665D01*
X3852Y3667D01*
X3862Y3671D01*
X3872Y3678D01*
X3879Y3688D01*
X3883Y3698D01*
X3885Y3710D01*
X3883Y3722D01*
X3879Y3732D01*
X3872Y3742D01*
X3862Y3749D01*
X3852Y3753D01*
X3840Y3755D01*
D02*
G37*
G36*
X1197Y3816D02*
X1163D01*
X1149Y3815D01*
X1136Y3811D01*
X1124Y3805D01*
X1114Y3796D01*
X1105Y3786D01*
X1099Y3774D01*
X1095Y3761D01*
X1094Y3752D01*
X1197D01*
Y3816D01*
D02*
G37*
G36*
X1311Y3742D02*
X1207D01*
Y3678D01*
X1242D01*
X1255Y3679D01*
X1268Y3683D01*
X1280Y3689D01*
X1291Y3698D01*
X1299Y3708D01*
X1306Y3720D01*
X1310Y3733D01*
X1311Y3742D01*
D02*
G37*
G36*
X1197D02*
X1094D01*
X1095Y3733D01*
X1099Y3720D01*
X1105Y3708D01*
X1114Y3698D01*
X1124Y3689D01*
X1136Y3683D01*
X1149Y3679D01*
X1163Y3678D01*
X1197D01*
Y3742D01*
D02*
G37*
G36*
X3640Y3755D02*
X3628Y3753D01*
X3618Y3749D01*
X3608Y3742D01*
X3601Y3732D01*
X3597Y3722D01*
X3595Y3710D01*
X3597Y3698D01*
X3599Y3693D01*
X3318Y3412D01*
X3273D01*
X3272Y3417D01*
X3272Y3418D01*
X3523Y3669D01*
X3528Y3667D01*
X3540Y3665D01*
X3552Y3667D01*
X3562Y3671D01*
X3572Y3678D01*
X3579Y3688D01*
X3583Y3698D01*
X3585Y3710D01*
X3583Y3722D01*
X3579Y3732D01*
X3572Y3742D01*
X3562Y3749D01*
X3552Y3753D01*
X3540Y3755D01*
X3528Y3753D01*
X3518Y3749D01*
X3508Y3742D01*
X3501Y3732D01*
X3497Y3722D01*
X3495Y3710D01*
X3497Y3698D01*
X3499Y3693D01*
X3253Y3447D01*
X3208D01*
X3206Y3452D01*
X3423Y3669D01*
X3428Y3667D01*
X3440Y3665D01*
X3452Y3667D01*
X3462Y3671D01*
X3472Y3678D01*
X3479Y3688D01*
X3483Y3698D01*
X3485Y3710D01*
X3483Y3722D01*
X3479Y3732D01*
X3472Y3742D01*
X3462Y3749D01*
X3452Y3753D01*
X3440Y3755D01*
X3428Y3753D01*
X3418Y3749D01*
X3408Y3742D01*
X3401Y3732D01*
X3397Y3722D01*
X3395Y3710D01*
X3397Y3698D01*
X3399Y3693D01*
X3358Y3653D01*
X3354Y3656D01*
X3356Y3658D01*
X3357Y3665D01*
Y3669D01*
X3362Y3671D01*
X3372Y3678D01*
X3379Y3688D01*
X3383Y3698D01*
X3385Y3710D01*
X3383Y3722D01*
X3379Y3732D01*
X3372Y3742D01*
X3362Y3749D01*
X3352Y3753D01*
X3340Y3755D01*
X3328Y3753D01*
X3318Y3749D01*
X3308Y3742D01*
X3301Y3732D01*
X3297Y3722D01*
X3295Y3710D01*
X3297Y3698D01*
X3301Y3688D01*
X3308Y3678D01*
X3316Y3672D01*
X3317Y3667D01*
X3148Y3497D01*
X3108D01*
X3107Y3502D01*
X3107Y3503D01*
X3252Y3648D01*
X3256Y3653D01*
X3257Y3660D01*
Y3669D01*
X3262Y3671D01*
X3272Y3678D01*
X3279Y3688D01*
X3283Y3698D01*
X3285Y3710D01*
X3283Y3722D01*
X3279Y3732D01*
X3272Y3742D01*
X3262Y3749D01*
X3252Y3753D01*
X3240Y3755D01*
X3228Y3753D01*
X3218Y3749D01*
X3208Y3742D01*
X3201Y3732D01*
X3197Y3722D01*
X3195Y3710D01*
X3197Y3698D01*
X3201Y3688D01*
X3208Y3678D01*
X3218Y3671D01*
X3219Y3671D01*
X3220Y3665D01*
X3088Y3532D01*
X3073D01*
X3072Y3537D01*
X3072Y3538D01*
X3152Y3618D01*
X3156Y3623D01*
X3157Y3630D01*
Y3669D01*
X3162Y3671D01*
X3172Y3678D01*
X3179Y3688D01*
X3183Y3698D01*
X3185Y3710D01*
X3183Y3722D01*
X3179Y3732D01*
X3172Y3742D01*
X3162Y3749D01*
X3152Y3753D01*
X3140Y3755D01*
X3128Y3753D01*
X3118Y3749D01*
X3108Y3742D01*
X3101Y3732D01*
X3097Y3722D01*
X3095Y3710D01*
X3097Y3698D01*
X3101Y3688D01*
X3108Y3678D01*
X3118Y3671D01*
X3123Y3669D01*
Y3637D01*
X3053Y3567D01*
X3004D01*
X3002Y3572D01*
X3052Y3623D01*
X3052Y3623D01*
X3056Y3628D01*
X3057Y3635D01*
Y3669D01*
X3062Y3671D01*
X3072Y3678D01*
X3079Y3688D01*
X3083Y3698D01*
X3085Y3710D01*
X3083Y3722D01*
X3079Y3732D01*
X3072Y3742D01*
X3062Y3749D01*
X3052Y3753D01*
X3040Y3755D01*
X3028Y3753D01*
X3018Y3749D01*
X3008Y3742D01*
X3001Y3732D01*
X2997Y3722D01*
X2995Y3710D01*
X2997Y3698D01*
X3001Y3688D01*
X3008Y3678D01*
X3018Y3671D01*
X3023Y3669D01*
Y3642D01*
X2978Y3597D01*
X2863D01*
X2861Y3601D01*
X2855Y3605D01*
X2848Y3608D01*
X2840Y3609D01*
X2832Y3608D01*
X2825Y3605D01*
X2819Y3601D01*
X2815Y3595D01*
X2812Y3588D01*
X2811Y3580D01*
X2812Y3572D01*
X2815Y3565D01*
X2817Y3562D01*
X2815Y3557D01*
X2763D01*
X2761Y3561D01*
X2755Y3565D01*
X2748Y3568D01*
X2740Y3569D01*
X2732Y3568D01*
X2725Y3565D01*
X2719Y3561D01*
X2715Y3555D01*
X2712Y3548D01*
X2711Y3540D01*
X2712Y3532D01*
X2715Y3525D01*
X2719Y3519D01*
X2722Y3517D01*
X2720Y3512D01*
X2702D01*
X2682Y3532D01*
X2677Y3536D01*
X2670Y3537D01*
X2623D01*
X2621Y3541D01*
X2615Y3545D01*
X2608Y3548D01*
X2600Y3549D01*
X2592Y3548D01*
X2585Y3545D01*
X2579Y3541D01*
X2575Y3535D01*
X2572Y3528D01*
X2571Y3520D01*
X2572Y3512D01*
X2575Y3505D01*
X2579Y3499D01*
X2585Y3495D01*
X2592Y3492D01*
X2600Y3491D01*
X2608Y3492D01*
X2615Y3495D01*
X2621Y3499D01*
X2623Y3503D01*
X2663D01*
X2678Y3487D01*
X2676Y3482D01*
X2527D01*
X2519Y3491D01*
X2519Y3495D01*
X2518Y3503D01*
X2515Y3510D01*
X2511Y3516D01*
X2505Y3520D01*
X2498Y3523D01*
X2490Y3524D01*
X2482Y3523D01*
X2475Y3520D01*
X2469Y3516D01*
X2465Y3510D01*
X2462Y3503D01*
X2461Y3495D01*
X2462Y3487D01*
X2465Y3480D01*
X2469Y3474D01*
X2475Y3470D01*
X2482Y3467D01*
X2490Y3466D01*
X2494Y3466D01*
X2503Y3457D01*
X2501Y3452D01*
X2437D01*
X2419Y3471D01*
X2419Y3475D01*
X2418Y3483D01*
X2415Y3490D01*
X2411Y3496D01*
X2405Y3500D01*
X2398Y3503D01*
X2390Y3504D01*
X2382Y3503D01*
X2375Y3500D01*
X2369Y3496D01*
X2365Y3490D01*
X2362Y3483D01*
X2361Y3475D01*
X2362Y3467D01*
X2365Y3460D01*
X2369Y3454D01*
X2375Y3450D01*
X2382Y3447D01*
X2390Y3446D01*
X2394Y3446D01*
X2418Y3423D01*
X2418Y3422D01*
X2417Y3417D01*
X2387D01*
X2327Y3477D01*
X2322Y3481D01*
X2315Y3482D01*
X2160D01*
X2153Y3481D01*
X2150Y3479D01*
X2145Y3479D01*
X2137Y3478D01*
X2130Y3475D01*
X2124Y3471D01*
X2120Y3465D01*
X2117Y3458D01*
X2116Y3450D01*
X2117Y3442D01*
X2120Y3435D01*
X2124Y3429D01*
X2130Y3425D01*
X2137Y3422D01*
X2145Y3421D01*
X2153Y3422D01*
X2160Y3425D01*
X2166Y3429D01*
X2170Y3435D01*
X2173Y3442D01*
X2174Y3448D01*
X2225D01*
X2227Y3443D01*
X2224Y3441D01*
X2220Y3435D01*
X2217Y3428D01*
X2216Y3420D01*
X2217Y3412D01*
X2220Y3405D01*
X2224Y3399D01*
X2230Y3395D01*
X2237Y3392D01*
X2245Y3391D01*
X2249Y3391D01*
X2293Y3348D01*
X2298Y3344D01*
X2305Y3343D01*
X2910D01*
X2917Y3344D01*
X2922Y3348D01*
X2952Y3378D01*
X3165D01*
X3167Y3373D01*
X3164Y3371D01*
X3162Y3367D01*
X3090D01*
X3083Y3366D01*
X3078Y3362D01*
X3038Y3322D01*
X2338D01*
X2336Y3326D01*
X2330Y3330D01*
X2323Y3333D01*
X2315Y3334D01*
X2307Y3333D01*
X2300Y3330D01*
X2294Y3326D01*
X2290Y3320D01*
X2287Y3313D01*
X2286Y3305D01*
X2287Y3297D01*
X2290Y3290D01*
X2294Y3284D01*
X2300Y3280D01*
X2307Y3277D01*
X2315Y3276D01*
X2323Y3277D01*
X2330Y3280D01*
X2336Y3284D01*
X2338Y3288D01*
X3045D01*
X3052Y3289D01*
X3057Y3293D01*
X3097Y3333D01*
X3162D01*
X3164Y3329D01*
X3170Y3325D01*
X3177Y3322D01*
X3185Y3321D01*
X3193Y3322D01*
X3200Y3325D01*
X3206Y3329D01*
X3210Y3335D01*
X3213Y3342D01*
X3214Y3350D01*
X3213Y3358D01*
X3210Y3365D01*
X3206Y3371D01*
X3203Y3373D01*
X3205Y3378D01*
X3325D01*
X3332Y3379D01*
X3337Y3383D01*
X3623Y3669D01*
X3628Y3667D01*
X3640Y3665D01*
X3652Y3667D01*
X3662Y3671D01*
X3672Y3678D01*
X3679Y3688D01*
X3683Y3698D01*
X3685Y3710D01*
X3683Y3722D01*
X3679Y3732D01*
X3672Y3742D01*
X3662Y3749D01*
X3652Y3753D01*
X3640Y3755D01*
D02*
G37*
G36*
X2180Y3884D02*
X2172Y3883D01*
X2165Y3880D01*
X2159Y3876D01*
X2155Y3870D01*
X2152Y3863D01*
X2151Y3855D01*
X2152Y3847D01*
X2155Y3840D01*
X2159Y3834D01*
X2165Y3830D01*
X2172Y3827D01*
X2180Y3826D01*
X2188Y3827D01*
X2195Y3830D01*
X2201Y3834D01*
X2203Y3838D01*
X2368D01*
X2423Y3783D01*
Y3751D01*
X2418Y3749D01*
X2408Y3742D01*
X2401Y3732D01*
X2397Y3722D01*
X2395Y3710D01*
X2397Y3698D01*
X2401Y3688D01*
X2408Y3678D01*
X2418Y3671D01*
X2428Y3667D01*
X2440Y3665D01*
X2452Y3667D01*
X2462Y3671D01*
X2472Y3678D01*
X2479Y3688D01*
X2483Y3698D01*
X2485Y3710D01*
X2483Y3722D01*
X2479Y3732D01*
X2472Y3742D01*
X2462Y3749D01*
X2457Y3751D01*
Y3790D01*
X2456Y3797D01*
X2452Y3802D01*
X2387Y3867D01*
X2382Y3871D01*
X2375Y3872D01*
X2203D01*
X2201Y3876D01*
X2195Y3880D01*
X2188Y3883D01*
X2180Y3884D01*
D02*
G37*
G36*
X2340Y3755D02*
X2328Y3753D01*
X2318Y3749D01*
X2308Y3742D01*
X2301Y3732D01*
X2297Y3722D01*
X2295Y3710D01*
X2297Y3698D01*
X2301Y3688D01*
X2308Y3678D01*
X2318Y3671D01*
X2328Y3667D01*
X2340Y3665D01*
X2352Y3667D01*
X2362Y3671D01*
X2372Y3678D01*
X2379Y3688D01*
X2383Y3698D01*
X2385Y3710D01*
X2383Y3722D01*
X2379Y3732D01*
X2372Y3742D01*
X2362Y3749D01*
X2352Y3753D01*
X2340Y3755D01*
D02*
G37*
G36*
X2240D02*
X2228Y3753D01*
X2218Y3749D01*
X2208Y3742D01*
X2201Y3732D01*
X2197Y3722D01*
X2195Y3710D01*
X2197Y3698D01*
X2201Y3688D01*
X2208Y3678D01*
X2218Y3671D01*
X2228Y3667D01*
X2240Y3665D01*
X2252Y3667D01*
X2262Y3671D01*
X2272Y3678D01*
X2279Y3688D01*
X2283Y3698D01*
X2285Y3710D01*
X2283Y3722D01*
X2279Y3732D01*
X2272Y3742D01*
X2262Y3749D01*
X2252Y3753D01*
X2240Y3755D01*
D02*
G37*
G36*
X2940D02*
X2928Y3753D01*
X2918Y3749D01*
X2908Y3742D01*
X2901Y3732D01*
X2897Y3722D01*
X2895Y3710D01*
X2897Y3698D01*
X2901Y3688D01*
X2908Y3678D01*
X2918Y3671D01*
X2928Y3667D01*
X2940Y3665D01*
X2952Y3667D01*
X2962Y3671D01*
X2972Y3678D01*
X2979Y3688D01*
X2983Y3698D01*
X2985Y3710D01*
X2983Y3722D01*
X2979Y3732D01*
X2972Y3742D01*
X2962Y3749D01*
X2952Y3753D01*
X2940Y3755D01*
D02*
G37*
G36*
X2840D02*
X2828Y3753D01*
X2818Y3749D01*
X2808Y3742D01*
X2801Y3732D01*
X2797Y3722D01*
X2795Y3710D01*
X2797Y3698D01*
X2801Y3688D01*
X2806Y3681D01*
X2763Y3637D01*
X2575D01*
X2568Y3636D01*
X2563Y3632D01*
X2528Y3597D01*
X1995D01*
X1988Y3596D01*
X1983Y3592D01*
X1958Y3567D01*
X1925D01*
X1922Y3576D01*
X1915Y3585D01*
X1906Y3592D01*
X1896Y3596D01*
X1885Y3597D01*
X1874Y3596D01*
X1864Y3592D01*
X1855Y3585D01*
X1848Y3576D01*
X1844Y3566D01*
X1843Y3555D01*
X1844Y3544D01*
X1848Y3534D01*
X1855Y3525D01*
X1864Y3518D01*
X1868Y3517D01*
Y3503D01*
X1852D01*
Y3417D01*
X1933D01*
Y3419D01*
X1962D01*
Y3460D01*
Y3501D01*
X1933D01*
Y3503D01*
X1902D01*
Y3517D01*
X1906Y3518D01*
X1915Y3525D01*
X1921Y3533D01*
X1965D01*
X1972Y3534D01*
X1977Y3538D01*
X2002Y3563D01*
X2535D01*
X2542Y3564D01*
X2547Y3568D01*
X2582Y3603D01*
X2770D01*
X2777Y3604D01*
X2782Y3608D01*
X2840Y3665D01*
X2840Y3665D01*
X2852Y3667D01*
X2862Y3671D01*
X2872Y3678D01*
X2879Y3688D01*
X2883Y3698D01*
X2885Y3710D01*
X2883Y3722D01*
X2879Y3732D01*
X2872Y3742D01*
X2862Y3749D01*
X2852Y3753D01*
X2840Y3755D01*
D02*
G37*
G36*
X2640D02*
X2628Y3753D01*
X2618Y3749D01*
X2608Y3742D01*
X2601Y3732D01*
X2597Y3722D01*
X2595Y3710D01*
X2597Y3698D01*
X2601Y3688D01*
X2608Y3678D01*
X2618Y3671D01*
X2628Y3667D01*
X2640Y3665D01*
X2652Y3667D01*
X2662Y3671D01*
X2672Y3678D01*
X2679Y3688D01*
X2683Y3698D01*
X2685Y3710D01*
X2683Y3722D01*
X2679Y3732D01*
X2672Y3742D01*
X2662Y3749D01*
X2652Y3753D01*
X2640Y3755D01*
D02*
G37*
G36*
X1197Y3268D02*
X1094D01*
X1095Y3259D01*
X1099Y3246D01*
X1105Y3234D01*
X1114Y3224D01*
X1124Y3215D01*
X1136Y3209D01*
X1149Y3205D01*
X1163Y3204D01*
X1197D01*
Y3268D01*
D02*
G37*
G36*
X3997Y3225D02*
X3975D01*
Y3203D01*
X3977Y3204D01*
X3984Y3206D01*
X3989Y3211D01*
X3994Y3216D01*
X3996Y3223D01*
X3997Y3225D01*
D02*
G37*
G36*
X3965D02*
X3943D01*
X3944Y3223D01*
X3946Y3216D01*
X3951Y3211D01*
X3956Y3206D01*
X3963Y3204D01*
X3965Y3203D01*
Y3225D01*
D02*
G37*
G36*
X3975Y3257D02*
Y3235D01*
X3997D01*
X3996Y3237D01*
X3994Y3244D01*
X3989Y3249D01*
X3984Y3254D01*
X3977Y3256D01*
X3975Y3257D01*
D02*
G37*
G36*
X3965D02*
X3963Y3256D01*
X3956Y3254D01*
X3951Y3249D01*
X3946Y3244D01*
X3944Y3237D01*
X3943Y3235D01*
X3965D01*
Y3257D01*
D02*
G37*
G36*
X1311Y3268D02*
X1207D01*
Y3204D01*
X1242D01*
X1255Y3205D01*
X1268Y3209D01*
X1280Y3215D01*
X1291Y3224D01*
X1299Y3234D01*
X1306Y3246D01*
X1310Y3259D01*
X1311Y3268D01*
D02*
G37*
G36*
X6050Y3235D02*
Y3200D01*
X6085D01*
X6084Y3205D01*
X6080Y3215D01*
X6074Y3224D01*
X6065Y3230D01*
X6055Y3234D01*
X6050Y3235D01*
D02*
G37*
G36*
X4173Y3273D02*
X4092D01*
Y3271D01*
X4063D01*
Y3230D01*
Y3189D01*
X4092D01*
Y3187D01*
X4118D01*
Y3149D01*
X4118Y3149D01*
X4108Y3142D01*
X4101Y3132D01*
X4097Y3122D01*
X4095Y3110D01*
X4097Y3098D01*
X4101Y3088D01*
X4108Y3078D01*
X4118Y3071D01*
X4127Y3067D01*
X4126Y3062D01*
X4054D01*
X4053Y3067D01*
X4062Y3071D01*
X4072Y3078D01*
X4079Y3088D01*
X4083Y3098D01*
X4085Y3110D01*
X4083Y3122D01*
X4079Y3132D01*
X4072Y3142D01*
X4062Y3149D01*
X4052Y3153D01*
X4040Y3155D01*
X4028Y3153D01*
X4018Y3149D01*
X4008Y3142D01*
X4001Y3132D01*
X3997Y3122D01*
X3995Y3110D01*
X3997Y3098D01*
X4001Y3088D01*
X4008Y3078D01*
X4018Y3071D01*
X4027Y3067D01*
X4026Y3062D01*
X3954D01*
X3953Y3067D01*
X3962Y3071D01*
X3972Y3078D01*
X3979Y3088D01*
X3983Y3098D01*
X3985Y3110D01*
X3983Y3122D01*
X3979Y3132D01*
X3972Y3142D01*
X3962Y3149D01*
X3952Y3153D01*
X3940Y3155D01*
X3928Y3153D01*
X3918Y3149D01*
X3908Y3142D01*
X3901Y3132D01*
X3897Y3122D01*
X3895Y3110D01*
X3897Y3098D01*
X3901Y3088D01*
X3908Y3078D01*
X3918Y3071D01*
X3927Y3067D01*
X3926Y3062D01*
X3877D01*
X3868Y3071D01*
X3869Y3076D01*
X3872Y3078D01*
X3879Y3088D01*
X3883Y3098D01*
X3885Y3110D01*
X3883Y3122D01*
X3879Y3132D01*
X3872Y3142D01*
X3862Y3149D01*
X3852Y3153D01*
X3840Y3155D01*
X3828Y3153D01*
X3818Y3149D01*
X3808Y3142D01*
X3801Y3132D01*
X3797Y3122D01*
X3795Y3110D01*
X3797Y3098D01*
X3801Y3088D01*
X3808Y3078D01*
X3818Y3071D01*
X3824Y3068D01*
X3824Y3068D01*
X3828Y3063D01*
X3858Y3033D01*
X3863Y3029D01*
X3870Y3028D01*
X4585D01*
X4592Y3029D01*
X4597Y3033D01*
X4687Y3123D01*
X4800D01*
X4802Y3118D01*
X4809Y3109D01*
X4818Y3102D01*
X4829Y3098D01*
X4840Y3096D01*
X4851Y3098D01*
X4862Y3102D01*
X4871Y3109D01*
X4878Y3118D01*
X4880Y3123D01*
X4982D01*
X4984Y3119D01*
X4990Y3115D01*
X4997Y3112D01*
X5005Y3111D01*
X5013Y3112D01*
X5020Y3115D01*
X5026Y3119D01*
X5030Y3125D01*
X5033Y3132D01*
X5034Y3140D01*
X5033Y3148D01*
X5030Y3155D01*
X5026Y3161D01*
X5020Y3165D01*
X5013Y3168D01*
X5005Y3169D01*
X4997Y3168D01*
X4990Y3165D01*
X4984Y3161D01*
X4982Y3157D01*
X4880D01*
X4878Y3162D01*
X4871Y3171D01*
X4862Y3178D01*
X4851Y3182D01*
X4840Y3184D01*
X4829Y3182D01*
X4818Y3178D01*
X4809Y3171D01*
X4802Y3162D01*
X4800Y3157D01*
X4680D01*
X4673Y3156D01*
X4668Y3152D01*
X4578Y3062D01*
X4154D01*
X4153Y3067D01*
X4162Y3071D01*
X4172Y3078D01*
X4179Y3088D01*
X4183Y3098D01*
X4185Y3110D01*
X4183Y3122D01*
X4179Y3132D01*
X4172Y3142D01*
X4162Y3149D01*
X4162Y3149D01*
Y3187D01*
X4173D01*
Y3208D01*
X4345D01*
X4348Y3204D01*
X4348Y3200D01*
X4349Y3189D01*
X4353Y3179D01*
X4360Y3170D01*
X4369Y3163D01*
X4379Y3159D01*
X4390Y3158D01*
X4401Y3159D01*
X4411Y3163D01*
X4420Y3170D01*
X4427Y3179D01*
X4431Y3189D01*
X4432Y3200D01*
X4431Y3211D01*
X4427Y3221D01*
X4420Y3230D01*
X4411Y3237D01*
X4401Y3241D01*
X4390Y3242D01*
X4381Y3241D01*
X4376Y3246D01*
X4369Y3251D01*
X4360Y3252D01*
X4173D01*
Y3273D01*
D02*
G37*
G36*
X6085Y3190D02*
X6050D01*
Y3155D01*
X6055Y3156D01*
X6065Y3160D01*
X6074Y3166D01*
X6080Y3175D01*
X6084Y3185D01*
X6085Y3190D01*
D02*
G37*
G36*
X6040D02*
X6005D01*
X6006Y3185D01*
X6010Y3175D01*
X6016Y3166D01*
X6025Y3160D01*
X6035Y3156D01*
X6040Y3155D01*
Y3190D01*
D02*
G37*
G36*
Y3235D02*
X6035Y3234D01*
X6025Y3230D01*
X6016Y3224D01*
X6010Y3215D01*
X6006Y3205D01*
X6005Y3200D01*
X6040D01*
Y3235D01*
D02*
G37*
G36*
X4053Y3225D02*
X4019D01*
Y3189D01*
X4053D01*
Y3225D01*
D02*
G37*
G36*
X1885Y3204D02*
X1874Y3202D01*
X1864Y3198D01*
X1855Y3191D01*
X1852Y3187D01*
X1593D01*
X1590Y3190D01*
X1583Y3193D01*
X1575Y3194D01*
X1567Y3193D01*
X1560Y3190D01*
X1554Y3186D01*
X1550Y3180D01*
X1547Y3173D01*
X1546Y3165D01*
X1547Y3157D01*
X1550Y3150D01*
X1554Y3144D01*
X1560Y3140D01*
X1567Y3137D01*
X1575Y3136D01*
X1583Y3137D01*
X1590Y3140D01*
X1593Y3143D01*
X1847D01*
X1848Y3140D01*
X1855Y3131D01*
X1864Y3125D01*
X1874Y3120D01*
X1885Y3119D01*
X1896Y3120D01*
X1906Y3125D01*
X1915Y3131D01*
X1922Y3140D01*
X1926Y3150D01*
X1927Y3161D01*
X1926Y3172D01*
X1922Y3182D01*
X1915Y3191D01*
X1906Y3198D01*
X1896Y3202D01*
X1885Y3204D01*
D02*
G37*
G36*
X4053Y3271D02*
X4019D01*
Y3235D01*
X4053D01*
Y3271D01*
D02*
G37*
G36*
X1304Y3456D02*
X1269D01*
Y3441D01*
X1289Y3421D01*
X1304D01*
Y3456D01*
D02*
G37*
G36*
X2006Y3455D02*
X1972D01*
Y3419D01*
X2006D01*
Y3455D01*
D02*
G37*
G36*
X1900Y3397D02*
Y3375D01*
X1922D01*
X1921Y3377D01*
X1919Y3384D01*
X1914Y3389D01*
X1909Y3394D01*
X1902Y3396D01*
X1900Y3397D01*
D02*
G37*
G36*
X4835Y3495D02*
X4799D01*
X4800Y3489D01*
X4804Y3479D01*
X4810Y3470D01*
X4819Y3464D01*
X4829Y3460D01*
X4835Y3459D01*
Y3495D01*
D02*
G37*
G36*
X5895Y3539D02*
X5884Y3537D01*
X5873Y3533D01*
X5864Y3526D01*
X5857Y3517D01*
X5853Y3506D01*
X5851Y3495D01*
X5853Y3484D01*
X5857Y3473D01*
X5864Y3464D01*
X5873Y3457D01*
X5884Y3453D01*
X5895Y3451D01*
X5906Y3453D01*
X5917Y3457D01*
X5926Y3464D01*
X5933Y3473D01*
X5935Y3478D01*
X6007D01*
X6008Y3474D01*
X6015Y3465D01*
X6024Y3458D01*
X6034Y3454D01*
X6045Y3453D01*
X6056Y3454D01*
X6066Y3458D01*
X6075Y3465D01*
X6082Y3474D01*
X6086Y3484D01*
X6087Y3495D01*
X6086Y3506D01*
X6082Y3516D01*
X6075Y3525D01*
X6066Y3532D01*
X6056Y3536D01*
X6045Y3537D01*
X6034Y3536D01*
X6024Y3532D01*
X6015Y3525D01*
X6008Y3516D01*
X6007Y3512D01*
X5935D01*
X5933Y3517D01*
X5926Y3526D01*
X5917Y3533D01*
X5906Y3537D01*
X5895Y3539D01*
D02*
G37*
G36*
X5215Y3524D02*
X5207Y3523D01*
X5200Y3520D01*
X5194Y3516D01*
X5192Y3512D01*
X4985D01*
X4978Y3511D01*
X4973Y3507D01*
X4885Y3419D01*
X4879Y3420D01*
X4878Y3422D01*
X4871Y3431D01*
X4862Y3438D01*
X4851Y3442D01*
X4840Y3444D01*
X4829Y3442D01*
X4818Y3438D01*
X4809Y3431D01*
X4802Y3422D01*
X4800Y3417D01*
X4745D01*
X4738Y3416D01*
X4733Y3412D01*
X4663Y3342D01*
X4465D01*
X4464Y3347D01*
X4470Y3350D01*
X4476Y3354D01*
X4480Y3360D01*
X4483Y3367D01*
X4484Y3375D01*
X4483Y3383D01*
X4480Y3390D01*
X4478Y3393D01*
X4480Y3398D01*
X4568D01*
X4576Y3389D01*
X4576Y3385D01*
X4577Y3377D01*
X4580Y3370D01*
X4584Y3364D01*
X4590Y3360D01*
X4597Y3357D01*
X4605Y3356D01*
X4613Y3357D01*
X4620Y3360D01*
X4626Y3364D01*
X4630Y3370D01*
X4633Y3377D01*
X4634Y3385D01*
X4633Y3393D01*
X4631Y3399D01*
X4631Y3400D01*
X4634Y3403D01*
X4637Y3402D01*
X4645Y3401D01*
X4653Y3402D01*
X4660Y3405D01*
X4666Y3409D01*
X4670Y3415D01*
X4673Y3422D01*
X4674Y3430D01*
X4673Y3438D01*
X4670Y3445D01*
X4666Y3451D01*
X4663Y3453D01*
X4665Y3458D01*
X4682D01*
X4684Y3454D01*
X4690Y3450D01*
X4697Y3447D01*
X4705Y3446D01*
X4713Y3447D01*
X4720Y3450D01*
X4726Y3454D01*
X4730Y3460D01*
X4733Y3467D01*
X4734Y3475D01*
X4733Y3483D01*
X4730Y3490D01*
X4726Y3496D01*
X4720Y3500D01*
X4713Y3503D01*
X4705Y3504D01*
X4697Y3503D01*
X4690Y3500D01*
X4684Y3496D01*
X4682Y3492D01*
X3700D01*
X3693Y3491D01*
X3688Y3487D01*
X3353Y3153D01*
X3352Y3153D01*
X3340Y3155D01*
X3328Y3153D01*
X3318Y3149D01*
X3308Y3142D01*
X3301Y3132D01*
X3297Y3122D01*
X3295Y3110D01*
X3297Y3098D01*
X3301Y3088D01*
X3308Y3078D01*
X3318Y3071D01*
X3328Y3067D01*
X3340Y3065D01*
X3352Y3067D01*
X3362Y3071D01*
X3372Y3078D01*
X3379Y3088D01*
X3383Y3098D01*
X3385Y3110D01*
X3383Y3122D01*
X3380Y3130D01*
X3418Y3169D01*
X3423Y3166D01*
X3423Y3165D01*
Y3151D01*
X3418Y3149D01*
X3408Y3142D01*
X3401Y3132D01*
X3397Y3122D01*
X3395Y3110D01*
X3397Y3098D01*
X3401Y3088D01*
X3408Y3078D01*
X3418Y3071D01*
X3428Y3067D01*
X3440Y3065D01*
X3452Y3067D01*
X3462Y3071D01*
X3472Y3078D01*
X3479Y3088D01*
X3483Y3098D01*
X3485Y3110D01*
X3483Y3122D01*
X3479Y3132D01*
X3472Y3142D01*
X3462Y3149D01*
X3457Y3151D01*
Y3158D01*
X3518Y3219D01*
X3523Y3217D01*
Y3151D01*
X3518Y3149D01*
X3508Y3142D01*
X3501Y3132D01*
X3497Y3122D01*
X3495Y3110D01*
X3497Y3098D01*
X3501Y3088D01*
X3508Y3078D01*
X3518Y3071D01*
X3528Y3067D01*
X3540Y3065D01*
X3552Y3067D01*
X3562Y3071D01*
X3572Y3078D01*
X3579Y3088D01*
X3583Y3098D01*
X3585Y3110D01*
X3583Y3122D01*
X3579Y3132D01*
X3572Y3142D01*
X3562Y3149D01*
X3557Y3151D01*
Y3223D01*
X3618Y3284D01*
X3623Y3281D01*
X3623Y3280D01*
Y3151D01*
X3618Y3149D01*
X3608Y3142D01*
X3601Y3132D01*
X3597Y3122D01*
X3595Y3110D01*
X3597Y3098D01*
X3601Y3088D01*
X3608Y3078D01*
X3618Y3071D01*
X3628Y3067D01*
X3640Y3065D01*
X3652Y3067D01*
X3662Y3071D01*
X3672Y3078D01*
X3679Y3088D01*
X3683Y3098D01*
X3685Y3110D01*
X3683Y3122D01*
X3679Y3132D01*
X3672Y3142D01*
X3662Y3149D01*
X3657Y3151D01*
Y3273D01*
X3742Y3358D01*
X3817D01*
X3818Y3353D01*
X3818Y3352D01*
X3728Y3262D01*
X3724Y3257D01*
X3723Y3250D01*
Y3151D01*
X3718Y3149D01*
X3708Y3142D01*
X3701Y3132D01*
X3697Y3122D01*
X3695Y3110D01*
X3697Y3098D01*
X3701Y3088D01*
X3708Y3078D01*
X3718Y3071D01*
X3728Y3067D01*
X3740Y3065D01*
X3752Y3067D01*
X3762Y3071D01*
X3772Y3078D01*
X3779Y3088D01*
X3783Y3098D01*
X3785Y3110D01*
X3783Y3122D01*
X3779Y3132D01*
X3772Y3142D01*
X3762Y3149D01*
X3757Y3151D01*
Y3243D01*
X3837Y3323D01*
X4368D01*
X4378Y3313D01*
X4383Y3309D01*
X4390Y3308D01*
X4670D01*
X4677Y3309D01*
X4682Y3313D01*
X4752Y3383D01*
X4800D01*
X4802Y3378D01*
X4809Y3369D01*
X4818Y3362D01*
X4829Y3358D01*
X4840Y3356D01*
X4851Y3358D01*
X4862Y3362D01*
X4871Y3369D01*
X4878Y3378D01*
X4880Y3383D01*
X4890D01*
X4897Y3384D01*
X4902Y3388D01*
X4992Y3478D01*
X5192D01*
X5194Y3474D01*
X5200Y3470D01*
X5207Y3467D01*
X5215Y3466D01*
X5223Y3467D01*
X5230Y3470D01*
X5236Y3474D01*
X5240Y3480D01*
X5243Y3487D01*
X5244Y3495D01*
X5243Y3503D01*
X5240Y3510D01*
X5236Y3516D01*
X5230Y3520D01*
X5223Y3523D01*
X5215Y3524D01*
D02*
G37*
G36*
X1890Y3397D02*
X1888Y3396D01*
X1881Y3394D01*
X1876Y3389D01*
X1871Y3384D01*
X1869Y3377D01*
X1868Y3375D01*
X1890D01*
Y3397D01*
D02*
G37*
G36*
Y3365D02*
X1868D01*
X1869Y3363D01*
X1871Y3356D01*
X1876Y3351D01*
X1881Y3346D01*
X1888Y3344D01*
X1890Y3343D01*
Y3365D01*
D02*
G37*
G36*
X1242Y3342D02*
X1207D01*
Y3278D01*
X1311D01*
X1310Y3287D01*
X1306Y3300D01*
X1299Y3312D01*
X1291Y3322D01*
X1280Y3331D01*
X1268Y3337D01*
X1255Y3341D01*
X1242Y3342D01*
D02*
G37*
G36*
X1197D02*
X1163D01*
X1149Y3341D01*
X1136Y3337D01*
X1124Y3331D01*
X1114Y3322D01*
X1105Y3312D01*
X1099Y3300D01*
X1095Y3287D01*
X1094Y3278D01*
X1197D01*
Y3342D01*
D02*
G37*
G36*
X5412Y3444D02*
X5399Y3443D01*
X5388Y3438D01*
X5377Y3430D01*
X5370Y3420D01*
X5365Y3408D01*
X5363Y3395D01*
X5365Y3382D01*
X5370Y3370D01*
X5377Y3360D01*
X5388Y3352D01*
X5399Y3347D01*
X5412Y3346D01*
X5425Y3347D01*
X5437Y3352D01*
X5447Y3360D01*
X5455Y3370D01*
X5460Y3382D01*
X5461Y3395D01*
X5460Y3408D01*
X5455Y3420D01*
X5447Y3430D01*
X5437Y3438D01*
X5425Y3443D01*
X5412Y3444D01*
D02*
G37*
G36*
X5058D02*
X5045Y3443D01*
X5033Y3438D01*
X5023Y3430D01*
X5015Y3420D01*
X5010Y3408D01*
X5009Y3395D01*
X5010Y3382D01*
X5015Y3370D01*
X5023Y3360D01*
X5033Y3352D01*
X5045Y3347D01*
X5058Y3346D01*
X5071Y3347D01*
X5082Y3352D01*
X5093Y3360D01*
X5100Y3370D01*
X5105Y3382D01*
X5107Y3395D01*
X5105Y3408D01*
X5100Y3420D01*
X5093Y3430D01*
X5082Y3438D01*
X5071Y3443D01*
X5058Y3444D01*
D02*
G37*
G36*
X1922Y3365D02*
X1900D01*
Y3343D01*
X1902Y3344D01*
X1909Y3346D01*
X1914Y3351D01*
X1919Y3356D01*
X1921Y3363D01*
X1922Y3365D01*
D02*
G37*
G36*
X1242Y3816D02*
X1207D01*
Y3752D01*
X1311D01*
X1310Y3761D01*
X1306Y3774D01*
X1299Y3786D01*
X1291Y3796D01*
X1280Y3805D01*
X1268Y3811D01*
X1255Y3815D01*
X1242Y3816D01*
D02*
G37*
G36*
X2260Y4542D02*
Y4505D01*
X2297D01*
X2296Y4511D01*
X2292Y4521D01*
X2285Y4530D01*
X2276Y4537D01*
X2266Y4541D01*
X2260Y4542D01*
D02*
G37*
G36*
X2250D02*
X2244Y4541D01*
X2234Y4537D01*
X2225Y4530D01*
X2218Y4521D01*
X2214Y4511D01*
X2213Y4505D01*
X2250D01*
Y4542D01*
D02*
G37*
G36*
X2297Y4495D02*
X2260D01*
Y4458D01*
X2266Y4459D01*
X2276Y4463D01*
X2285Y4470D01*
X2292Y4479D01*
X2296Y4489D01*
X2297Y4495D01*
D02*
G37*
G36*
X2218Y4610D02*
X2184D01*
Y4574D01*
X2218D01*
Y4610D01*
D02*
G37*
G36*
X5400Y4622D02*
X5389Y4621D01*
X5379Y4617D01*
X5370Y4610D01*
X5363Y4601D01*
X5359Y4591D01*
X5358Y4580D01*
X5359Y4569D01*
X5361Y4565D01*
X5303Y4507D01*
X3963D01*
X3961Y4511D01*
X3955Y4515D01*
X3948Y4518D01*
X3940Y4519D01*
X3932Y4518D01*
X3925Y4515D01*
X3919Y4511D01*
X3915Y4505D01*
X3912Y4498D01*
X3911Y4490D01*
X3912Y4482D01*
X3915Y4475D01*
X3919Y4469D01*
X3925Y4465D01*
X3932Y4462D01*
X3940Y4461D01*
X3948Y4462D01*
X3955Y4465D01*
X3961Y4469D01*
X3963Y4473D01*
X5310D01*
X5317Y4474D01*
X5322Y4478D01*
X5385Y4541D01*
X5389Y4539D01*
X5400Y4538D01*
X5411Y4539D01*
X5421Y4543D01*
X5430Y4550D01*
X5437Y4559D01*
X5441Y4569D01*
X5442Y4580D01*
X5441Y4591D01*
X5437Y4601D01*
X5430Y4610D01*
X5421Y4617D01*
X5411Y4621D01*
X5400Y4622D01*
D02*
G37*
G36*
X2910Y4684D02*
X2902Y4683D01*
X2895Y4680D01*
X2892Y4677D01*
X2337D01*
X2329Y4676D01*
X2322Y4671D01*
X2308Y4658D01*
X2257D01*
Y4656D01*
X2228D01*
Y4615D01*
Y4574D01*
X2257D01*
Y4572D01*
X2308D01*
X2333Y4548D01*
Y4539D01*
X2333Y4539D01*
X2323Y4532D01*
X2316Y4522D01*
X2312Y4512D01*
X2310Y4500D01*
X2312Y4488D01*
X2316Y4478D01*
X2323Y4468D01*
X2333Y4461D01*
X2343Y4457D01*
X2355Y4455D01*
X2367Y4457D01*
X2377Y4461D01*
X2387Y4468D01*
X2394Y4478D01*
X2398Y4488D01*
X2400Y4500D01*
X2398Y4512D01*
X2394Y4522D01*
X2387Y4532D01*
X2377Y4539D01*
X2377Y4539D01*
Y4557D01*
X2376Y4566D01*
X2371Y4573D01*
X2338Y4606D01*
Y4624D01*
X2347Y4633D01*
X2892D01*
X2895Y4630D01*
X2902Y4627D01*
X2910Y4626D01*
X2918Y4627D01*
X2925Y4630D01*
X2928Y4633D01*
X4841D01*
X4884Y4589D01*
X4883Y4580D01*
X4884Y4569D01*
X4888Y4559D01*
X4895Y4550D01*
X4904Y4543D01*
X4914Y4539D01*
X4925Y4538D01*
X4936Y4539D01*
X4946Y4543D01*
X4955Y4550D01*
X4961Y4558D01*
X4971D01*
X4976Y4550D01*
X4985Y4543D01*
X4995Y4539D01*
X5006Y4538D01*
X5017Y4539D01*
X5027Y4543D01*
X5036Y4550D01*
X5043Y4559D01*
X5047Y4569D01*
X5049Y4580D01*
X5047Y4591D01*
X5043Y4601D01*
X5036Y4610D01*
X5027Y4617D01*
X5017Y4621D01*
X5006Y4622D01*
X4995Y4621D01*
X4985Y4617D01*
X4976Y4610D01*
X4971Y4602D01*
X4961D01*
X4955Y4610D01*
X4946Y4617D01*
X4936Y4621D01*
X4925Y4622D01*
X4916Y4621D01*
X4866Y4671D01*
X4859Y4676D01*
X4850Y4677D01*
X2928D01*
X2925Y4680D01*
X2918Y4683D01*
X2910Y4684D01*
D02*
G37*
G36*
X2250Y4495D02*
X2213D01*
X2214Y4489D01*
X2218Y4479D01*
X2225Y4470D01*
X2234Y4463D01*
X2244Y4459D01*
X2250Y4458D01*
Y4495D01*
D02*
G37*
G36*
X3055Y4545D02*
X3043Y4543D01*
X3033Y4539D01*
X3023Y4532D01*
X3016Y4522D01*
X3012Y4512D01*
X3010Y4500D01*
X3012Y4488D01*
X3016Y4478D01*
X3023Y4468D01*
X3033Y4461D01*
X3043Y4457D01*
X3055Y4455D01*
X3067Y4457D01*
X3077Y4461D01*
X3087Y4468D01*
X3094Y4478D01*
X3098Y4488D01*
X3100Y4500D01*
X3098Y4512D01*
X3094Y4522D01*
X3087Y4532D01*
X3077Y4539D01*
X3067Y4543D01*
X3055Y4545D01*
D02*
G37*
G36*
X2955D02*
X2943Y4543D01*
X2933Y4539D01*
X2923Y4532D01*
X2916Y4522D01*
X2912Y4512D01*
X2910Y4500D01*
X2912Y4488D01*
X2916Y4478D01*
X2923Y4468D01*
X2933Y4461D01*
X2943Y4457D01*
X2955Y4455D01*
X2967Y4457D01*
X2977Y4461D01*
X2987Y4468D01*
X2994Y4478D01*
X2998Y4488D01*
X3000Y4500D01*
X2998Y4512D01*
X2994Y4522D01*
X2987Y4532D01*
X2977Y4539D01*
X2967Y4543D01*
X2955Y4545D01*
D02*
G37*
G36*
X2855D02*
X2843Y4543D01*
X2833Y4539D01*
X2823Y4532D01*
X2816Y4522D01*
X2812Y4512D01*
X2810Y4500D01*
X2812Y4488D01*
X2816Y4478D01*
X2823Y4468D01*
X2833Y4461D01*
X2843Y4457D01*
X2855Y4455D01*
X2867Y4457D01*
X2877Y4461D01*
X2887Y4468D01*
X2894Y4478D01*
X2898Y4488D01*
X2900Y4500D01*
X2898Y4512D01*
X2894Y4522D01*
X2887Y4532D01*
X2877Y4539D01*
X2867Y4543D01*
X2855Y4545D01*
D02*
G37*
G36*
X3355D02*
X3343Y4543D01*
X3333Y4539D01*
X3323Y4532D01*
X3316Y4522D01*
X3312Y4512D01*
X3310Y4500D01*
X3312Y4488D01*
X3316Y4478D01*
X3323Y4468D01*
X3333Y4461D01*
X3343Y4457D01*
X3355Y4455D01*
X3367Y4457D01*
X3377Y4461D01*
X3387Y4468D01*
X3394Y4478D01*
X3398Y4488D01*
X3400Y4500D01*
X3398Y4512D01*
X3394Y4522D01*
X3387Y4532D01*
X3377Y4539D01*
X3367Y4543D01*
X3355Y4545D01*
D02*
G37*
G36*
X3255D02*
X3243Y4543D01*
X3233Y4539D01*
X3223Y4532D01*
X3216Y4522D01*
X3212Y4512D01*
X3210Y4500D01*
X3212Y4488D01*
X3216Y4478D01*
X3223Y4468D01*
X3233Y4461D01*
X3243Y4457D01*
X3255Y4455D01*
X3267Y4457D01*
X3277Y4461D01*
X3287Y4468D01*
X3294Y4478D01*
X3298Y4488D01*
X3300Y4500D01*
X3298Y4512D01*
X3294Y4522D01*
X3287Y4532D01*
X3277Y4539D01*
X3267Y4543D01*
X3255Y4545D01*
D02*
G37*
G36*
X3155D02*
X3143Y4543D01*
X3133Y4539D01*
X3123Y4532D01*
X3116Y4522D01*
X3112Y4512D01*
X3110Y4500D01*
X3112Y4488D01*
X3116Y4478D01*
X3123Y4468D01*
X3133Y4461D01*
X3143Y4457D01*
X3155Y4455D01*
X3167Y4457D01*
X3177Y4461D01*
X3187Y4468D01*
X3194Y4478D01*
X3198Y4488D01*
X3200Y4500D01*
X3198Y4512D01*
X3194Y4522D01*
X3187Y4532D01*
X3177Y4539D01*
X3167Y4543D01*
X3155Y4545D01*
D02*
G37*
G36*
X4531Y4622D02*
X4520Y4621D01*
X4510Y4617D01*
X4501Y4610D01*
X4495Y4601D01*
X4490Y4591D01*
X4490Y4587D01*
X3863D01*
X3861Y4591D01*
X3855Y4595D01*
X3848Y4598D01*
X3840Y4599D01*
X3832Y4598D01*
X3825Y4595D01*
X3819Y4591D01*
X3815Y4585D01*
X3812Y4578D01*
X3811Y4570D01*
X3812Y4562D01*
X3815Y4555D01*
X3819Y4549D01*
X3825Y4545D01*
X3832Y4542D01*
X3840Y4541D01*
X3848Y4542D01*
X3855Y4545D01*
X3861Y4549D01*
X3863Y4553D01*
X4499D01*
X4501Y4550D01*
X4510Y4543D01*
X4520Y4539D01*
X4531Y4538D01*
X4542Y4539D01*
X4552Y4543D01*
X4561Y4550D01*
X4568Y4559D01*
X4572Y4569D01*
X4574Y4580D01*
X4572Y4591D01*
X4568Y4601D01*
X4561Y4610D01*
X4552Y4617D01*
X4542Y4621D01*
X4531Y4622D01*
D02*
G37*
G36*
X4768Y4964D02*
X4723D01*
Y4919D01*
X4731Y4920D01*
X4744Y4925D01*
X4754Y4933D01*
X4762Y4944D01*
X4767Y4956D01*
X4768Y4964D01*
D02*
G37*
G36*
X4713D02*
X4669D01*
X4670Y4956D01*
X4675Y4944D01*
X4683Y4933D01*
X4693Y4925D01*
X4705Y4920D01*
X4713Y4919D01*
Y4964D01*
D02*
G37*
G36*
X3412Y4940D02*
X3390D01*
Y4918D01*
X3392Y4919D01*
X3399Y4921D01*
X3404Y4926D01*
X3409Y4931D01*
X3411Y4938D01*
X3412Y4940D01*
D02*
G37*
G36*
X5508Y5014D02*
X5500Y5013D01*
X5488Y5008D01*
X5478Y5000D01*
X5470Y4989D01*
X5465Y4977D01*
X5464Y4969D01*
X5508D01*
Y5014D01*
D02*
G37*
G36*
X3390Y4972D02*
Y4950D01*
X3412D01*
X3411Y4952D01*
X3409Y4959D01*
X3404Y4964D01*
X3399Y4969D01*
X3392Y4971D01*
X3390Y4972D01*
D02*
G37*
G36*
X3380D02*
X3378Y4971D01*
X3371Y4969D01*
X3366Y4964D01*
X3361Y4959D01*
X3359Y4952D01*
X3358Y4950D01*
X3380D01*
Y4972D01*
D02*
G37*
G36*
Y4940D02*
X3358D01*
X3359Y4938D01*
X3361Y4931D01*
X3366Y4926D01*
X3371Y4921D01*
X3378Y4919D01*
X3380Y4918D01*
Y4940D01*
D02*
G37*
G36*
X5317Y5017D02*
X5303Y5015D01*
X5290Y5010D01*
X5279Y5001D01*
X5271Y4990D01*
X5266Y4978D01*
X5264Y4964D01*
X5266Y4951D01*
X5271Y4938D01*
X5279Y4927D01*
X5290Y4919D01*
X5303Y4913D01*
X5317Y4912D01*
X5330Y4913D01*
X5343Y4919D01*
X5354Y4927D01*
X5362Y4938D01*
X5367Y4951D01*
X5369Y4964D01*
X5367Y4978D01*
X5362Y4990D01*
X5354Y5001D01*
X5343Y5010D01*
X5330Y5015D01*
X5317Y5017D01*
D02*
G37*
G36*
X2780Y5119D02*
X2772Y5118D01*
X2765Y5115D01*
X2759Y5111D01*
X2755Y5105D01*
X2752Y5098D01*
X2751Y5090D01*
X2752Y5082D01*
X2755Y5075D01*
X2759Y5069D01*
X2765Y5065D01*
X2772Y5062D01*
X2780Y5061D01*
X2784Y5061D01*
X2983Y4863D01*
X2988Y4859D01*
X2995Y4858D01*
X5188D01*
X5278Y4768D01*
X5283Y4764D01*
X5290Y4763D01*
X5647D01*
X5649Y4759D01*
X5655Y4755D01*
X5662Y4752D01*
X5670Y4751D01*
X5678Y4752D01*
X5685Y4755D01*
X5691Y4759D01*
X5695Y4765D01*
X5698Y4772D01*
X5699Y4780D01*
X5698Y4788D01*
X5695Y4795D01*
X5691Y4801D01*
X5685Y4805D01*
X5678Y4808D01*
X5670Y4809D01*
X5662Y4808D01*
X5655Y4805D01*
X5649Y4801D01*
X5647Y4797D01*
X5297D01*
X5207Y4887D01*
X5202Y4891D01*
X5195Y4892D01*
X3002D01*
X2809Y5086D01*
X2809Y5090D01*
X2808Y5098D01*
X2805Y5105D01*
X2801Y5111D01*
X2795Y5115D01*
X2788Y5118D01*
X2780Y5119D01*
D02*
G37*
G36*
X2218Y4656D02*
X2184D01*
Y4620D01*
X2218D01*
Y4656D01*
D02*
G37*
G36*
X4522Y5022D02*
X4508Y5020D01*
X4495Y5015D01*
X4484Y5006D01*
X4476Y4995D01*
X4471Y4983D01*
X4469Y4969D01*
X4471Y4956D01*
X4476Y4943D01*
X4484Y4932D01*
X4495Y4924D01*
X4508Y4918D01*
X4522Y4917D01*
X4535Y4918D01*
X4548Y4924D01*
X4559Y4932D01*
X4567Y4943D01*
X4572Y4956D01*
X4574Y4969D01*
X4572Y4983D01*
X4567Y4995D01*
X4559Y5006D01*
X4548Y5015D01*
X4535Y5020D01*
X4522Y5022D01*
D02*
G37*
G36*
X5563Y4959D02*
X5518D01*
Y4914D01*
X5526Y4915D01*
X5539Y4920D01*
X5549Y4928D01*
X5557Y4939D01*
X5562Y4951D01*
X5563Y4959D01*
D02*
G37*
G36*
X5508D02*
X5464D01*
X5465Y4951D01*
X5470Y4939D01*
X5478Y4928D01*
X5488Y4920D01*
X5500Y4915D01*
X5508Y4914D01*
Y4959D01*
D02*
G37*
G36*
X2455Y4345D02*
X2443Y4343D01*
X2433Y4339D01*
X2423Y4332D01*
X2416Y4322D01*
X2412Y4312D01*
X2410Y4300D01*
X2412Y4288D01*
X2416Y4278D01*
X2423Y4268D01*
X2433Y4261D01*
X2443Y4257D01*
X2455Y4255D01*
X2467Y4257D01*
X2477Y4261D01*
X2487Y4268D01*
X2494Y4278D01*
X2498Y4288D01*
X2500Y4300D01*
X2498Y4312D01*
X2494Y4322D01*
X2487Y4332D01*
X2477Y4339D01*
X2467Y4343D01*
X2455Y4345D01*
D02*
G37*
G36*
X2355D02*
X2343Y4343D01*
X2333Y4339D01*
X2323Y4332D01*
X2316Y4322D01*
X2312Y4312D01*
X2310Y4300D01*
X2312Y4288D01*
X2316Y4278D01*
X2323Y4268D01*
X2333Y4261D01*
X2343Y4257D01*
X2355Y4255D01*
X2367Y4257D01*
X2377Y4261D01*
X2387Y4268D01*
X2394Y4278D01*
X2398Y4288D01*
X2400Y4300D01*
X2398Y4312D01*
X2394Y4322D01*
X2387Y4332D01*
X2377Y4339D01*
X2367Y4343D01*
X2355Y4345D01*
D02*
G37*
G36*
X4980Y3936D02*
Y3900D01*
X5016D01*
X5015Y3906D01*
X5011Y3916D01*
X5005Y3925D01*
X4996Y3931D01*
X4986Y3935D01*
X4980Y3936D01*
D02*
G37*
G36*
X2755Y4345D02*
X2743Y4343D01*
X2733Y4339D01*
X2723Y4332D01*
X2716Y4322D01*
X2712Y4312D01*
X2710Y4300D01*
X2712Y4288D01*
X2716Y4278D01*
X2723Y4268D01*
X2733Y4261D01*
X2743Y4257D01*
X2755Y4255D01*
X2767Y4257D01*
X2777Y4261D01*
X2787Y4268D01*
X2794Y4278D01*
X2798Y4288D01*
X2800Y4300D01*
X2798Y4312D01*
X2794Y4322D01*
X2787Y4332D01*
X2777Y4339D01*
X2767Y4343D01*
X2755Y4345D01*
D02*
G37*
G36*
X2655D02*
X2643Y4343D01*
X2633Y4339D01*
X2623Y4332D01*
X2616Y4322D01*
X2612Y4312D01*
X2610Y4300D01*
X2612Y4288D01*
X2616Y4278D01*
X2623Y4268D01*
X2633Y4261D01*
X2643Y4257D01*
X2655Y4255D01*
X2667Y4257D01*
X2677Y4261D01*
X2687Y4268D01*
X2694Y4278D01*
X2698Y4288D01*
X2700Y4300D01*
X2698Y4312D01*
X2694Y4322D01*
X2687Y4332D01*
X2677Y4339D01*
X2667Y4343D01*
X2655Y4345D01*
D02*
G37*
G36*
X2555D02*
X2543Y4343D01*
X2533Y4339D01*
X2523Y4332D01*
X2516Y4322D01*
X2512Y4312D01*
X2510Y4300D01*
X2512Y4288D01*
X2516Y4278D01*
X2523Y4268D01*
X2533Y4261D01*
X2543Y4257D01*
X2555Y4255D01*
X2567Y4257D01*
X2577Y4261D01*
X2587Y4268D01*
X2594Y4278D01*
X2598Y4288D01*
X2600Y4300D01*
X2598Y4312D01*
X2594Y4322D01*
X2587Y4332D01*
X2577Y4339D01*
X2567Y4343D01*
X2555Y4345D01*
D02*
G37*
G36*
X4970Y3936D02*
X4964Y3935D01*
X4954Y3931D01*
X4945Y3925D01*
X4939Y3916D01*
X4935Y3906D01*
X4934Y3900D01*
X4970D01*
Y3936D01*
D02*
G37*
G36*
X5101Y3937D02*
X5090Y3936D01*
X5080Y3932D01*
X5071Y3925D01*
X5065Y3916D01*
X5060Y3906D01*
X5059Y3895D01*
X5060Y3884D01*
X5065Y3874D01*
X5071Y3865D01*
X5080Y3858D01*
X5090Y3854D01*
X5101Y3853D01*
X5112Y3854D01*
X5122Y3858D01*
X5131Y3865D01*
X5138Y3874D01*
X5142Y3884D01*
X5144Y3895D01*
X5142Y3906D01*
X5138Y3916D01*
X5131Y3925D01*
X5122Y3932D01*
X5112Y3936D01*
X5101Y3937D01*
D02*
G37*
G36*
X4875Y3939D02*
X4864Y3937D01*
X4853Y3933D01*
X4844Y3926D01*
X4837Y3917D01*
X4835Y3912D01*
X4695D01*
X4688Y3911D01*
X4683Y3907D01*
X4560Y3784D01*
X4556Y3786D01*
X4545Y3787D01*
X4534Y3786D01*
X4524Y3782D01*
X4515Y3775D01*
X4508Y3766D01*
X4507Y3762D01*
X4175D01*
X4168Y3761D01*
X4163Y3757D01*
X4157Y3751D01*
X4152Y3753D01*
X4140Y3755D01*
X4128Y3753D01*
X4118Y3749D01*
X4108Y3742D01*
X4101Y3732D01*
X4097Y3722D01*
X4095Y3710D01*
X4097Y3698D01*
X4101Y3688D01*
X4108Y3678D01*
X4118Y3671D01*
X4128Y3667D01*
X4140Y3665D01*
X4152Y3667D01*
X4162Y3671D01*
X4172Y3678D01*
X4179Y3688D01*
X4183Y3698D01*
X4185Y3710D01*
X4183Y3722D01*
X4183Y3723D01*
X4186Y3728D01*
X4507D01*
X4508Y3724D01*
X4515Y3715D01*
X4524Y3708D01*
X4534Y3704D01*
X4545Y3703D01*
X4556Y3704D01*
X4566Y3708D01*
X4575Y3715D01*
X4582Y3724D01*
X4586Y3734D01*
X4587Y3745D01*
X4586Y3756D01*
X4584Y3760D01*
X4702Y3878D01*
X4835D01*
X4837Y3873D01*
X4844Y3864D01*
X4853Y3857D01*
X4864Y3853D01*
X4875Y3851D01*
X4886Y3853D01*
X4897Y3857D01*
X4906Y3864D01*
X4913Y3873D01*
X4917Y3884D01*
X4919Y3895D01*
X4917Y3906D01*
X4913Y3917D01*
X4906Y3926D01*
X4897Y3933D01*
X4886Y3937D01*
X4875Y3939D01*
D02*
G37*
G36*
X2990Y3819D02*
X2982Y3818D01*
X2975Y3815D01*
X2969Y3811D01*
X2967Y3807D01*
X2775D01*
X2768Y3806D01*
X2763Y3802D01*
X2728Y3767D01*
X2724Y3762D01*
X2723Y3755D01*
Y3751D01*
X2718Y3749D01*
X2708Y3742D01*
X2701Y3732D01*
X2697Y3722D01*
X2695Y3710D01*
X2697Y3698D01*
X2701Y3688D01*
X2708Y3678D01*
X2718Y3671D01*
X2728Y3667D01*
X2740Y3665D01*
X2752Y3667D01*
X2762Y3671D01*
X2772Y3678D01*
X2779Y3688D01*
X2783Y3698D01*
X2785Y3710D01*
X2783Y3722D01*
X2779Y3732D01*
X2772Y3742D01*
X2764Y3748D01*
X2763Y3753D01*
X2782Y3773D01*
X2967D01*
X2969Y3769D01*
X2975Y3765D01*
X2982Y3762D01*
X2990Y3761D01*
X2998Y3762D01*
X3005Y3765D01*
X3011Y3769D01*
X3015Y3775D01*
X3018Y3782D01*
X3019Y3790D01*
X3018Y3798D01*
X3015Y3805D01*
X3011Y3811D01*
X3005Y3815D01*
X2998Y3818D01*
X2990Y3819D01*
D02*
G37*
G36*
X5016Y3890D02*
X4980D01*
Y3854D01*
X4986Y3855D01*
X4996Y3859D01*
X5005Y3865D01*
X5011Y3874D01*
X5015Y3884D01*
X5016Y3890D01*
D02*
G37*
G36*
X4970D02*
X4934D01*
X4935Y3884D01*
X4939Y3874D01*
X4945Y3865D01*
X4954Y3859D01*
X4964Y3855D01*
X4970Y3854D01*
Y3890D01*
D02*
G37*
G36*
X5495Y3937D02*
X5484Y3936D01*
X5474Y3932D01*
X5465Y3925D01*
X5458Y3916D01*
X5454Y3906D01*
X5453Y3895D01*
X5454Y3886D01*
X5336Y3767D01*
X4974D01*
X4969Y3775D01*
X4960Y3782D01*
X4950Y3786D01*
X4939Y3787D01*
X4928Y3786D01*
X4918Y3782D01*
X4909Y3775D01*
X4902Y3766D01*
X4898Y3756D01*
X4896Y3745D01*
X4898Y3734D01*
X4902Y3724D01*
X4909Y3715D01*
X4918Y3708D01*
X4928Y3704D01*
X4939Y3703D01*
X4950Y3704D01*
X4960Y3708D01*
X4969Y3715D01*
X4974Y3723D01*
X5345D01*
X5354Y3724D01*
X5361Y3729D01*
X5486Y3854D01*
X5495Y3853D01*
X5506Y3854D01*
X5516Y3858D01*
X5525Y3865D01*
X5532Y3874D01*
X5536Y3884D01*
X5537Y3895D01*
X5536Y3906D01*
X5532Y3916D01*
X5525Y3925D01*
X5516Y3932D01*
X5506Y3936D01*
X5495Y3937D01*
D02*
G37*
G36*
X2855Y4345D02*
X2843Y4343D01*
X2833Y4339D01*
X2823Y4332D01*
X2816Y4322D01*
X2812Y4312D01*
X2810Y4300D01*
X2812Y4288D01*
X2816Y4278D01*
X2823Y4268D01*
X2833Y4261D01*
X2843Y4257D01*
X2855Y4255D01*
X2867Y4257D01*
X2877Y4261D01*
X2887Y4268D01*
X2894Y4278D01*
X2898Y4288D01*
X2900Y4300D01*
X2898Y4312D01*
X2894Y4322D01*
X2887Y4332D01*
X2877Y4339D01*
X2867Y4343D01*
X2855Y4345D01*
D02*
G37*
G36*
X2455Y4545D02*
X2443Y4543D01*
X2433Y4539D01*
X2423Y4532D01*
X2416Y4522D01*
X2412Y4512D01*
X2410Y4500D01*
X2412Y4488D01*
X2416Y4478D01*
X2423Y4468D01*
X2433Y4461D01*
X2443Y4457D01*
X2455Y4455D01*
X2467Y4457D01*
X2477Y4461D01*
X2487Y4468D01*
X2494Y4478D01*
X2498Y4488D01*
X2500Y4500D01*
X2498Y4512D01*
X2494Y4522D01*
X2487Y4532D01*
X2477Y4539D01*
X2467Y4543D01*
X2455Y4545D01*
D02*
G37*
G36*
X3360Y4342D02*
Y4305D01*
X3397D01*
X3396Y4311D01*
X3392Y4321D01*
X3385Y4330D01*
X3376Y4337D01*
X3366Y4341D01*
X3360Y4342D01*
D02*
G37*
G36*
X3350D02*
X3344Y4341D01*
X3334Y4337D01*
X3325Y4330D01*
X3318Y4321D01*
X3314Y4311D01*
X3313Y4305D01*
X3350D01*
Y4342D01*
D02*
G37*
G36*
X2755Y4545D02*
X2743Y4543D01*
X2733Y4539D01*
X2723Y4532D01*
X2716Y4522D01*
X2712Y4512D01*
X2710Y4500D01*
X2712Y4488D01*
X2716Y4478D01*
X2723Y4468D01*
X2733Y4461D01*
X2743Y4457D01*
X2755Y4455D01*
X2767Y4457D01*
X2777Y4461D01*
X2787Y4468D01*
X2794Y4478D01*
X2798Y4488D01*
X2800Y4500D01*
X2798Y4512D01*
X2794Y4522D01*
X2787Y4532D01*
X2777Y4539D01*
X2767Y4543D01*
X2755Y4545D01*
D02*
G37*
G36*
X2655D02*
X2643Y4543D01*
X2633Y4539D01*
X2623Y4532D01*
X2616Y4522D01*
X2612Y4512D01*
X2610Y4500D01*
X2612Y4488D01*
X2616Y4478D01*
X2623Y4468D01*
X2633Y4461D01*
X2643Y4457D01*
X2655Y4455D01*
X2667Y4457D01*
X2677Y4461D01*
X2687Y4468D01*
X2694Y4478D01*
X2698Y4488D01*
X2700Y4500D01*
X2698Y4512D01*
X2694Y4522D01*
X2687Y4532D01*
X2677Y4539D01*
X2667Y4543D01*
X2655Y4545D01*
D02*
G37*
G36*
X2555D02*
X2543Y4543D01*
X2533Y4539D01*
X2523Y4532D01*
X2516Y4522D01*
X2512Y4512D01*
X2510Y4500D01*
X2512Y4488D01*
X2516Y4478D01*
X2523Y4468D01*
X2533Y4461D01*
X2543Y4457D01*
X2555Y4455D01*
X2567Y4457D01*
X2577Y4461D01*
X2587Y4468D01*
X2594Y4478D01*
X2598Y4488D01*
X2600Y4500D01*
X2598Y4512D01*
X2594Y4522D01*
X2587Y4532D01*
X2577Y4539D01*
X2567Y4543D01*
X2555Y4545D01*
D02*
G37*
G36*
X3397Y4295D02*
X3360D01*
Y4258D01*
X3366Y4259D01*
X3376Y4263D01*
X3385Y4270D01*
X3392Y4279D01*
X3396Y4289D01*
X3397Y4295D01*
D02*
G37*
G36*
X3155Y4345D02*
X3143Y4343D01*
X3133Y4339D01*
X3123Y4332D01*
X3116Y4322D01*
X3112Y4312D01*
X3110Y4300D01*
X3112Y4288D01*
X3116Y4278D01*
X3123Y4268D01*
X3133Y4261D01*
X3143Y4257D01*
X3155Y4255D01*
X3167Y4257D01*
X3177Y4261D01*
X3187Y4268D01*
X3194Y4278D01*
X3198Y4288D01*
X3200Y4300D01*
X3198Y4312D01*
X3194Y4322D01*
X3187Y4332D01*
X3177Y4339D01*
X3167Y4343D01*
X3155Y4345D01*
D02*
G37*
G36*
X3055D02*
X3043Y4343D01*
X3033Y4339D01*
X3023Y4332D01*
X3016Y4322D01*
X3012Y4312D01*
X3010Y4300D01*
X3012Y4288D01*
X3016Y4278D01*
X3023Y4268D01*
X3033Y4261D01*
X3043Y4257D01*
X3055Y4255D01*
X3067Y4257D01*
X3077Y4261D01*
X3087Y4268D01*
X3094Y4278D01*
X3098Y4288D01*
X3100Y4300D01*
X3098Y4312D01*
X3094Y4322D01*
X3087Y4332D01*
X3077Y4339D01*
X3067Y4343D01*
X3055Y4345D01*
D02*
G37*
G36*
X2955D02*
X2943Y4343D01*
X2933Y4339D01*
X2923Y4332D01*
X2916Y4322D01*
X2912Y4312D01*
X2910Y4300D01*
X2912Y4288D01*
X2916Y4278D01*
X2923Y4268D01*
X2933Y4261D01*
X2943Y4257D01*
X2955Y4255D01*
X2967Y4257D01*
X2977Y4261D01*
X2987Y4268D01*
X2994Y4278D01*
X2998Y4288D01*
X3000Y4300D01*
X2998Y4312D01*
X2994Y4322D01*
X2987Y4332D01*
X2977Y4339D01*
X2967Y4343D01*
X2955Y4345D01*
D02*
G37*
G36*
X3350Y4295D02*
X3313D01*
X3314Y4289D01*
X3318Y4279D01*
X3325Y4270D01*
X3334Y4263D01*
X3344Y4259D01*
X3350Y4258D01*
Y4295D01*
D02*
G37*
G36*
X2299Y4345D02*
X2211D01*
Y4255D01*
X2299D01*
Y4345D01*
D02*
G37*
G36*
X3255Y4345D02*
X3243Y4343D01*
X3233Y4339D01*
X3223Y4332D01*
X3216Y4322D01*
X3212Y4312D01*
X3210Y4300D01*
X3212Y4288D01*
X3216Y4278D01*
X3223Y4268D01*
X3233Y4261D01*
X3243Y4257D01*
X3255Y4255D01*
X3267Y4257D01*
X3277Y4261D01*
X3287Y4268D01*
X3294Y4278D01*
X3298Y4288D01*
X3300Y4300D01*
X3298Y4312D01*
X3294Y4322D01*
X3287Y4332D01*
X3277Y4339D01*
X3267Y4343D01*
X3255Y4345D01*
D02*
G37*
%LPD*%
D10*
X5298Y1010D02*
D03*
X5372D02*
D03*
X1257Y1230D02*
D03*
X1183D02*
D03*
X3617Y5425D02*
D03*
X3543D02*
D03*
X1913Y5390D02*
D03*
X1987D02*
D03*
X2358Y5435D02*
D03*
X2432D02*
D03*
X3993Y2785D02*
D03*
X4067D02*
D03*
X3487Y1865D02*
D03*
X3413D02*
D03*
X3947Y5330D02*
D03*
X3873D02*
D03*
X3332Y5325D02*
D03*
X3258D02*
D03*
X3017Y2730D02*
D03*
X2943D02*
D03*
X2223Y4615D02*
D03*
X2297D02*
D03*
X4617Y5365D02*
D03*
X4543D02*
D03*
X1893Y3460D02*
D03*
X1967D02*
D03*
X4672Y1380D02*
D03*
X4598D02*
D03*
X4772Y1650D02*
D03*
X4698D02*
D03*
X4058Y3230D02*
D03*
X4132D02*
D03*
X4703Y2335D02*
D03*
X4777D02*
D03*
X3327Y2725D02*
D03*
X3253D02*
D03*
X2272Y2115D02*
D03*
X2198D02*
D03*
D11*
X2020Y5102D02*
D03*
Y5028D02*
D03*
X2560Y5193D02*
D03*
Y5267D02*
D03*
X3385Y5097D02*
D03*
Y5023D02*
D03*
X3025Y1167D02*
D03*
Y1093D02*
D03*
D12*
X4840Y3140D02*
X5005D01*
X4545Y3745D02*
X4695Y3895D01*
X4875D01*
X4985Y3495D02*
X5215D01*
X4890Y3400D02*
X4985Y3495D01*
X4840Y3400D02*
X4890D01*
X5310Y4490D02*
X5400Y4580D01*
X3940Y4490D02*
X5310D01*
X4521Y4570D02*
X4531Y4580D01*
X3840Y4570D02*
X4521D01*
X3740Y3645D02*
Y3710D01*
Y3645D02*
X3791Y3594D01*
X4390D01*
X4680Y3140D02*
X4840D01*
X4585Y3045D02*
X4680Y3140D01*
X3870Y3045D02*
X4585D01*
X3840Y3075D02*
X3870Y3045D01*
X3840Y3075D02*
Y3110D01*
X4745Y3400D02*
X4840D01*
X4670Y3325D02*
X4745Y3400D01*
X4390Y3325D02*
X4670D01*
X4375Y3340D02*
X4390Y3325D01*
X3830Y3340D02*
X4375D01*
X3740Y3250D02*
X3830Y3340D01*
X3740Y3110D02*
Y3250D01*
X5225Y1141D02*
X5385D01*
X5020D02*
X5225D01*
X5015Y1136D02*
X5020Y1141D01*
X4830Y1136D02*
X5015D01*
X4806Y1160D02*
X4830Y1136D01*
X4645Y1160D02*
X4806D01*
X4591Y1106D02*
X4645Y1160D01*
X4575Y1106D02*
X4591D01*
X4700Y1408D02*
Y1505D01*
X4672Y1380D02*
X4700Y1408D01*
X4575Y1403D02*
Y1500D01*
Y1403D02*
X4598Y1380D01*
X4370Y1930D02*
X4425Y1985D01*
X4040Y1930D02*
X4370D01*
X4777Y2335D02*
Y2383D01*
X4735Y2425D02*
X4777Y2383D01*
X4703Y2335D02*
X4703Y2335D01*
X4565Y2335D02*
X4703D01*
X4500Y2270D02*
X4565Y2335D01*
X3770Y2270D02*
X4500D01*
X5385Y1023D02*
Y1141D01*
X5372Y1010D02*
X5385Y1023D01*
X5947Y1262D02*
X5950Y1265D01*
X5690Y1262D02*
X5947D01*
X5895Y1520D02*
X5950Y1575D01*
X5485Y1520D02*
X5895D01*
X4772Y1650D02*
X4777Y1645D01*
X4925D01*
X4105Y1845D02*
X5425D01*
X3840Y1580D02*
X4105Y1845D01*
X5425Y1645D02*
Y1720D01*
X5330Y1815D02*
X5425Y1720D01*
X4255Y1815D02*
X5330D01*
X3970Y1530D02*
X4255Y1815D01*
X3800Y1530D02*
X3970D01*
X3740Y1470D02*
X3800Y1530D01*
X3740Y1425D02*
Y1470D01*
X5425Y1845D02*
X5525Y1945D01*
X3105Y2975D02*
X3240Y3110D01*
X1860Y2975D02*
X3105D01*
X1795Y2910D02*
X1860Y2975D01*
X1755Y2910D02*
X1795D01*
X3340Y1865D02*
X3413D01*
X3519Y1110D02*
X3671Y1262D01*
X3970D01*
X3108Y1093D02*
X3125Y1110D01*
X3025Y1093D02*
X3108D01*
X3039Y1167D02*
X3116Y1245D01*
X3025Y1167D02*
X3039D01*
X1995Y1255D02*
X2995D01*
X3055Y1315D01*
X1860Y1295D02*
X2945D01*
X3000Y1350D01*
X3880D02*
X3940Y1410D01*
X3000Y1350D02*
X3880D01*
X4025Y1425D02*
X4040D01*
X3915Y1315D02*
X4025Y1425D01*
X3055Y1315D02*
X3915D01*
X3940Y1410D02*
Y1425D01*
X2255Y1970D02*
X3285D01*
X3340Y2025D01*
X1760Y2980D02*
X1800D01*
X1825Y3005D01*
X3035D01*
X3140Y3110D01*
X1790Y3030D02*
X2975D01*
X3040Y3095D01*
Y3110D01*
X1815Y3235D02*
X1995D01*
X2025Y3205D01*
X2845D01*
X2940Y3110D01*
X3881Y2785D02*
X3993D01*
X4023Y2548D02*
X4060D01*
X3910Y2435D02*
X4023Y2548D01*
X3685Y2435D02*
X3910D01*
X3640Y2480D02*
X3685Y2435D01*
X3585Y2480D02*
X3640D01*
X3704Y2530D02*
X3740Y2494D01*
X3524Y2530D02*
X3704D01*
X3475Y2579D02*
X3524Y2530D01*
X3633Y2579D02*
X3740Y2686D01*
X3585Y2579D02*
X3633D01*
X3475Y2185D02*
X3585D01*
X3350D02*
X3475D01*
X3240Y2075D02*
X3350Y2185D01*
X3240Y2025D02*
Y2075D01*
X3700Y3475D02*
X4705D01*
X3340Y3115D02*
X3700Y3475D01*
X3340Y3110D02*
Y3115D01*
X4630Y3445D02*
X4645Y3430D01*
X3720Y3445D02*
X4630D01*
X3440Y3165D02*
X3720Y3445D01*
X3440Y3110D02*
Y3165D01*
X4575Y3415D02*
X4605Y3385D01*
X3725Y3415D02*
X4575D01*
X3540Y3230D02*
X3725Y3415D01*
X3540Y3110D02*
Y3230D01*
X3735Y3375D02*
X4455D01*
X3640Y3280D02*
X3735Y3375D01*
X3640Y3110D02*
Y3280D01*
X4080Y2175D02*
X4105Y2150D01*
X4115Y2100D02*
X4160Y2145D01*
X3950Y2100D02*
X4115D01*
X3935Y2115D02*
X3950Y2100D01*
X3840Y2025D02*
Y2065D01*
X3890Y2115D01*
X3935D01*
X3630Y2130D02*
X3770Y2270D01*
X3600Y2130D02*
X3630D01*
X3555Y2085D02*
X3600Y2130D01*
X3505Y2085D02*
X3555D01*
X3445Y2025D02*
X3505Y2085D01*
X3440Y2025D02*
X3445D01*
X5030Y2235D02*
X5055Y2260D01*
X5240Y2170D02*
X5420D01*
X5215Y2145D02*
X5240Y2170D01*
X4200Y2115D02*
X5250D01*
X4140Y2055D02*
X4200Y2115D01*
X4160Y2145D02*
X5215D01*
X3880Y2175D02*
X4080D01*
X3740Y2035D02*
X3880Y2175D01*
X3820Y2205D02*
X5110D01*
X3640Y2025D02*
X3820Y2205D01*
X3800Y2235D02*
X5030D01*
X3665Y2100D02*
X3800Y2235D01*
X4140Y2025D02*
Y2055D01*
X3630Y2100D02*
X3665D01*
X3555Y2025D02*
X3630Y2100D01*
X3540Y2025D02*
X3555D01*
X3740D02*
Y2035D01*
X3090Y3350D02*
X3185D01*
X3045Y3305D02*
X3090Y3350D01*
X2315Y3305D02*
X3045D01*
X3155Y2330D02*
X3940D01*
X3140Y2315D02*
X3155Y2330D01*
X3140Y2260D02*
Y2315D01*
X3525Y1805D02*
X3640Y1690D01*
X2940Y1805D02*
X3525D01*
X2905Y1840D02*
X2940Y1805D01*
X2240Y1840D02*
X2905D01*
X3270Y1770D02*
X3425Y1615D01*
X2930Y1770D02*
X3270D01*
X2900Y1800D02*
X2930Y1770D01*
X2890Y1800D02*
X2900D01*
X3230Y1730D02*
X3340Y1620D01*
X2925Y1730D02*
X3230D01*
X2895Y1760D02*
X2925Y1730D01*
X2790Y1760D02*
X2895D01*
X3190Y1695D02*
X3240Y1645D01*
X2915Y1695D02*
X3190D01*
X2895Y1715D02*
X2915Y1695D01*
X2710Y1715D02*
X2895D01*
X2690Y1735D02*
X2710Y1715D01*
X2910Y1645D02*
X3140D01*
X2870Y1685D02*
X2910Y1645D01*
X2590Y1685D02*
X2870D01*
X3275Y1550D02*
X3535D01*
X3215Y1610D02*
X3275Y1550D01*
X2895Y1610D02*
X3215D01*
X2860Y1645D02*
X2895Y1610D01*
X2435Y1645D02*
X2860D01*
X2955Y1510D02*
X3040Y1425D01*
X2760Y1510D02*
X2955D01*
X2705Y1565D02*
X2760Y1510D01*
X2860Y1485D02*
X2920Y1425D01*
X2700Y1485D02*
X2860D01*
X2655Y1530D02*
X2700Y1485D01*
X2745Y1605D02*
X2750D01*
X2820Y1535D01*
X2990D01*
X2510Y1565D02*
X2705D01*
X2495Y1580D02*
X2510Y1565D01*
X2390Y1555D02*
X2415Y1530D01*
X2655D01*
X2920Y1425D02*
X2940D01*
X2840Y1580D02*
X2995D01*
X3005Y1570D01*
X3190D01*
X2540Y3660D02*
Y3710D01*
X1950Y3625D02*
X2505D01*
X2540Y3660D01*
X2180Y3855D02*
X2375D01*
X2440Y3790D01*
Y3710D02*
Y3790D01*
X3040Y3635D02*
Y3710D01*
X2985Y3580D02*
X3040Y3635D01*
X2840Y3580D02*
X2985D01*
X3140Y3630D02*
Y3710D01*
X3060Y3550D02*
X3140Y3630D01*
X2875Y3550D02*
X3060D01*
X2740Y3540D02*
X2865D01*
X2875Y3550D01*
X3240Y3660D02*
Y3710D01*
X3095Y3515D02*
X3240Y3660D01*
X2870Y3515D02*
X3095D01*
X2850Y3495D02*
X2870Y3515D01*
X2695Y3495D02*
X2850D01*
X2670Y3520D02*
X2695Y3495D01*
X2600Y3520D02*
X2670D01*
X3340Y3665D02*
Y3710D01*
X3155Y3480D02*
X3340Y3665D01*
X2895Y3480D02*
X3155D01*
X2880Y3465D02*
X2895Y3480D01*
X2520Y3465D02*
X2880D01*
X2490Y3495D02*
X2520Y3465D01*
X3185Y3455D02*
X3440Y3710D01*
X2915Y3455D02*
X3185D01*
X2895Y3435D02*
X2915Y3455D01*
X2430Y3435D02*
X2895D01*
X2390Y3475D02*
X2430Y3435D01*
X2340Y2260D02*
Y2270D01*
X2270Y2340D02*
X2340Y2270D01*
X2130Y2340D02*
X2270D01*
X3260Y3430D02*
X3540Y3710D01*
X2945Y3430D02*
X3260D01*
X2915Y3400D02*
X2945Y3430D01*
X2380Y3400D02*
X2915D01*
X2315Y3465D02*
X2380Y3400D01*
X2160Y3465D02*
X2315D01*
X2145Y3450D02*
X2160Y3465D01*
X3325Y3395D02*
X3640Y3710D01*
X2945Y3395D02*
X3325D01*
X2910Y3360D02*
X2945Y3395D01*
X2305Y3360D02*
X2910D01*
X2245Y3420D02*
X2305Y3360D01*
X2775Y3790D02*
X2990D01*
X2740Y3755D02*
X2775Y3790D01*
X2740Y3710D02*
Y3755D01*
X3090Y1930D02*
X4040D01*
X3040Y2025D02*
X3140D01*
Y2005D02*
Y2025D01*
X2840Y3690D02*
Y3710D01*
X2770Y3620D02*
X2840Y3690D01*
X2575Y3620D02*
X2770D01*
X2535Y3580D02*
X2575Y3620D01*
X1995Y3580D02*
X2535D01*
X1895Y3550D02*
X1965D01*
X1995Y3580D01*
X2185Y1430D02*
X2280Y1335D01*
X2600D01*
X2640Y1375D01*
Y1425D01*
X2075Y1790D02*
X2255Y1970D01*
X2075Y1720D02*
Y1790D01*
X2030Y1675D02*
X2075Y1720D01*
X1960Y1675D02*
X2030D01*
X1777Y1575D02*
X1960D01*
X1770Y1568D02*
X1777Y1575D01*
X1705Y1633D02*
X1770Y1568D01*
X1568Y1633D02*
X1705D01*
X1521Y1680D02*
X1568Y1633D01*
X1490Y1680D02*
X1521D01*
X1770Y1922D02*
X1770Y1922D01*
X1635Y1922D02*
X1770D01*
X3253Y2725D02*
Y2847D01*
X3240Y2860D02*
X3505D01*
X3555Y2810D01*
X3655D01*
X3700Y2855D01*
X4290D01*
X4330Y2895D01*
X4890D01*
X4960Y2965D01*
X5305D01*
X4050Y5050D02*
X5430D01*
X2780Y5090D02*
X2995Y4875D01*
X5195D01*
X5290Y4780D01*
X5670D01*
X5676Y2690D02*
X5800D01*
X5885D01*
X5920Y2725D01*
X5560Y3535D02*
Y3555D01*
X5464Y3651D02*
X5560Y3555D01*
X5333Y3651D02*
X5464D01*
X4522Y5386D02*
X4543Y5365D01*
X4522Y5386D02*
Y5481D01*
X3763Y5325D02*
X3868D01*
X3873Y5330D01*
X2403Y5325D02*
X2502D01*
X2560Y5267D01*
X2079Y5325D02*
Y5346D01*
X2035Y5390D02*
X2079Y5346D01*
X1987Y5390D02*
X2035D01*
X2025Y5107D02*
Y5213D01*
X2020Y5102D02*
X2025Y5107D01*
X3332Y5325D02*
X3439D01*
X3385Y5097D02*
Y5213D01*
X4175Y3745D02*
X4545D01*
X4140Y3710D02*
X4175Y3745D01*
X1885Y3468D02*
X1893Y3460D01*
X1885Y3468D02*
Y3555D01*
Y3560D01*
X1895Y3550D01*
X5895Y3495D02*
X6045D01*
X6045Y3495D01*
D13*
X1625Y1185D02*
X2105D01*
X2535D01*
X2070Y2020D02*
X2335D01*
X2340Y2025D01*
X1093Y1979D02*
X1395D01*
X1490Y2074D01*
X1185Y1335D02*
X1351D01*
X1406Y1390D01*
X1385Y1185D02*
X1425D01*
X1340Y1230D02*
X1385Y1185D01*
X1257Y1230D02*
X1340D01*
X1575Y2730D02*
X2943D01*
X1575Y3165D02*
X1881D01*
X1885Y3161D01*
X2940Y2860D02*
Y2885D01*
X2985Y2930D01*
X3380Y1000D02*
X3420Y1040D01*
X2535Y1000D02*
X3380D01*
X1635Y1390D02*
X1800D01*
X2272Y2083D02*
Y2115D01*
Y2083D02*
X2335Y2020D01*
X2940Y2733D02*
Y2860D01*
Y2733D02*
X2943Y2730D01*
X2985Y2930D02*
X3865D01*
X3930Y2995D01*
X4090D01*
X4140Y2945D01*
X4300D01*
X4629Y2760D02*
X4940D01*
X5105D01*
X5245D01*
X5415D01*
Y2550D02*
X5625D01*
X5760D01*
X5560Y3141D02*
X5616Y3085D01*
X5675D01*
X5735Y3145D01*
X5894D02*
X5920Y3119D01*
X4939Y3745D02*
X5345D01*
X5495Y3895D01*
X4925Y4580D02*
X5006D01*
X5006Y4580D01*
X1406Y1204D02*
X1425Y1185D01*
X1406Y1204D02*
Y1390D01*
X2297Y4615D02*
X2337Y4655D01*
X4850D02*
X4925Y4580D01*
X2297Y4615D02*
X2355Y4557D01*
Y4500D02*
Y4557D01*
X2358Y5435D02*
Y5488D01*
X2390Y5520D01*
X2910D01*
X2337Y4655D02*
X2910D01*
X4850D01*
X2910Y5520D02*
X3590D01*
X3617Y5493D01*
Y5425D02*
Y5493D01*
Y5425D02*
X3655Y5387D01*
Y5325D02*
Y5387D01*
X2295Y5325D02*
Y5372D01*
X2358Y5435D01*
X4132Y3230D02*
X4360D01*
X4390Y3200D01*
X4140Y3110D02*
Y3222D01*
X4132Y3230D02*
X4140Y3222D01*
X4925Y1400D02*
X5825D01*
X5795Y3145D02*
Y3495D01*
X5735Y3145D02*
X5795D01*
X5894D01*
X4565Y2824D02*
X4629Y2760D01*
X4555Y2834D02*
X4565Y2824D01*
X4425Y2834D02*
X4555D01*
D14*
X1425Y1185D02*
D03*
D15*
X1525D02*
D03*
X1625D02*
D03*
X4840Y3140D02*
D03*
Y3040D02*
D03*
Y3400D02*
D03*
Y3500D02*
D03*
X5795Y3495D02*
D03*
X5895D02*
D03*
X4875Y3895D02*
D03*
X4975D02*
D03*
D16*
X1130Y1525D02*
D03*
D17*
X1268D02*
D03*
D18*
X1093Y2160D02*
D03*
Y1979D02*
D03*
D19*
X1240Y2770D02*
D03*
D20*
X1360Y2955D02*
D03*
D21*
X1120D02*
D03*
D22*
X1202Y3747D02*
D03*
Y3273D02*
D03*
D23*
X1309Y3461D02*
D03*
X1388D02*
D03*
Y3559D02*
D03*
X1309D02*
D03*
D24*
X1770Y1568D02*
D03*
X1635Y1922D02*
D03*
D25*
X1770Y1922D02*
D03*
X1635Y1568D02*
D03*
D26*
X3585Y2579D02*
D03*
X3585Y2185D02*
D03*
X5238Y5220D02*
D03*
X5592D02*
D03*
X4443Y5225D02*
D03*
X4797D02*
D03*
X4425Y2834D02*
D03*
X4425Y2440D02*
D03*
X4001Y2940D02*
D03*
X4395Y2940D02*
D03*
X4565Y2824D02*
D03*
X4565Y2430D02*
D03*
X4171Y2335D02*
D03*
X4565Y2335D02*
D03*
X5415Y2366D02*
D03*
X5415Y2760D02*
D03*
X5245Y2366D02*
D03*
X5245Y2760D02*
D03*
X5625Y2156D02*
D03*
X5625Y2550D02*
D03*
X5760Y2156D02*
D03*
X5760Y2550D02*
D03*
X5105Y2366D02*
D03*
X5105Y2760D02*
D03*
X4940Y2366D02*
D03*
X4940Y2760D02*
D03*
X3740Y2686D02*
D03*
X3475Y2579D02*
D03*
X3475Y2185D02*
D03*
X5560Y3141D02*
D03*
X5560Y3535D02*
D03*
X5006Y4580D02*
D03*
X5400Y4580D02*
D03*
X4390Y3594D02*
D03*
X4390Y3200D02*
D03*
X4531Y4580D02*
D03*
X4925Y4580D02*
D03*
X1885Y3161D02*
D03*
X1885Y3555D02*
D03*
X1406Y1390D02*
D03*
X1800Y1390D02*
D03*
X3881Y2785D02*
D03*
X4275Y2785D02*
D03*
X1490Y2074D02*
D03*
X1490Y1680D02*
D03*
X4260Y2548D02*
D03*
X4160D02*
D03*
X4060D02*
D03*
X5006Y2895D02*
D03*
X5400Y2895D02*
D03*
X5015Y1136D02*
D03*
X5015Y1530D02*
D03*
X5225Y1141D02*
D03*
X5225Y1535D02*
D03*
X5385Y1141D02*
D03*
X5385Y1535D02*
D03*
X4830Y1136D02*
D03*
X4830Y1530D02*
D03*
X5675Y2691D02*
D03*
X5675Y3085D02*
D03*
X5800Y3084D02*
D03*
X5800Y2690D02*
D03*
X4575Y1106D02*
D03*
X4575Y1500D02*
D03*
X4700Y1111D02*
D03*
X4700Y1505D02*
D03*
X3116Y1245D02*
D03*
X3510Y1245D02*
D03*
X3519Y1110D02*
D03*
X3125Y1110D02*
D03*
X5058Y3395D02*
D03*
X5412D02*
D03*
X5920Y3119D02*
D03*
X5920Y2725D02*
D03*
X6045Y3495D02*
D03*
Y3195D02*
D03*
X5101Y3895D02*
D03*
X5495Y3895D02*
D03*
X4939Y3745D02*
D03*
X4545Y3745D02*
D03*
D27*
X5317Y4964D02*
D03*
Y5476D02*
D03*
X5513Y4964D02*
D03*
Y5476D02*
D03*
X4522Y4969D02*
D03*
Y5481D02*
D03*
X4718Y4969D02*
D03*
Y5481D02*
D03*
X5137Y3139D02*
D03*
Y3651D02*
D03*
X5333Y3139D02*
D03*
Y3651D02*
D03*
D28*
X2255Y4300D02*
D03*
D29*
X2355D02*
D03*
X2455D02*
D03*
X2555D02*
D03*
X2655D02*
D03*
X2755D02*
D03*
X2855D02*
D03*
X2955D02*
D03*
X3055D02*
D03*
X3155D02*
D03*
X3255D02*
D03*
X3355D02*
D03*
Y4500D02*
D03*
X3255D02*
D03*
X3155D02*
D03*
X3055D02*
D03*
X2955D02*
D03*
X2855D02*
D03*
X2755D02*
D03*
X2655D02*
D03*
X2555D02*
D03*
X2455D02*
D03*
X2355D02*
D03*
X2255D02*
D03*
X3140Y2860D02*
D03*
X3040D02*
D03*
X2940D02*
D03*
X2840D02*
D03*
X2740D02*
D03*
X2640D02*
D03*
X2540D02*
D03*
X2440D02*
D03*
X2340D02*
D03*
X2240D02*
D03*
X2140D02*
D03*
X2040D02*
D03*
X1940D02*
D03*
Y2260D02*
D03*
X2040D02*
D03*
X2140D02*
D03*
X2240D02*
D03*
X2340D02*
D03*
X2440D02*
D03*
X2540D02*
D03*
X2640D02*
D03*
X2740D02*
D03*
X2840D02*
D03*
X2940D02*
D03*
X3040D02*
D03*
X3140D02*
D03*
X3240D02*
D03*
X2340Y3110D02*
D03*
X2440D02*
D03*
X2540D02*
D03*
X2640D02*
D03*
X2740D02*
D03*
X2840D02*
D03*
X2940D02*
D03*
X3040D02*
D03*
X3140D02*
D03*
X3240D02*
D03*
X3340D02*
D03*
X3440D02*
D03*
X3540D02*
D03*
X3640D02*
D03*
X3740D02*
D03*
X3840D02*
D03*
X3940D02*
D03*
X4040D02*
D03*
X4140D02*
D03*
Y3710D02*
D03*
X4040D02*
D03*
X3940D02*
D03*
X3840D02*
D03*
X3740D02*
D03*
X3640D02*
D03*
X3540D02*
D03*
X3440D02*
D03*
X3340D02*
D03*
X3240D02*
D03*
X3140D02*
D03*
X3040D02*
D03*
X2940D02*
D03*
X2840D02*
D03*
X2740D02*
D03*
X2640D02*
D03*
X2540D02*
D03*
X2440D02*
D03*
X2340D02*
D03*
X2240D02*
D03*
X4240Y1425D02*
D03*
X4140D02*
D03*
X4040D02*
D03*
X3940D02*
D03*
X3840D02*
D03*
X3740D02*
D03*
X3640D02*
D03*
X3540D02*
D03*
X3440D02*
D03*
X3340D02*
D03*
X3240D02*
D03*
X3140D02*
D03*
X3040D02*
D03*
X2940D02*
D03*
X2840D02*
D03*
X2740D02*
D03*
X2640D02*
D03*
X2540D02*
D03*
X2440D02*
D03*
X2340D02*
D03*
Y2025D02*
D03*
X2440D02*
D03*
X2540D02*
D03*
X2640D02*
D03*
X2740D02*
D03*
X2840D02*
D03*
X2940D02*
D03*
X3040D02*
D03*
X3140D02*
D03*
X3240D02*
D03*
X3340D02*
D03*
X3440D02*
D03*
X3540D02*
D03*
X3640D02*
D03*
X3740D02*
D03*
X3840D02*
D03*
X3940D02*
D03*
X4040D02*
D03*
X4140D02*
D03*
X5625Y1645D02*
D03*
Y1945D02*
D03*
X5525D02*
D03*
X5425D02*
D03*
X5325D02*
D03*
X5225D02*
D03*
X5125D02*
D03*
X5525Y1645D02*
D03*
X5425D02*
D03*
X5325D02*
D03*
X5225D02*
D03*
X5125D02*
D03*
X5025D02*
D03*
Y1945D02*
D03*
X4925D02*
D03*
D30*
X3109Y5268D02*
D03*
X4093D02*
D03*
X1749D02*
D03*
X2733D02*
D03*
D31*
X3709Y5213D02*
D03*
X3601D02*
D03*
X3493D02*
D03*
X3385D02*
D03*
X3439Y5325D02*
D03*
X3547D02*
D03*
X3655D02*
D03*
X3763D02*
D03*
X2349Y5213D02*
D03*
X2241D02*
D03*
X2133D02*
D03*
X2025D02*
D03*
X2079Y5325D02*
D03*
X2187D02*
D03*
X2295D02*
D03*
X2403D02*
D03*
D32*
X3817Y5213D02*
D03*
X2457D02*
D03*
D33*
X3740Y2494D02*
D03*
D34*
X3240Y2860D02*
D03*
X2240Y3110D02*
D03*
X4240Y2025D02*
D03*
X4925Y1645D02*
D03*
D35*
X1960Y1575D02*
D03*
X1960Y1675D02*
D03*
Y1775D02*
D03*
D36*
X3970Y1262D02*
D03*
X5690D02*
D03*
D37*
X3970Y1085D02*
D03*
X5690D02*
D03*
D38*
X1150Y1030D02*
D03*
Y5490D02*
D03*
X6200Y1030D02*
D03*
Y5490D02*
D03*
D39*
X5950Y1575D02*
D03*
Y1675D02*
D03*
Y1475D02*
D03*
D40*
X5005Y3140D02*
D03*
X5215Y3495D02*
D03*
X3940Y4490D02*
D03*
X3840Y4570D02*
D03*
X4425Y1985D02*
D03*
X4735Y2425D02*
D03*
X5950Y1265D02*
D03*
X5485Y1520D02*
D03*
X3840Y1580D02*
D03*
X1860Y1295D02*
D03*
X1995Y1255D02*
D03*
X1755Y2910D02*
D03*
X3340Y1865D02*
D03*
X1760Y2980D02*
D03*
X1815Y3235D02*
D03*
X1790Y3030D02*
D03*
X3585Y2480D02*
D03*
X4705Y3475D02*
D03*
X4645Y3430D02*
D03*
X4605Y3385D02*
D03*
X4455Y3375D02*
D03*
X4105Y2150D02*
D03*
X5055Y2260D02*
D03*
X5110Y2205D02*
D03*
X5420Y2170D02*
D03*
X5250Y2115D02*
D03*
X4040Y1930D02*
D03*
X3185Y3350D02*
D03*
X2315Y3305D02*
D03*
X3940Y2330D02*
D03*
X3640Y1690D02*
D03*
X2240Y1840D02*
D03*
X3425Y1615D02*
D03*
X2890Y1800D02*
D03*
X3340Y1620D02*
D03*
X2790Y1760D02*
D03*
X3240Y1645D02*
D03*
X2690Y1735D02*
D03*
X3140Y1645D02*
D03*
X2590Y1685D02*
D03*
X3535Y1550D02*
D03*
X2435Y1645D02*
D03*
X2745Y1605D02*
D03*
X2495Y1580D02*
D03*
X2390Y1555D02*
D03*
X2840Y1580D02*
D03*
X3190Y1570D02*
D03*
X2990Y1535D02*
D03*
X1950Y3625D02*
D03*
X2180Y3855D02*
D03*
X2840Y3580D02*
D03*
X2740Y3540D02*
D03*
X2600Y3520D02*
D03*
X2490Y3495D02*
D03*
X2390Y3475D02*
D03*
X2130Y2340D02*
D03*
X2245Y3420D02*
D03*
X2145Y3450D02*
D03*
X2990Y3790D02*
D03*
X3090Y1930D02*
D03*
X2535Y1185D02*
D03*
X2185Y1430D02*
D03*
X2105Y1185D02*
D03*
X2070Y2020D02*
D03*
X2095Y2120D02*
D03*
X1185Y1335D02*
D03*
X1090Y1225D02*
D03*
X1575Y3165D02*
D03*
Y2730D02*
D03*
X4140Y2945D02*
D03*
X2535Y1000D02*
D03*
X3115Y2730D02*
D03*
X3400Y2725D02*
D03*
X3970Y3230D02*
D03*
X1895Y3370D02*
D03*
X2110Y5020D02*
D03*
X1835Y5455D02*
D03*
X2520Y5440D02*
D03*
X2630Y5110D02*
D03*
X3385Y4945D02*
D03*
X3240Y5415D02*
D03*
X3470Y5425D02*
D03*
X3950Y5245D02*
D03*
X4705Y5365D02*
D03*
X1635Y1390D02*
D03*
X1775Y995D02*
D03*
X5215Y1010D02*
D03*
X4625Y1650D02*
D03*
X3630Y2850D02*
D03*
X4150Y2780D02*
D03*
X5305Y2965D02*
D03*
X4300Y2945D02*
D03*
X5415Y2550D02*
D03*
X4050Y5050D02*
D03*
X5430D02*
D03*
X2780Y5090D02*
D03*
X5670Y4780D02*
D03*
X2910Y5520D02*
D03*
Y4655D02*
D03*
X4925Y1400D02*
D03*
X5825D02*
D03*
D41*
X3420Y1040D02*
D03*
M02*
